<svg width="47" height="40" viewBox="0 0 47 40" fill="none" xmlns="http://www.w3.org/2000/svg">
<g clip-path="url(#clip0_11864_3725)">
<path d="M35.1139 0.522127C35.2724 0.495176 35.761 0.500479 35.761 0.500479C35.8667 8.50908 36.0444 16.5133 36.1501 24.5216C33.2656 24.5724 30.3937 24.8638 27.5472 25.3286C27.4714 18.9008 27.2976 12.4773 27.2344 6.04948C28.6133 4.81129 29.9117 3.48429 31.3242 2.28409C32.3308 1.33308 33.1009 1.23125 34.3449 0.747677C34.5342 0.674114 35.0212 0.537811 35.1139 0.522127Z" fill="#64B053"/>
<path d="M39.2797 0.500511H41.7919C42.0329 1.3245 42.0838 2.1909 41.826 3.01931C40.2397 9.22728 38.7889 15.4777 36.9873 21.6309C36.9915 14.6367 37.4144 7.52806 37.5159 0.529673C38.1279 0.508024 38.6919 0.538507 39.2797 0.500511Z" fill="#64B053"/>
<path d="M15.773 18.4318C19.1184 14.5989 22.4007 10.7025 26.1054 7.20726C26.0123 13.3353 26.0293 19.4672 25.9617 25.5992C24.6588 25.836 23.369 26.1232 22.079 26.4234C22.1382 21.6944 22.2185 16.9655 22.1382 12.2365C21.4743 17.0247 21.5926 21.8762 21.0556 26.6768C18.1331 27.4462 15.2611 28.414 12.4907 29.614C12.8082 26.9854 12.7361 24.3186 13.1042 21.7028C13.802 20.473 14.8762 19.5136 15.773 18.4318Z" fill="#64B053"/>
<path d="M0.26709 37.4702C3.74388 33.3624 7.05973 29.1322 10.4306 24.9443C10.6674 26.719 10.8284 28.5024 10.976 30.286C7.0385 32.0778 3.49848 34.6134 0.26709 37.4702Z" fill="#64B053"/>
<path d="M27.5474 25.3288C30.3939 24.864 33.2656 24.5724 36.1501 24.5218C35.2494 26.4362 34.2766 28.4308 32.5424 29.7366C28.8416 32.5892 24.2822 33.967 19.8074 35.0572C13.7085 36.7772 7.37289 37.1958 1.1259 38.0198C0.821461 37.9816 0.212371 37.9098 -0.0922852 37.8718L0.2672 37.4704C3.49881 34.6136 7.03861 32.078 10.9764 30.286C11.4756 30.0536 11.9832 29.8296 12.4906 29.614C15.2608 28.414 18.1327 27.4462 21.0552 26.677C21.3132 26.6136 21.8248 26.4868 22.0789 26.4234C23.3689 26.1234 24.6587 25.836 25.9613 25.5994C26.3547 25.5318 27.1499 25.3966 27.5474 25.3288Z" fill="#004F8B"/>
<path d="M36.1506 24.5216C39.9064 24.5258 43.6198 25.0752 47.3037 25.7472V25.8824C43.5311 28.5532 39.6062 31.0424 35.3766 32.9314C24.7015 37.6729 12.7195 39.4479 1.12646 38.0198C7.37346 37.1956 13.7091 36.7772 19.808 35.0569C24.2828 33.9668 28.8422 32.5892 32.543 29.7364C34.2769 28.4306 35.2499 26.436 36.1506 24.5216Z" fill="#4BBEED"/>
</g>
<defs>
<clipPath id="clip0_11864_3725">
<rect width="47" height="40" fill="white"/>
</clipPath>
</defs>
</svg>
