<svg width="42" height="37" viewBox="0 0 42 37" fill="none" xmlns="http://www.w3.org/2000/svg">
<path fill-rule="evenodd" clip-rule="evenodd" d="M40.0443 36.3043L29.0877 28.6738C29.2834 28.0868 29.479 27.6955 29.6747 27.1086C30.653 24.3694 31.6312 21.6303 32.8052 19.0868C34.9573 14.3912 37.1095 9.69549 39.2617 5.19547C39.653 4.41286 39.8486 3.63025 40.2399 3.04329C40.0443 3.23895 40.0443 3.23895 39.8486 3.4346C39.2617 4.41286 38.6747 5.58678 38.0878 6.56504C36.7182 8.91288 35.3486 11.2607 33.9791 13.6085C32.8051 15.5651 31.8269 17.5216 30.653 19.4781L26.5442 26.9129L8.5442 22.8042C6.19637 22.2173 3.84856 21.826 1.50072 21.239C0.913766 21.0433 0.522461 20.8477 0.522461 20.2607C0.522461 19.6738 0.913754 19.4781 1.30506 19.2825L40.6313 1.08677C40.8269 1.08677 41.0225 0.891113 41.2182 0.891113C41.2182 1.08677 41.2182 1.28242 41.2182 1.47807C41.2182 12.6303 41.2182 23.9781 41.2182 35.1303C41.2182 35.7173 41.0226 36.1086 40.6313 36.4999L40.0443 36.3043Z" fill="#FEC70A"/>
</svg>
