<svg width="32" height="32" viewBox="0 0 32 32" fill="none" xmlns="http://www.w3.org/2000/svg">
<path d="M22.8977 11.5514C24.9555 13.0276 27.4764 13.8962 30.1991 13.8962V8.63823C29.6838 8.63834 29.1699 8.58442 28.6658 8.47723V12.616C25.9433 12.616 23.4227 11.7474 21.3644 10.2713V21.0012C21.3644 26.3689 17.0285 30.72 11.6802 30.72C9.68464 30.72 7.82984 30.1145 6.28906 29.0761C8.04761 30.8806 10.5 32.0001 13.2132 32.0001C18.5618 32.0001 22.8979 27.649 22.8979 22.2811V11.5514H22.8977ZM24.7893 6.24674C23.7376 5.09372 23.0471 3.60365 22.8977 1.95631V1.28003H21.4447C21.8104 3.37379 23.058 5.16257 24.7893 6.24674ZM9.67185 24.9572C9.08428 24.184 8.76676 23.2382 8.76818 22.2657C8.76818 19.8108 10.7514 17.8202 13.1981 17.8202C13.6541 17.8201 14.1074 17.8902 14.5419 18.0286V12.6531C14.0341 12.5833 13.5216 12.5536 13.0092 12.5645V16.7485C12.5744 16.6101 12.1209 16.5398 11.6648 16.5403C9.21805 16.5403 7.23495 18.5306 7.23495 20.9859C7.23495 22.7219 8.22622 24.225 9.67185 24.9572Z" fill="#FF004F"/>
<path d="M21.3667 10.2712C23.425 11.7473 25.9456 12.6159 28.6681 12.6159V8.47712C27.1484 8.15227 25.8031 7.35529 24.7916 6.24674C23.0601 5.16246 21.8127 3.37368 21.4469 1.28003H17.6302V22.2809C17.6215 24.7292 15.6417 26.7116 13.2002 26.7116C11.7615 26.7116 10.4833 26.0233 9.67381 24.9572C8.2283 24.225 7.23702 22.7218 7.23702 20.986C7.23702 18.5309 9.22012 16.5404 11.6669 16.5404C12.1357 16.5404 12.5875 16.6136 13.0113 16.7486V12.5646C7.757 12.6735 3.53125 16.9821 3.53125 22.281C3.53125 24.9262 4.58356 27.3242 6.29147 29.0763C7.83225 30.1145 9.68705 30.7201 11.6826 30.7201C17.031 30.7201 21.3668 26.3688 21.3668 21.0012V10.2712H21.3667Z" fill="black"/>
<path d="M28.6701 8.47707V7.35798C27.2997 7.36007 25.9562 6.97492 24.7935 6.24658C25.8228 7.37742 27.1781 8.15716 28.6701 8.47707ZM21.4489 1.27998C21.414 1.07988 21.3872 0.878468 21.3686 0.676285V0H16.0987V21.0011C16.0903 23.449 14.1106 25.4314 11.6688 25.4314C10.952 25.4314 10.2752 25.2607 9.6758 24.9572C10.4853 26.0233 11.7635 26.7114 13.2022 26.7114C15.6435 26.7114 17.6236 24.7292 17.6321 22.281V1.27998H21.4489ZM13.0135 12.5645V11.3732C12.5732 11.3128 12.1292 11.2825 11.6847 11.2827C6.33589 11.2826 2 15.6339 2 21.0011C2 24.366 3.70408 27.3316 6.29356 29.076C4.58565 27.324 3.53334 24.9259 3.53334 22.2808C3.53334 16.982 7.75898 12.6735 13.0135 12.5645Z" fill="#00F2EA"/>
</svg>
