<svg width="32" height="32" viewBox="0 0 32 32" fill="none" xmlns="http://www.w3.org/2000/svg">
<rect width="32" height="32" rx="16" fill="#0068FE"/>
<g clip-path="url(#clip0_11034_35017)">
<path fill-rule="evenodd" clip-rule="evenodd" d="M16.4583 14.003V13.5771H17.7343V19.5666H17.0042C16.7037 19.5666 16.4599 19.3238 16.4583 19.0239C16.4581 19.0241 16.4579 19.0241 16.4577 19.0242C15.9438 19.4 15.3086 19.6232 14.6224 19.6232C12.904 19.6232 11.5107 18.2308 11.5107 16.5134C11.5107 14.7961 12.904 13.4038 14.6224 13.4038C15.3086 13.4038 15.9438 13.6269 16.4577 14.0026C16.4579 14.0028 16.4581 14.0028 16.4583 14.003ZM11.1801 11.6511V11.8452C11.1801 12.2075 11.1316 12.5031 10.8963 12.85L10.8679 12.8825C10.8165 12.9408 10.6959 13.0776 10.6385 13.1518L6.54263 18.2928H11.1801V19.0206C11.1801 19.3222 10.9353 19.5666 10.6337 19.5666H4.625V19.2234C4.625 18.803 4.72942 18.6157 4.86136 18.4203L9.22783 13.0159H4.80705V11.6511H11.1801ZM19.2818 19.5666C19.0308 19.5666 18.8267 19.3626 18.8267 19.1121V11.6511H20.1924V19.5666H19.2818ZM24.2305 13.3663C25.9608 13.3663 27.3632 14.7691 27.3632 16.4969C27.3632 18.2262 25.9608 19.6291 24.2305 19.6291C22.5 19.6291 21.0977 18.2262 21.0977 16.4969C21.0977 14.7691 22.5 13.3663 24.2305 13.3663ZM14.6224 18.3431C15.6337 18.3431 16.4532 17.5241 16.4532 16.5134C16.4532 15.5044 15.6337 14.6853 14.6224 14.6853C13.6112 14.6853 12.7916 15.5044 12.7916 16.5134C12.7916 17.5241 13.6112 18.3431 14.6224 18.3431ZM24.2305 18.34C25.2477 18.34 26.0732 17.515 26.0732 16.4969C26.0732 15.4804 25.2477 14.6554 24.2305 14.6554C23.2116 14.6554 22.3876 15.4804 22.3876 16.4969C22.3876 17.515 23.2116 18.34 24.2305 18.34Z" fill="white"/>
</g>
<defs>
<clipPath id="clip0_11034_35017">
<rect width="22.8571" height="8" fill="white" transform="translate(4.57031 11.6399)"/>
</clipPath>
</defs>
</svg>
