<svg width="33" height="32" viewBox="0 0 33 32" fill="none" xmlns="http://www.w3.org/2000/svg">
<path d="M11.9974 25.3334V28.2667C11.9974 28.6401 11.9974 28.8268 11.9247 28.9694C11.8608 29.0949 11.7588 29.1968 11.6334 29.2608C11.4908 29.3334 11.3041 29.3334 10.9307 29.3334H8.3974C8.02403 29.3334 7.83734 29.3334 7.69474 29.2608C7.56929 29.1968 7.46731 29.0949 7.40339 28.9694C7.33073 28.8268 7.33073 28.6401 7.33073 28.2667V25.3334M25.9974 25.3334V28.2667C25.9974 28.6401 25.9974 28.8268 25.9247 28.9694C25.8608 29.0949 25.7588 29.1968 25.6334 29.2608C25.4908 29.3334 25.3041 29.3334 24.9307 29.3334H22.3974C22.024 29.3334 21.8373 29.3334 21.6947 29.2608C21.5693 29.1968 21.4673 29.0949 21.4034 28.9694C21.3307 28.8268 21.3307 28.6401 21.3307 28.2667V25.3334M4.66406 16.0001H28.6641M4.66406 7.33341H28.6641M9.33073 20.6667H11.3307M21.9974 20.6667H23.9974M11.0641 25.3334H22.2641C24.5043 25.3334 25.6244 25.3334 26.48 24.8974C27.2327 24.5139 27.8446 23.902 28.2281 23.1494C28.6641 22.2937 28.6641 21.1736 28.6641 18.9334V9.06675C28.6641 6.82654 28.6641 5.70643 28.2281 4.85079C27.8446 4.09814 27.2327 3.48622 26.48 3.10272C25.6244 2.66675 24.5043 2.66675 22.2641 2.66675H11.0641C8.82385 2.66675 7.70375 2.66675 6.8481 3.10272C6.09545 3.48622 5.48353 4.09814 5.10004 4.85079C4.66406 5.70643 4.66406 6.82654 4.66406 9.06675V18.9334C4.66406 21.1736 4.66406 22.2937 5.10004 23.1494C5.48353 23.902 6.09545 24.5139 6.8481 24.8974C7.70375 25.3334 8.82385 25.3334 11.0641 25.3334Z" stroke="black" stroke-width="1.5" stroke-linecap="round" stroke-linejoin="round"/>
</svg>
