<svg width="33" height="32" viewBox="0 0 33 32" fill="none" xmlns="http://www.w3.org/2000/svg">
<g clip-path="url(#clip0_11110_13726)">
<path d="M22.8535 24.0371L9.51825 24.0352C9.15044 24.0352 8.85156 24.3333 8.85156 24.7018C8.85156 25.0697 9.14975 25.3685 9.51825 25.3685L22.8535 25.3705C23.2213 25.3705 23.5202 25.0723 23.5202 24.7038C23.5201 24.3359 23.222 24.0371 22.8535 24.0371Z" fill="black"/>
<path d="M20.1823 26.7039H12.1823C11.8138 26.7039 11.5156 27.002 11.5156 27.3705C11.5156 27.739 11.8138 28.0372 12.1823 28.0372H20.1823C20.5508 28.0372 20.849 27.739 20.849 27.3705C20.8489 27.002 20.5508 26.7039 20.1823 26.7039Z" fill="black"/>
<path d="M16.3333 8C12.2897 8 9 11.2897 9 15.3333C9 19.3769 12.2897 22.6666 16.3333 22.6666C20.3769 22.6666 23.6666 19.3769 23.6666 15.3333C23.6666 11.2897 20.3769 8 16.3333 8ZM10.4007 16H13.0136C13.0874 17.816 13.4625 19.622 14.1135 20.8963C12.103 20.0911 10.6514 18.2289 10.4007 16ZM13.0137 14.6667H10.4007C10.6515 12.4377 12.1031 10.5756 14.1136 9.77031C13.4625 11.0447 13.0875 12.8507 13.0137 14.6667ZM16.3333 21.3333C15.5695 21.3333 14.4952 19.2679 14.36 16H18.3066C18.1713 19.2679 17.0971 21.3333 16.3333 21.3333ZM14.36 14.6667C14.4952 11.3988 15.5695 9.33337 16.3333 9.33337C17.0971 9.33337 18.1713 11.3988 18.3066 14.6667H14.36ZM18.553 20.8964C19.2041 19.622 19.5791 17.816 19.653 16H22.2659C22.0151 18.2289 20.5636 20.0911 18.553 20.8964ZM19.653 14.6667C19.5791 12.8507 19.2041 11.0447 18.553 9.77031C20.5636 10.5756 22.0152 12.4378 22.2659 14.6667H19.653Z" fill="black"/>
<path d="M25.6692 4.00012H24.3359V2.6225C24.3359 1.16588 23.1033 -0.0145519 21.6692 0.00013559C21.4643 0.00226058 21.285 0.0306355 21.0735 0.0841353L6.8598 4.01456C5.45656 4.09056 4.33594 5.24505 4.33594 6.6668V29.3334C4.33594 30.8041 5.53187 32.0001 7.00261 32.0001H25.6692C27.1399 32.0001 28.3359 30.8041 28.3359 29.3334V6.6668C28.3358 5.19612 27.1399 4.00012 25.6692 4.00012ZM21.4159 1.37251C22.1939 1.17394 23.0025 1.80413 23.0025 2.6225V4.00012H11.9145L21.4159 1.37251ZM27.0025 29.3334C27.0025 30.0684 26.4042 30.6667 25.6692 30.6667H7.00261C6.26762 30.6667 5.66931 30.0684 5.66931 29.3334V6.6668C5.66931 5.9318 6.26762 5.33349 7.00261 5.33349H25.6692C26.4042 5.33349 27.0025 5.9318 27.0025 6.6668V29.3334Z" fill="black"/>
</g>
<defs>
<clipPath id="clip0_11110_13726">
<rect width="32" height="32" fill="white" transform="translate(0.335938)"/>
</clipPath>
</defs>
</svg>
