<svg width="33" height="32" viewBox="0 0 33 32" fill="none" xmlns="http://www.w3.org/2000/svg">
<path d="M5.6667 29.09C6.47013 29.3334 7.55532 29.3334 9.4 29.3334H23.2667C25.1113 29.3334 26.1965 29.3334 27 29.09M5.6667 29.09C5.49443 29.0378 5.33511 28.9744 5.18404 28.8974C4.43139 28.5139 3.81947 27.902 3.43597 27.1494C3 26.2937 3 25.1736 3 22.9334V9.06675C3 6.82654 3 5.70643 3.43597 4.85079C3.81947 4.09814 4.43139 3.48622 5.18404 3.10272C6.03969 2.66675 7.15979 2.66675 9.4 2.66675H23.2667C25.5069 2.66675 26.627 2.66675 27.4826 3.10272C28.2353 3.48622 28.8472 4.09814 29.2307 4.85079C29.6667 5.70643 29.6667 6.82654 29.6667 9.06675V22.9334C29.6667 25.1736 29.6667 26.2937 29.2307 27.1494C28.8472 27.902 28.2353 28.5139 27.4826 28.8974C27.3316 28.9744 27.1722 29.0378 27 29.09M5.6667 29.09C5.66714 28.0109 5.67361 27.4399 5.76915 26.9596C6.18998 24.8439 7.84384 23.1901 9.95952 22.7692C10.4747 22.6667 11.0943 22.6667 12.3333 22.6667H20.3333C21.5724 22.6667 22.192 22.6667 22.7071 22.7692C24.8228 23.1901 26.4767 24.8439 26.8975 26.9596C26.9931 27.4399 26.9995 28.0109 27 29.09M21.6667 12.6667C21.6667 15.6123 19.2789 18.0001 16.3333 18.0001C13.3878 18.0001 11 15.6123 11 12.6667C11 9.72123 13.3878 7.33341 16.3333 7.33341C19.2789 7.33341 21.6667 9.72123 21.6667 12.6667Z" stroke="black" stroke-width="1.5" stroke-linecap="round" stroke-linejoin="round"/>
</svg>
