<svg width="25" height="24" viewBox="0 0 25 24" fill="none" xmlns="http://www.w3.org/2000/svg">
<path d="M14.2435 2.91L12.1635 5H14.3335C16.4552 5 18.4901 5.84285 19.9904 7.34315C21.4906 8.84344 22.3335 10.8783 22.3335 13H20.3335C20.3335 11.4087 19.7014 9.88258 18.5761 8.75736C17.4509 7.63214 15.9248 7 14.3335 7H12.1635L14.2535 9.09L12.8335 10.5L8.3335 6L9.7435 4.59L12.8335 1.5L14.2435 2.91ZM2.3335 12V22H18.3335V12H2.3335ZM4.3335 18.56V15.45C4.93461 15.1009 5.43437 14.6011 5.7835 14H14.8835C15.2326 14.6011 15.7324 15.1009 16.3335 15.45V18.56C15.7409 18.9089 15.2483 19.4049 14.9035 20H5.7835C5.43314 19.4024 4.93347 18.9062 4.3335 18.56ZM10.3335 19C11.1615 19 11.8335 18.105 11.8335 17C11.8335 15.895 11.1615 15 10.3335 15C9.5055 15 8.8335 15.895 8.8335 17C8.8335 18.105 9.5055 19 10.3335 19Z" fill="#EFAD02"/>
</svg>
