<svg width="21" height="22" viewBox="0 0 21 22" fill="none" xmlns="http://www.w3.org/2000/svg">
<path fill-rule="evenodd" clip-rule="evenodd" d="M18.6665 10C18.6665 10.7077 18.5734 11.3948 18.3987 12.0495C19.0212 12.5024 19.5451 13.0827 19.9319 13.7521C20.4053 12.592 20.6665 11.325 20.6665 10C20.6665 4.5 16.1665 0 10.6665 0C5.1665 0 0.666504 4.5 0.666504 10C0.666504 15.5 5.1665 20 10.6665 20C10.7516 20 10.8364 19.9989 10.921 19.9968C10.4355 19.408 10.0701 18.7164 9.86228 17.9596C5.83619 17.5529 2.6665 14.1287 2.6665 10C2.6665 5.6 6.2665 2 10.6665 2C15.0665 2 18.6665 5.6 18.6665 10ZM11.1665 10.8L6.3665 13.6L5.6665 12.2L9.6665 9.9V5H11.1665V10.8ZM15.6688 11L17.9188 13.25L15.6688 15.5V14C13.8188 14 12.6088 15.96 13.4288 17.62L12.3388 18.71C10.5788 16.05 12.4788 12.5 15.6688 12.5V11ZM15.6688 22L13.4188 19.75L15.6688 17.5V19C17.5188 19 18.7288 17.04 17.9088 15.38L18.9988 14.29C20.7588 16.95 18.8588 20.5 15.6688 20.5V22Z" fill="#EFAD02"/>
</svg>
