<svg width="25" height="24" viewBox="0 0 25 24" fill="none" xmlns="http://www.w3.org/2000/svg">
<g clip-path="url(#clip0_10177_3085)">
<path fill-rule="evenodd" clip-rule="evenodd" d="M6.49124 19.8514C8.19457 21.1956 10.3412 22 12.6665 22C12.7516 22 12.8364 21.9989 12.921 21.9968C12.4355 21.408 12.0701 20.7164 11.8623 19.9596C10.3563 19.8075 8.9702 19.2332 7.82495 18.3577L6.49124 19.8514ZM12.3756 13.2614L13.1665 12.8V12.3756L12.3756 13.2614ZM17.0183 5.29593C15.7637 4.47699 14.2681 4 12.6665 4C8.2665 4 4.6665 7.6 4.6665 12C4.6665 13.9239 5.35476 15.6948 6.49722 17.0787L5.15434 18.5827C3.60731 16.8206 2.6665 14.5148 2.6665 12C2.6665 6.5 7.1665 2 12.6665 2C14.7782 2 16.7425 2.66335 18.3612 3.79196L17.0183 5.29593ZM18.437 6.47306C19.8162 7.91214 20.6665 9.86159 20.6665 12C20.6665 12.7077 20.5734 13.3948 20.3987 14.0495C21.0212 14.5024 21.5451 15.0827 21.9319 15.7521C22.4053 14.592 22.6665 13.325 22.6665 12C22.6665 9.27114 21.5587 6.78845 19.7707 4.97942L18.437 6.47306ZM13.1665 9.60965L11.6665 11.2895V7H13.1665V9.60965ZM10.5462 12.5442L8.16947 15.2059L7.6665 14.2L10.5462 12.5442ZM19.9188 15.25L17.6688 13V14.5C14.4788 14.5 12.5788 18.05 14.3388 20.71L15.4288 19.62C14.6088 17.96 15.8188 16 17.6688 16V17.5L19.9188 15.25ZM15.4188 21.75L17.6688 24V22.5C20.8588 22.5 22.7588 18.95 20.9988 16.29L19.9088 17.38C20.7288 19.04 19.5188 21 17.6688 21V19.5L15.4188 21.75Z" fill="#EF5350"/>
<rect x="1.31592" y="23.1758" width="30.1493" height="1.4307" transform="rotate(-48.2378 1.31592 23.1758)" fill="#EF5350"/>
</g>
<defs>
<clipPath id="clip0_10177_3085">
<rect width="24" height="24" fill="white" transform="translate(0.666504)"/>
</clipPath>
</defs>
</svg>
