<svg width="24" height="24" viewBox="0 0 24 24" fill="#EF5350" xmlns="http://www.w3.org/2000/svg">
<g clip-path="url(#clip0_9629_122437)">
<path d="M9.5 18V9H8V18M12.75 18V9H11.25V18M16 18V9H14.5V18M17.03 6C18.11 6 19 6.88 19 8V19C19 20.13 18.11 21 17.03 21C17.03 21.58 16.56 22 16 22C15.5 22 15 21.58 15 21H9C9 21.58 8.5 22 8 22C7.44 22 6.97 21.58 6.97 21C5.89 21 5 20.13 5 19V8C5 6.88 5.89 6 6.97 6H9V3C9 2.42 9.46 2 10 2H14C14.54 2 15 2.42 15 3V6M10.5 3.5V6H13.5V3.5M17.03 19V8H6.97V19" fill="#EF5350"/>
<rect x="0.743164" y="23.2593" width="30.1493" height="1.28746" transform="rotate(-48.2378 0.743164 23.2593)" fill="#EF5350"/>
</g>
<defs>
<clipPath id="clip0_9629_122437">
<rect width="24" height="24" fill="#EF5350"/>
</clipPath>
</defs>
</svg>
