<svg width="160" height="40" viewBox="0 0 160 40" fill="none" xmlns="http://www.w3.org/2000/svg">
<path fill-rule="evenodd" clip-rule="evenodd" d="M9.1002 25.4574V19.7176H5.8883V25.4574H0.208008V9.0708H5.8883V15.108H9.1002V9.0708H14.7508V25.4574H9.1002Z" fill="#4E6EB3"/>
<path fill-rule="evenodd" clip-rule="evenodd" d="M22.9901 13.5318L22.0682 19.2418H24.4771L23.5849 13.5318H22.9901ZM15.3767 25.4574L19.005 9.0708H27.5998L31.2875 25.4574H25.5477L25.0719 23.5838H21.3544L20.9678 25.4574H15.3767Z" fill="#4E6EB3"/>
<path fill-rule="evenodd" clip-rule="evenodd" d="M37.5316 17.5169H38.0372C38.7509 17.5169 39.2268 17.3682 39.5539 17.0411C39.8513 16.7437 40 16.2083 40 15.4649C40 14.7214 39.8513 14.2158 39.5837 13.9481C39.2863 13.6805 38.7807 13.5615 38.0669 13.5615H37.5614V17.5169H37.5316ZM38.2751 21.9779H37.5316V25.4574H31.8513V9.0708H38.2751C40.8625 9.0708 42.7658 9.5169 43.9257 10.4091C45.1153 11.3013 45.7101 12.9965 45.7101 15.4649C45.7101 17.9333 45.1153 19.6284 43.9257 20.5801C42.7361 21.502 40.8625 21.9779 38.2751 21.9779Z" fill="#4E6EB3"/>
<path fill-rule="evenodd" clip-rule="evenodd" d="M52.4916 17.5169H52.9972C53.7109 17.5169 54.1867 17.3682 54.5139 17.0411C54.8113 16.7437 54.96 16.2083 54.96 15.4649C54.96 14.7214 54.8113 14.2158 54.5436 13.9481C54.2462 13.6805 53.7406 13.5615 53.0269 13.5615H52.5213V17.5169H52.4916ZM53.2351 21.9779H52.4916V25.4574H46.8113V9.0708H53.2351C55.8224 9.0708 57.7258 9.5169 58.8856 10.4091C60.0752 11.3013 60.67 12.9965 60.67 15.4649C60.67 17.9333 60.0752 19.6284 58.8856 20.5801C57.696 21.502 55.8224 21.9779 53.2351 21.9779Z" fill="#4E6EB3"/>
<path fill-rule="evenodd" clip-rule="evenodd" d="M70.3062 25.4574H64.6259V20.3124L59.9568 9.0708H65.994L67.5107 13.8886L69.1166 9.0708H75.0943L70.3062 20.3124V25.4574Z" fill="#4E6EB3"/>
<path fill-rule="evenodd" clip-rule="evenodd" d="M87.7025 18.9741H86.3939V21.6507H87.7025C88.2675 21.6507 88.6541 21.5615 88.8623 21.3831C89.0705 21.2046 89.1597 20.8478 89.1597 20.3422C89.1597 19.8366 89.0408 19.4797 88.8326 19.2715C88.5947 19.0634 88.2378 18.9741 87.7025 18.9741ZM87.6133 12.818H86.3642V15.4351H87.643C88.1188 15.4351 88.4757 15.3162 88.6839 15.108C88.8921 14.8998 88.9813 14.5727 88.9813 14.0968C88.9813 13.621 88.8623 13.2938 88.6541 13.1154C88.446 12.9072 88.0891 12.818 87.6133 12.818ZM80.7136 9.0708H88.1188C92.104 9.0708 94.0965 10.4091 94.0965 13.1154C94.0965 14.1563 93.9776 14.9295 93.7694 15.4946C93.5612 16.0596 93.0854 16.5652 92.4014 17.0708C93.2043 17.4277 93.7396 17.844 94.0668 18.3199C94.3642 18.8254 94.5129 19.6582 94.5129 20.7883C94.5129 23.8812 92.4014 25.4277 88.208 25.4277H80.7136V9.0708Z" fill="#4E6EB3"/>
<path fill-rule="evenodd" clip-rule="evenodd" d="M100.908 17.2492C100.908 18.647 101.057 19.6284 101.324 20.2529C101.592 20.8775 102.157 21.1749 103.019 21.1749C103.882 21.1749 104.447 20.8775 104.685 20.2827C104.952 19.6879 105.071 18.6767 105.071 17.2492C105.071 15.8515 104.952 14.8403 104.685 14.2455C104.417 13.6507 103.882 13.3533 103.019 13.3533C102.157 13.3533 101.592 13.6507 101.324 14.2753C101.057 14.87 100.908 15.8812 100.908 17.2492ZM110.811 17.2492C110.811 20.2232 110.187 22.3942 108.967 23.7325C107.718 25.0708 105.755 25.7548 103.049 25.7548C100.343 25.7548 98.3502 25.0708 97.1011 23.7325C95.8521 22.3942 95.2275 20.2232 95.2275 17.2492C95.2275 14.2753 95.8521 12.1042 97.0714 10.766C98.3205 9.42767 100.283 8.74365 103.019 8.74365C105.755 8.74365 107.718 9.42767 108.967 10.766C110.187 12.1042 110.811 14.2753 110.811 17.2492Z" fill="#4E6EB3"/>
<path fill-rule="evenodd" clip-rule="evenodd" d="M117.295 17.2492C117.295 18.647 117.444 19.6284 117.711 20.2529C117.979 20.8775 118.544 21.1749 119.407 21.1749C120.269 21.1749 120.834 20.8775 121.072 20.2827C121.34 19.6879 121.459 18.6767 121.459 17.2492C121.459 15.8515 121.34 14.8403 121.072 14.2455C120.834 13.6507 120.269 13.3533 119.407 13.3533C118.544 13.3533 117.979 13.6507 117.711 14.2753C117.444 14.87 117.295 15.8812 117.295 17.2492ZM127.169 17.2492C127.169 20.2232 126.544 22.3942 125.325 23.7325C124.076 25.0708 122.113 25.7548 119.407 25.7548C116.7 25.7548 114.708 25.0708 113.459 23.7325C112.209 22.3942 111.585 20.2232 111.585 17.2492C111.585 14.2753 112.209 12.1042 113.429 10.766C114.678 9.42767 116.641 8.74365 119.377 8.74365C122.113 8.74365 124.076 9.42767 125.325 10.766C126.574 12.1042 127.169 14.2753 127.169 17.2492Z" fill="#4E6EB3"/>
<path fill-rule="evenodd" clip-rule="evenodd" d="M133.978 19.9853V25.4574H128.297V9.0708H133.978V14.8701H134.959L136.773 9.0708H142.424L139.807 16.9816L142.662 25.4574H136.952L134.989 19.9853H133.978Z" fill="#4E6EB3"/>
<path fill-rule="evenodd" clip-rule="evenodd" d="M140.699 0L159.643 1.01115L150.721 12.8773L146.885 8.02974L144 9.60595L145.13 6.69145L153.755 2.9145L144.06 4.90706L140.699 0Z" fill="#F27145"/>
<path fill-rule="evenodd" clip-rule="evenodd" d="M5.53233 31.2266C5.53233 30.5129 4.93754 30.156 3.74794 30.156C3.09367 30.156 2.52861 30.1857 2.02304 30.2452C2.02304 30.3344 1.93382 31.1672 1.75538 32.7136C2.08252 32.7136 2.37991 32.7136 2.64757 32.7136C3.51003 32.7136 4.13456 32.6541 4.58066 32.4757C5.20519 32.2378 5.53233 31.8214 5.53233 31.2266ZM5.65129 34.7657C5.65129 33.9032 4.69962 33.4571 2.76653 33.4571C2.37991 33.4571 2.02304 33.4571 1.63642 33.4869C1.48772 34.5575 1.3985 35.5092 1.33902 36.3716C1.60668 36.4014 2.05278 36.4311 2.64757 36.4311C3.48029 36.4311 4.19404 36.3121 4.78884 36.0742C5.35389 35.866 5.65129 35.4199 5.65129 34.7657ZM6.84088 34.7062C6.84088 35.5984 6.42452 36.2527 5.56207 36.669C4.69962 37.0854 3.59925 37.2935 2.26096 37.2935C1.90408 37.2935 1.13084 37.2935 0.000732422 37.2638C0.0899518 36.6988 0.29813 35.3307 0.625268 33.13C0.803706 31.7025 0.922665 30.4831 0.922665 29.4125H1.8446C1.9933 29.4125 2.35017 29.4125 2.91523 29.3828C3.45055 29.3828 3.83716 29.353 4.07508 29.353C4.87806 29.353 5.53233 29.5017 6.03791 29.7694C6.54348 30.0668 6.7814 30.4534 6.7814 30.9887C6.7814 31.4051 6.6327 31.7917 6.3353 32.1486C6.03791 32.5054 5.62155 32.7731 5.14571 32.8921V32.9515C5.62155 33.011 6.00817 33.2192 6.36504 33.5166C6.69218 33.814 6.84088 34.2006 6.84088 34.7062Z" fill="#4E6EB3"/>
<path fill-rule="evenodd" clip-rule="evenodd" d="M18.3498 34.0521C18.3498 33.487 18.2011 33.0112 17.874 32.5948C17.5766 32.2082 17.1007 32 16.5357 32C15.7922 32 15.2271 32.2677 14.781 32.8328C14.3349 33.3978 14.1268 33.9926 14.1268 34.6469C14.1268 35.2119 14.2755 35.6878 14.6026 36.1041C14.9297 36.4907 15.3758 36.6989 15.9706 36.6989C16.6844 36.6989 17.2792 36.4313 17.6955 35.8662C18.1416 35.3012 18.3498 34.7064 18.3498 34.0521ZM19.5989 33.8736C19.5989 34.8551 19.242 35.6878 18.5282 36.4015C17.8145 37.1153 16.8628 37.4722 15.703 37.4722C14.9297 37.4722 14.2755 37.2045 13.7104 36.6989C13.1453 36.1933 12.8777 35.5391 12.8777 34.7361C12.8777 33.7844 13.2346 32.9517 13.9483 32.2677C14.6621 31.5837 15.6137 31.2268 16.8033 31.2268C17.5766 31.2268 18.2606 31.4647 18.7959 31.9406C19.3312 32.4461 19.5989 33.0707 19.5989 33.8736Z" fill="#4E6EB3"/>
<path fill-rule="evenodd" clip-rule="evenodd" d="M31.0197 34.0521C31.0197 33.487 30.871 33.0112 30.5439 32.5948C30.2465 32.2082 29.7707 32 29.2056 32C28.4621 32 27.8971 32.2677 27.451 32.8328C27.0049 33.3978 26.7967 33.9926 26.7967 34.6469C26.7967 35.2119 26.9454 35.6878 27.2725 36.1041C27.5997 36.4907 28.0457 36.6989 28.6405 36.6989C29.3543 36.6989 29.9491 36.4313 30.3655 35.8662C30.8115 35.3012 31.0197 34.7064 31.0197 34.0521ZM32.2688 33.8736C32.2688 34.8551 31.9119 35.6878 31.1982 36.4015C30.4844 37.1153 29.5327 37.4722 28.3729 37.4722C27.5997 37.4722 26.9454 37.2045 26.3803 36.6989C25.8153 36.1933 25.5476 35.5391 25.5476 34.7361C25.5476 33.7844 25.9045 32.9517 26.6182 32.2677C27.332 31.5837 28.2837 31.2268 29.4733 31.2268C30.2465 31.2268 30.9305 31.4647 31.4658 31.9406C32.0011 32.4461 32.2688 33.0707 32.2688 33.8736Z" fill="#4E6EB3"/>
<path fill-rule="evenodd" clip-rule="evenodd" d="M44.7879 31.4943C44.7879 31.6133 44.4607 31.9404 43.8362 32.4757C43.2117 32.9813 42.6466 33.4274 42.1113 33.7843V33.8438C42.6466 34.3791 43.1224 35.0036 43.5091 35.7471C43.8957 36.4906 44.1039 36.9962 44.1039 37.2638L42.7656 37.3233C42.7656 37.1151 42.6169 36.6988 42.3492 36.0742C42.0815 35.4497 41.7247 34.9144 41.3381 34.4683C41.0109 34.736 40.7135 35.0333 40.4459 35.3307C39.8511 36.0148 39.5239 36.669 39.4644 37.2638L38.2451 37.3233C38.3343 36.9367 38.5425 35.42 38.9291 32.7731C39.1373 31.1969 39.2265 29.8884 39.2265 28.788L40.5946 28.7285C40.5946 28.9367 40.4756 29.8289 40.2377 31.3754C39.9998 32.9516 39.7916 34.2304 39.6726 35.2713H39.7321C39.9998 34.7657 40.654 34.0519 41.6949 33.13C42.7358 32.2081 43.2711 31.643 43.2711 31.4646L44.7879 31.4943Z" fill="#4E6EB3"/>
<path fill-rule="evenodd" clip-rule="evenodd" d="M60.4312 28.6987C60.4312 28.9366 60.3717 29.472 60.2231 30.3047C60.0744 31.1374 59.9554 31.9404 59.8662 32.7433C59.6283 34.6169 59.4796 36.1039 59.4201 37.2043L58.0818 37.3233C58.0818 37.1448 58.171 36.6095 58.3197 35.7173C58.4981 34.8251 58.6468 33.814 58.7658 32.7433C58.974 31.1077 59.0929 29.7694 59.0929 28.7582L60.4312 28.6987Z" fill="#4E6EB3"/>
<path fill-rule="evenodd" clip-rule="evenodd" d="M70.3952 30.6914H69.5625C69.5625 30.6319 69.2948 30.3048 68.7595 29.71C68.2242 29.1152 67.9565 28.788 67.9565 28.7583H69.3841C69.3841 28.788 69.5625 29.1152 69.8896 29.71C70.2465 30.3048 70.3952 30.6319 70.3952 30.6914ZM70.7521 32.2081C69.503 32.2379 68.6108 32.5055 68.016 33.0408C67.451 33.5761 67.1536 34.2899 67.1536 35.1821C67.1536 36.104 67.5402 36.5501 68.2837 36.5501C68.7893 36.5501 69.2948 36.2527 69.7112 35.6282C70.1573 35.0037 70.4249 34.4683 70.5142 33.9628C70.6331 33.4572 70.6926 32.8624 70.7521 32.2081ZM72.0904 31.2564C71.6443 33.3085 71.4064 34.7955 71.4064 35.7174C71.4064 36.1338 71.4361 36.6393 71.5253 37.2044L70.2762 37.3531C70.2465 36.9962 70.2465 36.5501 70.2465 36.0148H70.187C69.5625 36.9367 68.7298 37.4126 67.7186 37.4126C67.1238 37.4126 66.6777 37.2044 66.3506 36.8178C66.0532 36.4312 65.8748 35.9256 65.8748 35.3011C65.8748 34.2899 66.2911 33.4274 67.1536 32.684C68.016 31.9405 69.2353 31.5538 70.8413 31.5538L71.1684 31.3754L72.0904 31.2564Z" fill="#4E6EB3"/>
<path fill-rule="evenodd" clip-rule="evenodd" d="M93.5329 29.3828C93.4437 29.8884 93.2355 31.1375 92.9381 33.1003C92.7596 34.4981 92.6407 35.8661 92.5812 37.2341H91.1834C91.3024 36.5798 91.4808 35.3308 91.7188 33.4869H87.5254C87.4065 34.3791 87.2875 35.6282 87.1983 37.2341H85.8005C85.9195 36.5501 86.1277 35.1821 86.4251 33.1003C86.6035 31.762 86.6927 30.5129 86.7225 29.3828H88.1202C88.031 29.9181 87.8526 31.0482 87.5849 32.7434H91.808C91.9269 31.881 92.0162 30.7508 92.0756 29.3828H93.5329Z" fill="#4E6EB3"/>
<path fill-rule="evenodd" clip-rule="evenodd" d="M104.089 32.208C102.84 32.2378 101.948 32.5054 101.353 33.0407C100.788 33.5761 100.491 34.2898 100.491 35.182C100.491 36.1039 100.877 36.55 101.621 36.55C102.126 36.55 102.632 36.2526 103.048 35.6281C103.494 35.0036 103.762 34.4682 103.851 33.9627C104 33.4571 104.059 32.8623 104.089 32.208ZM105.428 31.2563C104.981 33.3084 104.744 34.7954 104.744 35.7173C104.744 36.1337 104.773 36.6392 104.862 37.2043L103.613 37.353C103.584 36.9961 103.584 36.55 103.584 36.0147H103.524C102.9 36.9366 102.067 37.4125 101.056 37.4125C100.461 37.4125 100.015 37.2043 99.6878 36.8177C99.3904 36.4311 99.2119 35.9255 99.2119 35.301C99.2119 34.2898 99.6283 33.4274 100.491 32.6839C101.353 31.9404 102.573 31.5537 104.178 31.5537L104.506 31.3753L105.428 31.2563Z" fill="#4E6EB3"/>
<path fill-rule="evenodd" clip-rule="evenodd" d="M116.937 34.0223C116.937 32.7733 116.401 32.1785 115.331 32.1785C114.796 32.1785 114.29 32.4461 113.784 33.0112C113.279 33.5762 112.981 34.2008 112.892 34.9443L112.743 36.3123C113.219 36.5502 113.695 36.6692 114.141 36.6692C115.093 36.6692 115.777 36.4313 116.253 35.9554C116.699 35.4201 116.937 34.7956 116.937 34.0223ZM118.186 33.6655C118.186 34.7658 117.859 35.658 117.175 36.3718C116.491 37.0855 115.598 37.4424 114.439 37.4424C113.665 37.4424 113.1 37.3234 112.714 37.0558H112.654C112.506 38.1859 112.416 39.1376 112.327 40L111.019 40.0595C111.643 36.342 111.94 33.9926 111.94 32.9517C111.94 32.5651 111.911 32.119 111.822 31.5837L113.071 31.435C113.1 31.7621 113.1 32.2379 113.1 32.8327H113.16C113.814 31.8513 114.706 31.3755 115.836 31.3755C116.52 31.3755 117.085 31.5837 117.532 32C117.978 32.3866 118.186 32.9517 118.186 33.6655Z" fill="#4E6EB3"/>
<path fill-rule="evenodd" clip-rule="evenodd" d="M129.696 34.0223C129.696 32.7733 129.161 32.1785 128.09 32.1785C127.555 32.1785 127.049 32.4461 126.543 33.0112C126.038 33.5762 125.74 34.2008 125.651 34.9443L125.503 36.2826C125.978 36.5205 126.454 36.6394 126.9 36.6394C127.852 36.6394 128.536 36.4015 129.012 35.9257C129.458 35.4201 129.696 34.7956 129.696 34.0223ZM130.975 33.6655C130.975 34.7658 130.648 35.658 129.964 36.3718C129.279 37.0855 128.387 37.4424 127.227 37.4424C126.454 37.4424 125.889 37.3234 125.503 37.0558H125.443C125.294 38.1859 125.205 39.1376 125.116 40L123.807 40.0595C124.432 36.342 124.729 33.9926 124.729 32.9517C124.729 32.5651 124.7 32.119 124.61 31.5837L125.859 31.435C125.889 31.7621 125.889 32.2379 125.889 32.8327H125.949C126.603 31.8513 127.495 31.3755 128.625 31.3755C129.309 31.3755 129.874 31.5837 130.32 32C130.737 32.3866 130.975 32.9517 130.975 33.6655Z" fill="#4E6EB3"/>
<path fill-rule="evenodd" clip-rule="evenodd" d="M142.93 31.4351C142.93 31.9406 142.424 32.9518 141.413 34.4685C140.402 35.9852 139.807 36.9072 139.629 37.2938C139.183 38.3049 138.766 38.9592 138.41 39.2864C137.963 39.673 137.22 39.8812 136.268 39.8812L136.298 39.0484C136.923 39.0484 137.488 38.8403 137.993 38.4536C138.499 38.067 138.737 37.6209 138.737 37.1154C138.737 36.4908 138.439 35.5094 137.815 34.1116C137.19 32.7139 136.893 31.8514 136.893 31.4945L138.35 31.4351C138.35 31.9406 138.529 32.7733 138.915 33.9332C139.302 35.1228 139.48 35.8663 139.48 36.1934H139.569C139.599 35.9852 139.956 35.2715 140.64 34.0522C141.324 32.8328 141.651 31.9704 141.651 31.4945L142.93 31.4351Z" fill="#4E6EB3"/>
</svg>
