<svg width="288" height="72" viewBox="0 0 288 72" fill="none" xmlns="http://www.w3.org/2000/svg">
<path fill-rule="evenodd" clip-rule="evenodd" d="M16.3809 45.823V35.4914H10.5995V45.823H0.375V16.3271H10.5995V27.194H16.3809V16.3271H26.552V45.823H16.3809Z" fill="#F27145"/>
<path fill-rule="evenodd" clip-rule="evenodd" d="M41.3799 24.3569L39.7204 34.6349H44.0565L42.4505 24.3569H41.3799ZM27.6758 45.823L34.2066 16.3271H49.6773L56.3152 45.823H45.9836L45.1271 42.4506H38.4356L37.7397 45.823H27.6758Z" fill="#F27145"/>
<path fill-rule="evenodd" clip-rule="evenodd" d="M67.5566 31.5301H68.4666C69.7514 31.5301 70.6079 31.2624 71.1967 30.6736C71.732 30.1383 71.9997 29.1747 71.9997 27.8364C71.9997 26.4981 71.732 25.5881 71.2502 25.1063C70.7149 24.6245 69.8049 24.4104 68.5201 24.4104H67.6101V31.5301H67.5566ZM68.8949 39.5598H67.5566V45.823H57.332V16.3271H68.8949C73.5521 16.3271 76.9781 17.1301 79.0659 18.7361C81.2071 20.342 82.2778 23.3933 82.2778 27.8364C82.2778 32.2795 81.2071 35.3308 79.0659 37.0439C76.9246 38.7033 73.5521 39.5598 68.8949 39.5598Z" fill="#F27145"/>
<path fill-rule="evenodd" clip-rule="evenodd" d="M94.4824 31.5301H95.3924C96.6771 31.5301 97.5337 31.2624 98.1225 30.6736C98.6578 30.1383 98.9255 29.1747 98.9255 27.8364C98.9255 26.4981 98.6578 25.5881 98.176 25.1063C97.6407 24.6245 96.7307 24.4104 95.4459 24.4104H94.5359V31.5301H94.4824ZM95.8206 39.5598H94.4824V45.823H84.2578V16.3271H95.8206C100.478 16.3271 103.904 17.1301 105.992 18.7361C108.133 20.342 109.204 23.3933 109.204 27.8364C109.204 32.2795 108.133 35.3308 105.992 37.0439C103.85 38.7033 100.478 39.5598 95.8206 39.5598Z" fill="#F27145"/>
<path fill-rule="evenodd" clip-rule="evenodd" d="M126.549 45.823H116.324V36.5621L107.92 16.3271H118.787L121.517 24.9993L124.408 16.3271H135.168L126.549 36.5621V45.823Z" fill="#F27145"/>
<path fill-rule="evenodd" clip-rule="evenodd" d="M157.865 34.1532H155.51V38.971H157.865C158.882 38.971 159.578 38.8104 159.953 38.4892C160.328 38.168 160.488 37.5256 160.488 36.6156C160.488 35.7056 160.274 35.0632 159.899 34.6885C159.471 34.3138 158.829 34.1532 157.865 34.1532ZM157.704 23.0721H155.456V27.7829H157.758C158.615 27.7829 159.257 27.5688 159.632 27.194C160.006 26.8193 160.167 26.2305 160.167 25.374C160.167 24.5175 159.953 23.9286 159.578 23.6074C159.203 23.2327 158.561 23.0721 157.704 23.0721ZM145.285 16.3271H158.615C165.788 16.3271 169.374 18.7361 169.374 23.6074C169.374 25.481 169.16 26.8729 168.786 27.89C168.411 28.9071 167.554 29.8171 166.323 30.7271C167.768 31.3695 168.732 32.119 169.321 32.9755C169.856 33.8855 170.124 35.3844 170.124 37.4186C170.124 42.9859 166.323 45.7695 158.775 45.7695H145.285V16.3271Z" fill="#4E6EB3"/>
<path fill-rule="evenodd" clip-rule="evenodd" d="M181.633 31.0483C181.633 33.5643 181.9 35.3309 182.382 36.455C182.864 37.5792 183.881 38.1145 185.433 38.1145C186.986 38.1145 188.003 37.5792 188.431 36.5086C188.913 35.4379 189.127 33.6179 189.127 31.0483C189.127 28.5323 188.913 26.7123 188.431 25.6416C187.949 24.571 186.986 24.0357 185.433 24.0357C183.881 24.0357 182.864 24.571 182.382 25.6952C181.9 26.7658 181.633 28.5859 181.633 31.0483ZM199.459 31.0483C199.459 36.4015 198.335 40.3093 196.14 42.7182C193.891 45.1271 190.358 46.3584 185.487 46.3584C180.616 46.3584 177.029 45.1271 174.781 42.7182C172.532 40.3093 171.408 36.4015 171.408 31.0483C171.408 25.6952 172.532 21.7874 174.727 19.3784C176.975 16.9695 180.509 15.7383 185.433 15.7383C190.358 15.7383 193.891 16.9695 196.14 19.3784C198.335 21.7874 199.459 25.6952 199.459 31.0483Z" fill="#4E6EB3"/>
<path fill-rule="evenodd" clip-rule="evenodd" d="M211.128 31.0483C211.128 33.5643 211.395 35.3309 211.877 36.455C212.359 37.5792 213.376 38.1145 214.928 38.1145C216.481 38.1145 217.498 37.5792 217.926 36.5086C218.408 35.4379 218.622 33.6179 218.622 31.0483C218.622 28.5323 218.408 26.7123 217.926 25.6416C217.498 24.571 216.481 24.0357 214.928 24.0357C213.376 24.0357 212.359 24.571 211.877 25.6952C211.395 26.7658 211.128 28.5859 211.128 31.0483ZM228.9 31.0483C228.9 36.4015 227.776 40.3093 225.581 42.7182C223.333 45.1271 219.8 46.3584 214.928 46.3584C210.057 46.3584 206.47 45.1271 204.222 42.7182C201.974 40.3093 200.85 36.4015 200.85 31.0483C200.85 25.6952 201.974 21.7874 204.169 19.3784C206.417 16.9695 209.95 15.7383 214.875 15.7383C219.8 15.7383 223.333 16.9695 225.581 19.3784C227.83 21.7874 228.9 25.6952 228.9 31.0483Z" fill="#4E6EB3"/>
<path fill-rule="evenodd" clip-rule="evenodd" d="M241.16 35.9732V45.823H230.936V16.3271H241.16V26.7658H242.927L246.192 16.3271H256.363L251.652 30.5665L256.791 45.823H246.513L242.98 35.9732H241.16Z" fill="#4E6EB3"/>
<path fill-rule="evenodd" clip-rule="evenodd" d="M253.258 0L287.357 1.82007L271.298 23.1792L264.392 14.4535L259.2 17.2907L261.234 12.0446L276.758 5.2461L259.307 8.83271L253.258 0Z" fill="#F27145"/>
<path fill-rule="evenodd" clip-rule="evenodd" d="M9.95688 56.2082C9.95688 54.9234 8.88625 54.281 6.74498 54.281C5.56729 54.281 4.55019 54.3346 3.64015 54.4416C3.64015 54.6022 3.47955 56.1011 3.15836 58.8848C3.74721 58.8848 4.28253 58.8848 4.76431 58.8848C6.31673 58.8848 7.44089 58.7777 8.24387 58.4565C9.36803 58.0283 9.95688 57.2788 9.95688 56.2082ZM10.171 62.5784C10.171 61.026 8.45799 60.2231 4.97844 60.2231C4.28253 60.2231 3.64015 60.2231 2.94424 60.2766C2.67658 62.2037 2.51599 63.9167 2.40892 65.4692C2.89071 65.5227 3.69368 65.5762 4.76431 65.5762C6.2632 65.5762 7.54796 65.3621 8.61859 64.9338C9.63569 64.5591 10.171 63.7561 10.171 62.5784ZM12.3123 62.4714C12.3123 64.0773 11.5628 65.255 10.0104 66.0045C8.45799 66.7539 6.47732 67.1286 4.0684 67.1286C3.42602 67.1286 2.0342 67.1286 0 67.0751C0.160595 66.058 0.535316 63.5955 1.12416 59.6342C1.44535 57.0647 1.65948 54.8699 1.65948 52.9428H3.31896C3.58662 52.9428 4.229 52.9428 5.2461 52.8892C6.20967 52.8892 6.90558 52.8357 7.33383 52.8357C8.77918 52.8357 9.95688 53.1034 10.8669 53.5851C11.777 54.1205 12.2052 54.8164 12.2052 55.7799C12.2052 56.5294 11.9375 57.2253 11.4022 57.8677C10.8669 58.51 10.1175 58.9918 9.26097 59.206V59.313C10.1175 59.4201 10.8134 59.7948 11.4558 60.3301C12.0446 60.8654 12.3123 61.5613 12.3123 62.4714Z" fill="#6E6E6E"/>
<path fill-rule="evenodd" clip-rule="evenodd" d="M33.0295 61.2937C33.0295 60.2766 32.7618 59.4201 32.173 58.6706C31.6377 57.9747 30.7812 57.6 29.7641 57.6C28.4258 57.6 27.4087 58.0818 26.6057 59.0989C25.8027 60.116 25.428 61.1866 25.428 62.3643C25.428 63.3814 25.6957 64.2379 26.2845 64.9874C26.8734 65.6833 27.6763 66.058 28.747 66.058C30.0317 66.058 31.1024 65.5762 31.8518 64.5591C32.6548 63.542 33.0295 62.4714 33.0295 61.2937ZM35.2778 60.9725C35.2778 62.739 34.6354 64.2379 33.3507 65.5227C32.0659 66.8074 30.3529 67.4498 28.2652 67.4498C26.8734 67.4498 25.6957 66.968 24.6786 66.058C23.6615 65.148 23.1797 63.9703 23.1797 62.5249C23.1797 60.8119 23.8221 59.313 25.1068 58.0818C26.3916 56.8506 28.1046 56.2082 30.2459 56.2082C31.6377 56.2082 32.8689 56.6364 33.8325 57.4929C34.796 58.403 35.2778 59.5271 35.2778 60.9725Z" fill="#6E6E6E"/>
<path fill-rule="evenodd" clip-rule="evenodd" d="M55.8342 61.2937C55.8342 60.2766 55.5665 59.4201 54.9777 58.6706C54.4424 57.9747 53.5859 57.6 52.5688 57.6C51.2305 57.6 50.2134 58.0818 49.4104 59.0989C48.6074 60.116 48.2327 61.1866 48.2327 62.3643C48.2327 63.3814 48.5004 64.2379 49.0892 64.9874C49.6781 65.6833 50.481 66.058 51.5517 66.058C52.8364 66.058 53.907 65.5762 54.6565 64.5591C55.4595 63.542 55.8342 62.4714 55.8342 61.2937ZM58.0825 60.9725C58.0825 62.739 57.4401 64.2379 56.1554 65.5227C54.8706 66.8074 53.1576 67.4498 51.0699 67.4498C49.6781 67.4498 48.5004 66.968 47.4833 66.058C46.4662 65.148 45.9844 63.9703 45.9844 62.5249C45.9844 60.8119 46.6268 59.313 47.9115 58.0818C49.1963 56.8506 50.9093 56.2082 53.0505 56.2082C54.4424 56.2082 55.6736 56.6364 56.6372 57.4929C57.6007 58.403 58.0825 59.5271 58.0825 60.9725Z" fill="#6E6E6E"/>
<path fill-rule="evenodd" clip-rule="evenodd" d="M80.6187 56.69C80.6187 56.9041 80.0299 57.4929 78.9057 58.4565C77.7816 59.3665 76.7645 60.1695 75.8009 60.8119V60.919C76.7645 61.8825 77.621 63.0067 78.3169 64.345C79.0128 65.6833 79.3875 66.5933 79.3875 67.0751L76.9786 67.1821C76.9786 66.8074 76.7109 66.058 76.2292 64.9338C75.7474 63.8097 75.105 62.8461 74.4091 62.0431C73.8202 62.5249 73.2849 63.0602 72.8031 63.5955C71.7325 64.8268 71.1437 66.0045 71.0366 67.0751L68.8418 67.1821C69.0024 66.4862 69.3771 63.7561 70.073 58.9918C70.4477 56.1546 70.6083 53.7993 70.6083 51.8186L73.0708 51.7115C73.0708 52.0862 72.8567 53.6922 72.4284 56.4758C72.0002 59.313 71.6254 61.6149 71.4113 63.4885H71.5184C72.0002 62.5784 73.1779 61.2937 75.0515 59.6342C76.9251 57.9747 77.8886 56.9576 77.8886 56.6364L80.6187 56.69Z" fill="#6E6E6E"/>
<path fill-rule="evenodd" clip-rule="evenodd" d="M108.776 51.658C108.776 52.0862 108.669 53.0498 108.401 54.5487C108.133 56.0476 107.919 57.4929 107.759 58.9383C107.331 62.3108 107.063 64.9874 106.956 66.968L104.547 67.1822C104.547 66.861 104.707 65.8974 104.975 64.2914C105.296 62.6855 105.564 60.8654 105.778 58.9383C106.153 55.994 106.367 53.5851 106.367 51.7651L108.776 51.658Z" fill="#6E6E6E"/>
<path fill-rule="evenodd" clip-rule="evenodd" d="M126.709 55.2446H125.21C125.21 55.1375 124.728 54.5487 123.765 53.4781C122.801 52.4074 122.319 51.8186 122.319 51.765H124.889C124.889 51.8186 125.21 52.4074 125.799 53.4781C126.441 54.5487 126.709 55.1375 126.709 55.2446ZM127.351 57.9747C125.103 58.0282 123.497 58.51 122.427 59.4736C121.409 60.4372 120.874 61.7219 120.874 63.3279C120.874 64.9874 121.57 65.7903 122.908 65.7903C123.818 65.7903 124.728 65.255 125.478 64.1308C126.281 63.0067 126.763 62.0431 126.923 61.1331C127.137 60.223 127.244 59.1524 127.351 57.9747ZM129.76 56.2617C128.957 59.9554 128.529 62.632 128.529 64.2914C128.529 65.0409 128.583 65.9509 128.743 66.968L126.495 67.2357C126.441 66.5933 126.441 65.7903 126.441 64.8268H126.334C125.21 66.4862 123.711 67.3427 121.891 67.3427C120.821 67.3427 120.018 66.968 119.429 66.2721C118.893 65.5762 118.572 64.6662 118.572 63.542C118.572 61.7219 119.322 60.1695 120.874 58.8312C122.427 57.4929 124.621 56.797 127.512 56.797L128.101 56.4758L129.76 56.2617Z" fill="#6E6E6E"/>
<path fill-rule="evenodd" clip-rule="evenodd" d="M168.358 52.8892C168.197 53.7993 167.822 56.0476 167.287 59.5807C166.966 62.0967 166.752 64.5591 166.645 67.0216H164.129C164.343 65.8439 164.664 63.5955 165.092 60.2766H157.544C157.33 61.8825 157.116 64.1309 156.955 67.0216H154.439C154.654 65.7903 155.028 63.3279 155.564 59.5807C155.885 57.1717 156.045 54.9234 156.099 52.8892H158.615C158.454 53.8528 158.133 55.887 157.651 58.9383H165.253C165.467 57.3859 165.628 55.3517 165.735 52.8892H168.358Z" fill="#6E6E6E"/>
<path fill-rule="evenodd" clip-rule="evenodd" d="M187.361 57.9747C185.113 58.0283 183.507 58.51 182.436 59.4736C181.419 60.4372 180.884 61.7219 180.884 63.3279C180.884 64.9874 181.58 65.7903 182.918 65.7903C183.828 65.7903 184.738 65.255 185.488 64.1309C186.291 63.0067 186.772 62.0431 186.933 61.1331C187.201 60.2231 187.308 59.1524 187.361 57.9747ZM189.77 56.2617C188.967 59.9554 188.539 62.632 188.539 64.2915C188.539 65.0409 188.592 65.9509 188.753 66.968L186.505 67.2357C186.451 66.5933 186.451 65.7903 186.451 64.8268H186.344C185.22 66.4863 183.721 67.3428 181.901 67.3428C180.83 67.3428 180.027 66.968 179.439 66.2721C178.903 65.5762 178.582 64.6662 178.582 63.542C178.582 61.7219 179.331 60.1695 180.884 58.8312C182.436 57.4929 184.631 56.797 187.522 56.797L188.111 56.4758L189.77 56.2617Z" fill="#6E6E6E"/>
<path fill-rule="evenodd" clip-rule="evenodd" d="M210.487 61.2401C210.487 58.9918 209.523 57.9212 207.596 57.9212C206.632 57.9212 205.722 58.403 204.812 59.4201C203.902 60.4372 203.367 61.5613 203.206 62.8996L202.939 65.3621C203.795 65.7903 204.652 66.0045 205.455 66.0045C207.168 66.0045 208.399 65.5762 209.256 64.7197C210.059 63.7561 210.487 62.632 210.487 61.2401ZM212.735 60.5978C212.735 62.5784 212.146 64.1844 210.915 65.4691C209.684 66.7539 208.078 67.3963 205.99 67.3963C204.598 67.3963 203.581 67.1821 202.885 66.7004H202.778C202.511 68.7346 202.35 70.4476 202.189 72L199.834 72.1071C200.958 65.4156 201.493 61.1866 201.493 59.313C201.493 58.6171 201.44 57.8141 201.279 56.8505L203.528 56.5829C203.581 57.1717 203.581 58.0282 203.581 59.0989H203.688C204.866 57.3323 206.472 56.4758 208.506 56.4758C209.737 56.4758 210.754 56.8506 211.557 57.6C212.36 58.2959 212.735 59.313 212.735 60.5978Z" fill="#6E6E6E"/>
<path fill-rule="evenodd" clip-rule="evenodd" d="M233.451 61.2401C233.451 58.9918 232.487 57.9212 230.56 57.9212C229.597 57.9212 228.687 58.403 227.776 59.4201C226.866 60.4372 226.331 61.5613 226.171 62.8996L225.903 65.3085C226.759 65.7368 227.616 65.9509 228.419 65.9509C230.132 65.9509 231.363 65.5227 232.22 64.6662C233.023 63.7561 233.451 62.632 233.451 61.2401ZM235.753 60.5978C235.753 62.5784 235.164 64.1844 233.933 65.4691C232.701 66.7539 231.095 67.3963 229.008 67.3963C227.616 67.3963 226.599 67.1821 225.903 66.7004H225.796C225.528 68.7346 225.368 70.4476 225.207 72L222.852 72.1071C223.976 65.4156 224.511 61.1866 224.511 59.313C224.511 58.6171 224.458 57.8141 224.297 56.8505L226.545 56.5829C226.599 57.1717 226.599 58.0282 226.599 59.0989H226.706C227.884 57.3323 229.489 56.4758 231.524 56.4758C232.755 56.4758 233.772 56.8506 234.575 57.6C235.324 58.2959 235.753 59.313 235.753 60.5978Z" fill="#6E6E6E"/>
<path fill-rule="evenodd" clip-rule="evenodd" d="M257.272 56.5829C257.272 57.4929 256.362 59.313 254.542 62.0431C252.722 64.7732 251.652 66.4327 251.33 67.1286C250.527 68.9487 249.778 70.1264 249.136 70.7152C248.333 71.4112 246.994 71.7859 245.281 71.7859L245.335 70.287C246.459 70.287 247.476 69.9123 248.386 69.2164C249.296 68.5205 249.724 67.7175 249.724 66.8074C249.724 65.6833 249.189 63.9167 248.065 61.4007C246.941 58.8848 246.405 57.3323 246.405 56.69L249.028 56.5829C249.028 57.4929 249.35 58.9918 250.046 61.0796C250.741 63.2208 251.063 64.5591 251.063 65.148H251.223C251.277 64.7732 251.919 63.4885 253.15 61.2937C254.382 59.0989 254.97 57.5465 254.97 56.69L257.272 56.5829Z" fill="#6E6E6E"/>
</svg>
