<?xml version="1.0" encoding="UTF-8"?>
<!DOCTYPE svg PUBLIC "-//W3C//DTD SVG 1.1//EN" "http://www.w3.org/Graphics/SVG/1.1/DTD/svg11.dtd">
<!-- Creator: CorelDRAW X8 -->
<svg xmlns="http://www.w3.org/2000/svg" xml:space="preserve" width="8.26772in" height="11.6929in" version="1.1" shape-rendering="geometricPrecision" text-rendering="geometricPrecision" image-rendering="optimizeQuality" fill-rule="evenodd" clip-rule="evenodd"
viewBox="0 0 8268 11693"
 xmlns:xlink="http://www.w3.org/1999/xlink">
 <g id="Layer_x0020_1">
  <metadata id="CorelCorpID_0Corel-Layer"/>
  <polygon fill="none" fill-rule="nonzero" stroke="#F27145" stroke-width="69.4449" points="2591,7988 2591,6961 1985,6961 1985,7988 912,7988 912,5048 1985,5048 1985,6132 2591,6132 2591,5048 3428,5048 3428,7988 " data-fill-color="#F27145"/>
  <path fill="none" fill-rule="nonzero" stroke="#4E6EB3" stroke-width="69.4449" d="M4751 6825l-249 0 0 483 249 0c108,0 181,-17 218,-51 37,-34 55,-96 55,-189 0,-92 -20,-155 -60,-190 -40,-36 -111,-53 -213,-53zm-14 -1106l-235 0 0 470 240 0c93,0 157,-19 194,-57 37,-38 56,-99 56,-182 0,-84 -20,-143 -60,-178 -40,-35 -105,-53 -195,-53zm-1073 -671l1166 0c755,0 1133,243 1133,728 0,185 -21,326 -62,426 -42,99 -127,193 -257,281 151,61 255,136 312,226 57,89 86,237 86,445 0,556 -398,834 -1194,834l-1184 0 0 -2940z" data-fill-color="#4E6EB3"/>
  <polygon fill="none" fill-rule="nonzero" stroke="#F27145" stroke-width="69.4449" points="4917,3705 7356,3830 6205,5279 5712,4688 5341,4879 5486,4524 6595,4062 5349,4304 " data-fill-color="#F27145"/>
 </g>
</svg>
