<svg width="256" height="64" viewBox="0 0 256 64" fill="none" xmlns="http://www.w3.org/2000/svg">
<path fill-rule="evenodd" clip-rule="evenodd" d="M14.5605 40.7315V31.5479H9.42148V40.7315H0.333008V14.5129H9.42148V24.1724H14.5605V14.5129H23.6014V40.7315H14.5605Z" fill="#4E6EB3"/>
<path fill-rule="evenodd" clip-rule="evenodd" d="M36.7822 21.6505L35.3071 30.7865H39.1614L37.7339 21.6505H36.7822ZM24.6008 40.7315L30.406 14.5129H44.1577L50.0581 40.7315H40.8744L40.1131 37.7338H34.1651L33.5466 40.7315H24.6008Z" fill="#4E6EB3"/>
<path fill-rule="evenodd" clip-rule="evenodd" d="M60.0506 28.0267H60.8596C62.0016 28.0267 62.7629 27.7888 63.2863 27.2654C63.7622 26.7895 64.0001 25.933 64.0001 24.7434C64.0001 23.5538 63.7622 22.7449 63.3339 22.3167C62.8581 21.8884 62.0491 21.6981 60.9071 21.6981H60.0982V28.0267H60.0506ZM61.2402 35.1642H60.0506V40.7315H50.9622V14.5129H61.2402C65.38 14.5129 68.4254 15.2267 70.2811 16.6542C72.1845 18.0817 73.1361 20.794 73.1361 24.7434C73.1361 28.6929 72.1845 31.4051 70.2811 32.9278C68.3778 34.4029 65.38 35.1642 61.2402 35.1642Z" fill="#4E6EB3"/>
<path fill-rule="evenodd" clip-rule="evenodd" d="M83.9852 28.0267H84.7941C85.9361 28.0267 86.6975 27.7888 87.2209 27.2654C87.6967 26.7895 87.9347 25.933 87.9347 24.7434C87.9347 23.5538 87.6967 22.7449 87.2685 22.3167C86.7926 21.8884 85.9837 21.6981 84.8417 21.6981H84.0328V28.0267H83.9852ZM85.1748 35.1642H83.9852V40.7315H74.8967V14.5129H85.1748C89.3146 14.5129 92.3599 15.2267 94.2157 16.6542C96.119 18.0817 97.0707 20.794 97.0707 24.7434C97.0707 28.6929 96.119 31.4051 94.2157 32.9278C92.3123 34.4029 89.3146 35.1642 85.1748 35.1642Z" fill="#4E6EB3"/>
<path fill-rule="evenodd" clip-rule="evenodd" d="M112.488 40.7315H103.399V32.4996L95.9287 14.5129H105.588L108.015 22.2215L110.584 14.5129H120.149L112.488 32.4996V40.7315Z" fill="#4E6EB3"/>
<path fill-rule="evenodd" clip-rule="evenodd" d="M140.324 30.3583H138.231V34.6408H140.324C141.228 34.6408 141.847 34.4981 142.18 34.2126C142.513 33.9271 142.656 33.3561 142.656 32.5471C142.656 31.7382 142.466 31.1672 142.132 30.8341C141.752 30.501 141.181 30.3583 140.324 30.3583ZM140.182 20.5085H138.183V24.6958H140.229C140.99 24.6958 141.561 24.5055 141.895 24.1724C142.228 23.8393 142.37 23.3159 142.37 22.5546C142.37 21.7932 142.18 21.2698 141.847 20.9843C141.514 20.6512 140.943 20.5085 140.182 20.5085ZM129.142 14.5129H140.99C147.367 14.5129 150.555 16.6542 150.555 20.9843C150.555 22.6497 150.364 23.8869 150.031 24.791C149.698 25.6951 148.937 26.504 147.842 27.3129C149.127 27.8839 149.984 28.5501 150.507 29.3115C150.983 30.1204 151.221 31.4527 151.221 33.2609C151.221 38.2096 147.842 40.6839 141.133 40.6839H129.142V14.5129Z" fill="#4E6EB3"/>
<path fill-rule="evenodd" clip-rule="evenodd" d="M161.451 27.5984C161.451 29.8349 161.689 31.4051 162.117 32.4044C162.546 33.4036 163.45 33.8795 164.83 33.8795C166.21 33.8795 167.114 33.4036 167.494 32.452C167.923 31.5003 168.113 29.8824 168.113 27.5984C168.113 25.362 167.923 23.7441 167.494 22.7925C167.066 21.8408 166.21 21.365 164.83 21.365C163.45 21.365 162.546 21.8408 162.117 22.8401C161.689 23.7917 161.451 25.4096 161.451 27.5984ZM177.297 27.5984C177.297 32.3568 176.297 35.8304 174.346 37.9717C172.348 40.1129 169.207 41.2073 164.877 41.2073C160.547 41.2073 157.359 40.1129 155.361 37.9717C153.362 35.8304 152.363 32.3568 152.363 27.5984C152.363 22.8401 153.362 19.3665 155.313 17.2252C157.311 15.0839 160.452 13.9895 164.83 13.9895C169.207 13.9895 172.348 15.0839 174.346 17.2252C176.297 19.3665 177.297 22.8401 177.297 27.5984Z" fill="#4E6EB3"/>
<path fill-rule="evenodd" clip-rule="evenodd" d="M187.67 27.5984C187.67 29.8349 187.908 31.4051 188.336 32.4044C188.764 33.4036 189.669 33.8795 191.048 33.8795C192.428 33.8795 193.332 33.4036 193.713 32.452C194.141 31.5003 194.332 29.8824 194.332 27.5984C194.332 25.362 194.141 23.7441 193.713 22.7925C193.332 21.8408 192.428 21.365 191.048 21.365C189.669 21.365 188.764 21.8408 188.336 22.8401C187.908 23.7917 187.67 25.4096 187.67 27.5984ZM203.468 27.5984C203.468 32.3568 202.468 35.8304 200.518 37.9717C198.519 40.1129 195.379 41.2073 191.048 41.2073C186.718 41.2073 183.53 40.1129 181.532 37.9717C179.533 35.8304 178.534 32.3568 178.534 27.5984C178.534 22.8401 179.533 19.3665 181.484 17.2252C183.483 15.0839 186.623 13.9895 191.001 13.9895C195.379 13.9895 198.519 15.0839 200.518 17.2252C202.516 19.3665 203.468 22.8401 203.468 27.5984Z" fill="#4E6EB3"/>
<path fill-rule="evenodd" clip-rule="evenodd" d="M214.364 31.9761V40.7315H205.276V14.5129H214.364V23.7917H215.935L218.837 14.5129H227.878L223.691 27.1702L228.259 40.7315H219.123L215.982 31.9761H214.364Z" fill="#4E6EB3"/>
<path fill-rule="evenodd" clip-rule="evenodd" d="M225.118 0L255.429 1.61784L241.154 20.6037L235.016 12.8476L230.4 15.3695L232.208 10.7063L246.007 4.6632L230.495 7.8513L225.118 0Z" fill="#F27145"/>
<path fill-rule="evenodd" clip-rule="evenodd" d="M8.85056 49.9629C8.85056 48.8209 7.89888 48.2498 5.99554 48.2498C4.9487 48.2498 4.04461 48.2974 3.23569 48.3926C3.23569 48.5353 3.09294 49.8677 2.80744 52.342C3.33086 52.342 3.80669 52.342 4.23494 52.342C5.61487 52.342 6.61413 52.2469 7.32788 51.9614C8.32714 51.5807 8.85056 50.9145 8.85056 49.9629ZM9.04089 55.6253C9.04089 54.2454 7.51822 53.5316 4.42528 53.5316C3.80669 53.5316 3.23569 53.5316 2.6171 53.5792C2.37918 55.2922 2.23643 56.8149 2.14126 58.1948C2.56952 58.2424 3.28327 58.29 4.23494 58.29C5.56729 58.29 6.70929 58.0997 7.66097 57.719C8.56506 57.3859 9.04089 56.6722 9.04089 55.6253ZM10.9442 55.5301C10.9442 56.9577 10.2781 58.0045 8.89814 58.6707C7.51822 59.3368 5.75762 59.6699 3.61636 59.6699C3.04535 59.6699 1.80818 59.6699 0 59.6223C0.142751 58.7183 0.475836 56.5294 0.999256 53.0082C1.28476 50.7242 1.47509 48.7733 1.47509 47.0603H2.95019C3.1881 47.0603 3.75911 47.0603 4.6632 47.0127C5.5197 47.0127 6.13829 46.9651 6.51896 46.9651C7.80372 46.9651 8.85056 47.203 9.65948 47.6313C10.4684 48.1071 10.8491 48.7257 10.8491 49.5822C10.8491 50.2484 10.6112 50.8669 10.1353 51.438C9.65948 52.009 8.99331 52.4372 8.23197 52.6275V52.7227C8.99331 52.8179 9.6119 53.151 10.1829 53.6268C10.7063 54.1026 10.9442 54.7212 10.9442 55.5301Z" fill="#4E6EB3"/>
<path fill-rule="evenodd" clip-rule="evenodd" d="M29.3591 54.4833C29.3591 53.5792 29.1212 52.8179 28.5978 52.1517C28.122 51.5332 27.3606 51.2001 26.4565 51.2001C25.267 51.2001 24.3629 51.6283 23.6491 52.5324C22.9354 53.4365 22.6023 54.3882 22.6023 55.435C22.6023 56.3391 22.8402 57.1004 23.3636 57.7666C23.887 58.3852 24.6008 58.7183 25.5525 58.7183C26.6945 58.7183 27.6461 58.29 28.3123 57.3859C29.0261 56.4818 29.3591 55.5302 29.3591 54.4833ZM31.3577 54.1978C31.3577 55.7681 30.7867 57.1004 29.6447 58.2424C28.5026 59.3845 26.98 59.9555 25.1242 59.9555C23.887 59.9555 22.8402 59.5272 21.9361 58.7183C21.032 57.9094 20.6038 56.8625 20.6038 55.5778C20.6038 54.0551 21.1748 52.7227 22.3168 51.6283C23.4588 50.5339 24.9815 49.9629 26.8848 49.9629C28.122 49.9629 29.2164 50.3436 30.0729 51.1049C30.9294 51.9138 31.3577 52.9131 31.3577 54.1978Z" fill="#4E6EB3"/>
<path fill-rule="evenodd" clip-rule="evenodd" d="M49.6297 54.4833C49.6297 53.5792 49.3917 52.8179 48.8683 52.1517C48.3925 51.5332 47.6311 51.2001 46.7271 51.2001C45.5375 51.2001 44.6334 51.6283 43.9196 52.5324C43.2059 53.4365 42.8728 54.3882 42.8728 55.435C42.8728 56.3391 43.1107 57.1004 43.6341 57.7666C44.1575 58.3852 44.8713 58.7183 45.823 58.7183C46.965 58.7183 47.9166 58.29 48.5828 57.3859C49.2966 56.4818 49.6297 55.5302 49.6297 54.4833ZM51.6282 54.1978C51.6282 55.7681 51.0572 57.1004 49.9152 58.2424C48.7732 59.3845 47.2505 59.9555 45.3947 59.9555C44.1575 59.9555 43.1107 59.5272 42.2066 58.7183C41.3025 57.9094 40.8743 56.8625 40.8743 55.5778C40.8743 54.0551 41.4453 52.7227 42.5873 51.6283C43.7293 50.5339 45.252 49.9629 47.1553 49.9629C48.3925 49.9629 49.4869 50.3436 50.3434 51.1049C51.1999 51.9138 51.6282 52.9131 51.6282 54.1978Z" fill="#4E6EB3"/>
<path fill-rule="evenodd" clip-rule="evenodd" d="M71.661 50.3911C71.661 50.5814 71.1376 51.1049 70.1383 51.9614C69.1391 52.7703 68.235 53.484 67.3785 54.055V54.1502C68.235 55.0067 68.9963 56.006 69.6149 57.1956C70.2335 58.3851 70.5666 59.1941 70.5666 59.6223L68.4253 59.7175C68.4253 59.3844 68.1874 58.7182 67.7592 57.719C67.3309 56.7197 66.7599 55.8632 66.1413 55.1495C65.6179 55.5777 65.1421 56.0536 64.7138 56.5294C63.7621 57.6238 63.2387 58.6707 63.1436 59.6223L61.1926 59.7175C61.3354 59.0989 61.6685 56.6721 62.287 52.4372C62.6201 49.9153 62.7629 47.8216 62.7629 46.061L64.9517 45.9658C64.9517 46.2989 64.7614 47.7264 64.3807 50.2008C64.0001 52.7227 63.667 54.7688 63.4766 56.4342H63.5718C64.0001 55.6253 65.0469 54.4833 66.7123 53.0082C68.3778 51.5331 69.2343 50.629 69.2343 50.3435L71.661 50.3911Z" fill="#4E6EB3"/>
<path fill-rule="evenodd" clip-rule="evenodd" d="M96.69 45.9182C96.69 46.2989 96.5948 47.1554 96.3569 48.4877C96.119 49.8201 95.9287 51.1048 95.7859 52.3896C95.4053 55.3874 95.1673 57.7665 95.0722 59.5271L92.9309 59.7175C92.9309 59.432 93.0737 58.5755 93.3116 57.148C93.5971 55.7204 93.835 54.1026 94.0253 52.3896C94.3584 49.7725 94.5487 47.6312 94.5487 46.0134L96.69 45.9182Z" fill="#4E6EB3"/>
<path fill-rule="evenodd" clip-rule="evenodd" d="M112.63 49.1064H111.298C111.298 49.0112 110.87 48.4878 110.013 47.5361C109.157 46.5844 108.729 46.061 108.729 46.0134H111.013C111.013 46.061 111.298 46.5844 111.821 47.5361C112.393 48.4878 112.63 49.0112 112.63 49.1064ZM113.201 51.5331C111.203 51.5807 109.775 52.009 108.824 52.8655C107.92 53.722 107.444 54.864 107.444 56.2915C107.444 57.7666 108.062 58.4803 109.252 58.4803C110.061 58.4803 110.87 58.0045 111.536 57.0053C112.25 56.006 112.678 55.1495 112.821 54.3406C113.011 53.5316 113.106 52.58 113.201 51.5331ZM115.343 50.0105C114.629 53.2937 114.248 55.6729 114.248 57.148C114.248 57.8142 114.296 58.6231 114.439 59.5272L112.44 59.7651C112.393 59.1941 112.392 58.4803 112.392 57.6238H112.297C111.298 59.0989 109.966 59.8603 108.348 59.8603C107.396 59.8603 106.682 59.5272 106.159 58.9086C105.683 58.29 105.398 57.4811 105.398 56.4818C105.398 54.864 106.064 53.4841 107.444 52.2945C108.824 51.1049 110.775 50.4863 113.344 50.4863L113.868 50.2008L115.343 50.0105Z" fill="#4E6EB3"/>
<path fill-rule="evenodd" clip-rule="evenodd" d="M149.651 47.0127C149.508 47.8216 149.175 49.8201 148.699 52.9607C148.413 55.1971 148.223 57.3859 148.128 59.5748H145.891C146.082 58.5279 146.367 56.5294 146.748 53.5792H140.039C139.848 55.0067 139.658 57.0053 139.515 59.5748H137.279C137.469 58.4804 137.802 56.2915 138.278 52.9607C138.564 50.8194 138.706 48.8209 138.754 47.0127H140.99C140.848 47.8692 140.562 49.6774 140.134 52.3896H146.891C147.081 51.0097 147.224 49.2015 147.319 47.0127H149.651Z" fill="#4E6EB3"/>
<path fill-rule="evenodd" clip-rule="evenodd" d="M166.543 51.5332C164.544 51.5808 163.117 52.009 162.165 52.8655C161.261 53.722 160.785 54.864 160.785 56.2915C160.785 57.7666 161.404 58.4804 162.593 58.4804C163.402 58.4804 164.211 58.0046 164.877 57.0053C165.591 56.006 166.019 55.1495 166.162 54.3406C166.4 53.5317 166.495 52.58 166.543 51.5332ZM168.684 50.0105C167.97 53.2938 167.59 55.673 167.59 57.148C167.59 57.8142 167.637 58.6231 167.78 59.5272L165.781 59.7651C165.734 59.1941 165.734 58.4804 165.734 57.6239H165.639C164.639 59.099 163.307 59.8603 161.689 59.8603C160.738 59.8603 160.024 59.5272 159.5 58.9086C159.025 58.2901 158.739 57.4811 158.739 56.4819C158.739 54.864 159.405 53.4841 160.785 52.2945C162.165 51.1049 164.116 50.4863 166.685 50.4863L167.209 50.2008L168.684 50.0105Z" fill="#4E6EB3"/>
<path fill-rule="evenodd" clip-rule="evenodd" d="M187.099 54.4356C187.099 52.4371 186.242 51.4854 184.529 51.4854C183.673 51.4854 182.864 51.9137 182.055 52.8178C181.246 53.7219 180.77 54.7211 180.627 55.9107L180.389 58.0996C181.151 58.4802 181.912 58.6706 182.626 58.6706C184.149 58.6706 185.243 58.2899 186.004 57.5286C186.718 56.6721 187.099 55.6728 187.099 54.4356ZM189.097 53.8646C189.097 55.6252 188.574 57.0527 187.479 58.1947C186.385 59.3367 184.958 59.9077 183.102 59.9077C181.865 59.9077 180.96 59.7174 180.342 59.2892H180.247C180.009 61.0973 179.866 62.62 179.723 63.9999L177.63 64.0951C178.629 58.1472 179.105 54.388 179.105 52.7226C179.105 52.104 179.057 51.3903 178.914 50.5338L180.913 50.2958C180.961 50.8193 180.96 51.5806 180.96 52.5323H181.056C182.103 50.962 183.53 50.2007 185.338 50.2007C186.433 50.2007 187.337 50.5338 188.05 51.1999C188.764 51.8185 189.097 52.7226 189.097 53.8646Z" fill="#4E6EB3"/>
<path fill-rule="evenodd" clip-rule="evenodd" d="M207.512 54.4356C207.512 52.4371 206.656 51.4854 204.943 51.4854C204.086 51.4854 203.277 51.9137 202.469 52.8178C201.66 53.7219 201.184 54.7211 201.041 55.9107L200.803 58.052C201.564 58.4327 202.326 58.623 203.04 58.623C204.562 58.623 205.657 58.2423 206.418 57.481C207.132 56.6721 207.512 55.6728 207.512 54.4356ZM209.558 53.8646C209.558 55.6252 209.035 57.0527 207.941 58.1947C206.846 59.3367 205.419 59.9077 203.563 59.9077C202.326 59.9077 201.422 59.7174 200.803 59.2892H200.708C200.47 61.0973 200.327 62.62 200.185 63.9999L198.091 64.0951C199.09 58.1472 199.566 54.388 199.566 52.7226C199.566 52.104 199.518 51.3903 199.376 50.5338L201.374 50.2958C201.422 50.8193 201.422 51.5806 201.422 52.5323H201.517C202.564 50.962 203.991 50.2007 205.799 50.2007C206.894 50.2007 207.798 50.5338 208.512 51.1999C209.178 51.8185 209.558 52.7226 209.558 53.8646Z" fill="#4E6EB3"/>
<path fill-rule="evenodd" clip-rule="evenodd" d="M228.687 50.2959C228.687 51.1048 227.878 52.7227 226.26 55.1494C224.642 57.5762 223.691 59.0513 223.405 59.6699C222.692 61.2877 222.025 62.3346 221.454 62.858C220.741 63.4766 219.551 63.8097 218.028 63.8097L218.076 62.4773C219.075 62.4773 219.979 62.1442 220.788 61.5256C221.597 60.9071 221.978 60.1933 221.978 59.3844C221.978 58.3851 221.502 56.8149 220.503 54.5784C219.503 52.342 219.028 50.9621 219.028 50.3911L221.359 50.2959C221.359 51.1048 221.645 52.4372 222.263 54.2929C222.882 56.1963 223.167 57.3859 223.167 57.9093H223.31C223.358 57.5762 223.929 56.4342 225.023 54.4833C226.118 52.5323 226.641 51.1524 226.641 50.3911L228.687 50.2959Z" fill="#4E6EB3"/>
</svg>
