<svg width="19" height="19" viewBox="0 0 19 19" fill="none" xmlns="http://www.w3.org/2000/svg">
<path d="M18.2057 15.4932C18.2545 15.6273 18.264 15.7726 18.2331 15.9119C18.2022 16.0512 18.1322 16.1788 18.0314 16.2798L15.7814 18.5298C15.7117 18.5996 15.629 18.655 15.538 18.6928C15.4469 18.7306 15.3493 18.75 15.2507 18.7501C15.2261 18.7515 15.2013 18.7515 15.1767 18.7501C15.0662 18.7392 14.9596 18.704 14.8644 18.6469C14.7693 18.5899 14.688 18.5124 14.6264 18.4201L10.4948 12.2213L8.50073 14.2117V16.5001C8.50064 16.6987 8.42174 16.8892 8.28135 17.0298C8.28135 17.0298 6.96885 18.3479 6.7926 18.5185C6.71933 18.5952 6.63046 18.6553 6.53198 18.6948C6.34843 18.7695 6.14275 18.7686 5.95988 18.6922C5.77701 18.6158 5.63182 18.4701 5.55604 18.287L5.55042 18.2729L4.17229 14.8267L0.719478 13.4457C0.604294 13.3996 0.502339 13.3257 0.422747 13.2305C0.343155 13.1354 0.288412 13.022 0.263422 12.9005C0.238431 12.7789 0.243974 12.6531 0.279553 12.5343C0.315133 12.4154 0.379638 12.3073 0.46729 12.2195L1.96729 10.7195C2.03733 10.6495 2.12052 10.5941 2.21208 10.5565C2.30363 10.5188 2.40173 10.4996 2.50073 10.5001H4.78823L6.78229 8.50603L0.584477 4.37353C0.492038 4.312 0.414417 4.2307 0.357219 4.13551C0.300021 4.04033 0.264675 3.93363 0.253732 3.82312C0.242788 3.71261 0.256522 3.60105 0.29394 3.4965C0.331358 3.39194 0.391527 3.297 0.470103 3.21853L2.7201 0.968533C2.82104 0.867646 2.94866 0.79765 3.08798 0.766763C3.22731 0.735875 3.37255 0.745379 3.50667 0.794158L11.5635 3.72385L14.5195 0.767907C15.0118 0.275599 15.6795 -0.000976562 16.3757 -0.000976562C16.7205 -0.000976562 17.0618 0.0669245 17.3803 0.19885C17.6988 0.330775 17.9882 0.524141 18.232 0.767907C18.4757 1.01167 18.6691 1.30107 18.801 1.61956C18.933 1.93806 19.0009 2.27942 19.0009 2.62416C19.0009 2.96889 18.933 3.31026 18.801 3.62875C18.6691 3.94725 18.4757 4.23664 18.232 4.48041L15.276 7.43635L18.2057 15.4932Z" fill="#175CD3"/>
</svg>
