<svg width="21" height="20" viewBox="0 0 21 20" fill="none" xmlns="http://www.w3.org/2000/svg">
<g clip-path="url(#clip0_10426_1597)">
<path d="M17.3373 15.4109C17.3779 15.5226 17.3859 15.6437 17.3601 15.7598C17.3344 15.8759 17.2761 15.9822 17.192 16.0663L15.317 17.9413C15.259 17.9995 15.19 18.0456 15.1142 18.0771C15.0383 18.1086 14.9569 18.1249 14.8748 18.1249C14.8542 18.1261 14.8336 18.1261 14.8131 18.1249C14.7211 18.1159 14.6322 18.0865 14.5529 18.0389C14.4736 17.9914 14.4058 17.9268 14.3545 17.8499L10.9115 12.6843L9.24979 14.3429V16.2499C9.24972 16.4155 9.18397 16.5742 9.06698 16.6913C9.06698 16.6913 7.97323 17.7898 7.82635 17.9319C7.7653 17.9959 7.69124 18.046 7.60917 18.0788C7.45621 18.1411 7.28481 18.1404 7.13242 18.0767C6.98003 18.013 6.85904 17.8916 6.79589 17.739L6.7912 17.7273L5.64276 14.8554L2.76542 13.7046C2.66943 13.6662 2.58447 13.6046 2.51814 13.5253C2.45182 13.446 2.4062 13.3515 2.38537 13.2502C2.36455 13.149 2.36916 13.0441 2.39881 12.9451C2.42846 12.846 2.48222 12.7559 2.55526 12.6827L3.80526 11.4327C3.86363 11.3744 3.93296 11.3283 4.00925 11.2969C4.08555 11.2655 4.1673 11.2495 4.24979 11.2499H6.15604L7.81776 9.5882L2.65292 6.14445C2.57588 6.09317 2.5112 6.02542 2.46354 5.9461C2.41587 5.86678 2.38642 5.77786 2.3773 5.68577C2.36818 5.59368 2.37962 5.50072 2.4108 5.41359C2.44198 5.32646 2.49213 5.24734 2.5576 5.18195L4.43261 3.30695C4.51672 3.22288 4.62307 3.16455 4.73917 3.13881C4.85528 3.11307 4.97631 3.12099 5.08807 3.16164L11.8021 5.60304L14.2654 3.13976C14.6757 2.7295 15.2321 2.49902 15.8123 2.49902C16.0996 2.49902 16.384 2.55561 16.6495 2.66555C16.9149 2.77548 17.156 2.93662 17.3592 3.13976C17.5623 3.3429 17.7234 3.58406 17.8334 3.84947C17.9433 4.11489 17.9999 4.39935 17.9999 4.68664C17.9999 4.97392 17.9433 5.25838 17.8334 5.5238C17.7234 5.78921 17.5623 6.03037 17.3592 6.23351L14.8959 8.69679L17.3373 15.4109Z" fill="white"/>
</g>
<defs>
<clipPath id="clip0_10426_1597">
<rect width="20" height="20" fill="white" transform="translate(0.5)"/>
</clipPath>
</defs>
</svg>
