<svg width="21" height="20" viewBox="0 0 21 20" fill="none" xmlns="http://www.w3.org/2000/svg">
<g clip-path="url(#clip0_10426_1557)">
<path d="M8.625 16.875H19.875" stroke="#175CD3" stroke-width="1.5" stroke-linecap="round" stroke-linejoin="round"/>
<path d="M5.1875 5.89536L8.625 6.87505V3.75005C8.62499 3.65101 8.64852 3.55339 8.69365 3.46523C8.73877 3.37707 8.8042 3.30089 8.88454 3.24298C8.96489 3.18507 9.05784 3.14708 9.15574 3.13215C9.25365 3.11721 9.3537 3.12576 9.44766 3.15708L9.875 3.30005L11.75 7.7688L16.7938 9.17505C17.3209 9.3214 17.7855 9.63663 18.1163 10.0724C18.4471 10.5082 18.6258 11.0404 18.625 11.5875V14.375L4.82578 10.511C4.30054 10.3639 3.83781 10.049 3.50818 9.61445C3.17854 9.17987 3.00007 8.64941 3 8.10395V3.75005C2.99999 3.65101 3.02352 3.55339 3.06865 3.46523C3.11377 3.37707 3.1792 3.30089 3.25954 3.24298C3.33989 3.18507 3.43284 3.14708 3.53074 3.13215C3.62865 3.11721 3.7287 3.12576 3.82266 3.15708L4.25 3.30005L5.1875 5.89536Z" stroke="#175CD3" stroke-width="1.5" stroke-linecap="round" stroke-linejoin="round"/>
</g>
<defs>
<clipPath id="clip0_10426_1557">
<rect width="20" height="20" fill="white" transform="translate(0.5)"/>
</clipPath>
</defs>
</svg>
