<svg width="20" height="20" viewBox="0 0 20 20" fill="none" xmlns="http://www.w3.org/2000/svg">
<g clip-path="url(#clip0_10426_1545)">
<path d="M1.875 16.875H13.125" stroke="#175CD3" stroke-width="1.5" stroke-linecap="round" stroke-linejoin="round"/>
<path d="M6.87492 9.10243L4.58195 6.87508C4.50395 6.8049 4.44488 6.71621 4.41018 6.61719C4.37548 6.51817 4.36627 6.41201 4.38339 6.30849C4.40051 6.20498 4.44342 6.10744 4.50816 6.02487C4.5729 5.9423 4.65738 5.87735 4.75382 5.83602L5.31242 5.62508L9.80695 7.27899L14.0913 4.7204C14.6056 4.41775 15.2112 4.30904 15.7987 4.41392C16.3861 4.5188 16.9167 4.83035 17.2944 5.29227L18.7499 7.15946L7.23351 14.0345C6.76829 14.3053 6.22806 14.4188 5.69317 14.358C5.15828 14.2972 4.6573 14.0654 4.26476 13.697L1.44757 10.9376C1.37181 10.8666 1.31493 10.7778 1.28208 10.6793C1.24924 10.5807 1.24146 10.4756 1.25945 10.3733C1.27744 10.271 1.32063 10.1749 1.38512 10.0935C1.44961 10.0121 1.53337 9.94802 1.62882 9.90712L1.87492 9.7868L4.35851 10.6251L6.87492 9.10243Z" stroke="#175CD3" stroke-width="1.5" stroke-linecap="round" stroke-linejoin="round"/>
</g>
<defs>
<clipPath id="clip0_10426_1545">
<rect width="20" height="20" fill="white"/>
</clipPath>
</defs>
</svg>
