<svg width="21" height="20" viewBox="0 0 21 20" fill="none" xmlns="http://www.w3.org/2000/svg">
<g clip-path="url(#clip0_10426_1602)">
<path d="M19.2288 16.25H17.9999V7.5C17.9999 7.16848 17.8682 6.85054 17.6338 6.61612C17.3994 6.3817 17.0814 6.25 16.7499 6.25H13.3124C13.2295 6.25 13.15 6.28292 13.0914 6.34153C13.0328 6.40013 12.9999 6.47962 12.9999 6.5625V16.25H11.7499V2.53203C11.752 2.33733 11.7097 2.14471 11.6263 1.96875C11.543 1.79279 11.4207 1.6381 11.2687 1.51641C11.0615 1.35487 10.8087 1.26272 10.5461 1.25305C10.2836 1.24337 10.0247 1.31666 9.80616 1.4625L3.55616 5.625C3.3847 5.73939 3.2442 5.8944 3.14715 6.07623C3.0501 6.25807 2.99952 6.46108 2.99991 6.66719V16.25H1.771C1.60949 16.2476 1.45307 16.3065 1.3332 16.4148C1.21333 16.523 1.13891 16.6727 1.12491 16.8336C1.11923 16.9191 1.13119 17.0048 1.16005 17.0855C1.18891 17.1662 1.23405 17.2401 1.29266 17.3026C1.35127 17.365 1.42211 17.4148 1.50077 17.4488C1.57943 17.4828 1.66423 17.5002 1.74991 17.5H19.2499C19.3356 17.5002 19.4204 17.4828 19.4991 17.4488C19.5777 17.4148 19.6485 17.365 19.7072 17.3026C19.7658 17.2401 19.8109 17.1662 19.8398 17.0855C19.8686 17.0048 19.8806 16.9191 19.8749 16.8336C19.8609 16.6727 19.7865 16.523 19.6666 16.4148C19.5467 16.3065 19.3903 16.2476 19.2288 16.25ZM6.43741 14.375C6.4376 14.4607 6.42017 14.5455 6.3862 14.6241C6.35223 14.7028 6.30246 14.7736 6.23996 14.8323C6.17747 14.8909 6.10359 14.936 6.02291 14.9649C5.94224 14.9937 5.85649 15.0057 5.771 15C5.60995 14.986 5.46018 14.9115 5.35189 14.7914C5.2436 14.6714 5.18482 14.5148 5.18741 14.3531V13.1461C5.18521 12.9846 5.24414 12.8283 5.35237 12.7085C5.46061 12.5887 5.61015 12.5142 5.771 12.5C5.85649 12.4943 5.94224 12.5063 6.02291 12.5351C6.10359 12.564 6.17747 12.6091 6.23996 12.6677C6.30246 12.7264 6.35223 12.7972 6.3862 12.8759C6.42017 12.9545 6.4376 13.0393 6.43741 13.125V14.375ZM6.43741 10C6.4376 10.0857 6.42017 10.1705 6.3862 10.2491C6.35223 10.3278 6.30246 10.3986 6.23996 10.4573C6.17747 10.5159 6.10359 10.561 6.02291 10.5899C5.94224 10.6187 5.85649 10.6307 5.771 10.625C5.61001 10.6108 5.46036 10.5362 5.3521 10.4162C5.24385 10.2962 5.18501 10.1397 5.18741 9.97812V8.77109C5.18521 8.60963 5.24414 8.45331 5.35237 8.33348C5.46061 8.21365 5.61015 8.13918 5.771 8.125C5.85649 8.11932 5.94224 8.13128 6.02291 8.16014C6.10359 8.189 6.17747 8.23414 6.23996 8.29275C6.30246 8.35136 6.35223 8.4222 6.3862 8.50086C6.42017 8.57952 6.4376 8.66432 6.43741 8.75V10ZM9.56241 14.375C9.5626 14.4607 9.54517 14.5455 9.5112 14.6241C9.47723 14.7028 9.42746 14.7736 9.36496 14.8323C9.30247 14.8909 9.22859 14.936 9.14791 14.9649C9.06724 14.9937 8.98149 15.0057 8.896 15C8.73522 14.986 8.58568 14.9117 8.47743 14.792C8.36918 14.6723 8.31022 14.5161 8.31241 14.3547V13.1461C8.31041 12.9848 8.36942 12.8286 8.47764 12.709C8.58586 12.5893 8.73529 12.515 8.896 12.5008C8.98149 12.4951 9.06724 12.5071 9.14791 12.5359C9.22859 12.5648 9.30247 12.6099 9.36496 12.6685C9.42746 12.7271 9.47723 12.798 9.5112 12.8766C9.54517 12.9553 9.5626 13.0401 9.56241 13.1258V14.375ZM9.56241 10C9.5626 10.0857 9.54517 10.1705 9.5112 10.2491C9.47723 10.3278 9.42746 10.3986 9.36496 10.4573C9.30247 10.5159 9.22859 10.561 9.14791 10.5899C9.06724 10.6187 8.98149 10.6307 8.896 10.625C8.73529 10.6108 8.58586 10.5365 8.47764 10.4168C8.36942 10.2971 8.31041 10.141 8.31241 9.97969V8.77109C8.31041 8.60977 8.36942 8.45364 8.47764 8.33398C8.58586 8.21431 8.73529 8.13995 8.896 8.12578C8.98149 8.1201 9.06724 8.13207 9.14791 8.16092C9.22859 8.18978 9.30247 8.23492 9.36496 8.29353C9.42746 8.35214 9.47723 8.42298 9.5112 8.50164C9.54517 8.5803 9.5626 8.6651 9.56241 8.75078V10Z" fill="#EAECF0"/>
</g>
<defs>
<clipPath id="clip0_10426_1602">
<rect width="20" height="20" fill="white" transform="translate(0.5)"/>
</clipPath>
</defs>
</svg>
