<svg width="20" height="20" viewBox="0 0 20 20" fill="none" xmlns="http://www.w3.org/2000/svg">
<g clip-path="url(#clip0_11548_6792)">
<path d="M16.6666 7.5H12.6982L9.04887 0.314844C9.00021 0.219172 8.92995 0.139664 8.8452 0.0843744C8.76044 0.0290847 8.6642 -2.28703e-05 8.56623 1.34826e-08H6.29192C5.92282 1.34826e-08 5.6565 0.397266 5.75789 0.796484L7.46032 7.5H3.8888L2.3888 5.25C2.28394 5.09258 2.119 5 1.94435 5H0.555811C0.194352 5 -0.0709254 5.38203 0.0169218 5.77656L1.11102 10L0.0169218 14.2234C-0.0709254 14.618 0.194352 15 0.555811 15H1.94435C2.11935 15 2.28394 14.9074 2.3888 14.75L3.8888 12.5H7.46032L5.75789 19.2031C5.6565 19.6023 5.92282 20 6.29192 20H8.56623C8.76553 20 8.94956 19.8797 9.04852 19.6852L12.6982 12.5H16.6666C17.894 12.5 19.9999 11.3809 19.9999 10C19.9999 8.61914 17.894 7.5 16.6666 7.5Z" fill="#101828"/>
</g>
<defs>
<clipPath id="clip0_11548_6792">
<rect width="20" height="20" fill="white"/>
</clipPath>
</defs>
</svg>
