<svg width="20" height="20" viewBox="0 0 20 20" fill="none" xmlns="http://www.w3.org/2000/svg">
<g clip-path="url(#clip0_11548_6797)">
<path d="M7.26261 11.6667H4.17095C3.99622 11.6668 3.82594 11.7218 3.68417 11.824C3.54241 11.9261 3.43634 12.0702 3.38095 12.2359L1.71095 17.2359C1.66908 17.3612 1.65759 17.4946 1.67741 17.6252C1.69723 17.7557 1.74781 17.8797 1.82497 17.9869C1.90212 18.0941 2.00365 18.1814 2.12118 18.2417C2.23871 18.3019 2.36888 18.3334 2.50095 18.3334H17.5009C17.6329 18.3333 17.763 18.3019 17.8804 18.2417C17.9979 18.1815 18.0993 18.0942 18.1765 17.9872C18.2536 17.8801 18.3042 17.7562 18.3241 17.6257C18.344 17.4953 18.3327 17.362 18.2909 17.2367L16.6243 12.2367C16.569 12.0707 16.4629 11.9264 16.3209 11.824C16.179 11.7217 16.0084 11.6667 15.8334 11.6667H12.7401M15.0009 6.66675C15.0009 9.67758 11.7768 12.8576 10.5068 13.9959C10.3615 14.1069 10.1838 14.167 10.0009 14.167C9.81814 14.167 9.6404 14.1069 9.49511 13.9959C8.22595 12.8576 5.00095 9.67758 5.00095 6.66675C5.00095 5.34067 5.52773 4.0689 6.46541 3.13121C7.4031 2.19353 8.67487 1.66675 10.0009 1.66675C11.327 1.66675 12.5988 2.19353 13.5365 3.13121C14.4742 4.0689 15.0009 5.34067 15.0009 6.66675ZM11.6676 6.66675C11.6676 7.58722 10.9214 8.33341 10.0009 8.33341C9.08047 8.33341 8.33428 7.58722 8.33428 6.66675C8.33428 5.74627 9.08047 5.00008 10.0009 5.00008C10.9214 5.00008 11.6676 5.74627 11.6676 6.66675Z" stroke="#101828" stroke-width="2" stroke-linecap="round" stroke-linejoin="round"/>
</g>
<defs>
<clipPath id="clip0_11548_6797">
<rect width="20" height="20" fill="white"/>
</clipPath>
</defs>
</svg>
