<svg width="10" height="10" viewBox="0 0 10 10" fill="none" xmlns="http://www.w3.org/2000/svg">
<path d="M4.6582 0.222529C4.79802 -0.0741769 5.20198 -0.074176 5.3418 0.22253L6.5916 2.87481C6.64712 2.99264 6.75444 3.0743 6.87859 3.09319L9.67324 3.51851C9.98587 3.56609 10.1107 3.96847 9.88448 4.19943L7.86225 6.26394C7.77242 6.35565 7.73143 6.48779 7.75263 6.61729L8.23002 9.53243C8.28342 9.85854 7.9566 10.1072 7.67698 9.95326L5.17737 8.57692C5.06633 8.51577 4.93367 8.51577 4.82263 8.57692L2.32302 9.95326C2.0434 10.1072 1.71658 9.85854 1.76998 9.53243L2.24737 6.61729C2.26857 6.48779 2.22758 6.35565 2.13775 6.26394L0.115521 4.19943C-0.110701 3.96847 0.0141305 3.56609 0.326763 3.51851L3.12141 3.09319C3.24556 3.0743 3.35288 2.99264 3.4084 2.87481L4.6582 0.222529Z" fill="#FAC515"/>
</svg>
