<svg width="16" height="16" viewBox="0 0 16 16" fill="none" xmlns="http://www.w3.org/2000/svg">
<path d="M7.63067 1.28797C7.76731 0.959449 8.23269 0.959448 8.36933 1.28797L10.0222 5.26195C10.0798 5.40044 10.21 5.49507 10.3596 5.50706L14.6498 5.851C15.0045 5.87944 15.1483 6.32204 14.8781 6.55351L11.6094 9.35351C11.4954 9.45109 11.4457 9.6042 11.4805 9.75011L12.4791 13.9367C12.5617 14.2827 12.1852 14.5563 11.8816 14.3708L8.2085 12.1273C8.0805 12.0492 7.9195 12.0492 7.7915 12.1273L4.11845 14.3708C3.81481 14.5563 3.43831 14.2828 3.52086 13.9367L4.51951 9.75011C4.55431 9.6042 4.50456 9.45109 4.39065 9.35351L1.12193 6.55351C0.851716 6.32204 0.995526 5.87944 1.35019 5.851L5.64044 5.50706C5.78995 5.49507 5.9202 5.40044 5.9778 5.26195L7.63067 1.28797Z" fill="#F2F4F7"/>
<g clip-path="url(#clip0_10603_13300)">
<path d="M7.63067 1.28797C7.76731 0.959449 8.23269 0.959448 8.36933 1.28797L10.0222 5.26195C10.0798 5.40044 10.21 5.49507 10.3596 5.50706L14.6498 5.851C15.0045 5.87944 15.1483 6.32204 14.8781 6.55351L11.6094 9.35351C11.4954 9.45109 11.4457 9.6042 11.4805 9.75011L12.4791 13.9367C12.5617 14.2827 12.1852 14.5563 11.8816 14.3708L8.2085 12.1273C8.0805 12.0492 7.9195 12.0492 7.7915 12.1273L4.11845 14.3708C3.81481 14.5563 3.43831 14.2828 3.52086 13.9367L4.51951 9.75011C4.55431 9.6042 4.50456 9.45109 4.39065 9.35351L1.12193 6.55351C0.851716 6.32204 0.995526 5.87944 1.35019 5.851L5.64044 5.50706C5.78995 5.49507 5.9202 5.40044 5.9778 5.26195L7.63067 1.28797Z" fill="#FDB022"/>
</g>
<defs>
<clipPath id="clip0_10603_13300">
<rect width="16" height="16" fill="white"/>
</clipPath>
</defs>
</svg>
