<svg width="21" height="20" viewBox="0 0 21 20" fill="none" xmlns="http://www.w3.org/2000/svg">
<g clip-path="url(#clip0_10426_1612)">
<path d="M18.625 8.125C18.7908 8.125 18.9497 8.05915 19.0669 7.94194C19.1842 7.82473 19.25 7.66576 19.25 7.5V5C19.25 4.66848 19.1183 4.35054 18.8839 4.11612C18.6495 3.8817 18.3315 3.75 18 3.75H3C2.66848 3.75 2.35054 3.8817 2.11612 4.11612C1.8817 4.35054 1.75 4.66848 1.75 5V7.5C1.75 7.66576 1.81585 7.82473 1.93306 7.94194C2.05027 8.05915 2.20924 8.125 2.375 8.125C2.87228 8.125 3.34919 8.32254 3.70083 8.67417C4.05246 9.02581 4.25 9.50272 4.25 10C4.25 10.4973 4.05246 10.9742 3.70083 11.3258C3.34919 11.6775 2.87228 11.875 2.375 11.875C2.20924 11.875 2.05027 11.9408 1.93306 12.0581C1.81585 12.1753 1.75 12.3342 1.75 12.5V15C1.75 15.3315 1.8817 15.6495 2.11612 15.8839C2.35054 16.1183 2.66848 16.25 3 16.25H18C18.3315 16.25 18.6495 16.1183 18.8839 15.8839C19.1183 15.6495 19.25 15.3315 19.25 15V12.5C19.25 12.3342 19.1842 12.1753 19.0669 12.0581C18.9497 11.9408 18.7908 11.875 18.625 11.875C18.1277 11.875 17.6508 11.6775 17.2992 11.3258C16.9475 10.9742 16.75 10.4973 16.75 10C16.75 9.50272 16.9475 9.02581 17.2992 8.67417C17.6508 8.32254 18.1277 8.125 18.625 8.125ZM3 13.0625C3.70643 12.9191 4.34155 12.5358 4.79774 11.9777C5.25393 11.4195 5.50313 10.7208 5.50313 10C5.50313 9.27915 5.25393 8.58047 4.79774 8.02234C4.34155 7.46421 3.70643 7.08095 3 6.9375V5H7.375V15H3V13.0625Z" fill="#EAECF0"/>
</g>
<defs>
<clipPath id="clip0_10426_1612">
<rect width="20" height="20" fill="white" transform="translate(0.5)"/>
</clipPath>
</defs>
</svg>
