<svg width="21" height="20" viewBox="0 0 21 20" fill="none" xmlns="http://www.w3.org/2000/svg">
<g clip-path="url(#clip0_10426_1607)">
<path d="M19.2502 9.89298C19.0625 7.70288 18.0589 5.6632 16.4383 4.17816C14.8177 2.69312 12.6983 1.8711 10.5002 1.87501C8.30275 1.87208 6.18433 2.69454 4.56454 4.17948C2.94474 5.66443 1.94171 7.70355 1.7541 9.89298C1.73927 10.0656 1.76047 10.2394 1.81637 10.4033C1.87226 10.5673 1.96163 10.7179 2.0788 10.8455C2.19596 10.9731 2.33837 11.0749 2.49699 11.1446C2.6556 11.2142 2.82696 11.2501 3.0002 11.25H9.8752V15.625C9.8752 16.2881 10.1386 16.9239 10.6074 17.3928C11.0763 17.8616 11.7122 18.125 12.3752 18.125C13.0382 18.125 13.6741 17.8616 14.143 17.3928C14.6118 16.9239 14.8752 16.2881 14.8752 15.625C14.8752 15.4593 14.8094 15.3003 14.6921 15.1831C14.5749 15.0659 14.416 15 14.2502 15C14.0844 15 13.9255 15.0659 13.8083 15.1831C13.691 15.3003 13.6252 15.4593 13.6252 15.625C13.6252 15.9565 13.4935 16.2745 13.2591 16.5089C13.0247 16.7433 12.7067 16.875 12.3752 16.875C12.0437 16.875 11.7257 16.7433 11.4913 16.5089C11.2569 16.2745 11.1252 15.9565 11.1252 15.625V11.25H18.0002C18.1738 11.2507 18.3455 11.2151 18.5046 11.1457C18.6637 11.0763 18.8066 10.9746 18.9242 10.8469C19.0418 10.7192 19.1315 10.5685 19.1876 10.4043C19.2437 10.24 19.2651 10.0659 19.2502 9.89298ZM3.0002 10C3.13872 8.39 3.79274 6.86757 4.86518 5.65876C5.93761 4.44995 7.37127 3.6192 8.95332 3.28986C8.0377 4.53126 6.89473 6.72736 6.76348 10H3.0002ZM14.2369 10C14.1057 6.72736 12.9627 4.53126 12.0494 3.28595C13.6321 3.61501 15.0662 4.44625 16.1384 5.65598C17.2106 6.86572 17.8636 8.38929 18.0002 10H14.2369Z" fill="#EAECF0"/>
</g>
<defs>
<clipPath id="clip0_10426_1607">
<rect width="20" height="20" fill="white" transform="translate(0.5)"/>
</clipPath>
</defs>
</svg>
