<svg width="20" height="20" viewBox="0 0 20 20" fill="none" xmlns="http://www.w3.org/2000/svg">
<g clip-path="url(#clip0_13412_43175)">
<path d="M14.1667 16.1668C14.1667 17.3634 13.2339 18.3334 12.0833 18.3334C10.9328 18.3334 10 17.3634 10 16.1667V10.0001M1.77193 8.67197C2.40794 4.70084 5.84965 1.66675 10 1.66675C14.1504 1.66675 17.5921 4.70084 18.2281 8.67197C18.2902 9.05957 18.3212 9.25337 18.2433 9.46037C18.1813 9.62506 18.0295 9.80312 17.8766 9.89039C17.6846 10.0001 17.4564 10.0001 17 10.0001H3.00001C2.54364 10.0001 2.31546 10.0001 2.12339 9.89039C1.97057 9.80312 1.81876 9.62506 1.75675 9.46037C1.67882 9.25337 1.70986 9.05957 1.77193 8.67197Z" stroke="#175CD3" stroke-width="1.5" stroke-linecap="round" stroke-linejoin="round"/>
</g>
<defs>
<clipPath id="clip0_13412_43175">
<rect width="20" height="20" fill="white"/>
</clipPath>
</defs>
</svg>
