<svg width="21" height="20" viewBox="0 0 21 20" fill="none" xmlns="http://www.w3.org/2000/svg">
<path d="M4.93008 16.1988C5.43702 15.0044 6.62061 14.1667 7.99984 14.1667H12.9998C14.3791 14.1667 15.5627 15.0044 16.0696 16.1988M13.8332 7.91675C13.8332 9.7577 12.3408 11.2501 10.4998 11.2501C8.65889 11.2501 7.1665 9.7577 7.1665 7.91675C7.1665 6.0758 8.65889 4.58341 10.4998 4.58341C12.3408 4.58341 13.8332 6.0758 13.8332 7.91675ZM18.8332 10.0001C18.8332 14.6025 15.1022 18.3334 10.4998 18.3334C5.89746 18.3334 2.1665 14.6025 2.1665 10.0001C2.1665 5.39771 5.89746 1.66675 10.4998 1.66675C15.1022 1.66675 18.8332 5.39771 18.8332 10.0001Z" stroke="#175CD3" stroke-width="1.5" stroke-linecap="round" stroke-linejoin="round"/>
</svg>
