<svg width="64" height="65" viewBox="0 0 64 65" fill="none" xmlns="http://www.w3.org/2000/svg">
<path fill-rule="evenodd" clip-rule="evenodd" d="M26.5696 46.7874C24.5196 46.7874 21.5071 46.7874 18.9859 46.7874C18.5721 46.7874 17.5371 46.4062 17.5371 45.9925V36.1862C17.5371 35.7724 18.5721 35.4812 18.9859 35.4812C19.3209 35.4812 24.0221 35.7949 25.8259 36.1349C25.8734 35.7662 26.1884 35.4812 26.5696 35.4812C26.9834 35.4812 27.9471 35.6012 27.9471 36.0149V45.8212C27.9471 46.2362 26.9834 46.7874 26.5696 46.7874Z" fill="#FDE2C3"/>
<path fill-rule="evenodd" clip-rule="evenodd" d="M48.3691 30.8225C48.2654 30.8225 48.1591 30.8012 48.0591 30.7562C47.7366 30.6087 47.5604 30.2562 47.6366 29.9087L49.0091 23.7575H42.2891C39.4729 23.7575 37.1816 21.4662 37.1816 18.65V7.93373C37.1816 5.11748 39.4729 2.82623 42.2891 2.82623H58.8929C61.7091 2.82623 64.0004 5.11748 64.0004 7.93373V18.65C64.0004 21.4662 61.7091 23.7562 58.8929 23.7562H53.9166L48.9741 30.515C48.8291 30.7137 48.6029 30.8225 48.3691 30.8225Z" fill="#FFC738"/>
<path fill-rule="evenodd" clip-rule="evenodd" d="M57.7742 8.78625H43.4092C42.9954 8.78625 42.6592 8.45125 42.6592 8.03625C42.6592 7.6225 42.9954 7.28625 43.4092 7.28625H57.7742C58.1879 7.28625 58.5242 7.6225 58.5242 8.03625C58.5242 8.45125 58.1879 8.78625 57.7742 8.78625Z" fill="white"/>
<path fill-rule="evenodd" clip-rule="evenodd" d="M57.7742 12.29H43.4092C42.9954 12.29 42.6592 11.9537 42.6592 11.54C42.6592 11.1262 42.9954 10.79 43.4092 10.79H57.7742C58.1879 10.79 58.5242 11.1262 58.5242 11.54C58.5242 11.9537 58.1879 12.29 57.7742 12.29Z" fill="white"/>
<path fill-rule="evenodd" clip-rule="evenodd" d="M57.7742 15.7938H43.4092C42.9954 15.7938 42.6592 15.4575 42.6592 15.0438C42.6592 14.6288 42.9954 14.2938 43.4092 14.2938H57.7742C58.1879 14.2938 58.5242 14.6288 58.5242 15.0438C58.5242 15.4575 58.1879 15.7938 57.7742 15.7938Z" fill="white"/>
<path fill-rule="evenodd" clip-rule="evenodd" d="M57.7742 19.2963H43.4092C42.9954 19.2963 42.6592 18.9613 42.6592 18.5463C42.6592 18.1325 42.9954 17.7963 43.4092 17.7963H57.7742C58.1879 17.7963 58.5242 18.1325 58.5242 18.5463C58.5242 18.9613 58.1879 19.2963 57.7742 19.2963Z" fill="white"/>
<path fill-rule="evenodd" clip-rule="evenodd" d="M44.8063 62.1737H0.75C0.33625 62.1737 0 61.8375 0 61.4237V50.5812C0 44.19 5.2 38.9887 11.5925 38.9887H15.5063L19.2062 43.8312C19.1337 44.1875 19.3275 44.5437 19.665 44.6787L21.8463 46.3975L21.4525 50.6687C21.375 50.9487 21.4663 51.2487 21.6863 51.4375L22.57 53.1387L22.5763 53.145L22.5788 53.1462L22.5825 53.15L22.6025 53.1662H22.6038L22.635 53.19L22.6375 53.1925L22.645 53.1975L22.6513 53.2012L22.6525 53.2025L22.6737 53.2162L22.6775 53.2175L22.6812 53.22L22.6863 53.2237H22.6887L22.695 53.2287L22.7025 53.2325L22.7038 53.2337L22.71 53.2362L22.7125 53.2375L22.7175 53.2412L22.7213 53.2425L22.725 53.245L22.73 53.2475L22.7325 53.2487L22.74 53.2512V53.2525L22.7475 53.255L22.7488 53.2562L22.755 53.2587L22.7575 53.26L22.7625 53.2625L22.7663 53.2637L22.77 53.2662L22.7763 53.2675L22.7775 53.2687L22.785 53.2712L22.7862 53.2725L22.7938 53.275H22.795L22.8013 53.2787H22.8037L22.8088 53.2812L22.8137 53.2825L22.8162 53.2837L22.8225 53.2862H22.825L22.8325 53.2887L22.84 53.2912L22.8412 53.2925L22.8475 53.2937L22.8512 53.295L22.8563 53.2962L22.86 53.2975L22.8638 53.2987L22.87 53.3L22.88 53.3025L22.8875 53.305H22.8888L22.895 53.3062L22.8988 53.3075L22.9037 53.3087L22.9088 53.31H22.9112L22.9188 53.3112H22.92L22.9275 53.3137L22.935 53.315H22.9375L22.9438 53.3162H22.9475L22.9513 53.3175L22.9575 53.3187H22.96L22.9675 53.32L22.9762 53.3212H22.9775H22.9837H22.9862L22.9925 53.3225H22.9963L23 53.3237H23.0063H23.0088L23.0163 53.325H23.0238H23.0263H23.0325H23.0362H23.04L23.0462 53.3262H23.0487H23.0562H23.065H23.0662H23.0737H23.075H23.0825H23.085L23.09 53.325H23.095H23.0987H23.105H23.1063H23.115L23.1225 53.3237H23.1238H23.13L23.1338 53.3225H23.1388L23.1437 53.3212H23.1462H23.1537H23.155L23.1625 53.32H23.1637L23.1712 53.3187H23.1737L23.1787 53.3175L23.1825 53.3162H23.1875L23.1925 53.315H23.195L23.2025 53.3137L23.2113 53.3112H23.2125L23.2188 53.31H23.2225L23.2275 53.3087L23.2313 53.3075L23.235 53.3062L23.2412 53.305H23.2437L23.2512 53.3025L23.26 53.3L23.2675 53.2987L23.27 53.2975L23.275 53.2962L23.28 53.295L23.2825 53.2937L23.2887 53.2925L23.29 53.2912L23.2987 53.2887L23.3062 53.2862H23.3075L23.3137 53.2837L23.3175 53.2825L23.3213 53.2812L23.3263 53.2787H23.33L23.3363 53.275H23.3375L23.345 53.2725V53.2712L23.3525 53.2687L23.355 53.2675L23.36 53.2662L23.3638 53.2637L23.3675 53.2625L23.3725 53.26L23.375 53.2587L23.3825 53.2562V53.255L23.3975 53.2487L23.4 53.2475L23.405 53.245L23.4088 53.2425L23.4125 53.2412L23.4275 53.2337V53.2325C23.4775 53.205 23.5237 53.1725 23.5675 53.1337L25.8025 51.2425C26.0238 51.0525 26.115 50.7537 26.0362 50.4737L27.5 45.7625L27.19 44.2875C27.5275 44.1537 27.7212 43.7962 27.6475 43.44L30.1575 38.9887H33.9637C40.3562 38.9887 45.5563 44.19 45.5563 50.5812V61.4237C45.5563 61.8375 45.22 62.1737 44.8063 62.1737Z" fill="#58535A"/>
<path fill-rule="evenodd" clip-rule="evenodd" d="M38.9348 62.1737H37.4348V52.0037C37.4348 51.5887 37.7698 51.2537 38.1848 51.2537C38.5986 51.2537 38.9348 51.5887 38.9348 52.0037V62.1737ZM8.12109 62.1737H6.62109V52.0037C6.62109 51.5887 6.95734 51.2537 7.37109 51.2537C7.78609 51.2537 8.12109 51.5887 8.12109 52.0037V62.1737Z" fill="#474449"/>
<path fill-rule="evenodd" clip-rule="evenodd" d="M23.5674 62.1738H22.0674V48.13C22.0674 47.7163 22.4036 47.38 22.8174 47.38C23.2311 47.38 23.5674 47.7163 23.5674 48.13V62.1738Z" fill="#474449"/>
<path fill-rule="evenodd" clip-rule="evenodd" d="M22.7771 37.8375C18.4658 37.8375 16.2671 35.405 15.1821 33.365C14.3821 31.8637 14.0683 30.3725 13.9483 29.575C12.6121 29.2162 11.6758 28.1362 11.5021 26.6887C11.3246 25.1975 12.0533 23.8575 13.2771 23.4312C13.6683 23.2937 14.0958 23.5 14.2321 23.8912C14.3683 24.2825 13.7958 23.6362 13.4046 23.7725C13.1596 23.8587 13.5358 24.9712 13.4083 25.1825C13.1921 24.8625 13.5658 25.4925 13.4083 25.1825C13.5508 25.3937 13.7871 25.5125 14.0321 25.5125C14.4458 25.5125 14.7821 25.1762 14.7821 24.7625C14.7821 24.3425 15.0508 20.5775 16.7596 19.6887C19.4421 20.9712 26.2458 22.695 28.7046 19.73C29.5096 20.185 30.5833 21.18 30.5646 23.3662C30.5583 23.9862 31.3133 24.47 32.0521 23.815C31.9433 23.665 31.8096 23.5562 31.6558 23.505C31.2633 23.3725 31.2533 24.3025 31.3858 23.91C31.5183 23.5175 31.9446 23.3075 32.3371 23.44C33.5033 23.835 34.1983 25.1612 34.0258 26.6637C33.8583 28.1237 32.9333 29.2125 31.6071 29.5737C31.4883 30.37 31.1733 31.8625 30.3733 33.365C29.2883 35.405 27.0896 37.8375 22.7771 37.8375ZM26.1996 35.5787L26.2433 35.5562C26.2283 35.5637 26.2133 35.5712 26.1996 35.5787Z" fill="#FDD7AD"/>
<path fill-rule="evenodd" clip-rule="evenodd" d="M14.3989 26.5862C14.3664 26.5862 14.3351 26.5837 14.3039 26.58C14.0951 26.5537 13.9001 26.44 13.7751 26.2562C11.9001 23.4837 12.3676 20.9275 12.4251 20.6537C13.5714 14.4125 20.9514 12.0712 21.2651 11.9737C21.2764 11.9712 21.2864 11.9675 21.2964 11.965C22.1601 11.74 22.9926 11.6262 23.7739 11.6262C26.0751 11.6262 28.0126 12.615 29.3789 14.4875C30.1351 15.525 30.5139 16.56 30.6614 17.0387C33.9926 19.64 33.4939 22.5362 33.1164 23.6762C33.0164 23.9787 32.4701 25.4862 31.5489 25.4862C31.4164 25.4862 31.2851 25.4537 31.1689 25.3937C30.9189 25.2637 30.7626 25.0037 30.7651 24.7212C30.7839 22.5362 29.3151 21.405 28.5101 20.95C27.8101 21.7937 26.4789 22.5875 23.9476 22.5875C21.1989 22.5875 18.1226 21.6537 16.5651 20.9087C14.9301 21.7587 15.1089 25.2625 15.1389 25.7175C15.1451 25.7562 15.1489 25.795 15.1489 25.8362C15.1489 26.25 14.8126 26.5862 14.3989 26.5862Z" fill="#BF684C"/>
<path fill-rule="evenodd" clip-rule="evenodd" d="M15.5058 38.9887H17.5283L22.2008 45.6775C22.3408 45.88 22.5708 46 22.8171 46H22.8208C23.0671 45.9987 23.2983 45.8762 23.4371 45.6712L27.9871 38.9887H30.1571L31.0658 43.6837C31.1383 44.04 30.9458 44.3975 30.6071 44.5312L27.4996 45.7625L28.8196 50.5225C28.8971 50.8025 28.8058 51.1025 28.5858 51.2912L23.3183 55.8187C23.2758 55.8575 23.2283 55.8912 23.1796 55.9187H23.1783L23.1646 55.9262L23.1608 55.9287L23.1571 55.93L23.1521 55.9325L23.1496 55.9337L23.1346 55.9412H23.1333L23.1271 55.945L23.1246 55.9462L23.1196 55.9475L23.1158 55.95L23.1121 55.9512L23.1058 55.9537L23.1033 55.955L23.0971 55.9575H23.0958L23.0883 55.9612H23.0871L23.0808 55.9637L23.0783 55.965L23.0733 55.9662L23.0683 55.9675L23.0658 55.9687L23.0596 55.9712L23.0571 55.9725L23.0496 55.975L23.0421 55.9775H23.0408L23.0346 55.98H23.0308L23.0258 55.9812L23.0221 55.9825L23.0183 55.9837L23.0121 55.9862L23.0021 55.9887L22.9946 55.99H22.9933L22.9871 55.9925H22.9833L22.9783 55.9937L22.9733 55.995L22.9708 55.9962L22.9633 55.9975H22.9621L22.9546 55.9987H22.9533L22.9471 56H22.9446L22.9383 56.0012L22.9346 56.0025H22.9308L22.9246 56.0037H22.9221L22.9146 56.005L22.9058 56.0062H22.9046L22.8983 56.0075H22.8958H22.8896L22.8858 56.0087H22.8821H22.8758H22.8733L22.8658 56.01H22.8571H22.8558L22.8496 56.0112H22.8458H22.8408H22.8358H22.8333H22.8258H22.8246H22.8171H22.8158H22.8083H22.8071H22.7996H22.7971H22.7921H22.7871H22.7833L22.7771 56.01H22.7758H22.7671L22.7596 56.0087H22.7583H22.7521H22.7483L22.7433 56.0075H22.7383H22.7358L22.7283 56.0062H22.7271L22.7196 56.005H22.7183L22.7108 56.0037H22.7083L22.7033 56.0025H22.6996L22.6946 56.0012L22.6896 56H22.6871L22.6796 55.9987H22.6783L22.6708 55.9975H22.6696L22.6633 55.9962L22.6596 55.995L22.6546 55.9937L22.6508 55.9925H22.6471L22.6408 55.99H22.6383L22.6308 55.9887L22.6208 55.9862L22.6146 55.9837L22.6121 55.9825L22.6071 55.9812L22.6021 55.98H22.5996L22.5933 55.9775H22.5921L22.5833 55.975L22.5758 55.9725L22.5733 55.9712L22.5683 55.9687L22.5646 55.9675L22.5608 55.9662L22.5546 55.965L22.5521 55.9637L22.5458 55.9612H22.5446L22.5371 55.9575L22.5296 55.955L22.5271 55.9537L22.5221 55.9512L22.5183 55.95L22.5146 55.9475L22.5083 55.9462L22.5071 55.945L22.4996 55.9412H22.4983L22.4908 55.9375L22.4833 55.9337L22.4821 55.9325L22.4771 55.93L22.4733 55.9287L22.4683 55.9262L22.4633 55.9237L22.4621 55.9225L22.4546 55.9187L22.4471 55.9137H22.4458L22.4396 55.91L22.4371 55.9087L22.4321 55.905L22.4283 55.9037L22.4246 55.9012L22.4033 55.8875L22.3958 55.8825L22.3896 55.8775L22.3858 55.8762L22.3546 55.8525L22.3533 55.8512L22.3346 55.8362L22.3296 55.8312L22.3283 55.83L22.3208 55.8237L17.0471 51.2912C16.8271 51.1025 16.7358 50.8025 16.8133 50.5225L18.1346 45.7625L15.0258 44.5312C14.6883 44.3975 14.4946 44.04 14.5683 43.6837L15.5058 38.9887Z" fill="#F1F3F4"/>
</svg>
