<svg width="65" height="65" viewBox="0 0 65 65" fill="none" xmlns="http://www.w3.org/2000/svg">
<path d="M55.4912 33.5984C53.3636 32.6816 51.8761 30.5368 51.8761 28.0719C51.8761 25.6243 53.3636 23.4968 55.4912 22.5627C55.8285 22.4157 56.0015 22.0092 55.915 21.6546C55.3874 19.7173 54.6177 17.8924 53.6577 16.1973C53.4588 15.8427 53.0177 15.7216 52.6458 15.8687C50.5096 16.6816 47.9842 16.2319 46.2544 14.5022C44.5247 12.7724 44.075 10.247 44.888 8.11082C45.035 7.73028 44.9139 7.29785 44.5593 7.09893C42.8642 6.14758 41.0393 5.37785 39.102 4.85028C38.7388 4.75514 38.3409 4.92812 38.1939 5.27406C37.2599 7.40163 35.1496 8.8719 32.6847 8.8719C30.2199 8.8719 28.0923 7.39298 27.1755 5.27406C27.0112 4.93676 26.622 4.76379 26.2588 4.85028C24.3215 5.37785 22.4966 6.14758 20.8015 7.09893C20.4469 7.29785 20.3258 7.73893 20.4728 8.11082C21.2858 10.247 20.8361 12.7724 19.1063 14.5022C17.3766 16.2319 14.8512 16.6816 12.715 15.8687C12.3344 15.7216 11.902 15.8427 11.7031 16.1973C10.7431 17.8924 9.97337 19.7173 9.4458 21.6546C9.35066 22.0092 9.52364 22.4157 9.86958 22.5627C11.9972 23.4968 13.4847 25.6243 13.4847 28.0719C13.4847 30.5368 11.9972 32.673 9.86958 33.5984C9.53229 33.7454 9.35931 34.1519 9.4458 34.5065C9.97337 36.4438 10.7431 38.2687 11.7031 39.9724C11.902 40.327 12.3431 40.4308 12.715 40.2838C14.8512 39.4708 17.3593 39.9206 19.089 41.6503C20.8188 43.38 21.2858 45.9054 20.4728 48.0416C20.3258 48.4222 20.4469 48.8546 20.8015 49.0535C22.4966 50.0049 24.3215 50.7746 26.2588 51.3022C26.622 51.3973 27.0199 51.233 27.1755 50.8784C28.0923 48.7508 30.2199 47.2805 32.6847 47.2805C35.1496 47.2805 37.2599 48.7595 38.1939 50.8784C38.3409 51.233 38.7388 51.3887 39.102 51.3022C41.0393 50.7746 42.8642 50.0049 44.5593 49.0535C44.9139 48.8546 45.035 48.4135 44.888 48.0416C44.075 45.9054 44.5334 43.38 46.2717 41.6503C48.0015 39.9206 50.5096 39.4708 52.6458 40.2838C53.0263 40.4308 53.4588 40.327 53.6577 39.9724C54.6177 38.2687 55.3874 36.4351 55.915 34.5065C56.0015 34.1519 55.8285 33.7454 55.4912 33.5984ZM32.6761 38.2168C27.0717 38.2168 22.5312 33.6849 22.5312 28.0892C22.5312 22.4849 27.0631 17.9443 32.6761 17.9443C38.2717 17.9443 42.8036 22.4762 42.8036 28.0892C42.8036 33.6762 38.2631 38.2168 32.6761 38.2168Z" fill="#FFCC33"/>
<path d="M32.6754 44.7465C23.4819 44.7465 15.9922 37.2741 15.9922 28.0806C15.9922 18.887 23.4733 11.4146 32.6754 11.4146C41.8603 11.4146 49.3414 18.887 49.3414 28.0806C49.3414 37.2741 41.8603 44.7465 32.6754 44.7465ZM32.6754 14.1216C24.9695 14.1216 18.6992 20.3833 18.6992 28.0806C18.6992 35.7779 24.9695 42.0395 32.6754 42.0395C40.3727 42.0395 46.6344 35.7779 46.6344 28.0806C46.6344 20.3833 40.3727 14.1216 32.6754 14.1216Z" fill="#F2B725"/>
<path opacity="0.15" d="M47.344 15.3584C46.9548 15.1335 46.5829 14.8568 46.2456 14.5108C44.5073 12.7725 44.0575 10.2557 44.8792 8.11949C45.0262 7.7303 44.9051 7.29786 44.5505 7.0903C42.8554 6.15624 41.0305 5.37786 39.0932 4.84165C38.7386 4.75516 38.3321 4.92813 38.1851 5.25678C37.2424 7.393 35.1321 8.87192 32.6673 8.87192C30.2111 8.87192 28.0921 7.38435 27.1667 5.25678C27.0024 4.92813 26.6046 4.75516 26.2413 4.84165C24.3127 5.37786 22.4792 6.14759 20.784 7.0903C20.4294 7.29786 20.3083 7.7303 20.4554 8.11949C21.277 10.2644 20.8273 12.7725 19.0889 14.5108C17.3505 16.2319 14.8338 16.6816 12.6975 15.8773C12.3256 15.7303 11.8759 15.8514 11.6856 16.1887C10.717 17.8838 9.94727 19.7087 9.42835 21.646C9.32457 22.0006 9.50619 22.4071 9.84348 22.5714C11.9711 23.4968 13.4586 25.6157 13.4586 28.0719C13.4586 30.5368 11.9711 32.6816 9.84348 33.5984C9.49754 33.7454 9.32457 34.1519 9.42835 34.5065C9.94727 36.4352 10.7256 38.2687 11.6856 39.9811C11.8759 40.3271 12.3256 40.4395 12.6975 40.2925C14.8424 39.4708 17.3332 39.9206 19.0716 41.6589C19.4175 42.0049 19.7116 42.3595 19.9365 42.7573C24.5894 42.1779 28.9311 40.5865 32.7192 38.2081H32.6673C27.0629 38.2081 22.5311 33.6762 22.5311 28.0806C22.5311 22.4762 27.0629 17.9444 32.6673 17.9444C38.2716 17.9444 42.8035 22.4762 42.8035 28.0806V28.1065C45.1819 24.3184 46.7646 19.9941 47.344 15.3584Z" fill="white"/>
<path opacity="0.15" d="M39.0932 4.8503C38.7386 4.76381 38.3321 4.93678 38.1851 5.26543C37.2424 7.393 35.1321 8.87192 32.6673 8.87192C30.2111 8.87192 28.0921 7.38435 27.1667 5.25678C27.0024 4.92813 26.6046 4.75516 26.2413 4.84165C24.3127 5.37786 22.4792 6.14759 20.784 7.0903C20.4294 7.29786 20.3083 7.7303 20.4554 8.11949C21.277 10.2643 20.8273 12.7725 19.0889 14.5108C17.3505 16.2319 14.8338 16.6816 12.6975 15.8773C12.3256 15.7303 11.8759 15.8514 11.6856 16.1887C10.717 17.8838 9.94727 19.7087 9.42835 21.646C9.32457 22.0006 9.50619 22.4071 9.84348 22.5714C11.9711 23.4968 13.4586 25.6157 13.4586 28.0719C13.4586 30.5368 11.9711 32.6816 9.84348 33.5984C9.49754 33.7454 9.32457 34.1519 9.42835 34.5065C9.65321 35.3368 9.92997 36.1584 10.2586 36.9627C15.2575 36.9368 19.9797 35.7173 24.157 33.607C23.1192 32.0157 22.5224 30.1303 22.5224 28.0892C22.5224 22.4849 27.0543 17.953 32.6586 17.953C34.6911 17.953 36.5851 18.5498 38.1592 19.5876C40.2867 15.4103 41.5062 10.6795 41.5321 5.68921C40.7365 5.35192 39.9235 5.08381 39.0932 4.8503Z" fill="white"/>
<path d="M45.3635 52.7119H19.971C19.971 52.7119 19.3483 44.5995 21.1818 42.0914C22.6089 40.1282 30.0986 38.2514 30.0986 38.2514H35.2186C35.2186 38.2514 42.7083 40.1282 44.1353 42.0914C45.9775 44.5995 45.3635 52.7119 45.3635 52.7119Z" fill="#F15853"/>
<path d="M35.2273 34.8871V41.2957L32.6673 42.126L30.0986 41.2957V34.8871H35.2273Z" fill="#F7BD89"/>
<path d="M30.1064 38.2514L28.0566 38.8222C28.2988 40.9152 29.0858 43.0601 30.6599 44.3401L32.6664 42.126C30.9712 41.0536 30.4696 39.7649 30.1064 38.2514Z" fill="#E04646"/>
<path d="M35.227 38.2514L37.2767 38.8309C37.0346 40.9238 36.2475 43.0514 34.6735 44.3314L32.667 42.126C34.3621 41.0536 34.8637 39.7649 35.227 38.2514Z" fill="#E04646"/>
<path d="M41.1595 52.7119H40.3379L40.7444 48.379L41.1595 52.7119Z" fill="#E04646"/>
<path d="M24.9954 52.7119H24.1738L24.589 48.379L24.9954 52.7119Z" fill="#E04646"/>
<path d="M38.2975 30.1303C38.2975 33.2352 35.7721 38.8568 32.6672 38.8568C29.5537 38.8568 27.0283 33.2352 27.0283 30.1303C27.0283 27.0168 29.5537 24.4914 32.6672 24.4914C35.7808 24.5 38.2975 27.0168 38.2975 30.1303Z" fill="#FFCC99"/>
<path d="M27.6248 33.1227C27.5383 30.9779 27.6507 29.0233 28.5329 27.8471C31.4994 28.9541 34.2237 28.5389 36.7145 26.6276C36.5934 27.6654 36.7145 28.5216 37.2161 29.0925C37.3891 29.2914 37.4842 29.5681 37.3718 29.8189C36.9999 30.6492 37.3113 31.9292 37.4929 33.1314H38.3491C38.8248 29.4989 39.5686 25.4773 37.8302 25.0276C36.6799 22.3119 34.1977 21.2481 31.0669 21.9054C30.9113 21.94 30.7642 21.9746 30.6172 22.0179C27.9448 22.7789 26.2496 25.4168 26.4313 28.193C26.535 29.7843 26.7686 31.3238 27.1058 32.82L27.6248 33.1227Z" fill="#3B4346"/>
<path d="M38.7992 32.9325C38.3495 33.7368 37.6403 34.1952 37.2165 33.953C36.7927 33.7195 36.81 32.872 37.2597 32.0676C37.7095 31.272 38.4187 30.8049 38.8424 31.0471C39.2662 31.2892 39.2403 32.1368 38.7992 32.9325Z" fill="#FFCC99"/>
<path d="M26.5349 32.9325C26.9847 33.7368 27.6939 34.1952 28.1176 33.953C28.5414 33.7195 28.5241 32.872 28.0744 32.0676C27.6247 31.272 26.9155 30.8049 26.4917 31.0471C26.0679 31.2892 26.0939 32.1368 26.5349 32.9325Z" fill="#FFCC99"/>
<path opacity="0.2" d="M35.1838 22.1908C34.0249 21.6719 32.6238 21.5681 31.0584 21.8968C30.9027 21.9314 30.7557 21.966 30.6086 22.0092C27.9362 22.7703 26.2411 25.4081 26.4227 28.1844C26.4919 29.1357 26.5957 30.0698 26.7513 30.9865C26.6562 30.9865 26.5697 31.0125 26.4919 31.0557C26.0681 31.2979 26.0854 32.1454 26.5351 32.9325C26.907 33.6157 27.4692 34.0481 27.893 34.0135C28.3254 35.0946 28.8962 36.1584 29.5795 37.006H30.1676C32.9351 37.006 35.1751 34.766 35.1751 31.9984V22.1908H35.1838Z" fill="white"/>
<path opacity="0.15" d="M42.0254 40.6038V43.3195C42.0254 47.6525 38.514 51.1725 34.1724 51.1725H19.9021C19.8243 48.699 19.8589 43.9163 21.1908 42.0914C22.2546 40.6298 26.6827 39.2114 28.8708 38.5887C29.5367 38.3984 29.9951 38.2773 30.0902 38.2514L30.1075 38.2427C30.4102 39.7649 31.2665 41.0449 32.6675 42.1173C33.3681 41.5811 33.9302 40.993 34.3627 40.3444C34.7951 39.7044 35.0805 38.9952 35.2275 38.2427C35.2275 38.2427 35.2448 38.2514 35.2708 38.2514C35.4178 38.286 35.8502 38.4071 36.4729 38.58C37.9 38.9952 40.2524 39.739 42.0254 40.6038Z" fill="white"/>
<path opacity="0.15" d="M34.3626 40.353C34.1723 41.3217 33.8437 42.2384 33.4026 43.0946C31.6469 46.5108 28.0837 48.8546 23.9756 48.8546H19.8848C19.928 46.3984 20.2048 43.4406 21.1907 42.0914C22.2545 40.6298 26.6826 39.2114 28.8707 38.5887C29.5367 38.3984 29.995 38.2773 30.0902 38.2514L30.1075 38.2427C30.4102 39.7649 31.2664 41.0449 32.6675 42.1173C33.368 41.5898 33.9302 41.0017 34.3626 40.353Z" fill="white"/>
<path d="M30.4788 60.1758H5.09505C5.09505 60.1758 4.47235 52.0633 6.30586 49.5552C7.73289 47.592 15.2226 45.7152 15.2226 45.7152H20.3426C20.3426 45.7152 27.8323 47.592 29.2594 49.5552C31.0929 52.0633 30.4788 60.1758 30.4788 60.1758Z" fill="#DBD7D9"/>
<path d="M20.3427 42.3508V48.7595L17.7827 49.5897L15.2227 48.7595V42.3508H20.3427Z" fill="#F7BD89"/>
<path d="M15.2226 45.7152L13.1729 46.286C13.415 48.379 14.202 50.5239 15.7761 51.8039L17.7912 49.5985C16.0874 48.526 15.5858 47.2287 15.2226 45.7152Z" fill="#EBEBEB"/>
<path d="M20.3431 45.7152L22.3928 46.2947C22.1506 48.3876 21.3636 50.5152 19.7895 51.7952L17.7744 49.5898C19.4782 48.526 19.9798 47.2287 20.3431 45.7152Z" fill="#EBEBEB"/>
<path d="M26.2757 60.1757H25.4541L25.8692 55.8428L26.2757 60.1757Z" fill="#BFBBBE"/>
<path d="M10.1117 60.1757H9.29004L9.70517 55.8428L10.1117 60.1757Z" fill="#BFBBBE"/>
<path d="M23.4215 37.5941C23.4215 40.699 20.8961 46.3206 17.7913 46.3206C14.6777 46.3206 12.1523 40.699 12.1523 37.5941C12.1523 34.4806 14.6777 31.9552 17.7913 31.9552C20.8961 31.9638 23.4215 34.4806 23.4215 37.5941Z" fill="#FFCC99"/>
<path d="M12.741 40.5865C12.6545 38.4417 12.7669 36.4871 13.6491 35.3109C16.6156 36.4179 19.3399 36.0027 21.8307 34.0914C21.7096 35.1292 21.8307 35.9855 22.3323 36.5563C22.5053 36.7552 22.6004 37.0319 22.488 37.2827C22.1161 38.113 22.4275 39.393 22.6091 40.5952H23.4653C23.941 36.9627 24.6848 32.9411 22.9464 32.4914C21.7961 29.7757 19.314 28.7119 16.1831 29.3692C16.0275 29.4038 15.8804 29.4384 15.7334 29.4817C13.061 30.2427 11.3658 32.8806 11.5475 35.6568C11.6512 37.2482 11.8848 38.7876 12.2221 40.2838L12.741 40.5865Z" fill="#3B4346"/>
<path d="M23.9144 40.3962C23.4647 41.2006 22.7555 41.6589 22.3317 41.4168C21.9079 41.1833 21.9252 40.3357 22.375 39.5314C22.8247 38.7357 23.5339 38.2687 23.9577 38.5108C24.3815 38.753 24.3555 39.6006 23.9144 40.3962Z" fill="#FFCC99"/>
<path d="M11.6596 40.3962C12.1093 41.2006 12.8185 41.6589 13.2423 41.4168C13.6661 41.1833 13.6488 40.3357 13.199 39.5314C12.7493 38.7357 12.0401 38.2687 11.6163 38.5108C11.1839 38.753 11.2099 39.6006 11.6596 40.3962Z" fill="#FFCC99"/>
<path opacity="0.2" d="M20.3078 29.6546C19.1489 29.1357 17.7478 29.0319 16.1824 29.3606C16.0267 29.3952 15.8797 29.4298 15.7327 29.473C13.0602 30.2341 11.3651 32.8719 11.5467 35.6482C11.6159 36.5995 11.7197 37.5336 11.8754 38.4503C11.7802 38.4503 11.6937 38.4763 11.6159 38.5195C11.1921 38.7617 11.2094 39.6092 11.6592 40.3963C12.031 41.0795 12.5932 41.5119 13.017 41.4774C13.4494 42.5584 14.0202 43.6222 14.7035 44.4698H15.2916C18.0592 44.4698 20.2992 42.2298 20.2992 39.4622V29.6546H20.3078Z" fill="white"/>
<path opacity="0.15" d="M27.1493 48.0763V50.792C27.1493 55.1249 23.6379 58.6449 19.2963 58.6449H5.01736C4.93952 56.1714 4.97412 51.3887 6.30601 49.5639C7.36979 48.1022 11.7979 46.6839 13.986 46.0612C14.652 45.8709 15.1103 45.7498 15.2055 45.7239L15.2228 45.7152C15.5255 47.2374 16.3817 48.5174 17.7828 49.5898C18.4833 49.0536 19.0455 48.4655 19.4779 47.8168C19.9103 47.1768 20.1957 46.4676 20.3428 45.7152C20.3428 45.7152 20.3601 45.7239 20.386 45.7239C20.533 45.7585 20.9655 45.8795 21.5882 46.0525C23.0152 46.459 25.3763 47.2028 27.1493 48.0763Z" fill="white"/>
<path opacity="0.15" d="M19.4778 47.8168C19.2876 48.7855 18.9589 49.7022 18.5178 50.5584C16.7622 53.9747 13.1989 56.3184 9.09081 56.3184H5C5.04324 53.8622 5.32 50.9044 6.30595 49.5552C7.36973 48.0936 11.7978 46.6752 13.9859 46.0525C14.6519 45.8622 15.1103 45.7411 15.2054 45.7152L15.2227 45.7065C15.5254 47.2287 16.3816 48.5087 17.7827 49.5811C18.4832 49.0536 19.0454 48.4655 19.4778 47.8168Z" fill="white"/>
<path d="M60.2386 60.1758H34.8548C34.8548 60.1758 34.2321 52.0633 36.0656 49.5552C37.4927 47.592 44.9824 45.7152 44.9824 45.7152H50.1024C50.1024 45.7152 57.5921 47.592 59.0191 49.5552C60.8613 52.0633 60.2386 60.1758 60.2386 60.1758Z" fill="#54B8EA"/>
<path d="M50.1111 42.3508V48.7595L47.5511 49.5897L44.9824 48.7595V42.3508H50.1111Z" fill="#F7BD89"/>
<path d="M44.9911 45.7152L42.9414 46.286C43.1836 48.379 43.9706 50.5239 45.5446 51.8039L47.5598 49.5985C45.8474 48.526 45.3544 47.2287 44.9911 45.7152Z" fill="#3AA7C9"/>
<path d="M50.1116 45.7152L52.1613 46.2947C51.9192 48.3876 51.1322 50.5152 49.5581 51.7952L47.543 49.5898C49.2468 48.526 49.7484 47.2287 50.1116 45.7152Z" fill="#3AA7C9"/>
<path d="M56.0443 60.1757H55.2227L55.6291 55.8428L56.0443 60.1757Z" fill="#40AAD3"/>
<path d="M39.8802 60.1757H39.0586L39.4651 55.8428L39.8802 60.1757Z" fill="#40AAD3"/>
<path d="M53.1813 37.5941C53.1813 40.699 50.6559 46.3206 47.551 46.3206C44.4375 46.3206 41.9121 40.699 41.9121 37.5941C41.9121 34.4806 44.4375 31.9552 47.551 31.9552C50.6645 31.9638 53.1813 34.4806 53.1813 37.5941Z" fill="#FFCC99"/>
<path d="M42.5086 40.5865C42.4221 38.4417 42.5345 36.4871 43.4167 35.3109C46.3832 36.4179 49.1075 36.0027 51.5983 34.0914C51.4772 35.1292 51.5983 35.9855 52.0999 36.5563C52.2729 36.7552 52.368 37.0319 52.2556 37.2827C51.8837 38.113 52.195 39.393 52.3767 40.5952H53.2329C53.7086 36.9627 54.4523 32.9411 52.714 32.4914C51.5637 29.7757 49.0815 28.7119 45.9507 29.3692C45.795 29.4038 45.648 29.4384 45.501 29.4817C42.8286 30.2427 41.1334 32.8806 41.315 35.6568C41.4188 37.2482 41.6523 38.7876 41.9896 40.2838L42.5086 40.5865Z" fill="#3B4346"/>
<path d="M53.6752 40.3962C53.2254 41.2006 52.5163 41.6589 52.0925 41.4168C51.6687 41.1833 51.686 40.3357 52.1357 39.5314C52.5854 38.7357 53.2946 38.2687 53.7184 38.5108C54.1509 38.753 54.1249 39.6006 53.6752 40.3962Z" fill="#FFCC99"/>
<path d="M41.4197 40.3962C41.8694 41.2006 42.5786 41.6589 43.0024 41.4168C43.4262 41.1833 43.4089 40.3357 42.9592 39.5314C42.5094 38.7357 41.8002 38.2687 41.3765 38.5108C40.9527 38.753 40.9786 39.6006 41.4197 40.3962Z" fill="#FFCC99"/>
<path opacity="0.2" d="M50.0676 29.6546C48.9086 29.1357 47.5076 29.0319 45.9422 29.3606C45.7865 29.3952 45.6395 29.4298 45.4924 29.473C42.82 30.2341 41.1249 32.8719 41.3065 35.6482C41.3757 36.5995 41.4795 37.5336 41.6351 38.4503C41.54 38.4503 41.4535 38.4763 41.3757 38.5195C40.9519 38.7617 40.9692 39.6092 41.4189 40.3963C41.7908 41.0795 42.353 41.5119 42.7768 41.4774C43.2092 42.5584 43.78 43.6222 44.4632 44.4698H45.0514C47.8189 44.4698 50.0589 42.2298 50.0589 39.4622V29.6546H50.0676Z" fill="white"/>
<path opacity="0.15" d="M56.909 48.0763V50.792C56.909 55.1249 53.3977 58.6449 49.056 58.6449H34.7771C34.6993 56.1714 34.7339 51.3887 36.0658 49.5639C37.1296 48.1022 41.5577 46.6839 43.7458 46.0612C44.4117 45.8709 44.8701 45.7498 44.9652 45.7239L44.9825 45.7152C45.2852 47.2374 45.9858 48.6039 47.5425 49.5898C48.5458 48.9239 48.8917 48.4828 49.3155 47.8341C49.7479 47.1941 49.9555 46.4676 50.1025 45.7152C50.1025 45.7152 50.1198 45.7239 50.1458 45.7239C50.2928 45.7585 50.7252 45.8795 51.3479 46.0525C52.775 46.459 55.136 47.2028 56.909 48.0763Z" fill="white"/>
<path opacity="0.15" d="M49.3242 47.8341C49.134 48.8028 48.7275 49.7109 48.2864 50.5584C46.5307 53.9747 42.9675 56.3184 38.8594 56.3184H34.7686C34.8118 53.8622 35.0886 50.9044 36.0745 49.5552C37.1383 48.0936 41.5664 46.6752 43.7545 46.0525C44.4204 45.8622 44.8788 45.7411 44.974 45.7152L44.9913 45.7065C45.294 47.2287 45.9772 48.6038 47.5513 49.5811C48.4075 49.0536 48.8918 48.4828 49.3242 47.8341Z" fill="white"/>
</svg>
