<svg width="44" height="44" viewBox="0 0 44 44" fill="none" xmlns="http://www.w3.org/2000/svg">
<path d="M40.948 22C40.948 32.6315 32.6315 41.25 22 41.25C18.823 41.25 15.8257 40.4804 13.1845 39.1174C10.3886 37.6746 8.29362 35.1894 6.50466 32.6259C5.16229 30.7023 3.86031 28.8994 3.29104 26.5509C2.93744 25.0918 2.75 23.5678 2.75 22C2.75 11.3685 11.3685 2.75 22 2.75C30.2469 2.80382 40.948 11.3685 40.948 22Z" fill="url(#paint0_linear_12837_43405)"/>
<path d="M22.0001 2.75C21.4917 2.75 20.988 2.77008 20.4895 2.80873C28.1205 3.4011 34.5025 8.44309 37.0459 15.3428C37.0432 15.3477 37.0404 15.3519 37.0377 15.3569C35.0693 19.1382 31.7179 23.4867 27.6024 27.6023C23.4868 31.7179 19.1375 35.0692 15.3571 37.0377C13.9464 37.7718 12.8332 38.1993 11.9746 38.4358C13.615 39.4385 15.4173 40.2019 17.333 40.679C21.4637 38.5172 26.1477 34.9164 30.5321 30.5319C33.5308 27.5332 36.1624 24.3945 38.2183 21.3884C38.2247 21.5915 38.229 21.7952 38.229 21.9999C38.229 32.123 30.415 40.4207 20.4896 41.1912C20.988 41.2299 21.4917 41.25 22.0001 41.25C26.9416 41.25 31.4482 39.388 34.8567 36.3275C36.1075 35.2044 37.1006 33.812 38.0229 32.3988C39.0694 30.7951 39.9931 29.1337 40.5264 27.2466C40.9979 25.5788 41.2501 23.8189 41.2501 22C41.2501 17.1704 39.4715 12.7563 36.5338 9.37676C34.9897 7.60055 32.8989 6.33654 30.8042 5.22185C28.1111 3.78859 25.2637 2.75 22.0001 2.75Z" fill="url(#paint1_linear_12837_43405)"/>
<path d="M14.6313 22.2804L13.3665 21.0156C11.0292 18.6784 7.23987 18.6784 4.90262 21.0156C3.42671 22.4915 2.81448 24.6327 3.31793 26.6583C4.54109 31.58 7.65808 35.753 11.8508 38.3593C14.0304 39.7142 16.8539 39.3997 18.6686 37.585C19.6087 36.6448 20.8839 36.1166 22.2135 36.1166C23.8614 36.1166 25.1972 34.7807 25.1972 33.1329C25.1972 30.462 23.032 28.2967 20.361 28.2967H19.1877C17.2413 28.2967 15.6634 26.7188 15.6634 24.7724C15.6634 23.8377 15.2922 22.9413 14.6313 22.2804Z" fill="url(#paint2_linear_12837_43405)"/>
<path d="M18.6692 37.5849C19.6094 36.6447 20.8845 36.1165 22.2142 36.1165C23.862 36.1165 25.1979 34.7807 25.1979 33.1328C25.1979 32.1871 24.9255 31.3055 24.4563 30.5603C21.3287 33.3201 18.1837 35.5655 15.3568 37.0375C13.9484 37.7704 12.8366 38.1977 11.9785 38.4345C14.1399 39.7003 16.8895 39.3646 18.6692 37.5849Z" fill="url(#paint3_linear_12837_43405)"/>
<path d="M34.1318 20.3392C38.1744 20.3392 40.7288 15.9718 38.723 12.462C35.4075 6.66024 29.1605 2.75 21.9996 2.75C21.9392 2.75 21.879 2.7503 21.8187 2.75083C19.6205 2.77121 17.8477 4.5555 17.8477 6.75385C17.8477 7.81539 18.2693 8.83345 19.0199 9.58405L22.594 13.1581C23.5694 14.1335 25.1508 14.1335 26.1262 13.1581C27.1016 12.1827 28.6831 12.1827 29.6585 13.1581C31.1006 14.6002 31.9107 16.5561 31.9107 18.5955C31.9107 19.5585 32.6914 20.3391 33.6543 20.3391H34.1318V20.3392Z" fill="url(#paint4_linear_12837_43405)"/>
<path d="M20.9609 2.85191C28.3822 3.61127 34.5548 8.58585 37.0454 15.3429C37.0428 15.3478 37.0399 15.352 37.0373 15.357C36.2142 16.9381 35.1486 18.6184 33.8873 20.3392H34.1318C38.1744 20.3392 40.7288 15.9718 38.723 12.462C35.4076 6.66024 29.1606 2.75 21.9997 2.75C21.9265 2.75 21.8536 2.75136 21.7806 2.75219C21.4993 2.7574 21.2252 2.79175 20.9609 2.85191Z" fill="url(#paint5_linear_12837_43405)"/>
<path d="M27.5549 22.8493C29.1806 22.8493 30.4985 21.5314 30.4985 19.9057C30.4985 18.28 29.1806 16.9622 27.5549 16.9622C25.9292 16.9622 24.6113 18.28 24.6113 19.9057C24.6113 21.5314 25.9292 22.8493 27.5549 22.8493Z" fill="url(#paint6_linear_12837_43405)"/>
<path d="M8.41251 18.0179C9.75245 18.0179 10.8387 16.9316 10.8387 15.5917C10.8387 14.2518 9.75245 13.1655 8.41251 13.1655C7.07257 13.1655 5.98633 14.2518 5.98633 15.5917C5.98633 16.9316 7.07257 18.0179 8.41251 18.0179Z" fill="url(#paint7_linear_12837_43405)"/>
<path d="M40.5257 27.2466H38.4663C36.2124 27.2466 34.0508 28.142 32.4571 29.7357L30.3992 31.7936C29.5839 32.6089 30.1614 34.003 31.3145 34.003C32.0486 34.003 32.6438 34.5981 32.6438 35.3323C32.6438 36.4787 34.0024 37.0926 34.8556 36.3267C37.5259 33.9293 39.5224 30.7966 40.5257 27.2466Z" fill="url(#paint8_linear_12837_43405)"/>
<path d="M38.4654 27.2466C38.1365 27.2466 37.8097 27.2662 37.4863 27.3037C36.5851 30.4546 34.9013 33.2746 32.6582 35.5407C32.8105 36.5501 34.0547 37.0448 34.8545 36.3268C37.5248 33.9294 39.5213 30.7967 40.5247 27.2467H38.4654V27.2466Z" fill="url(#paint9_linear_12837_43405)"/>
<path d="M39.4174 4.5823C38.0981 3.26296 35.4529 2.27872 30.2537 4.60532C31.8419 5.3594 33.3104 6.32522 34.6224 7.46686C35.0625 7.37574 35.4169 7.34162 35.695 7.34162C35.9289 7.34162 36.1084 7.36555 36.2383 7.39869C36.369 7.43183 36.45 7.47418 36.4877 7.51192C36.6074 7.63248 36.7778 8.19602 36.5329 9.37721C36.3433 10.2924 35.9041 11.5796 34.999 13.3187C33.0305 17.1 29.6792 21.4485 25.5637 25.564C21.4482 29.6795 17.0988 33.0309 13.3184 34.9994C11.5791 35.9045 10.292 36.3437 9.37687 36.5333C8.1956 36.7782 7.63214 36.6079 7.51151 36.4882C7.39178 36.3675 7.22148 35.8041 7.46637 34.6229C6.32473 33.3109 5.35891 31.8423 4.60484 30.2541C2.27823 35.4533 3.26247 38.0975 4.58181 39.4179C5.32479 40.1599 6.48673 40.7971 8.28763 40.7971C9.68616 40.7971 11.4714 40.4122 13.7446 39.3948C14.2187 39.1831 14.7141 38.9437 15.2315 38.674C19.3774 36.5159 24.0868 32.9003 28.4933 28.4938C32.8997 24.0873 36.5153 19.378 38.6734 15.2321C38.9422 14.7147 39.1826 14.2202 39.3943 13.7461C40.4117 11.4728 40.7966 9.68665 40.7966 8.28721C40.7966 6.48722 40.1605 5.32527 39.4174 4.5823Z" fill="url(#paint10_linear_12837_43405)"/>
<defs>
<linearGradient id="paint0_linear_12837_43405" x1="1.85121" y1="22" x2="40.5091" y2="22" gradientUnits="userSpaceOnUse">
<stop stop-color="#01D0FB"/>
<stop offset="0.6075" stop-color="#26A6FE"/>
<stop offset="1" stop-color="#0182FC"/>
</linearGradient>
<linearGradient id="paint1_linear_12837_43405" x1="11.2858" y1="22" x2="40.9137" y2="22" gradientUnits="userSpaceOnUse">
<stop stop-color="#01BFFA"/>
<stop offset="0.2539" stop-color="#1F9EFC"/>
<stop offset="0.5724" stop-color="#407AFD"/>
<stop offset="0.8326" stop-color="#5464FF"/>
<stop offset="1" stop-color="#5B5CFF"/>
</linearGradient>
<linearGradient id="paint2_linear_12837_43405" x1="2.62561" y1="29.2292" x2="24.9438" y2="29.2292" gradientUnits="userSpaceOnUse">
<stop stop-color="#B0E7C9"/>
<stop offset="0.593" stop-color="#46CC8D"/>
<stop offset="1" stop-color="#0AB69F"/>
</linearGradient>
<linearGradient id="paint3_linear_12837_43405" x1="10.9027" y1="34.8776" x2="24.0128" y2="34.8776" gradientUnits="userSpaceOnUse">
<stop stop-color="#46CC8D"/>
<stop offset="0.5484" stop-color="#0AB69F"/>
<stop offset="1" stop-color="#01998D"/>
</linearGradient>
<linearGradient id="paint4_linear_12837_43405" x1="16.4133" y1="11.5446" x2="38.6861" y2="11.5446" gradientUnits="userSpaceOnUse">
<stop stop-color="#B0E7C9"/>
<stop offset="0.593" stop-color="#46CC8D"/>
<stop offset="1" stop-color="#0AB69F"/>
</linearGradient>
<linearGradient id="paint5_linear_12837_43405" x1="19.7336" y1="11.5446" x2="38.7923" y2="11.5446" gradientUnits="userSpaceOnUse">
<stop stop-color="#46CC8D"/>
<stop offset="0.5484" stop-color="#0AB69F"/>
<stop offset="1" stop-color="#01998D"/>
</linearGradient>
<linearGradient id="paint6_linear_12837_43405" x1="25.5521" y1="19.9057" x2="32.1721" y2="19.9057" gradientUnits="userSpaceOnUse">
<stop stop-color="#46CC8D"/>
<stop offset="0.5484" stop-color="#0AB69F"/>
<stop offset="1" stop-color="#01998D"/>
</linearGradient>
<linearGradient id="paint7_linear_12837_43405" x1="5.31741" y1="15.5917" x2="11.8537" y2="15.5917" gradientUnits="userSpaceOnUse">
<stop stop-color="#B0E7C9"/>
<stop offset="0.593" stop-color="#46CC8D"/>
<stop offset="1" stop-color="#0AB69F"/>
</linearGradient>
<linearGradient id="paint8_linear_12837_43405" x1="28.3408" y1="31.9566" x2="38.7718" y2="31.9566" gradientUnits="userSpaceOnUse">
<stop stop-color="#B0E7C9"/>
<stop offset="0.593" stop-color="#46CC8D"/>
<stop offset="1" stop-color="#0AB69F"/>
</linearGradient>
<linearGradient id="paint9_linear_12837_43405" x1="31.403" y1="31.9566" x2="39.2118" y2="31.9566" gradientUnits="userSpaceOnUse">
<stop stop-color="#46CC8D"/>
<stop offset="0.5484" stop-color="#0AB69F"/>
<stop offset="1" stop-color="#01998D"/>
</linearGradient>
<linearGradient id="paint10_linear_12837_43405" x1="2.29665" y1="22.0003" x2="39.684" y2="22.0003" gradientUnits="userSpaceOnUse">
<stop stop-color="#FFF9DF"/>
<stop offset="0.593" stop-color="#FFE177"/>
<stop offset="1" stop-color="#FEB137"/>
</linearGradient>
</defs>
</svg>
