<svg width="65" height="65" viewBox="0 0 65 65" fill="none" xmlns="http://www.w3.org/2000/svg">
<path d="M54.343 9.60901C54.343 9.07858 54.1323 8.56987 53.7572 8.1948C53.3822 7.81972 52.8734 7.60901 52.343 7.60901H33.166C32.6356 7.60901 32.1269 7.81972 31.7518 8.1948C31.3767 8.56987 31.166 9.07858 31.166 9.60901V20.582L31.712 21.128C31.8866 21.3026 32.0251 21.5099 32.1196 21.738C32.2142 21.9661 32.2628 22.2106 32.2628 22.4575C32.2628 22.7044 32.2142 22.9489 32.1196 23.177C32.0251 23.4052 31.8866 23.6124 31.712 23.787L31.166 24.333V55.391C31.166 55.9214 31.3767 56.4301 31.7518 56.8052C32.1269 57.1803 32.6356 57.391 33.166 57.391H52.343C52.8734 57.391 53.3822 57.1803 53.7572 56.8052C54.1323 56.4301 54.343 55.9214 54.343 55.391V24.333L53.797 23.787C53.6224 23.6124 53.4839 23.4052 53.3894 23.177C53.2949 22.9489 53.2462 22.7044 53.2462 22.4575C53.2462 22.2106 53.2949 21.9661 53.3894 21.738C53.4839 21.5099 53.6224 21.3026 53.797 21.128L54.343 20.582V9.60901Z" fill="url(#paint0_linear_11062_20312)"/>
<path d="M33.5502 55.4114C33.3911 55.4114 33.2385 55.3482 33.1259 55.2357C33.0134 55.1232 32.9502 54.9706 32.9502 54.8114V25.2324H52.5582V54.8124C52.5582 54.9716 52.495 55.1242 52.3825 55.2367C52.2699 55.3492 52.1173 55.4124 51.9582 55.4124L33.5502 55.4114Z" fill="url(#paint1_linear_11062_20312)"/>
<path d="M44.5745 10.037H43.9325C43.8651 10.0365 43.7986 10.0526 43.7388 10.0838C43.679 10.115 43.6277 10.1604 43.5895 10.216L41.4465 13.396C41.4265 13.4266 41.3992 13.4517 41.3671 13.4692C41.335 13.4866 41.2991 13.4958 41.2625 13.496H39.1275C38.7243 13.495 38.3326 13.6299 38.0155 13.879C37.9487 13.9304 37.8946 13.9966 37.8574 14.0722C37.8201 14.1479 37.8008 14.2311 37.8008 14.3155C37.8008 14.3998 37.8201 14.483 37.8574 14.5587C37.8946 14.6344 37.9487 14.7005 38.0155 14.752C38.3326 15.001 38.7243 15.136 39.1275 15.135H41.2665C41.3031 15.1351 41.339 15.1443 41.3711 15.1618C41.4032 15.1793 41.4305 15.2044 41.4505 15.235L43.5925 18.4C43.6307 18.4556 43.682 18.5009 43.7418 18.5321C43.8016 18.5633 43.8681 18.5794 43.9355 18.579H44.5735C44.6071 18.5803 44.6405 18.5735 44.6709 18.5591C44.7013 18.5447 44.7278 18.5232 44.7482 18.4964C44.7685 18.4696 44.782 18.4383 44.7877 18.4052C44.7933 18.372 44.7908 18.338 44.7805 18.306L43.7655 15.4C43.7552 15.368 43.7528 15.3339 43.7584 15.3008C43.764 15.2676 43.7776 15.2363 43.7979 15.2095C43.8182 15.1827 43.8447 15.1612 43.8751 15.1469C43.9055 15.1325 43.9389 15.1257 43.9725 15.127H45.6325C45.6825 15.1269 45.731 15.1434 45.7705 15.174L46.6845 15.884C46.7184 15.9121 46.76 15.9292 46.8039 15.9331C46.8477 15.937 46.8917 15.9274 46.93 15.9057C46.9683 15.884 46.9991 15.8512 47.0183 15.8116C47.0375 15.772 47.0442 15.7275 47.0375 15.684L46.8105 14.419C46.7968 14.3426 46.7968 14.2644 46.8105 14.188L47.0375 12.923C47.0442 12.8795 47.0375 12.835 47.0183 12.7954C46.9991 12.7557 46.9683 12.7229 46.93 12.7012C46.8917 12.6795 46.8477 12.67 46.8039 12.6739C46.76 12.6778 46.7184 12.6949 46.6845 12.723L45.7705 13.433C45.731 13.4635 45.6825 13.4801 45.6325 13.48H43.9725C43.9389 13.4813 43.9055 13.4745 43.8751 13.4601C43.8447 13.4457 43.8182 13.4242 43.7979 13.3974C43.7776 13.3706 43.764 13.3393 43.7584 13.3062C43.7528 13.273 43.7552 13.239 43.7655 13.207L44.7815 10.298C44.7896 10.2667 44.7903 10.234 44.7835 10.2025C44.7768 10.1709 44.7629 10.1413 44.7429 10.1161C44.7228 10.0908 44.6972 10.0705 44.668 10.0568C44.6388 10.043 44.6068 10.0363 44.5745 10.037Z" fill="url(#paint2_linear_11062_20312)"/>
<path d="M49.9268 10.328C49.6615 10.328 49.4072 10.4334 49.2197 10.6209C49.0321 10.8084 48.9268 11.0628 48.9268 11.328V17.292C48.9268 17.5572 49.0321 17.8116 49.2197 17.9991C49.4072 18.1866 49.6615 18.292 49.9268 18.292C50.192 18.292 50.4463 18.1866 50.6339 17.9991C50.8214 17.8116 50.9268 17.5572 50.9268 17.292V11.328C50.9268 11.0628 50.8214 10.8084 50.6339 10.6209C50.4463 10.4334 50.192 10.328 49.9268 10.328Z" fill="url(#paint3_linear_11062_20312)"/>
<path d="M42.7536 21.464C42.9603 21.4802 43.1577 21.5562 43.3218 21.6828C43.4859 21.8095 43.6096 21.9812 43.6776 22.177C43.7456 22.3728 43.755 22.5842 43.7048 22.7853C43.6545 22.9864 43.5467 23.1685 43.3945 23.3093C43.2424 23.45 43.0525 23.5434 42.8481 23.5779C42.6437 23.6124 42.4337 23.5866 42.2437 23.5036C42.0538 23.4206 41.8922 23.284 41.7786 23.1105C41.6651 22.9371 41.6046 22.7343 41.6046 22.527C41.6163 22.2338 41.7439 21.9572 41.9593 21.7579C42.1747 21.5586 42.4604 21.4529 42.7536 21.464ZM44.9616 22.527C44.9433 22.7582 44.9951 22.9896 45.1104 23.1909C45.2256 23.3922 45.3989 23.554 45.6076 23.6553C45.8162 23.7566 46.0506 23.7926 46.28 23.7586C46.5094 23.7246 46.7233 23.6222 46.8936 23.4647C47.0639 23.3073 47.1828 23.1022 47.2347 22.8761C47.2867 22.6501 47.2692 22.4136 47.1846 22.1976C47.1001 21.9816 46.9523 21.7962 46.7607 21.6655C46.5691 21.5348 46.3425 21.4649 46.1106 21.465C45.8177 21.4539 45.5323 21.5593 45.317 21.7582C45.1016 21.957 44.9738 22.2331 44.9616 22.526V22.527ZM32.6816 23.589C32.8284 23.6009 32.976 23.5823 33.1153 23.5343C33.2545 23.4863 33.3823 23.41 33.4905 23.3102C33.5988 23.2104 33.6852 23.0892 33.7443 22.9543C33.8034 22.8194 33.8339 22.6738 33.8339 22.5265C33.8339 22.3792 33.8034 22.2336 33.7443 22.0987C33.6852 21.9638 33.5988 21.8426 33.4905 21.7428C33.3823 21.643 33.2545 21.5667 33.1153 21.5187C32.976 21.4707 32.8284 21.4521 32.6816 21.464C32.4648 21.4684 32.2534 21.5324 32.0706 21.649C32.2 21.9193 32.2626 22.2166 32.2532 22.5161C32.2438 22.8156 32.1627 23.1084 32.0166 23.37C32.211 23.5086 32.4429 23.585 32.6816 23.589ZM48.3196 22.527C48.3013 22.7582 48.3531 22.9896 48.4684 23.1909C48.5836 23.3922 48.7569 23.554 48.9656 23.6553C49.1742 23.7566 49.4086 23.7926 49.638 23.7586C49.8674 23.7246 50.0813 23.6222 50.2516 23.4647C50.4219 23.3073 50.5408 23.1022 50.5927 22.8761C50.6447 22.6501 50.6272 22.4136 50.5426 22.1976C50.4581 21.9816 50.3103 21.7962 50.1187 21.6655C49.9271 21.5348 49.7005 21.4649 49.4686 21.465C49.1757 21.4539 48.8903 21.5593 48.675 21.7582C48.4596 21.957 48.3318 22.2331 48.3196 22.526V22.527ZM38.2466 22.527C38.2283 22.7582 38.2801 22.9896 38.3954 23.1909C38.5106 23.3922 38.6839 23.554 38.8926 23.6553C39.1012 23.7566 39.3356 23.7926 39.565 23.7586C39.7944 23.7246 40.0083 23.6222 40.1786 23.4647C40.3489 23.3073 40.4678 23.1022 40.5197 22.8761C40.5717 22.6501 40.5542 22.4136 40.4696 22.1976C40.3851 21.9816 40.2373 21.7962 40.0457 21.6655C39.8541 21.5348 39.6275 21.4649 39.3956 21.465C39.1027 21.4539 38.8173 21.5593 38.602 21.7582C38.3866 21.957 38.2588 22.2331 38.2466 22.526V22.527ZM53.4906 23.371C53.3445 23.1094 53.2634 22.8166 53.254 22.5171C53.2446 22.2176 53.3072 21.9203 53.4366 21.65C53.2538 21.5334 53.0424 21.4694 52.8256 21.465C52.6788 21.4531 52.5312 21.4717 52.3919 21.5197C52.2527 21.5677 52.1249 21.644 52.0167 21.7438C51.9084 21.8436 51.822 21.9648 51.7629 22.0997C51.7038 22.2346 51.6733 22.3802 51.6733 22.5275C51.6733 22.6748 51.7038 22.8204 51.7629 22.9553C51.822 23.0902 51.9084 23.2114 52.0167 23.3112C52.1249 23.411 52.2527 23.4873 52.3919 23.5353C52.5312 23.5833 52.6788 23.6019 52.8256 23.59C53.0644 23.5857 53.2963 23.51 53.4906 23.371ZM34.8906 22.527C34.8723 22.7582 34.9242 22.9896 35.0394 23.1909C35.1546 23.3922 35.3279 23.554 35.5366 23.6553C35.7452 23.7566 35.9796 23.7926 36.209 23.7586C36.4384 23.7246 36.6523 23.6222 36.8226 23.4647C36.9929 23.3073 37.1118 23.1022 37.1637 22.8761C37.2157 22.6501 37.1982 22.4136 37.1136 22.1976C37.0291 21.9816 36.8813 21.7962 36.6897 21.6655C36.4981 21.5348 36.2715 21.4649 36.0396 21.465C35.7465 21.4536 35.4609 21.5589 35.2453 21.7578C35.0297 21.9567 34.9018 22.233 34.8896 22.526L34.8906 22.527Z" fill="url(#paint4_linear_11062_20312)"/>
<path d="M49.9268 31.244C49.6615 31.244 49.4072 31.3494 49.2197 31.5369C49.0321 31.7244 48.9268 31.9788 48.9268 32.244V41.609C48.9268 41.8742 49.0321 42.1286 49.2197 42.3161C49.4072 42.5037 49.6615 42.609 49.9268 42.609C50.192 42.609 50.4463 42.5037 50.6339 42.3161C50.8214 42.1286 50.9268 41.8742 50.9268 41.609V32.244C50.9268 31.9788 50.8214 31.7244 50.6339 31.5369C50.4463 31.3494 50.192 31.244 49.9268 31.244Z" fill="url(#paint5_linear_11062_20312)"/>
<path d="M46.1113 25.766C45.8461 25.766 45.5918 25.8713 45.4042 26.0589C45.2167 26.2464 45.1113 26.5008 45.1113 26.766V41.609C45.1113 41.8742 45.2167 42.1286 45.4042 42.3161C45.5918 42.5036 45.8461 42.609 46.1113 42.609C46.3765 42.609 46.6309 42.5036 46.8184 42.3161C47.006 42.1286 47.1113 41.8742 47.1113 41.609V26.766C47.1113 26.5008 47.006 26.2464 46.8184 26.0589C46.6309 25.8713 46.3765 25.766 46.1113 25.766Z" fill="url(#paint6_linear_11062_20312)"/>
<path d="M42.291 27.607C42.0258 27.607 41.7714 27.7124 41.5839 27.8999C41.3964 28.0874 41.291 28.3418 41.291 28.607V41.607C41.291 41.8722 41.3964 42.1266 41.5839 42.3141C41.7714 42.5016 42.0258 42.607 42.291 42.607C42.5562 42.607 42.8106 42.5016 42.9981 42.3141C43.1857 42.1266 43.291 41.8722 43.291 41.607V28.607C43.291 28.3418 43.1857 28.0874 42.9981 27.8999C42.8106 27.7124 42.5562 27.607 42.291 27.607Z" fill="url(#paint7_linear_11062_20312)"/>
<path d="M49.9268 48.266C49.6615 48.266 49.4072 48.3714 49.2197 48.5589C49.0321 48.7464 48.9268 49.0008 48.9268 49.266V53.172C48.9268 53.4372 49.0321 53.6916 49.2197 53.8791C49.4072 54.0666 49.6615 54.172 49.9268 54.172C50.192 54.172 50.4463 54.0666 50.6339 53.8791C50.8214 53.6916 50.9268 53.4372 50.9268 53.172V49.266C50.9268 49.0008 50.8214 48.7464 50.6339 48.5589C50.4463 48.3714 50.192 48.266 49.9268 48.266Z" fill="url(#paint8_linear_11062_20312)"/>
<path d="M46.1113 49.578C45.8461 49.578 45.5918 49.6834 45.4042 49.8709C45.2167 50.0584 45.1113 50.3128 45.1113 50.578V53.172C45.1113 53.4372 45.2167 53.6916 45.4042 53.8791C45.5918 54.0666 45.8461 54.172 46.1113 54.172C46.3765 54.172 46.6309 54.0666 46.8184 53.8791C47.006 53.6916 47.1113 53.4372 47.1113 53.172V50.578C47.1113 50.3128 47.006 50.0584 46.8184 49.8709C46.6309 49.6834 46.3765 49.578 46.1113 49.578Z" fill="url(#paint9_linear_11062_20312)"/>
<path d="M42.291 48.266C42.0258 48.266 41.7714 48.3714 41.5839 48.5589C41.3964 48.7464 41.291 49.0008 41.291 49.266V53.172C41.291 53.4372 41.3964 53.6916 41.5839 53.8791C41.7714 54.0666 42.0258 54.172 42.291 54.172C42.5562 54.172 42.8106 54.0666 42.9981 53.8791C43.1857 53.6916 43.291 53.4372 43.291 53.172V49.266C43.291 49.0008 43.1857 48.7464 42.9981 48.5589C42.8106 48.3714 42.5562 48.266 42.291 48.266Z" fill="url(#paint10_linear_11062_20312)"/>
<path d="M42.291 44.2559C42.0258 44.2559 41.7714 44.3612 41.5839 44.5488C41.3964 44.7363 41.291 44.9906 41.291 45.2559V45.9849C41.291 46.2501 41.3964 46.5044 41.5839 46.692C41.7714 46.8795 42.0258 46.9849 42.291 46.9849C42.5562 46.9849 42.8106 46.8795 42.9981 46.692C43.1857 46.5044 43.291 46.2501 43.291 45.9849V45.2559C43.291 44.9906 43.1857 44.7363 42.9981 44.5488C42.8106 44.3612 42.5562 44.2559 42.291 44.2559Z" fill="url(#paint11_linear_11062_20312)"/>
<path d="M46.1094 44.2559C45.8442 44.2559 45.5898 44.3612 45.4023 44.5488C45.2147 44.7363 45.1094 44.9906 45.1094 45.2559V45.9849C45.1094 46.2501 45.2147 46.5044 45.4023 46.692C45.5898 46.8795 45.8442 46.9849 46.1094 46.9849C46.3746 46.9849 46.6289 46.8795 46.8165 46.692C47.004 46.5044 47.1094 46.2501 47.1094 45.9849V45.2559C47.1094 44.9906 47.004 44.7363 46.8165 44.5488C46.6289 44.3612 46.3746 44.2559 46.1094 44.2559Z" fill="url(#paint12_linear_11062_20312)"/>
<path d="M49.9268 44.2559C49.6615 44.2559 49.4072 44.3612 49.2197 44.5488C49.0321 44.7363 48.9268 44.9906 48.9268 45.2559V45.9849C48.9268 46.2501 49.0321 46.5044 49.2197 46.692C49.4072 46.8795 49.6615 46.9849 49.9268 46.9849C50.192 46.9849 50.4463 46.8795 50.6339 46.692C50.8214 46.5044 50.9268 46.2501 50.9268 45.9849V45.2559C50.9268 44.9906 50.8214 44.7363 50.6339 44.5488C50.4463 44.3612 50.192 44.2559 49.9268 44.2559Z" fill="url(#paint13_linear_11062_20312)"/>
<path d="M37.2532 18.0619H31.1662V14.6289H12.2252C11.7213 14.6289 11.238 14.8291 10.8817 15.1854C10.5254 15.5417 10.3252 16.025 10.3252 16.5289V51.5069C10.3252 52.0108 10.5254 52.4941 10.8817 52.8504C11.238 53.2067 11.7213 53.4069 12.2252 53.4069H36.3522C36.8561 53.4069 37.3394 53.2067 37.6957 52.8504C38.052 52.4941 38.2522 52.0108 38.2522 51.5069V19.0619C38.2522 18.7969 38.147 18.5427 37.9597 18.3552C37.7723 18.1676 37.5182 18.0622 37.2532 18.0619Z" fill="url(#paint14_linear_11062_20312)"/>
<path d="M20.1396 45.672H28.6326C28.8979 45.672 29.1522 45.5666 29.3398 45.3791C29.5273 45.1916 29.6326 44.9372 29.6326 44.672C29.6326 44.4068 29.5273 44.1524 29.3398 43.9649C29.1522 43.7774 28.8979 43.672 28.6326 43.672H20.1396C19.8744 43.672 19.6201 43.7774 19.4325 43.9649C19.245 44.1524 19.1396 44.4068 19.1396 44.672C19.1396 44.9372 19.245 45.1916 19.4325 45.3791C19.6201 45.5666 19.8744 45.672 20.1396 45.672Z" fill="url(#paint15_linear_11062_20312)"/>
<path d="M31.9759 47.859H16.7959C16.5307 47.859 16.2763 47.9644 16.0888 48.1519C15.9013 48.3394 15.7959 48.5938 15.7959 48.859C15.7959 49.1242 15.9013 49.3786 16.0888 49.5661C16.2763 49.7536 16.5307 49.859 16.7959 49.859H31.9759C32.2411 49.859 32.4955 49.7536 32.683 49.5661C32.8705 49.3786 32.9759 49.1242 32.9759 48.859C32.9759 48.5938 32.8705 48.3394 32.683 48.1519C32.4955 47.9644 32.2411 47.859 31.9759 47.859Z" fill="url(#paint16_linear_11062_20312)"/>
<path d="M24.2893 20.678C22.3342 20.678 20.4231 21.2577 18.7975 22.3439C17.1719 23.4301 15.9049 24.9739 15.1568 26.7802C14.4086 28.5864 14.2128 30.5739 14.5942 32.4914C14.9757 34.4089 15.9171 36.1703 17.2996 37.5527C18.682 38.9352 20.4433 39.8766 22.3608 40.258C24.2783 40.6395 26.2659 40.4437 28.0721 39.6955C29.8784 38.9474 31.4222 37.6804 32.5084 36.0548C33.5946 34.4292 34.1743 32.518 34.1743 30.563C34.1703 27.9425 33.1276 25.4305 31.2747 23.5776C29.4217 21.7247 26.9097 20.6819 24.2893 20.678ZM30.9583 26.378H28.7723C28.5655 25.3893 28.2405 24.429 27.8043 23.518C29.0964 24.165 30.187 25.153 30.9583 26.375V26.378ZM32.1743 30.566C32.173 31.3065 32.067 32.0432 31.8593 32.754H29.0943C29.2464 31.2993 29.2464 29.8327 29.0943 28.378H31.8593C32.0667 29.0878 32.1727 29.8234 32.1743 30.563V30.566ZM16.4033 30.566C16.4046 29.8258 16.5107 29.0895 16.7183 28.379H19.4833C19.3312 29.8337 19.3312 31.3003 19.4833 32.755H16.7183C16.5103 32.0429 16.4042 31.3049 16.4033 30.563V30.566ZM21.3693 30.566C21.3694 29.8351 21.4128 29.1048 21.4993 28.379H27.0783C27.2516 29.8325 27.2516 31.3015 27.0783 32.755H21.4993C21.4126 32.0275 21.3692 31.2956 21.3693 30.563V30.566ZM26.7113 26.379H21.8663C22.4663 24.049 23.4963 22.679 24.2883 22.679C25.0803 22.679 26.1103 24.045 26.7113 26.375V26.379ZM20.7743 23.519C20.3377 24.43 20.0124 25.3902 19.8053 26.379H17.6193C18.3896 25.1544 19.4803 24.164 20.7733 23.515L20.7743 23.519ZM17.6193 34.751H19.8053C20.0124 35.7397 20.3377 36.7 20.7743 37.611C19.4815 36.9633 18.3904 35.9742 17.6193 34.751ZM21.8663 34.751H26.7103C26.1103 37.081 25.0813 38.451 24.2883 38.451C23.4953 38.451 22.4673 37.081 21.8663 34.751ZM27.8033 37.611C28.2395 36.6999 28.5645 35.7397 28.7713 34.751H30.9573C30.1865 35.9741 29.0958 36.9631 27.8033 37.611Z" fill="url(#paint17_linear_11062_20312)"/>
<path d="M12.298 14.6289H31.166V18.0609H12.298C11.8429 18.0609 11.4064 17.8801 11.0846 17.5583C10.7628 17.2365 10.582 16.8 10.582 16.3449C10.582 15.8898 10.7628 15.4533 11.0846 15.1315C11.4064 14.8097 11.8429 14.6289 12.298 14.6289Z" fill="url(#paint18_linear_11062_20312)"/>
<defs>
<linearGradient id="paint0_linear_11062_20312" x1="29.445" y1="9.44801" x2="56.063" y2="55.552" gradientUnits="userSpaceOnUse">
<stop stop-color="#B3D7FF"/>
<stop offset="0.388" stop-color="#96D0FF"/>
<stop offset="0.757" stop-color="#81CBFF"/>
<stop offset="1" stop-color="#79C9FF"/>
</linearGradient>
<linearGradient id="paint1_linear_11062_20312" x1="32.9502" y1="40.3224" x2="52.5582" y2="40.3224" gradientUnits="userSpaceOnUse">
<stop stop-color="#FFE9CE"/>
<stop offset="0.183" stop-color="#FFF1E1"/>
<stop offset="0.42" stop-color="#FFF9F2"/>
<stop offset="0.679" stop-color="#FFFEFC"/>
<stop offset="1" stop-color="white"/>
</linearGradient>
<linearGradient id="paint2_linear_11062_20312" x1="40.4145" y1="11.468" x2="46.0995" y2="17.152" gradientUnits="userSpaceOnUse">
<stop stop-color="#5BA6FF"/>
<stop offset="1" stop-color="#0092D2"/>
</linearGradient>
<linearGradient id="paint3_linear_11062_20312" x1="48.9268" y1="14.31" x2="50.9268" y2="14.31" gradientUnits="userSpaceOnUse">
<stop stop-color="#5BA6FF"/>
<stop offset="1" stop-color="#0092D2"/>
</linearGradient>
<linearGradient id="paint4_linear_11062_20312" x1="32.0166" y1="22.526" x2="53.4906" y2="22.526" gradientUnits="userSpaceOnUse">
<stop stop-color="#FFE9CE"/>
<stop offset="0.183" stop-color="#FFF1E1"/>
<stop offset="0.42" stop-color="#FFF9F2"/>
<stop offset="0.679" stop-color="#FFFEFC"/>
<stop offset="1" stop-color="white"/>
</linearGradient>
<linearGradient id="paint5_linear_11062_20312" x1="48.9268" y1="36.927" x2="50.9268" y2="36.927" gradientUnits="userSpaceOnUse">
<stop stop-color="#F2F6F5"/>
<stop offset="0.275" stop-color="#E8EDEF"/>
<stop offset="0.989" stop-color="#D0D8E1"/>
</linearGradient>
<linearGradient id="paint6_linear_11062_20312" x1="45.1113" y1="34.188" x2="47.1113" y2="34.188" gradientUnits="userSpaceOnUse">
<stop stop-color="#F2F6F5"/>
<stop offset="0.275" stop-color="#E8EDEF"/>
<stop offset="0.989" stop-color="#D0D8E1"/>
</linearGradient>
<linearGradient id="paint7_linear_11062_20312" x1="41.291" y1="35.108" x2="43.291" y2="35.108" gradientUnits="userSpaceOnUse">
<stop stop-color="#F2F6F5"/>
<stop offset="0.275" stop-color="#E8EDEF"/>
<stop offset="0.989" stop-color="#D0D8E1"/>
</linearGradient>
<linearGradient id="paint8_linear_11062_20312" x1="48.9268" y1="51.219" x2="50.9268" y2="51.219" gradientUnits="userSpaceOnUse">
<stop stop-color="#F2F6F5"/>
<stop offset="0.275" stop-color="#E8EDEF"/>
<stop offset="0.989" stop-color="#D0D8E1"/>
</linearGradient>
<linearGradient id="paint9_linear_11062_20312" x1="45.1113" y1="51.875" x2="47.1113" y2="51.875" gradientUnits="userSpaceOnUse">
<stop stop-color="#F2F6F5"/>
<stop offset="0.275" stop-color="#E8EDEF"/>
<stop offset="0.989" stop-color="#D0D8E1"/>
</linearGradient>
<linearGradient id="paint10_linear_11062_20312" x1="41.291" y1="51.219" x2="43.291" y2="51.219" gradientUnits="userSpaceOnUse">
<stop stop-color="#F2F6F5"/>
<stop offset="0.275" stop-color="#E8EDEF"/>
<stop offset="0.989" stop-color="#D0D8E1"/>
</linearGradient>
<linearGradient id="paint11_linear_11062_20312" x1="41.291" y1="45.6209" x2="43.291" y2="45.6209" gradientUnits="userSpaceOnUse">
<stop stop-color="#F2F6F5"/>
<stop offset="0.275" stop-color="#E8EDEF"/>
<stop offset="0.989" stop-color="#D0D8E1"/>
</linearGradient>
<linearGradient id="paint12_linear_11062_20312" x1="45.1094" y1="45.6209" x2="47.1094" y2="45.6209" gradientUnits="userSpaceOnUse">
<stop stop-color="#F2F6F5"/>
<stop offset="0.275" stop-color="#E8EDEF"/>
<stop offset="0.989" stop-color="#D0D8E1"/>
</linearGradient>
<linearGradient id="paint13_linear_11062_20312" x1="48.9268" y1="45.6209" x2="50.9268" y2="45.6209" gradientUnits="userSpaceOnUse">
<stop stop-color="#F2F6F5"/>
<stop offset="0.275" stop-color="#E8EDEF"/>
<stop offset="0.989" stop-color="#D0D8E1"/>
</linearGradient>
<linearGradient id="paint14_linear_11062_20312" x1="7.44219" y1="18.6249" x2="39.6832" y2="50.8649" gradientUnits="userSpaceOnUse">
<stop stop-color="#FC9659"/>
<stop offset="0.055" stop-color="#FC8956"/>
<stop offset="0.207" stop-color="#FD6C4D"/>
<stop offset="0.368" stop-color="#FE5647"/>
<stop offset="0.543" stop-color="#FF4643"/>
<stop offset="0.738" stop-color="#FF3C40"/>
<stop offset="1" stop-color="#FF393F"/>
</linearGradient>
<linearGradient id="paint15_linear_11062_20312" x1="19.1396" y1="44.672" x2="29.6316" y2="44.672" gradientUnits="userSpaceOnUse">
<stop stop-color="white"/>
<stop offset="0.27" stop-color="#FFFCF8"/>
<stop offset="0.667" stop-color="#FFF3E4"/>
<stop offset="1" stop-color="#FFE9CE"/>
</linearGradient>
<linearGradient id="paint16_linear_11062_20312" x1="15.7959" y1="48.859" x2="32.9759" y2="48.859" gradientUnits="userSpaceOnUse">
<stop stop-color="white"/>
<stop offset="0.27" stop-color="#FFFCF8"/>
<stop offset="0.667" stop-color="#FFF3E4"/>
<stop offset="1" stop-color="#FFE9CE"/>
</linearGradient>
<linearGradient id="paint17_linear_11062_20312" x1="19.3473" y1="22.004" x2="29.2303" y2="39.122" gradientUnits="userSpaceOnUse">
<stop stop-color="white"/>
<stop offset="0.27" stop-color="#FFFCF8"/>
<stop offset="0.667" stop-color="#FFF3E4"/>
<stop offset="1" stop-color="#FFE9CE"/>
</linearGradient>
<linearGradient id="paint18_linear_11062_20312" x1="20.874" y1="14.6289" x2="20.874" y2="18.0619" gradientUnits="userSpaceOnUse">
<stop stop-color="#FC6559"/>
<stop offset="1" stop-color="#9F003F"/>
</linearGradient>
</defs>
</svg>
