<svg width="45" height="44" viewBox="0 0 45 44" fill="none" xmlns="http://www.w3.org/2000/svg">
<path d="M39.0978 18.1563L41.447 21.1504C41.637 21.3925 41.7402 21.6913 41.7402 21.9991C41.7402 22.3068 41.637 22.6057 41.447 22.8478L39.0978 25.8425C38.9833 25.9886 38.8996 26.1562 38.8516 26.3355C38.8037 26.5147 38.7925 26.7018 38.8187 26.8855L39.3563 30.6537C39.3997 30.9583 39.3396 31.2688 39.1857 31.5353C39.0318 31.8018 38.7929 32.0089 38.5073 32.1235L34.9728 33.5419C34.8007 33.611 34.6444 33.7143 34.5133 33.8454C34.3821 33.9766 34.2789 34.1329 34.2097 34.305L32.7914 37.8367C32.6768 38.1223 32.4696 38.3612 32.2031 38.5151C31.9366 38.669 31.6262 38.7291 31.3215 38.6857L27.5533 38.1481C27.3697 38.1218 27.1826 38.133 27.0033 38.181C26.8241 38.229 26.6564 38.3127 26.5104 38.4272L23.5163 40.7764C23.2742 40.9664 22.9754 41.0696 22.6676 41.0696C22.3599 41.0696 22.061 40.9664 21.8189 40.7764L18.8235 38.4307C18.6774 38.3162 18.5098 38.2324 18.3305 38.1845C18.1513 38.1365 17.9642 38.1253 17.7805 38.1515L14.0123 38.6892C13.7077 38.7325 13.3972 38.6725 13.1307 38.5185C12.8642 38.3646 12.6571 38.1257 12.5425 37.8401L11.1241 34.3057C11.055 34.1336 10.9517 33.9772 10.8206 33.8461C10.6894 33.715 10.5331 33.6117 10.361 33.5425L6.82865 32.1235C6.54304 32.0089 6.30416 31.8018 6.15022 31.5353C5.99628 31.2688 5.9362 30.9583 5.97959 30.6537L6.51721 26.8855C6.54308 26.7016 6.53144 26.5144 6.483 26.3352C6.43455 26.1559 6.3503 25.9883 6.23534 25.8425L3.8889 22.8485C3.69894 22.6064 3.5957 22.3075 3.5957 21.9998C3.5957 21.692 3.69894 21.3932 3.8889 21.151L6.23534 18.1563C6.34982 18.0103 6.43357 17.8426 6.48154 17.6634C6.52951 17.4841 6.54071 17.297 6.51446 17.1134L5.97684 13.3452C5.93345 13.0405 5.99353 12.7301 6.14747 12.4636C6.30141 12.1971 6.54029 11.9899 6.8259 11.8753L10.3603 10.457C10.5324 10.3878 10.6888 10.2846 10.8199 10.1534C10.951 10.0223 11.0543 9.86594 11.1235 9.69385L12.5418 6.16216C12.6564 5.87656 12.8636 5.63767 13.13 5.48374C13.3965 5.3298 13.707 5.26972 14.0116 5.3131L17.7798 5.85073C17.9639 5.8766 18.1512 5.86489 18.3306 5.81633C18.51 5.76776 18.6776 5.68334 18.8235 5.56816L21.8175 3.21898C22.0596 3.02902 22.3585 2.92578 22.6662 2.92578C22.974 2.92578 23.2728 3.02902 23.515 3.21898L26.5097 5.56816C26.6557 5.68265 26.8234 5.7664 27.0026 5.81437C27.1819 5.86234 27.369 5.87354 27.5526 5.84729L31.3208 5.30966C31.6255 5.26628 31.9359 5.32636 32.2024 5.4803C32.4689 5.63423 32.6761 5.87312 32.7907 6.15873L34.209 9.69316C34.2782 9.86526 34.3814 10.0216 34.5126 10.1527C34.6437 10.2839 34.8001 10.3871 34.9721 10.4563L38.5038 11.8746C38.7894 11.9892 39.0283 12.1964 39.1823 12.4629C39.3362 12.7294 39.3963 13.0398 39.3529 13.3445L38.8153 17.1127C38.7894 17.2967 38.8011 17.484 38.8497 17.6634C38.8982 17.8428 38.9827 18.0105 39.0978 18.1563Z" fill="url(#paint0_linear_12837_3818)"/>
<path d="M22.6649 34.096C29.3457 34.096 34.7615 28.6801 34.7615 21.9994C34.7615 15.3186 29.3457 9.90283 22.6649 9.90283C15.9842 9.90283 10.5684 15.3186 10.5684 21.9994C10.5684 28.6801 15.9842 34.096 22.6649 34.096Z" fill="url(#paint1_linear_12837_3818)"/>
<path d="M19.0223 18.7055C19.0223 18.8878 19.0947 19.0627 19.2236 19.1916C19.3525 19.3205 19.5274 19.393 19.7098 19.393C19.8921 19.393 20.067 19.3205 20.1959 19.1916C20.3248 19.0627 20.3973 18.8878 20.3973 18.7055C20.3973 18.054 20.1384 17.4292 19.6778 16.9685C19.2171 16.5078 18.5923 16.249 17.9408 16.249C17.2893 16.249 16.6645 16.5078 16.2038 16.9685C15.7432 17.4292 15.4844 18.054 15.4844 18.7055C15.4844 18.8878 15.5568 19.0627 15.6857 19.1916C15.8147 19.3205 15.9895 19.393 16.1719 19.393C16.3542 19.393 16.5291 19.3205 16.658 19.1916C16.7869 19.0627 16.8594 18.8878 16.8594 18.7055C16.8594 18.4186 16.9733 18.1436 17.1761 17.9408C17.3789 17.738 17.654 17.624 17.9408 17.624C18.2276 17.624 18.5027 17.738 18.7055 17.9408C18.9083 18.1436 19.0223 18.4186 19.0223 18.7055Z" fill="#FB9D46"/>
<path d="M27.3934 16.249C26.7419 16.2494 26.1171 16.5083 25.6563 16.9688C25.1955 17.4294 24.9363 18.054 24.9355 18.7055C24.9355 18.8878 25.008 19.0627 25.1369 19.1916C25.2658 19.3205 25.4407 19.393 25.623 19.393C25.8054 19.393 25.9803 19.3205 26.1092 19.1916C26.2381 19.0627 26.3105 18.8878 26.3105 18.7055C26.3105 18.4186 26.4245 18.1436 26.6273 17.9408C26.8301 17.738 27.1052 17.624 27.392 17.624C27.6788 17.624 27.9539 17.738 28.1567 17.9408C28.3595 18.1436 28.4734 18.4186 28.4734 18.7055C28.4734 18.8878 28.5459 19.0627 28.6748 19.1916C28.8037 19.3205 28.9786 19.393 29.1609 19.393C29.3433 19.393 29.5181 19.3205 29.6471 19.1916C29.776 19.0627 29.8484 18.8878 29.8484 18.7055C29.8477 18.0544 29.5889 17.4303 29.1286 16.9698C28.6684 16.5093 28.0444 16.2501 27.3934 16.249Z" fill="#FB9D46"/>
<path d="M25.7106 25.2508C24.8432 25.9432 23.7757 26.3376 22.6664 26.3756C21.5565 26.3375 20.4885 25.9425 19.6208 25.2494C19.5505 25.1915 19.4694 25.1481 19.3821 25.1218C19.2949 25.0955 19.2034 25.0868 19.1128 25.0962C19.0222 25.1056 18.9343 25.1329 18.8544 25.1765C18.7744 25.2201 18.7039 25.2792 18.6469 25.3503C18.59 25.4214 18.5478 25.5031 18.5227 25.5907C18.4976 25.6783 18.4902 25.7699 18.5008 25.8604C18.5115 25.9509 18.54 26.0383 18.5847 26.1177C18.6294 26.197 18.6895 26.2667 18.7614 26.3226C19.8705 27.2153 21.2431 27.7172 22.6664 27.7506C24.0889 27.7174 25.4608 27.2165 26.57 26.3254C26.7071 26.2099 26.7937 26.0454 26.8114 25.867C26.829 25.6886 26.7762 25.5104 26.6643 25.3703C26.5524 25.2303 26.3902 25.1395 26.2123 25.1173C26.0344 25.0951 25.8549 25.1432 25.712 25.2515L25.7106 25.2508Z" fill="#FB9D46"/>
<defs>
<linearGradient id="paint0_linear_12837_3818" x1="13.131" y1="5.4836" x2="32.2022" y2="38.5152" gradientUnits="userSpaceOnUse">
<stop stop-color="#FCF273"/>
<stop offset="0.651" stop-color="#FBB754"/>
<stop offset="1" stop-color="#FB9D46"/>
</linearGradient>
<linearGradient id="paint1_linear_12837_3818" x1="16.6156" y1="11.5219" x2="28.7135" y2="32.4769" gradientUnits="userSpaceOnUse">
<stop stop-color="#FFF89B"/>
<stop offset="0.269" stop-color="#FFEA80"/>
<stop offset="0.753" stop-color="#FFD455"/>
<stop offset="1" stop-color="#FFCB44"/>
</linearGradient>
</defs>
</svg>
