<svg width="45" height="44" viewBox="0 0 45 44" fill="none" xmlns="http://www.w3.org/2000/svg">
<path d="M13.7947 12.7188C14.223 11.5191 15.4 12.1117 16.1893 12.7092L16.1769 16.465C16.1769 16.6947 16.1895 16.9242 16.2147 17.1525C15.979 17.0962 15.7466 17.0274 15.5183 16.9462C14.0697 16.4519 13.1856 14.4266 13.7947 12.7188Z" fill="url(#paint0_linear_12837_3828)"/>
<path d="M30.9091 12.7194C30.4808 11.5197 29.3155 12.111 28.5262 12.7077L28.4898 16.425C28.489 16.665 28.4755 16.9049 28.4492 17.1435C28.6979 17.0931 28.9435 17.0286 29.1848 16.9503C30.6341 16.4525 31.5182 14.4271 30.9091 12.7194Z" fill="url(#paint1_linear_12837_3828)"/>
<path d="M37.3351 18.2871H7.33398C6.57459 18.2871 5.95898 18.9027 5.95898 19.6621V25.5629C5.95898 26.3223 6.57459 26.9379 7.33398 26.9379H37.3351C38.0945 26.9379 38.7101 26.3223 38.7101 25.5629V19.6621C38.7101 18.9027 38.0945 18.2871 37.3351 18.2871Z" fill="url(#paint2_linear_12837_3828)"/>
<path d="M29.6606 15.2208C30.0975 14.3745 29.9969 13.4537 29.4359 13.1641C28.8749 12.8744 28.0659 13.3256 27.629 14.1719C27.1921 15.0181 27.2927 15.9389 27.8537 16.2286C28.4147 16.5182 29.2237 16.067 29.6606 15.2208Z" fill="url(#paint3_linear_12837_3828)"/>
<path d="M16.8715 16.2444C17.4325 15.9547 17.5331 15.0339 17.0961 14.1877C16.6592 13.3414 15.8502 12.8902 15.2892 13.1799C14.7282 13.4695 14.6276 14.3904 15.0646 15.2366C15.5015 16.0828 16.3105 16.534 16.8715 16.2444Z" fill="url(#paint4_linear_12837_3828)"/>
<path d="M36.3179 32.6906V41.3531H8.38477V32.6493C8.38451 31.4369 8.75704 30.2536 9.45187 29.2599C10.1467 28.2663 11.1302 27.5103 12.2691 27.0943L16.786 25.4443C17.2324 25.2802 17.6179 24.9834 17.8907 24.5939C18.1635 24.2043 18.3106 23.7406 18.3123 23.265V20.5012C19.1401 21.3659 20.1434 22.0434 21.2548 22.4881C21.7003 22.6207 22.1661 22.672 22.6298 22.6393C22.9078 22.6242 23.1828 22.5734 23.4479 22.4881C24.558 22.0409 25.5608 21.3638 26.3904 20.5012V23.4368C26.391 23.8916 26.532 24.3351 26.7941 24.7067C27.0562 25.0783 27.4266 25.3599 27.8548 25.5131L32.3785 27.115C33.5301 27.5245 34.5268 28.2801 35.2321 29.2783C35.9374 30.2765 36.3166 31.4684 36.3179 32.6906Z" fill="url(#paint5_linear_12837_3828)"/>
<path d="M15.087 41.3533L15.5071 25.437C15.5085 25.3865 15.4983 25.3364 15.4775 25.2904C15.4566 25.2445 15.4256 25.2039 15.3867 25.1717C15.3478 25.1395 15.3021 25.1165 15.253 25.1046C15.204 25.0927 15.1529 25.0921 15.1035 25.1029L13.316 25.4906C13.0577 25.5463 12.8269 25.6906 12.6637 25.8985C12.5005 26.1065 12.4151 26.3649 12.4223 26.6291L12.8238 41.3554L15.087 41.3533Z" fill="url(#paint6_linear_12837_3828)"/>
<path d="M31.8651 41.3539L32.2666 26.6276C32.2738 26.3634 32.1884 26.105 32.0252 25.8971C31.862 25.6892 31.6312 25.5449 31.3728 25.4891L29.5853 25.1014C29.536 25.0906 29.4849 25.0912 29.4358 25.1032C29.3868 25.1151 29.3411 25.138 29.3022 25.1702C29.2633 25.2024 29.2323 25.243 29.2114 25.289C29.1905 25.3349 29.1804 25.3851 29.1818 25.4355L29.6018 41.3539H31.8651Z" fill="url(#paint7_linear_12837_3828)"/>
<path d="M22.3516 28.0185C23.3954 28.0188 24.427 27.795 25.3767 27.362C26.3265 26.9291 27.1721 26.2972 27.8564 25.5091C27.4275 25.3572 27.0561 25.0761 26.7936 24.7043C26.5311 24.3326 26.3903 23.8886 26.3907 23.4336V20.5C25.5629 21.3627 24.5607 22.0391 23.4509 22.4841C23.1858 22.5722 22.9098 22.6231 22.6307 22.6354C22.1671 22.6702 21.7009 22.6191 21.2557 22.4848C20.1454 22.0398 19.1427 21.3632 18.3146 20.5V23.261C18.3145 23.7371 18.1681 24.2017 17.8953 24.5919C17.6224 24.9821 17.2363 25.279 16.7891 25.4424C17.4737 26.2499 18.3259 26.8986 19.2865 27.3434C20.2471 27.7883 21.293 28.0186 22.3516 28.0185Z" fill="url(#paint8_linear_12837_3828)"/>
<path d="M28.5143 17.1463C28.3693 18.4875 27.7871 19.7437 26.8574 20.7213C25.9233 21.7893 24.7568 22.6289 23.4474 23.1756C22.7316 23.3864 21.9702 23.3864 21.2543 23.1756C19.945 22.6289 18.7784 21.7893 17.8443 20.7213C16.9147 19.7437 16.3325 18.4874 16.1874 17.1463C16.0451 16.4313 16.1304 12.6844 16.1235 12.6844C15.2091 10.4225 14.5306 7.68625 15.9949 6.68938C15.9949 6.68938 15.8162 2.43375 22.4781 2.65375C25.4068 2.75 26.8781 3.45813 28.0674 5.14938C28.6253 6.0063 28.9782 6.98025 29.0987 7.99563C29.2818 9.57553 29.0935 11.1764 28.5487 12.6706L28.5556 12.6913C28.6581 14.1751 28.6443 15.6646 28.5143 17.1463Z" fill="url(#paint9_linear_12837_3828)"/>
<path d="M36.2129 14.731C35.2023 13.6997 33.4794 11.6269 33.4017 9.41937C33.3761 8.47741 33.7214 7.56305 34.3633 6.87318C35.0052 6.18332 35.8924 5.77313 36.8337 5.73094C37.3064 5.71742 37.777 5.79884 38.2177 5.97038C38.6583 6.14192 39.0601 6.40008 39.3993 6.72961C39.7384 7.05914 40.008 7.45334 40.1922 7.88889C40.3763 8.32445 40.4712 8.7925 40.4713 9.26537C40.4713 11.5341 38.6838 13.686 37.6525 14.7386C37.5583 14.8341 37.446 14.9098 37.3221 14.9612C37.1982 15.0127 37.0653 15.0388 36.9311 15.0381C36.797 15.0374 36.6643 15.0098 36.541 14.9571C36.4176 14.9044 36.3061 14.8275 36.2129 14.731Z" fill="url(#paint10_linear_12837_3828)"/>
<path d="M36.9362 10.8592C37.8038 10.8592 38.5071 10.1558 38.5071 9.28822C38.5071 8.42062 37.8038 7.71729 36.9362 7.71729C36.0686 7.71729 35.3652 8.42062 35.3652 9.28822C35.3652 10.1558 36.0686 10.8592 36.9362 10.8592Z" fill="url(#paint11_linear_12837_3828)"/>
<path d="M16.1456 12.6909L16.9403 11.1268C16.6935 7.94779 17.8121 7.38336 18.9911 6.84504C20.1702 6.30673 22.3496 7.33248 22.3496 7.33248C22.3496 7.33248 24.5289 6.30673 25.708 6.84504C26.8871 7.38336 28.0063 7.94504 27.7588 11.1268L28.5446 12.673C29.0894 11.1787 29.2778 9.57788 29.0946 7.99798C28.9745 6.9825 28.6216 6.00846 28.0634 5.15173C26.8795 3.45567 25.4062 2.75029 22.4788 2.65473C15.8101 2.43473 15.9922 6.68898 15.9922 6.68898C14.5231 7.69067 15.2222 10.4414 16.1462 12.7108L16.1456 12.6909Z" fill="url(#paint12_linear_12837_3828)"/>
<path d="M5.99414 39.9789V30.0315L13.3985 32.7815L22.3525 30.0315L31.3065 32.7815L38.7109 30.0315V39.9789C38.7109 40.3436 38.566 40.6933 38.3082 40.9512C38.0503 41.2091 37.7006 41.3539 37.3359 41.3539H7.36914C7.00447 41.3539 6.65473 41.2091 6.39687 40.9512C6.13901 40.6933 5.99414 40.3436 5.99414 39.9789Z" fill="url(#paint13_linear_12837_3828)"/>
<path d="M36.1992 41.3539H37.3336C37.6983 41.3539 38.048 41.2091 38.3059 40.9512C38.5637 40.6933 38.7086 40.3436 38.7086 39.9789V30.0315L36.1992 30.9637V41.3539Z" fill="url(#paint14_linear_12837_3828)"/>
<path d="M22.3223 41.3539H31.3093V32.7801L31.3058 32.7815L22.3525 30.0315L22.3223 30.0411V41.3539Z" fill="url(#paint15_linear_12837_3828)"/>
<path d="M13.36 32.7677L5.99414 30.0315V39.9789C5.99414 40.3436 6.13901 40.6933 6.39687 40.9512C6.65473 41.2091 7.00447 41.3539 7.36914 41.3539H13.36V32.7677Z" fill="url(#paint16_linear_12837_3828)"/>
<path d="M34.0879 18.2871H36.3422V26.9379H34.0879V18.2871Z" fill="url(#paint17_linear_12837_3828)"/>
<path d="M8.3457 18.2871H10.6V26.9379H8.3457V18.2871Z" fill="url(#paint18_linear_12837_3828)"/>
<path d="M40.6247 38.9978H38.6481C37.9986 38.9978 37.3757 38.7398 36.9165 38.2806C36.4572 37.8213 36.1992 37.1985 36.1992 36.549C36.1992 35.8995 36.4572 35.2766 36.9165 34.8174C37.3757 34.3581 37.9986 34.1001 38.6481 34.1001H40.6247C41.0743 35.702 41.0743 37.396 40.6247 38.9978Z" fill="url(#paint19_linear_12837_3828)"/>
<path d="M4.04231 38.9978H6.01887C6.66835 38.9978 7.29123 38.7398 7.75049 38.2806C8.20974 37.8213 8.46775 37.1985 8.46775 36.549C8.46775 35.8995 8.20974 35.2766 7.75049 34.8174C7.29123 34.3581 6.66835 34.1001 6.01887 34.1001H4.04231C3.59267 35.702 3.59267 37.396 4.04231 38.9978Z" fill="url(#paint20_linear_12837_3828)"/>
<path d="M16.1466 12.6907V12.7113C16.1397 12.7045 16.1397 12.6907 16.1328 12.6838C16.1397 12.6838 16.1397 12.6907 16.1466 12.6907Z" fill="#FFBAA8"/>
<path d="M16.1466 12.6907V12.7113C16.1397 12.7045 16.1397 12.6907 16.1328 12.6838C16.1397 12.6838 16.1397 12.6907 16.1466 12.6907Z" fill="#FFBAA8"/>
<defs>
<linearGradient id="paint0_linear_12837_3828" x1="13.5995" y1="14.5922" x2="16.2147" y2="14.5922" gradientUnits="userSpaceOnUse">
<stop stop-color="#FFF1ED"/>
<stop offset="0.194" stop-color="#FFE1DA"/>
<stop offset="0.455" stop-color="#FFD2C6"/>
<stop offset="0.721" stop-color="#FFC9BB"/>
<stop offset="1" stop-color="#FFC6B7"/>
</linearGradient>
<linearGradient id="paint1_linear_12837_3828" x1="28.4183" y1="12.7242" x2="30.4615" y2="16.2628" gradientUnits="userSpaceOnUse">
<stop stop-color="#FFC6B7"/>
<stop offset="0.279" stop-color="#FFC9BB"/>
<stop offset="0.545" stop-color="#FFD2C6"/>
<stop offset="0.806" stop-color="#FFE1DA"/>
<stop offset="1" stop-color="#FFF1ED"/>
</linearGradient>
<linearGradient id="paint2_linear_12837_3828" x1="16.6194" y1="12.7135" x2="28.0497" y2="32.5122" gradientUnits="userSpaceOnUse">
<stop stop-color="#C27E72"/>
<stop offset="0.667" stop-color="#A25E56"/>
<stop offset="1" stop-color="#914C46"/>
</linearGradient>
<linearGradient id="paint3_linear_12837_3828" x1="27.3695" y1="14.7062" x2="29.9461" y2="14.7062" gradientUnits="userSpaceOnUse">
<stop stop-color="#C27E72"/>
<stop offset="0.106" stop-color="#D08F82"/>
<stop offset="0.304" stop-color="#E5A799"/>
<stop offset="0.511" stop-color="#F3B8AA"/>
<stop offset="0.735" stop-color="#FCC3B4"/>
<stop offset="1" stop-color="#FFC6B7"/>
</linearGradient>
<linearGradient id="paint4_linear_12837_3828" x1="14.8015" y1="14.7184" x2="17.378" y2="14.7184" gradientUnits="userSpaceOnUse">
<stop stop-color="#FFC6B7"/>
<stop offset="0.212" stop-color="#FBC1B2"/>
<stop offset="0.474" stop-color="#EEB1A3"/>
<stop offset="0.762" stop-color="#D8988B"/>
<stop offset="1" stop-color="#C27E72"/>
</linearGradient>
<linearGradient id="paint5_linear_12837_3828" x1="22.3513" y1="20.5012" x2="22.3513" y2="41.3531" gradientUnits="userSpaceOnUse">
<stop stop-color="#FFF89B"/>
<stop offset="0.269" stop-color="#FFEA80"/>
<stop offset="0.753" stop-color="#FFD455"/>
<stop offset="1" stop-color="#FFCB44"/>
</linearGradient>
<linearGradient id="paint6_linear_12837_3828" x1="10.5234" y1="27.0375" x2="17.8632" y2="39.75" gradientUnits="userSpaceOnUse">
<stop stop-color="#64DBED"/>
<stop offset="1" stop-color="#46B3CC"/>
</linearGradient>
<linearGradient id="paint7_linear_12837_3828" x1="26.7769" y1="26.6228" x2="34.4281" y2="39.8744" gradientUnits="userSpaceOnUse">
<stop stop-color="#64DBED"/>
<stop offset="1" stop-color="#46B3CC"/>
</linearGradient>
<linearGradient id="paint8_linear_12837_3828" x1="22.3221" y1="20.5" x2="22.3221" y2="28.0185" gradientUnits="userSpaceOnUse">
<stop stop-color="#C27E72"/>
<stop offset="0.479" stop-color="#DD9E91"/>
<stop offset="1" stop-color="#FFC6B7"/>
</linearGradient>
<linearGradient id="paint9_linear_12837_3828" x1="17.5652" y1="3.75582" x2="27.4948" y2="20.9536" gradientUnits="userSpaceOnUse">
<stop stop-color="#FFF1ED"/>
<stop offset="0.621" stop-color="#FFD7CD"/>
<stop offset="1" stop-color="#FFC6B7"/>
</linearGradient>
<linearGradient id="paint10_linear_12837_3828" x1="35.071" y1="6.27544" x2="39.3988" y2="13.7713" gradientUnits="userSpaceOnUse">
<stop stop-color="#FC6559"/>
<stop offset="1" stop-color="#D5343F"/>
</linearGradient>
<linearGradient id="paint11_linear_12837_3828" x1="36.1504" y1="7.92766" x2="37.7213" y2="10.6488" gradientUnits="userSpaceOnUse">
<stop stop-color="white"/>
<stop offset="0.706" stop-color="#DFDFFA"/>
<stop offset="1" stop-color="#D0D0F7"/>
</linearGradient>
<linearGradient id="paint12_linear_12837_3828" x1="15.1446" y1="7.67829" x2="29.1531" y2="7.67829" gradientUnits="userSpaceOnUse">
<stop stop-color="#83718C"/>
<stop offset="1" stop-color="#5D5360"/>
</linearGradient>
<linearGradient id="paint13_linear_12837_3828" x1="5.99414" y1="35.6931" x2="38.7102" y2="35.6931" gradientUnits="userSpaceOnUse">
<stop stop-color="#B3E59F"/>
<stop offset="0.277" stop-color="#A0DD98"/>
<stop offset="0.728" stop-color="#86D38F"/>
<stop offset="1" stop-color="#7DCF8B"/>
</linearGradient>
<linearGradient id="paint14_linear_12837_3828" x1="35.0923" y1="31.6024" x2="39.9674" y2="40.0463" gradientUnits="userSpaceOnUse">
<stop stop-color="#00BB3A"/>
<stop offset="0.378" stop-color="#1AB849"/>
<stop offset="1" stop-color="#4CB366"/>
</linearGradient>
<linearGradient id="paint15_linear_12837_3828" x1="22.6502" y1="29.8514" x2="29.7954" y2="42.2277" gradientUnits="userSpaceOnUse">
<stop stop-color="#4CE100"/>
<stop offset="0.202" stop-color="#44DD06"/>
<stop offset="0.515" stop-color="#2ED217"/>
<stop offset="0.898" stop-color="#0BC032"/>
<stop offset="1" stop-color="#00BB3A"/>
</linearGradient>
<linearGradient id="paint16_linear_12837_3828" x1="5.9302" y1="30.0686" x2="12.6746" y2="41.7492" gradientUnits="userSpaceOnUse">
<stop stop-color="#4CE100"/>
<stop offset="0.202" stop-color="#44DD06"/>
<stop offset="0.515" stop-color="#2ED217"/>
<stop offset="0.898" stop-color="#0BC032"/>
<stop offset="1" stop-color="#00BB3A"/>
</linearGradient>
<linearGradient id="paint17_linear_12837_3828" x1="35.2147" y1="18.2871" x2="35.2147" y2="26.9379" gradientUnits="userSpaceOnUse">
<stop stop-color="#FFF8BD"/>
<stop offset="0.467" stop-color="#FFE6C3"/>
<stop offset="1" stop-color="#FFD5C9"/>
</linearGradient>
<linearGradient id="paint18_linear_12837_3828" x1="9.4732" y1="18.2871" x2="9.4732" y2="26.9379" gradientUnits="userSpaceOnUse">
<stop stop-color="#FFF8BD"/>
<stop offset="0.467" stop-color="#FFE6C3"/>
<stop offset="1" stop-color="#FFD5C9"/>
</linearGradient>
<linearGradient id="paint19_linear_12837_3828" x1="36.1992" y1="36.549" x2="40.9622" y2="36.549" gradientUnits="userSpaceOnUse">
<stop stop-color="#FFF1ED"/>
<stop offset="0.621" stop-color="#FFD7CD"/>
<stop offset="1" stop-color="#FFC6B7"/>
</linearGradient>
<linearGradient id="paint20_linear_12837_3828" x1="3.70475" y1="36.549" x2="8.46775" y2="36.549" gradientUnits="userSpaceOnUse">
<stop stop-color="#FFF1ED"/>
<stop offset="0.621" stop-color="#FFD7CD"/>
<stop offset="1" stop-color="#FFC6B7"/>
</linearGradient>
</defs>
</svg>
