<svg width="44" height="44" viewBox="0 0 44 44" fill="none" xmlns="http://www.w3.org/2000/svg">
<path d="M22.0157 28.0186C23.0594 28.019 24.0911 27.7951 25.0408 27.3622C25.9905 26.9292 26.8362 26.2973 27.5205 25.5092C27.0915 25.3574 26.7202 25.0762 26.4577 24.7045C26.1952 24.3327 26.0544 23.8888 26.0548 23.4337V20.5001C25.2269 21.3628 24.2247 22.0392 23.115 22.4842C22.8499 22.5723 22.5739 22.6232 22.2948 22.6355C21.8311 22.6703 21.365 22.6192 20.9198 22.4849C19.8095 22.04 18.8068 21.3633 17.9787 20.5001V23.2611C17.9786 23.7372 17.8322 24.2018 17.5593 24.592C17.2865 24.9822 16.9003 25.2791 16.4531 25.4426C17.1377 26.25 17.9899 26.8987 18.9505 27.3435C19.9111 27.7884 20.9571 28.0188 22.0157 28.0186Z" fill="url(#paint0_linear_11434_4286)"/>
<path d="M12.861 11.3579C13.3196 10.0737 14.5337 10.6876 15.378 11.3263V15.3551C15.3792 15.6014 15.3941 15.8474 15.4226 16.0921C15.1799 16.037 14.9405 15.9681 14.7056 15.8858C13.1559 15.3496 12.2093 13.1826 12.861 11.3579Z" fill="url(#paint1_linear_11434_4286)"/>
<path d="M16.1605 15.2158C16.7215 14.9262 16.8221 14.0053 16.3852 13.1591C15.9483 12.3129 15.1393 11.8617 14.5783 12.1513C14.0173 12.441 13.9167 13.3618 14.3536 14.208C14.7905 15.0543 15.5995 15.5055 16.1605 15.2158Z" fill="url(#paint2_linear_11434_4286)"/>
<path d="M31.1749 11.3579C30.7163 10.0737 29.5022 10.6876 28.658 11.3263V15.3551C28.6567 15.6014 28.6418 15.8474 28.6133 16.0921C28.856 16.037 29.0954 15.9681 29.3303 15.8858C30.88 15.3496 31.8267 13.1826 31.1749 11.3579Z" fill="url(#paint3_linear_11434_4286)"/>
<path d="M32.7482 26.7594L27.9075 25.0407C27.4488 24.8779 27.0517 24.577 26.7709 24.1793C26.4901 23.7817 26.3393 23.3068 26.3393 22.82V20.1443C25.4534 21.0674 24.3809 21.7911 23.1933 22.2673C22.9096 22.3614 22.6141 22.4158 22.3154 22.4289C21.8185 22.4662 21.3191 22.4114 20.8421 22.2673C19.6542 21.7913 18.5815 21.0676 17.6954 20.1443V22.6372C17.696 23.1473 17.5397 23.6452 17.2476 24.0634C16.9554 24.4815 16.5417 24.7997 16.0626 24.9747L11.2308 26.7395C10.0121 27.1843 8.95958 27.9931 8.21603 29.0562C7.47248 30.1194 7.07386 31.3855 7.07422 32.6829V41.9985H36.9598V32.7255C36.9608 31.4177 36.5563 30.1417 35.8021 29.0732C35.0478 28.0048 33.9809 27.1964 32.7482 26.7594Z" fill="url(#paint4_linear_11434_4286)"/>
<path d="M26.3402 22.8943V20.1443C25.4545 21.067 24.3825 21.7905 23.1955 22.2666C22.9117 22.3607 22.6163 22.4151 22.3176 22.4282C21.8207 22.4655 21.3212 22.4108 20.8443 22.2666C19.6567 21.7908 18.5842 21.0673 17.6983 20.1443C17.6983 20.3787 17.6921 22.8372 17.6914 22.8462L22.0364 26.9574L26.3402 22.8943Z" fill="url(#paint5_linear_11434_4286)"/>
<path d="M27.9252 25.0457V33.715L23.8414 36.4788L23.2227 30.4769L23.917 28.2838L25.1752 29.1707L27.9252 25.0457Z" fill="url(#paint6_linear_11434_4286)"/>
<path d="M20.7698 30.4768L20.158 36.4787L16.0742 33.715V24.97L18.8998 29.1706L20.1098 28.3181L20.7698 30.4768Z" fill="url(#paint7_linear_11434_4286)"/>
<path d="M23.8413 36.4788L21.9988 37.7301L20.1562 36.4788L20.7681 30.4769H23.2225L23.8413 36.4788Z" fill="url(#paint8_linear_11434_4286)"/>
<path d="M32.2295 38.1562V41.9925H11.7695V38.1562L12.6083 37.7368V26.2281L16.0595 24.97H16.0733V33.715L20.157 36.4787L21.9995 37.73L23.842 36.4787L27.9258 33.715V25.0456L31.3908 26.2762V37.7368L32.2295 38.1562Z" fill="url(#paint9_linear_11434_4286)"/>
<path d="M29.7368 14.1905C30.1737 13.3443 30.0731 12.4235 29.5121 12.1338C28.9511 11.8441 28.1421 12.2953 27.7052 13.1416C27.2683 13.9878 27.3688 14.9086 27.9299 15.1983C28.4909 15.4879 29.2998 15.0367 29.7368 14.1905Z" fill="url(#paint10_linear_11434_4286)"/>
<path d="M28.6573 7.88635V15.354C28.6602 17.0512 28.0098 18.6844 26.8409 19.9149C25.8411 21.0568 24.5933 21.9549 23.193 22.5404C22.813 22.6595 22.4163 22.7163 22.0181 22.7088C21.6199 22.7163 21.2232 22.6595 20.8432 22.5404C19.4429 21.9549 18.1951 21.0568 17.1953 19.9149C16.0264 18.6844 15.376 17.0512 15.3789 15.354V7.88635H28.6573Z" fill="url(#paint11_linear_11434_4286)"/>
<path d="M25.6708 4.50085C25.0479 3.43316 24.6684 1.83473 20.4822 2.02104C16.648 2.19154 15.3789 4.68166 15.3789 7.1271V11.9912L20.4313 11.8434C23.1428 11.7643 25.3607 10.885 25.9533 8.54335C25.9533 8.54335 27.1792 11.7059 28.6566 12.2084V7.04048C28.5814 6.31426 28.229 5.64501 27.6729 5.17198C27.1168 4.69895 26.3997 4.45857 25.6708 4.50085Z" fill="#83718C"/>
<path d="M29.7347 39.0237C29.7347 39.206 29.6623 39.3809 29.5334 39.5098C29.4044 39.6387 29.2296 39.7112 29.0472 39.7112H28.8107C28.6284 39.7112 28.4535 39.6387 28.3246 39.5098C28.1957 39.3809 28.1232 39.206 28.1232 39.0237C28.1232 38.8413 28.1957 38.6665 28.3246 38.5375C28.4535 38.4086 28.6284 38.3362 28.8107 38.3362H29.0472C29.2296 38.3362 29.4044 38.4086 29.5334 38.5375C29.6623 38.6665 29.7347 38.8413 29.7347 39.0237ZM26.6554 38.3362H24.4492C24.2669 38.3362 24.092 38.4086 23.9631 38.5375C23.8342 38.6665 23.7617 38.8413 23.7617 39.0237C23.7617 39.206 23.8342 39.3809 23.9631 39.5098C24.092 39.6387 24.2669 39.7112 24.4492 39.7112H26.6547C26.8371 39.7112 27.0119 39.6387 27.1409 39.5098C27.2698 39.3809 27.3422 39.206 27.3422 39.0237C27.3422 38.8413 27.2698 38.6665 27.1409 38.5375C27.0119 38.4086 26.8377 38.3362 26.6554 38.3362Z" fill="url(#paint12_linear_11434_4286)"/>
<path d="M23.9181 28.2844L23.2237 30.4775H20.7694L20.1094 28.3188V28.3119L22.0344 26.9575L23.9181 28.2844Z" fill="url(#paint13_linear_11434_4286)"/>
<path d="M25.1754 29.1685L27.9296 25.0477C27.4769 24.8909 27.0829 24.5997 26.8003 24.2129C26.5178 23.8262 26.36 23.3623 26.3483 22.8834L22.0391 26.9555L25.1754 29.1685Z" fill="url(#paint14_linear_11434_4286)"/>
<path d="M18.8992 29.169L22.0369 26.956L17.6816 22.8406C17.6457 23.3119 17.4751 23.763 17.1901 24.1401C16.9052 24.5172 16.5178 24.8045 16.0742 24.9677L18.8992 29.169Z" fill="url(#paint15_linear_11434_4286)"/>
<defs>
<linearGradient id="paint0_linear_11434_4286" x1="21.9861" y1="20.5001" x2="21.9861" y2="28.0186" gradientUnits="userSpaceOnUse">
<stop stop-color="#C27E72"/>
<stop offset="0.479" stop-color="#DD9E91"/>
<stop offset="1" stop-color="#FFC6B7"/>
</linearGradient>
<linearGradient id="paint1_linear_11434_4286" x1="12.652" y1="13.3482" x2="15.4233" y2="13.3482" gradientUnits="userSpaceOnUse">
<stop stop-color="#FFF1ED"/>
<stop offset="0.194" stop-color="#FFE1DA"/>
<stop offset="0.455" stop-color="#FFD2C6"/>
<stop offset="0.721" stop-color="#FFC9BB"/>
<stop offset="1" stop-color="#FFC6B7"/>
</linearGradient>
<linearGradient id="paint2_linear_11434_4286" x1="14.0903" y1="13.6894" x2="16.6669" y2="13.6894" gradientUnits="userSpaceOnUse">
<stop stop-color="#FFC6B7"/>
<stop offset="0.212" stop-color="#FBC1B2"/>
<stop offset="0.474" stop-color="#EEB1A3"/>
<stop offset="0.762" stop-color="#D8988B"/>
<stop offset="1" stop-color="#C27E72"/>
</linearGradient>
<linearGradient id="paint3_linear_11434_4286" x1="28.6126" y1="13.3482" x2="31.3832" y2="13.3482" gradientUnits="userSpaceOnUse">
<stop stop-color="#FFC6B7"/>
<stop offset="0.279" stop-color="#FFC9BB"/>
<stop offset="0.545" stop-color="#FFD2C6"/>
<stop offset="0.806" stop-color="#FFE1DA"/>
<stop offset="1" stop-color="#FFF1ED"/>
</linearGradient>
<linearGradient id="paint4_linear_11434_4286" x1="13.8495" y1="22.3642" x2="28.1275" y2="47.0943" gradientUnits="userSpaceOnUse">
<stop stop-color="#E4E3FF"/>
<stop offset="0.477" stop-color="#E1E0FE"/>
<stop offset="0.833" stop-color="#D7D7FA"/>
<stop offset="1" stop-color="#D0D0F7"/>
</linearGradient>
<linearGradient id="paint5_linear_11434_4286" x1="22.0158" y1="20.1443" x2="22.0158" y2="26.9574" gradientUnits="userSpaceOnUse">
<stop stop-color="#FFC6B7"/>
<stop offset="0.521" stop-color="#DD9E91"/>
<stop offset="1" stop-color="#C27E72"/>
</linearGradient>
<linearGradient id="paint6_linear_11434_4286" x1="23.2227" y1="30.7622" x2="27.9252" y2="30.7622" gradientUnits="userSpaceOnUse">
<stop stop-color="#E4E3FF"/>
<stop offset="0.477" stop-color="#E1E0FE"/>
<stop offset="0.833" stop-color="#D7D7FA"/>
<stop offset="1" stop-color="#D0D0F7"/>
</linearGradient>
<linearGradient id="paint7_linear_11434_4286" x1="16.0742" y1="30.7243" x2="20.7698" y2="30.7243" gradientUnits="userSpaceOnUse">
<stop stop-color="#E4E3FF"/>
<stop offset="0.477" stop-color="#E1E0FE"/>
<stop offset="0.833" stop-color="#D7D7FA"/>
<stop offset="1" stop-color="#D0D0F7"/>
</linearGradient>
<linearGradient id="paint8_linear_11434_4286" x1="21.9988" y1="30.4769" x2="21.9988" y2="37.7301" gradientUnits="userSpaceOnUse">
<stop stop-color="#5BA6FF"/>
<stop offset="0.177" stop-color="#46A1F4"/>
<stop offset="0.534" stop-color="#2099E2"/>
<stop offset="0.821" stop-color="#0994D6"/>
<stop offset="1" stop-color="#0092D2"/>
</linearGradient>
<linearGradient id="paint9_linear_11434_4286" x1="21.9995" y1="24.97" x2="21.9995" y2="41.9925" gradientUnits="userSpaceOnUse">
<stop stop-color="#77E3FF"/>
<stop offset="0.275" stop-color="#6ECEFF"/>
<stop offset="0.737" stop-color="#60B1FF"/>
<stop offset="1" stop-color="#5BA6FF"/>
</linearGradient>
<linearGradient id="paint10_linear_11434_4286" x1="27.4458" y1="13.6749" x2="30.0224" y2="13.6749" gradientUnits="userSpaceOnUse">
<stop stop-color="#C27E72"/>
<stop offset="0.238" stop-color="#D8988B"/>
<stop offset="0.526" stop-color="#EEB1A3"/>
<stop offset="0.788" stop-color="#FBC1B2"/>
<stop offset="1" stop-color="#FFC6B7"/>
</linearGradient>
<linearGradient id="paint11_linear_11434_4286" x1="18.3558" y1="6.16829" x2="26.7075" y2="20.634" gradientUnits="userSpaceOnUse">
<stop stop-color="#FFF1ED"/>
<stop offset="0.621" stop-color="#FFD7CD"/>
<stop offset="1" stop-color="#FFC6B7"/>
</linearGradient>
<linearGradient id="paint12_linear_11434_4286" x1="23.7617" y1="39.0237" x2="29.7347" y2="39.0237" gradientUnits="userSpaceOnUse">
<stop stop-color="#FCF273"/>
<stop offset="0.651" stop-color="#FBB754"/>
<stop offset="1" stop-color="#FB9D46"/>
</linearGradient>
<linearGradient id="paint13_linear_11434_4286" x1="22.0138" y1="26.9575" x2="22.0138" y2="30.4775" gradientUnits="userSpaceOnUse">
<stop stop-color="#5BA6FF"/>
<stop offset="1" stop-color="#77CCFF"/>
</linearGradient>
<linearGradient id="paint14_linear_11434_4286" x1="24.1325" y1="24.8607" x2="26.8082" y2="27.5357" gradientUnits="userSpaceOnUse">
<stop stop-color="white"/>
<stop offset="0.706" stop-color="#DFDFFA"/>
<stop offset="1" stop-color="#D0D0F7"/>
</linearGradient>
<linearGradient id="paint15_linear_11434_4286" x1="16.464" y1="24.0581" x2="20.699" y2="28.2938" gradientUnits="userSpaceOnUse">
<stop stop-color="white"/>
<stop offset="0.706" stop-color="#DFDFFA"/>
<stop offset="1" stop-color="#D0D0F7"/>
</linearGradient>
</defs>
</svg>
