<svg width="45" height="44" viewBox="0 0 45 44" fill="none" xmlns="http://www.w3.org/2000/svg">
<path d="M22.3324 36.5434C19.456 36.5434 16.6442 35.6905 14.2526 34.0924C11.8609 32.4944 9.99687 30.223 8.89612 27.5656C7.79536 24.9081 7.50736 21.9839 8.06852 19.1628C8.62968 16.3416 10.0148 13.7503 12.0487 11.7163C14.0827 9.6824 16.674 8.29728 19.4952 7.73612C22.3163 7.17496 25.2405 7.46297 27.898 8.56372C30.5554 9.66447 32.8268 11.5285 34.4248 13.9202C36.0229 16.3118 36.8758 19.1236 36.8758 22C36.8715 25.8558 35.3378 29.5525 32.6113 32.2789C29.8849 35.0054 26.1882 36.5391 22.3324 36.5434Z" fill="url(#paint0_linear_11434_16391)"/>
<path d="M22.3324 5.02734C18.9754 5.02734 15.6938 6.02281 12.9026 7.88786C10.1114 9.7529 7.93594 12.4038 6.65131 15.5052C5.36668 18.6067 5.0306 22.0194 5.68556 25.3119C6.34053 28.6043 7.95712 31.6286 10.3309 34.0023C12.7047 36.376 15.7291 37.9925 19.0215 38.6473C22.314 39.3021 25.7267 38.9659 28.8281 37.6812C31.9295 36.3964 34.5803 34.2208 36.4453 31.4295C38.3102 28.6383 39.3055 25.3566 39.3054 21.9997C39.3052 17.4983 37.5169 13.1813 34.3339 9.99838C31.1508 6.81547 26.8338 5.02734 22.3324 5.02734ZM23.0199 35.8184V34.2887C23.0199 34.1064 22.9475 33.9315 22.8185 33.8026C22.6896 33.6737 22.5147 33.6012 22.3324 33.6012C22.15 33.6012 21.9752 33.6737 21.8462 33.8026C21.7173 33.9315 21.6449 34.1064 21.6449 34.2887V35.8184C18.2185 35.6445 14.9786 34.2052 12.5527 31.7793C10.1268 29.3534 8.68751 26.1135 8.51363 22.6872H10.0454C10.2277 22.6872 10.4026 22.6147 10.5315 22.4858C10.6604 22.3569 10.7329 22.182 10.7329 21.9997C10.7329 21.8173 10.6604 21.6425 10.5315 21.5135C10.4026 21.3846 10.2277 21.3122 10.0454 21.3122H8.51363C8.68751 17.8858 10.1268 14.6459 12.5527 12.22C14.9786 9.79407 18.2185 8.35479 21.6449 8.18091V9.71266C21.6449 9.89499 21.7173 10.0699 21.8462 10.1988C21.9752 10.3277 22.15 10.4002 22.3324 10.4002C22.5147 10.4002 22.6896 10.3277 22.8185 10.1988C22.9475 10.0699 23.0199 9.89499 23.0199 9.71266V8.18091C26.4462 8.35479 29.6861 9.79407 32.1121 12.22C34.538 14.6459 35.9773 17.8858 36.1511 21.3122H34.6214C34.4391 21.3122 34.2642 21.3846 34.1353 21.5135C34.0064 21.6425 33.9339 21.8173 33.9339 21.9997C33.9339 22.182 34.0064 22.3569 34.1353 22.4858C34.2642 22.6147 34.4391 22.6872 34.6214 22.6872H36.1511C35.9773 26.1135 34.538 29.3534 32.1121 31.7793C29.6861 34.2052 26.4462 35.6445 23.0199 35.8184Z" fill="url(#paint1_linear_11434_16391)"/>
<path d="M24.9133 23.1854C24.8507 23.1858 24.7887 23.1739 24.7308 23.1503C24.6729 23.1267 24.6202 23.0919 24.5757 23.0479L21.2867 19.7589C21.2371 19.7063 21.1997 19.6435 21.1771 19.5748C21.1545 19.5061 21.1472 19.4333 21.1559 19.3616C21.1646 19.2898 21.1889 19.2208 21.2272 19.1595C21.2655 19.0982 21.3168 19.046 21.3775 19.0068L29.7196 13.9557C29.7909 13.9115 29.8729 13.8877 29.9568 13.887C30.0865 13.8898 30.2099 13.9434 30.3005 14.0361C30.3797 14.1082 30.431 14.2058 30.4455 14.3118C30.4601 14.4179 30.437 14.5256 30.3803 14.6164C30.3686 14.6343 26.1687 21.5691 25.3265 22.9592C25.2831 23.0294 25.2223 23.0873 25.1501 23.1273C25.0779 23.1673 24.9965 23.188 24.914 23.1875L24.9133 23.1854Z" fill="#D65363"/>
<path d="M14.7019 30.1175C14.5738 30.1184 14.4504 30.069 14.3582 29.98C14.2824 29.9035 14.2344 29.8038 14.222 29.6969C14.2095 29.59 14.2333 29.4819 14.2894 29.3901L19.3426 21.048C19.386 20.9777 19.4467 20.9198 19.519 20.8799C19.5912 20.8399 19.6725 20.8192 19.7551 20.8197C19.8175 20.8193 19.8794 20.8313 19.9372 20.8549C19.995 20.8785 20.0476 20.9132 20.0919 20.9572L23.3809 24.2462C23.4314 24.2984 23.4695 24.3612 23.4926 24.43C23.5157 24.4987 23.5232 24.5718 23.5145 24.6439C23.5058 24.7159 23.4812 24.7851 23.4424 24.8464C23.4036 24.9077 23.3516 24.9596 23.2902 24.9983L14.946 30.0501C14.8719 30.0946 14.7871 30.1184 14.7006 30.1188L14.7019 30.1175Z" fill="#58ACDD"/>
<path d="M24.9133 23.1854C24.8507 23.1858 24.7887 23.1739 24.7308 23.1503C24.6729 23.1267 24.6202 23.0919 24.5757 23.0479L21.2867 19.7589C21.2371 19.7063 21.1997 19.6435 21.1771 19.5748C21.1545 19.5061 21.1472 19.4333 21.1559 19.3616C21.1646 19.2898 21.1889 19.2208 21.2272 19.1595C21.2655 19.0982 21.3168 19.046 21.3775 19.0068L29.7196 13.9557C29.7909 13.9115 29.8729 13.8877 29.9568 13.887C30.0865 13.8898 30.2099 13.9434 30.3005 14.0361C30.3797 14.1082 30.431 14.2058 30.4455 14.3118C30.4601 14.4179 30.437 14.5256 30.3803 14.6164C30.3686 14.6343 26.1687 21.5691 25.3265 22.9592C25.2831 23.0294 25.2223 23.0873 25.1501 23.1273C25.0779 23.1673 24.9965 23.188 24.914 23.1875L24.9133 23.1854Z" fill="url(#paint2_linear_11434_16391)"/>
<path d="M14.7019 30.1175C14.5738 30.1184 14.4504 30.069 14.3582 29.98C14.2824 29.9035 14.2344 29.8038 14.222 29.6969C14.2095 29.59 14.2333 29.4819 14.2894 29.3901L19.3426 21.048C19.386 20.9777 19.4467 20.9198 19.519 20.8799C19.5912 20.8399 19.6725 20.8192 19.7551 20.8197C19.8175 20.8193 19.8794 20.8313 19.9372 20.8549C19.995 20.8785 20.0476 20.9132 20.0919 20.9572L23.3809 24.2462C23.4314 24.2984 23.4695 24.3612 23.4926 24.43C23.5157 24.4987 23.5232 24.5718 23.5145 24.6439C23.5058 24.7159 23.4812 24.7851 23.4424 24.8464C23.4036 24.9077 23.3516 24.9596 23.2902 24.9983L14.946 30.0501C14.8719 30.0946 14.7871 30.1184 14.7006 30.1188L14.7019 30.1175Z" fill="url(#paint3_linear_11434_16391)"/>
<defs>
<linearGradient id="paint0_linear_11434_16391" x1="15.0621" y1="9.4078" x2="29.6028" y2="34.5923" gradientUnits="userSpaceOnUse">
<stop stop-color="white"/>
<stop offset="0.27" stop-color="#FFFCF8"/>
<stop offset="0.667" stop-color="#FFF3E4"/>
<stop offset="1" stop-color="#FFE9CE"/>
</linearGradient>
<linearGradient id="paint1_linear_11434_16391" x1="13.8445" y1="7.29816" x2="30.8203" y2="36.7012" gradientUnits="userSpaceOnUse">
<stop stop-color="#64DBED"/>
<stop offset="1" stop-color="#46A4CC"/>
</linearGradient>
<linearGradient id="paint2_linear_11434_16391" x1="25.5018" y1="16.3874" x2="28.3322" y2="21.2893" gradientUnits="userSpaceOnUse">
<stop stop-color="#FC6559"/>
<stop offset="1" stop-color="#D5343F"/>
</linearGradient>
<linearGradient id="paint3_linear_11434_16391" x1="16.3293" y1="22.7165" x2="19.159" y2="27.6177" gradientUnits="userSpaceOnUse">
<stop stop-color="#77E3FF"/>
<stop offset="0.287" stop-color="#71D6FF"/>
<stop offset="0.819" stop-color="#61B3FF"/>
<stop offset="1" stop-color="#5BA6FF"/>
</linearGradient>
</defs>
</svg>
