<svg width="240" height="41" viewBox="0 0 240 41" fill="none" xmlns="http://www.w3.org/2000/svg">
<g clip-path="url(#clip0_10966_19756)">
<mask id="mask0_10966_19756" style="mask-type:luminance" maskUnits="userSpaceOnUse" x="1" y="6" width="49" height="30">
<path d="M1.05713 6H49.5928V36H1.05713V6Z" fill="white"/>
</mask>
<g mask="url(#mask0_10966_19756)">
<path d="M25.4645 32.9499C25.043 33.1928 22.0288 35.7428 16.0359 35.7428C10.9859 35.7428 5.59304 33.157 3.90733 33.207C3.30733 33.1856 2.82876 33.307 2.45733 33.4713C1.75019 33.7642 1.05733 33.3356 1.44304 32.607C2.77161 30.0928 5.02876 28.5499 7.15733 27.907C8.71447 27.4356 10.143 27.2785 10.8788 28.0928C12.5002 29.8928 15.4359 32.1213 18.2788 32.4142C18.5073 32.4356 19.543 32.5213 19.5573 32.2285C19.5716 32.0499 19.2145 31.9285 18.8573 31.907C15.9502 31.6928 10.7002 28.5785 7.82161 22.5499C6.7359 20.2856 5.87876 18.0928 3.99304 17.1356C3.57876 16.9356 3.56447 16.1642 4.44304 15.9499C5.05019 15.807 8.92876 15.4356 13.3573 17.7642C15.3859 18.8356 15.6716 19.7999 15.6788 20.6356C15.6645 26.957 18.8573 29.4642 20.093 30.207C20.7859 30.6142 21.4288 30.7928 21.5002 30.5785C21.5573 30.3999 21.3716 30.2713 21.2145 30.1785C17.3788 27.8499 16.3645 24.2713 16.3359 20.6213C16.3073 17.0142 17.643 13.8928 18.593 11.3356C18.7288 10.9713 19.1788 9.4499 18.8002 8.04275C18.5145 6.98561 18.743 6.67847 19.3002 6.67847C19.9073 6.67847 20.7145 7.66418 20.9859 7.9999C21.2073 8.25704 21.9145 9.11418 22.9788 11.2285C25.093 15.3999 25.1073 19.7713 25.1073 20.2999C25.1073 23.2999 24.3359 23.6499 23.0716 24.2713C21.8145 24.8928 21.2145 25.6928 21.2145 26.6285C21.2145 27.5785 21.8788 28.5713 23.0716 28.9213C24.0002 29.1928 24.5859 29.0928 24.5359 28.8499C24.5002 28.6642 24.0859 28.6142 23.9716 28.5785C22.7073 28.2356 21.8716 27.5928 21.8716 26.6285C21.8716 25.4142 23.3645 24.5285 25.4573 24.5285C27.5645 24.5285 29.0502 25.4142 29.0502 26.6285C29.0502 27.5928 28.2145 28.2428 26.9573 28.5856C26.8359 28.6142 26.4288 28.6642 26.3859 28.8499C26.3359 29.0928 26.9288 29.1928 27.8573 28.9213C29.0502 28.5785 29.7145 27.5785 29.7073 26.6285C29.7073 25.6928 29.1145 24.8928 27.8502 24.2713C26.593 23.6499 25.8145 23.2999 25.8145 20.2999C25.8145 19.7713 25.8359 15.3999 27.9502 11.2285C29.0145 9.12132 29.7216 8.25704 29.9359 7.9999C30.2073 7.66418 31.0216 6.67847 31.6288 6.67847C32.1859 6.67847 32.4145 6.98561 32.1288 8.04275C31.7502 9.4499 32.193 10.9713 32.3359 11.3356C33.2788 13.8928 34.6216 17.0142 34.593 20.6213C34.5573 24.2713 33.543 27.8499 29.7145 30.1785C29.5573 30.2713 29.3716 30.3999 29.4288 30.5785C29.493 30.7928 30.143 30.6213 30.8288 30.207C32.0645 29.4642 35.2645 26.957 35.243 20.6356C35.2502 19.7999 35.5359 18.8356 37.5716 17.7642C42.0002 15.4356 45.8716 15.807 46.4859 15.957C47.3645 16.1642 47.3502 16.9356 46.9288 17.1356C45.043 18.0928 44.1859 20.2856 43.1073 22.5499C40.2216 28.5785 34.9788 31.6999 32.0645 31.907C31.7073 31.9285 31.3502 32.0499 31.3645 32.2285C31.3788 32.5213 32.4145 32.4356 32.643 32.4142C35.493 32.1213 38.4216 29.8999 40.0502 28.0928C40.7859 27.2785 42.2073 27.4356 43.7645 27.907C45.9002 28.5499 48.1502 30.0928 49.4788 32.607C49.8645 33.3356 49.1788 33.7642 48.4716 33.4713C48.093 33.307 47.6145 33.1856 47.0216 33.207C45.3288 33.157 39.9359 35.7428 34.8859 35.7428C28.893 35.7428 25.8788 33.1928 25.4645 32.9499Z" fill="#D1A352"/>
</g>
<path fill-rule="evenodd" clip-rule="evenodd" d="M90.65 20.4643V19.2286C90.65 18.2929 90.8572 17.9643 91.6357 17.4572C92.2357 17.0643 92.4857 16.9286 92.7 16.9072C92.9857 16.8858 93.35 17.0572 93.35 17.5286V20.4858C93.35 20.7643 93.3429 20.8001 93.6715 20.8001H96.1143C96.5357 20.8001 96.55 21.0429 96.55 21.5143C96.55 21.9715 96.5357 22.2143 96.1143 22.2143H93.6857C93.3429 22.2143 93.3429 22.2501 93.3429 22.5929L93.35 31.3786C93.35 33.3215 94.4643 33.5643 95.35 33.5643C95.7214 33.5643 95.9072 33.4786 96.1857 33.4501C96.5714 33.4001 96.8 33.5572 96.8143 33.9001C96.8286 34.4929 95.7286 34.9858 94.0572 34.9643C92.3643 34.9358 90.65 34.5572 90.65 31.3572C90.65 31.3572 90.6429 23.2358 90.65 22.5643C90.6572 22.2429 90.6429 22.2143 90.3429 22.2143H88.85C88.4214 22.2143 88.4214 21.9715 88.4214 21.5143C88.4214 21.0358 88.4286 20.8001 88.85 20.8001C88.85 20.8001 89.7072 20.8072 90.3429 20.8001C90.6357 20.7929 90.65 20.8001 90.65 20.4643ZM178.757 34.1286C178.757 34.7143 178.471 34.7143 177.414 34.7143C176.35 34.7143 176.064 34.7143 176.064 34.1286V22.9143C176.064 22.1072 176.471 21.5929 177.371 21.2358C178.186 20.9215 179.357 20.5215 181.614 20.5929C183.979 20.6715 185.493 21.4286 185.493 22.5715C185.493 23.2358 185.079 23.6143 184.407 23.6143C182.921 23.6143 183.164 21.9643 181.086 21.9643C179.864 21.9643 178.757 22.5143 178.757 23.5429V34.1286ZM110.629 34.1358C110.629 34.7286 110.343 34.7286 109.279 34.7286C108.229 34.7286 107.936 34.7286 107.936 34.1358V25.5429C107.936 23.7358 107.207 22.0143 104.3 22.0143C101.229 22.0143 100.914 23.2358 100.914 24.1215L100.921 34.1358C100.921 34.7286 100.636 34.7286 99.5714 34.7286C98.5214 34.7286 98.2286 34.7286 98.2286 34.1358L98.2214 23.2929C98.2214 22.4643 98.3 21.9643 99.2 21.5643C100.114 21.1572 102.064 20.6072 104.236 20.6072C106.929 20.6072 110.636 21.2858 110.629 25.5429V34.1358ZM170.786 22.7215C170.786 21.7929 170.807 21.5572 171.55 21.0715C172.207 20.6429 173.5 20.4072 173.493 21.3429L173.479 34.1215C173.479 34.7072 173.186 34.7072 172.129 34.7072C171.079 34.7072 170.793 34.7072 170.793 34.1215L170.786 22.7215ZM172.407 18.3858C171.507 18.5715 170.729 18.1429 170.579 17.4429C170.421 16.7429 170.964 16.0358 171.864 15.8501C172.764 15.6572 173.55 16.0858 173.7 16.7858C173.85 17.4858 173.307 18.1929 172.407 18.3858ZM186.364 17.2001C186.364 16.2715 186.393 16.0286 187.129 15.5501C187.786 15.1215 189.079 14.8858 189.071 15.8215L189.057 34.1358C189.057 34.7215 188.764 34.7215 187.707 34.7215C186.657 34.7215 186.364 34.7215 186.364 34.1358V17.2001ZM193.686 18.3858C192.779 18.5786 192 18.1501 191.85 17.4501C191.7 16.7501 192.236 16.0429 193.136 15.8501C194.043 15.6643 194.821 16.0929 194.971 16.7929C195.121 17.4929 194.586 18.2001 193.686 18.3858ZM192.064 22.7358C192.064 21.8001 192.086 21.5643 192.821 21.0786C193.486 20.6501 194.771 20.4143 194.764 21.3501L194.757 34.1286C194.757 34.7143 194.464 34.7143 193.407 34.7143C192.357 34.7143 192.064 34.7143 192.064 34.1286V22.7358ZM163.443 28.6143C161.571 28.6215 157.529 28.6215 156.114 28.6215C155.743 28.6215 155.707 28.7501 155.579 29.0643L153.507 34.2501C153.307 34.7072 153.179 34.7358 152.114 34.7358C150.971 34.7358 150.714 34.7358 151 34.0501C151.086 33.8501 157.807 17.6929 158.193 16.7715C158.571 15.8643 158.757 15.8286 160.136 15.8286C161.529 15.8286 161.686 15.8929 162.057 16.7715C162.436 17.6501 169.136 33.7286 169.221 33.9358C169.536 34.7358 169.279 34.7358 167.764 34.7358C166.479 34.7429 166.343 34.7358 166.15 34.2572C165.986 33.8143 164.893 31.2286 163.971 29.0501C163.836 28.7143 163.8 28.6143 163.443 28.6143ZM156.75 26.9643H162.786C163.079 26.9643 163.05 26.7786 162.964 26.5643C162.579 25.5429 160 18.9715 159.821 18.5072C159.771 18.3929 159.664 18.3929 159.629 18.5001C159.493 18.8786 156.936 25.5643 156.536 26.5786C156.471 26.7429 156.386 26.9643 156.75 26.9643ZM210.093 34.1501C210.093 34.7429 209.807 34.7429 208.743 34.7429C207.693 34.7429 207.4 34.7429 207.4 34.1501V25.5501C207.4 23.7501 206.671 22.0286 203.764 22.0286C200.693 22.0286 200.379 23.2501 200.379 24.1358L200.386 34.1501C200.386 34.7429 200.1 34.7429 199.036 34.7429C197.986 34.7429 197.693 34.7429 197.693 34.1501L197.686 23.3001C197.686 22.4786 197.764 21.9715 198.664 21.5715C199.579 21.1715 201.529 20.6215 203.7 20.6215C206.393 20.6215 210.1 21.2929 210.093 25.5501V34.1501ZM232.55 35.0429C228.371 35.0429 226.65 32.7501 226.65 31.7572C226.65 31.0358 227.093 30.5643 227.821 30.5501C228.643 30.5358 228.993 31.0215 229.257 31.5501C229.8 32.8715 230.8 33.6286 232.679 33.6143C234.557 33.5929 235.857 32.9501 235.857 31.5572C235.879 28.1929 227.064 29.2286 227.064 24.3786C227.064 21.7858 229.286 20.5358 232.571 20.5572C236.529 20.5786 237.979 22.4215 237.979 23.4643C237.979 24.1572 237.479 24.5358 236.886 24.5358C236.1 24.5358 235.693 24.1001 235.493 23.6358C235.057 22.6358 234.379 21.9429 232.314 21.9429C230.886 21.9429 229.564 22.5358 229.564 23.8215C229.564 27.1072 238.371 26.2429 238.471 30.9572C238.536 33.6643 235.979 35.0429 232.55 35.0429ZM69.0572 22.7358C69.0572 21.8001 69.0857 21.5643 69.8214 21.0786C70.4786 20.6501 71.7714 20.4143 71.7643 21.3501L71.75 34.1286C71.75 34.7143 71.4572 34.7143 70.4 34.7143C69.35 34.7143 69.0572 34.7143 69.0572 34.1286V22.7358ZM112.321 31.3929C112.321 27.6215 117.657 26.3286 121.764 25.6715C121.986 25.6429 121.986 25.5929 121.986 25.3429V24.5286C121.993 22.6715 120.593 21.9572 119.036 21.9572C117.043 21.9572 116.079 22.7715 115.521 24.0786C115.336 24.5001 114.879 25.0072 114.121 24.9858C113.329 24.9643 112.929 24.4715 112.964 23.8001C113.036 22.5286 114.85 20.5715 119.414 20.5643C122.207 20.5572 124.643 21.7786 124.643 24.7143V32.4143C124.643 33.0286 124.643 33.5643 123.636 34.0429C122.286 34.6643 121.15 35.0572 118.907 35.0429C115.136 35.0429 112.321 33.7429 112.321 31.3929ZM121.986 27.2929C121.986 27.0358 121.871 27.0572 121.7 27.0929C118.35 27.8001 115.143 28.6929 115.143 31.1786C115.143 32.5429 116.35 33.5786 118.764 33.5786C120.136 33.5786 121.986 33.2001 121.986 31.7786V27.2929ZM70.6786 18.3858C69.7786 18.5786 69 18.1501 68.85 17.4501C68.7 16.7501 69.2357 16.0429 70.1357 15.8501C71.0357 15.6643 71.8214 16.0929 71.9714 16.7929C72.1214 17.4929 71.5857 18.2001 70.6786 18.3858ZM144.65 25.1858C144.65 23.3858 143.764 22.0286 141.679 22.0286C139.543 22.0286 138.607 23.3572 138.607 25.1429V34.1501C138.607 34.7358 138.314 34.7358 137.264 34.7358C136.207 34.7358 135.914 34.7358 135.914 34.1501V25.3143C135.914 22.9715 134.7 22.0358 132.707 22.0358C131.114 22.0358 129.9 22.4572 129.9 23.9715L129.893 34.1501C129.893 34.7358 129.6 34.7358 128.55 34.7358C127.493 34.7358 127.2 34.7358 127.2 34.1501V23.2215C127.2 22.6572 127.2 22.0643 128.2 21.6286C129.579 21.0143 131.121 20.6358 132.7 20.6358C134.993 20.6358 136.3 21.2572 137.286 22.3215C138.2 21.3072 139.543 20.6358 141.9 20.6358C143.914 20.6358 147.321 21.3858 147.321 25.0215V34.1501C147.321 34.7358 147.036 34.7358 145.979 34.7358C144.921 34.7358 144.629 34.7358 144.629 34.1501L144.65 25.1858ZM81.5214 35.0358C78.1072 35.0358 74.1072 33.1358 74.1072 27.7786C74.1072 22.7501 77.1857 20.5643 81.2 20.5643C85.0572 20.5643 87.75 23.2358 87.75 26.1215C87.75 26.6286 87.7357 27.2358 86.8214 27.2286C82.0429 27.2215 77.3 27.2215 77.1214 27.2286C76.9429 27.2358 76.8929 27.3358 76.8929 27.4572C76.8143 30.9501 78.6214 33.2072 81.7714 33.1786C84.1 33.1572 85.8429 31.7358 86.5572 30.5286C86.75 30.2001 86.9 30.0929 87.2072 30.0929C87.55 30.0929 87.7357 30.3358 87.7357 30.5786C87.7357 31.8429 85.6429 35.0358 81.5214 35.0358ZM77.1286 25.7429H84.2929C84.9429 25.7429 85.0857 25.6715 85.0572 25.1286C84.9643 23.2358 83.1 21.9429 80.9786 21.9572C78.4429 21.9786 77.1643 23.8429 76.9214 25.5215C76.9072 25.6501 76.9286 25.7429 77.1286 25.7429ZM219.264 35.0358C215.857 35.0358 211.857 33.1358 211.857 27.7786C211.857 22.7501 214.936 20.5643 218.943 20.5643C222.807 20.5643 225.5 23.2358 225.5 26.1215C225.5 26.6286 225.486 27.2358 224.571 27.2286C219.793 27.2215 215.05 27.2215 214.871 27.2286C214.693 27.2358 214.643 27.3358 214.643 27.4572C214.564 30.9501 216.379 33.2072 219.521 33.1786C221.85 33.1572 223.6 31.7358 224.314 30.5286C224.493 30.2001 224.65 30.0929 224.964 30.0929C225.3 30.0929 225.486 30.3358 225.486 30.5786C225.486 31.8429 223.393 35.0358 219.264 35.0358ZM214.879 25.7429H222.043C222.693 25.7429 222.836 25.6715 222.807 25.1286C222.714 23.2358 220.85 21.9429 218.729 21.9572C216.2 21.9786 214.914 23.8429 214.671 25.5215C214.657 25.6501 214.686 25.7429 214.879 25.7429ZM50.4714 16.7858C50.1286 15.9429 50.0143 15.7786 51.7357 15.7786C53.3072 15.7786 53.3429 15.9143 53.4857 16.2858C53.4857 16.2858 59.3143 30.9286 59.5 31.3429C59.55 31.4572 59.6714 31.4501 59.7072 31.3572C59.8286 31.0143 65.5714 16.3286 65.5714 16.3286C65.7714 15.8715 65.8714 15.8072 66.9286 15.8072C68.1357 15.8072 68.2643 15.8715 67.9643 16.6215C66.6072 19.9929 61.4786 32.8786 61.0857 33.7858C60.6929 34.6858 60.6643 34.7358 59.3143 34.7358C57.9072 34.7358 57.8214 34.6715 57.4572 33.7929C57.0857 32.9143 50.55 16.9929 50.4714 16.7858Z" fill="#035F7F"/>
</g>
<defs>
<clipPath id="clip0_10966_19756">
<rect width="237.9" height="30" fill="white" transform="translate(1 6)"/>
</clipPath>
</defs>
</svg>
