<svg width="220" height="41" viewBox="0 0 220 41" fill="none" xmlns="http://www.w3.org/2000/svg">
<path fill-rule="evenodd" clip-rule="evenodd" d="M216.044 38.8043L205.088 31.1738C205.283 30.5868 205.479 30.1955 205.675 29.6086C206.653 26.8694 207.631 24.1303 208.805 21.5868C210.957 16.8912 213.109 12.1955 215.262 7.69547C215.653 6.91286 215.849 6.13025 216.24 5.54329C216.044 5.73895 216.044 5.73895 215.849 5.9346C215.262 6.91286 214.675 8.08678 214.088 9.06504C212.718 11.4129 211.349 13.7607 209.979 16.1085C208.805 18.0651 207.827 20.0216 206.653 21.9781L202.544 29.4129L184.544 25.3042C182.196 24.7173 179.849 24.326 177.501 23.739C176.914 23.5433 176.522 23.3477 176.522 22.7607C176.522 22.1738 176.914 21.9781 177.305 21.7825L216.631 3.58677C216.827 3.58677 217.023 3.39111 217.218 3.39111C217.218 3.58677 217.218 3.78242 217.218 3.97807C217.218 15.1303 217.218 26.4781 217.218 37.6303C217.218 38.2173 217.023 38.6086 216.631 38.9999L216.044 38.8043Z" fill="#FEC70A"/>
<path fill-rule="evenodd" clip-rule="evenodd" d="M2.1958 29.022C2.58711 27.8481 2.97841 26.6742 3.17406 25.5003C3.95667 21.1959 4.93494 16.8916 5.71756 12.5872C5.71756 12.3916 5.71755 12.3916 5.9132 12.1959H9.43494C8.45668 17.0872 7.47843 21.7829 6.69582 26.6742C7.86973 27.0655 10.2176 26.6742 11.0002 25.3046C11.3915 24.3264 11.9784 23.5438 12.1741 22.5655C13.935 18.0655 15.5002 13.5655 17.0654 9.06547C17.2611 8.67417 17.4567 8.47852 17.848 8.47852C18.8263 8.47852 19.8045 8.47852 20.7828 8.47852C20.1958 10.0437 19.6089 11.4133 19.2176 12.9785C17.848 16.6959 16.4784 20.4133 15.1089 23.9351C14.7176 25.109 14.1306 26.0873 13.348 27.2612C12.1741 28.8264 10.6089 29.4134 8.65235 29.8047C6.69582 30.0003 4.73929 30.0003 2.97841 29.609C2.78276 29.609 2.5871 29.4134 2.39145 29.4134V29.022H2.1958Z" fill="#0366B3"/>
<path fill-rule="evenodd" clip-rule="evenodd" d="M111.565 29.8043H108.239L109.217 25.1087H107.457C106.283 25.1087 104.913 25.1087 103.739 25.1087C103.348 25.1087 103.152 25.3043 102.957 25.6956C101.978 28.0435 101 30.587 100.217 32.9348C100.022 33.3261 99.8261 33.5217 99.4348 33.5217C98.4565 33.5217 97.4783 33.5217 96.5 33.5217C96.8913 32.3478 97.2826 31.3696 97.6739 30.3913C99.2391 26.2826 100.804 22.1739 102.37 18.0652C103.348 15.5217 104.717 13.5652 107.457 12.9782C108.826 12.5869 110.391 12.5869 111.761 12.5869C112.739 12.5869 113.717 12.7826 114.696 12.9782C115.087 12.9782 115.087 13.1739 115.087 13.5652C114.5 16.5 113.717 19.6304 113.13 22.5652C112.544 24.913 112.152 27.2609 111.565 29.8043ZM110.978 15.3261C109.022 14.7391 106.87 15.5217 106.087 17.2826C105.304 18.8478 104.913 20.413 104.13 21.9782C104.13 21.9782 104.13 21.9782 104.13 22.1739H109.609C110 19.8261 110.587 17.6739 110.978 15.3261Z" fill="#0366B3"/>
<path fill-rule="evenodd" clip-rule="evenodd" d="M155 24.5218C154.805 26.087 155.979 27.2609 157.739 27.2609C158.913 27.4565 160.283 27.2609 161.457 26.6739C161.652 26.6739 161.848 26.6739 162.044 26.4783C161.848 27.2609 161.848 28.0435 161.652 28.8261C161.652 29.0218 161.457 29.2174 161.261 29.2174C159.109 29.8044 156.957 30 154.805 29.0218C153.044 28.2392 152.065 26.8696 152.065 24.9131C151.87 22.5652 152.652 20.2174 154.413 18.6522C156.565 16.8913 158.913 16.6956 161.457 17.4783C163.022 18.0652 163.805 19.2391 163.805 20.8044C163.805 21.7826 163.609 22.7609 163.609 23.7391C163.609 24.1304 163.413 24.3261 162.826 24.3261C160.479 24.3261 158.131 24.3261 155.783 24.3261H155V24.5218ZM155.196 22.5652H160.479C160.87 21.3913 160.479 20.413 159.696 19.8261C157.935 19.0435 155.392 20.4131 155.196 22.5652Z" fill="#0467B4"/>
<path fill-rule="evenodd" clip-rule="evenodd" d="M26.6526 24.522C26.4569 26.0872 27.4352 27.0655 29.0004 27.2611C30.37 27.4568 31.7396 27.2611 32.9135 26.8698C33.1091 26.8698 33.1091 26.8698 33.3048 26.6742C33.3048 26.6742 33.3048 26.6742 33.5004 26.6742C33.3048 27.4568 33.1091 28.2394 33.1091 29.022C33.1091 29.2177 32.9135 29.2177 32.7178 29.4133C30.5656 30.0003 28.4135 30.1959 26.2613 29.2177C24.6961 28.6307 23.7178 27.4568 23.5222 25.6959C23.1308 23.1524 23.7178 20.8046 25.6743 19.0437C27.4352 17.2828 30.7613 16.6959 33.1091 17.6741C34.87 18.4568 35.457 19.8263 35.457 21.5872C35.457 22.3698 35.2613 23.1524 35.0657 23.935C35.0657 24.3263 34.87 24.3263 34.4787 24.3263C32.1309 24.3263 29.783 24.3263 27.4352 24.3263L26.6526 24.522ZM26.8482 22.5655H32.1309C32.7178 21.0002 31.9352 19.8263 30.5656 19.6307C28.8048 19.435 27.2395 20.8046 26.8482 22.5655Z" fill="#0366B3"/>
<path fill-rule="evenodd" clip-rule="evenodd" d="M78.892 24.5219C78.892 26.0871 79.6746 27.0653 81.2398 27.261C82.6094 27.4566 83.979 27.261 85.1529 26.8697L85.7399 26.674C85.5442 27.6523 85.3486 28.4349 85.1529 29.2175C85.1529 29.4132 84.9572 29.4132 84.7616 29.4132C82.8051 30.0001 80.8485 30.0001 78.892 29.4132C76.7398 28.6306 75.5659 27.0653 75.5659 24.9132C75.5659 21.7827 76.5442 19.4349 79.479 17.8697C81.2398 17.087 83.0007 17.087 84.9573 17.674C86.7181 18.261 87.6964 20.0218 87.5007 22.174C87.5007 22.761 87.3051 23.3479 87.1094 23.9349C87.1094 24.3262 86.9138 24.5219 86.5225 24.5219C84.1746 24.5219 81.8268 24.5219 79.479 24.5219H78.892ZM84.5659 22.5653C84.5659 22.174 84.5659 21.9784 84.5659 21.5871C84.5659 20.4131 83.979 19.6305 82.6094 19.6305C80.8485 19.4349 79.2833 20.8045 79.0877 22.5653H84.5659Z" fill="#0366B3"/>
<path fill-rule="evenodd" clip-rule="evenodd" d="M60.1095 22.5652C60.6964 20.9999 60.1095 20.0217 58.5443 19.826C57.3704 19.6304 56.0008 19.826 54.8269 20.2173C54.6312 20.2173 54.4356 20.413 54.0443 20.413C54.2399 19.4347 54.4356 18.6521 54.6312 18.0651C54.6312 18.0651 54.8269 17.8695 55.0225 17.8695C56.7834 17.2825 58.7399 17.2825 60.6965 17.6738C62.8486 18.0651 63.8269 19.6304 63.6312 21.7825C63.4356 23.5434 63.0443 25.3043 62.653 27.0652C62.653 27.6521 62.653 28.2391 62.4573 28.826C62.4573 29.0217 62.2617 29.2173 62.066 29.413C59.7182 30 57.566 30.3913 55.0225 30C53.2616 29.6087 52.2834 28.826 52.2834 27.2608C52.0877 25.4999 52.6747 24.1304 54.2399 23.3478C56.0008 22.5652 57.7617 22.3695 59.5225 22.7608C59.5225 22.3695 59.9138 22.5652 60.1095 22.5652ZM59.7182 24.5217C58.3486 24.1304 57.1747 24.1304 55.8051 24.7173C55.0225 25.1086 54.8269 25.6956 55.0225 26.4782C55.0225 27.0652 55.4138 27.4565 56.1964 27.6521C57.1747 27.8478 58.153 27.8478 59.1312 27.4565C59.3269 27.4565 59.3269 27.2608 59.3269 27.2608C59.5225 26.2826 59.5225 25.4999 59.7182 24.5217Z" fill="#0367B3"/>
<path fill-rule="evenodd" clip-rule="evenodd" d="M146 29.8045C146.196 28.6306 146.391 27.4567 146.587 26.2828C146.783 24.9132 147.174 23.7393 147.174 22.3697C147.37 20.8045 146.783 20.0219 145.022 20.0219C144.826 20.0219 144.631 20.0219 144.435 20.0219C142.87 20.2175 142.87 20.2175 142.674 21.5871C142.283 24.1306 141.696 26.8697 141.109 29.4132C141.109 29.6089 141.109 29.6089 140.913 29.8045H137.783C137.978 28.8262 138.174 27.6523 138.37 26.6741C138.761 24.5219 139.152 22.1741 139.739 20.0219C139.739 19.8262 139.739 19.8262 139.739 19.6306C139.935 18.4567 139.935 18.4567 141.109 18.0654C143.065 17.674 144.826 17.2827 146.783 17.674C149.326 18.0654 150.5 19.6306 150.109 22.1741C149.718 24.7175 149.131 27.0654 148.739 29.4132C148.739 29.6089 148.544 29.6089 148.348 29.8045C147.957 29.8045 146.978 29.8045 146 29.8045Z" fill="#0467B4"/>
<path fill-rule="evenodd" clip-rule="evenodd" d="M173.979 20.413C173.196 20.2174 172.609 20.0217 172.022 19.8261C171.044 19.8261 170.262 19.8261 169.283 19.8261C168.892 19.8261 168.696 20.0217 168.501 20.2174C167.718 20.8043 167.914 21.7826 168.696 21.9783C169.283 22.1739 169.87 22.3696 170.457 22.5652C171.044 22.7609 171.631 22.9565 172.022 23.1522C173.196 23.5435 173.783 24.3261 173.979 25.6957C174.175 27.0652 173.588 28.0435 172.414 28.8261C171.24 29.6087 170.066 29.8044 168.892 29.8044C167.131 29.8044 165.37 29.8044 163.609 29.2174C163.805 28.4348 164.001 27.4565 164.001 26.6739C164.196 26.6739 164.392 26.6739 164.392 26.8696C165.957 27.4565 167.522 27.6522 169.088 27.4565C169.283 27.4565 169.675 27.2609 169.87 27.2609C170.262 27.0652 170.457 26.6739 170.457 26.2826C170.457 25.8913 170.262 25.5 169.87 25.3044C169.283 25.1087 168.696 24.913 167.914 24.7174C167.522 24.5217 167.131 24.5217 166.544 24.3261C165.566 23.9348 164.588 23.3478 164.392 22.1739C164.196 20.8043 164.588 19.6304 165.762 18.8478C166.74 18.0652 167.718 17.8696 168.892 17.6739C170.653 17.4782 172.414 17.4782 174.175 18.0652C174.37 18.8478 174.175 19.6304 173.979 20.413Z" fill="#0367B3"/>
<path fill-rule="evenodd" clip-rule="evenodd" d="M64.4136 17.8697H67.7397C68.131 20.8045 68.5223 23.7393 68.9136 26.8697C69.1092 26.6741 69.1092 26.4784 69.3049 26.2828C70.6745 23.5437 72.044 21.0002 73.4136 18.261C73.6092 17.8697 73.8049 17.6741 74.1962 17.8697C75.1745 17.8697 75.9571 17.8697 76.9353 17.8697C76.9353 18.0654 76.7397 18.261 76.7397 18.4567C74.5875 22.1741 72.631 25.8915 70.4788 29.6089C70.2832 29.8045 70.0875 30.0002 69.8918 30.0002C68.7179 30.0002 67.544 30.0002 66.3701 30.0002C65.5875 25.8915 65.0005 21.9784 64.4136 17.8697Z" fill="#0467B3"/>
<path fill-rule="evenodd" clip-rule="evenodd" d="M37.9995 20.2172H36.043C36.2386 19.4346 36.4343 18.652 36.6299 17.6738H38.5864C38.7821 16.6955 38.9778 15.9129 39.1734 14.9346C39.1734 14.5433 39.3691 14.3477 39.7604 14.5433C40.543 14.5433 41.5212 14.5433 42.4995 14.5433C42.3038 15.5216 42.1082 16.4998 41.9125 17.6738H45.2386C45.043 18.4564 44.8473 19.239 44.6517 20.2172H41.3256C40.9343 22.1738 40.543 23.9346 40.3473 25.6955C40.1517 26.6738 40.7386 27.4564 41.7169 27.4564C42.4995 27.4564 43.0865 27.2607 43.8691 27.2607C43.6734 28.0433 43.6734 28.826 43.4778 29.6086C43.4778 29.6086 43.2821 29.8042 43.0865 29.8042C41.7169 30.1955 40.3473 30.1955 38.9778 29.8042C37.4125 29.2173 36.8256 27.8477 37.0212 26.0868C37.2169 24.5216 37.6082 22.7607 37.9995 21.1955C37.9995 20.6085 37.9995 20.4129 37.9995 20.2172Z" fill="#0366B3"/>
<path fill-rule="evenodd" clip-rule="evenodd" d="M130.348 29.8046H127.218C127.413 28.8263 127.609 27.6524 127.805 26.6741C128.587 22.7611 129.37 18.848 129.957 15.1306C130.153 14.5436 129.957 13.9567 130.153 13.5654C130.153 13.3697 130.348 13.1741 130.544 13.1741C131.522 13.1741 132.5 13.1741 133.479 13.1741C132.5 18.6523 131.522 24.3263 130.348 29.8046Z" fill="#0467B4"/>
<path fill-rule="evenodd" clip-rule="evenodd" d="M91.0219 13.1741H94.1523C92.9784 18.848 92.0002 24.3263 90.8263 29.8046H87.6958C88.8697 24.3263 89.848 18.848 91.0219 13.1741Z" fill="#0366B3"/>
<path fill-rule="evenodd" clip-rule="evenodd" d="M128.392 17.6743C128.196 18.4569 128 19.4352 127.805 20.2178C126.631 20.2178 125.652 20.2178 124.479 20.2178C124.283 20.2178 124.087 20.4135 124.087 20.6091C123.696 22.5656 123.5 24.3265 123.109 26.283C122.913 27.457 122.718 28.6309 122.522 29.8048H119.392C119.587 28.4352 119.979 26.87 120.174 25.5004C120.566 23.3483 120.957 21.0004 121.348 18.8482C121.348 18.6526 121.544 18.4569 121.739 18.4569C123.892 17.6743 126.044 17.4787 128.392 17.6743Z" fill="#0467B4"/>
<path fill-rule="evenodd" clip-rule="evenodd" d="M44.2607 29.8042C44.8477 26.6737 45.4347 23.5433 46.0216 20.4129C46.2173 19.8259 46.2173 19.2389 46.2173 18.652C46.2173 18.4563 46.4129 18.2607 46.6086 18.065C47.9781 17.4781 51.8912 17.0868 53.2608 17.4781C53.0651 18.2607 52.8695 19.0433 52.8695 20.0216H49.3477C48.7608 23.3476 48.1738 26.4781 47.5868 29.6085L44.2607 29.8042Z" fill="#0367B3"/>
<path fill-rule="evenodd" clip-rule="evenodd" d="M23.1301 17.8696C22.3475 21.9783 21.5649 25.8914 20.7823 30.0001H17.6519C17.8475 28.8262 18.0432 27.4566 18.4345 26.2827C18.8258 23.9349 19.2171 21.587 19.804 19.2392C19.9997 18.0653 19.9997 18.0653 21.1736 18.0653H23.1301V17.8696Z" fill="#0467B3"/>
<path fill-rule="evenodd" clip-rule="evenodd" d="M117.239 29.8044H114.108C114.304 28.6305 114.5 27.6523 114.695 26.674C115.282 23.7392 115.674 21.0001 116.261 18.2609C116.261 18.0653 116.456 18.0653 116.652 17.8696C117.63 17.8696 118.608 17.8696 119.782 17.8696C118.804 21.7827 118.021 25.8914 117.239 29.8044Z" fill="#0467B4"/>
<path fill-rule="evenodd" clip-rule="evenodd" d="M132.892 29.8045C133.087 28.435 133.479 27.0654 133.674 25.6958C134.066 23.5436 134.457 21.3915 134.848 19.2393C134.848 19.0436 134.848 18.848 134.848 18.4567C134.848 17.6741 134.848 17.6741 135.826 17.6741H138.37C138.174 18.848 137.979 19.8262 137.783 21.0002C137.196 23.7393 136.609 26.4784 136.218 29.2176C136.218 29.6089 136.022 29.6089 135.631 29.6089C134.652 29.8045 133.87 29.8045 132.892 29.8045Z" fill="#0467B3"/>
<path fill-rule="evenodd" clip-rule="evenodd" d="M202.544 29.4131L206.653 21.9783L209.979 16.1087L214.087 9.06521C214.674 8.08694 215.261 6.91303 215.848 5.93476C216.044 5.73911 216.044 5.73911 216.24 5.54346C215.848 6.32607 215.653 7.10868 215.261 7.69564C213.109 12.3913 210.957 17.087 208.805 21.587C207.631 24.1305 206.653 26.8696 205.674 29.6087C205.479 30.1957 205.283 30.587 205.087 31.174L202.544 29.4131Z" fill="#FEE600"/>
<path fill-rule="evenodd" clip-rule="evenodd" d="M118.414 15.7175C117.436 15.7175 116.849 15.1305 116.849 14.3479C116.849 13.174 117.827 12.3914 119.001 12.3914C119.979 12.3914 120.566 12.9783 120.566 13.7609C120.37 14.9348 119.588 15.7175 118.414 15.7175Z" fill="#0469B4"/>
<path fill-rule="evenodd" clip-rule="evenodd" d="M22.3475 12.1956C23.3258 12.1956 23.9127 12.7825 23.9127 13.7608C23.9127 14.9347 22.9345 15.7173 21.7605 15.7173C20.7823 15.7173 20.1953 15.1303 20.1953 14.1521C20.391 12.9782 21.1736 12.1956 22.3475 12.1956Z" fill="#0467B4"/>
<path fill-rule="evenodd" clip-rule="evenodd" d="M137.196 15.7173C136.218 15.7173 135.631 15.1303 135.631 14.1521C135.631 12.9782 136.609 12.1956 137.783 12.1956C138.761 12.1956 139.348 12.7825 139.348 13.7608C139.348 14.9347 138.37 15.7173 137.196 15.7173Z" fill="#0467B4"/>
</svg>
