<svg width="160" height="41" viewBox="0 0 160 41" fill="none" xmlns="http://www.w3.org/2000/svg">
<path d="M146.114 1.02213C146.272 0.995176 146.761 1.00048 146.761 1.00048C146.867 9.00908 147.044 17.0133 147.15 25.0216C144.266 25.0724 141.394 25.3638 138.547 25.8286C138.471 19.4008 138.298 12.9773 138.234 6.54948C139.613 5.31129 140.912 3.98429 142.324 2.78409C143.331 1.83308 144.101 1.73125 145.345 1.24768C145.534 1.17411 146.021 1.03781 146.114 1.02213Z" fill="#64B053"/>
<path d="M150.28 1.00051H152.792C153.033 1.8245 153.084 2.6909 152.826 3.51931C151.24 9.72728 149.789 15.9777 147.987 22.1309C147.992 15.1367 148.414 8.02806 148.516 1.02967C149.128 1.00802 149.692 1.03851 150.28 1.00051Z" fill="#64B053"/>
<path d="M126.773 18.9318C130.118 15.0989 133.401 11.2025 137.105 7.70726C137.012 13.8353 137.029 19.9672 136.962 26.0992C135.659 26.336 134.369 26.6232 133.079 26.9234C133.138 22.1944 133.218 17.4655 133.138 12.7365C132.474 17.5247 132.593 22.3762 132.056 27.1768C129.133 27.9462 126.261 28.914 123.491 30.114C123.808 27.4854 123.736 24.8186 124.104 22.2028C124.802 20.973 125.876 20.0136 126.773 18.9318Z" fill="#64B053"/>
<path d="M111.267 37.9702C114.744 33.8624 118.06 29.6322 121.431 25.4443C121.667 27.219 121.828 29.0024 121.976 30.786C118.039 32.5778 114.498 35.1134 111.267 37.9702Z" fill="#64B053"/>
<path d="M138.547 25.8288C141.394 25.364 144.266 25.0724 147.15 25.0218C146.249 26.9362 145.277 28.9308 143.542 30.2366C139.842 33.0892 135.282 34.467 130.807 35.5572C124.709 37.2772 118.373 37.6958 112.126 38.5198C111.821 38.4816 111.212 38.4098 110.908 38.3718L111.267 37.9704C114.499 35.1136 118.039 32.578 121.976 30.786C122.476 30.5536 122.983 30.3296 123.491 30.114C126.261 28.914 129.133 27.9462 132.055 27.177C132.313 27.1136 132.825 26.9868 133.079 26.9234C134.369 26.6234 135.659 26.336 136.961 26.0994C137.355 26.0318 138.15 25.8966 138.547 25.8288Z" fill="#004F8B"/>
<path d="M46.7471 18.2935C47.6732 18.3105 48.5995 18.3189 49.5301 18.3147C49.5089 21.8477 49.5089 25.3765 49.5301 28.905C48.6462 28.753 47.094 29.2094 46.8105 28.0346C46.6878 24.7933 46.7935 21.5391 46.7471 18.2935Z" fill="#628859"/>
<path d="M147.15 25.0216C150.906 25.0258 154.619 25.5752 158.303 26.2472V26.3824C154.531 29.0532 150.606 31.5424 146.376 33.4314C135.701 38.1729 123.719 39.9479 112.126 38.5198C118.373 37.6956 124.709 37.2772 130.807 35.5569C135.282 34.4668 139.842 33.0892 143.542 30.2364C145.276 28.9306 146.249 26.936 147.15 25.0216Z" fill="#4BBEED"/>
<path d="M68.6672 21.3731C67.7097 21.3731 66.752 21.3775 65.7947 21.3698C65.5778 21.3683 65.5017 21.4429 65.504 21.6612C65.5128 22.5115 65.507 23.3622 65.5077 24.2127C65.5079 24.5666 65.5323 24.5909 65.8802 24.5911C67.5979 24.5915 69.3152 24.594 71.0329 24.5885C71.2659 24.5878 71.5005 24.5566 71.7319 24.5233C72.6804 24.3865 73.2725 23.2182 72.8261 22.2954C72.519 21.6605 72.0056 21.3718 71.3119 21.3727C70.4304 21.374 69.5487 21.3731 68.6672 21.3731ZM68.6016 15.5361C67.6591 15.5361 66.7168 15.5389 65.7748 15.5336C65.5831 15.5327 65.5028 15.5962 65.5046 15.7976C65.5119 16.7011 65.5115 17.6047 65.5046 18.5082C65.5031 18.7041 65.5723 18.7792 65.769 18.779C67.6383 18.775 69.5078 18.783 71.3771 18.7715C71.8045 18.7688 72.2097 18.6184 72.506 18.3049C73.339 17.4239 73.0007 16.095 72.0392 15.6987C71.8073 15.6028 71.5425 15.5482 71.2915 15.5429C70.395 15.5248 69.4981 15.5358 68.6016 15.5361ZM74.9797 20.0448C75.2454 20.4073 75.5291 20.7281 75.7378 21.0919C76.2198 21.9316 76.3475 22.8406 76.1435 23.7892C75.8161 25.3113 74.8269 26.2455 73.4294 26.8066C72.7184 27.092 71.9747 27.2148 71.2097 27.2148C68.7849 27.2144 66.3598 27.2212 63.9351 27.2067C63.6245 27.2049 63.3055 27.1243 63.0066 27.0293C62.4563 26.8543 62.273 26.4037 62.2597 25.8764C62.2438 25.2538 62.2558 24.6306 62.2558 24.0079C62.2558 20.7798 62.2555 17.5519 62.2562 14.3237C62.2564 13.68 62.495 13.2985 63.0877 13.0835C63.3391 12.9923 63.6214 12.949 63.89 12.9479C66.4212 12.938 68.9531 12.9077 71.4837 12.9545C73.075 12.9841 74.4568 13.5735 75.4641 14.8656C76.0029 15.557 76.2602 16.3417 76.2315 17.2326C76.2025 18.1377 75.9239 18.9358 75.3615 19.6381C75.2397 19.7899 75.0947 19.9235 74.9797 20.0448Z" fill="#004F8B"/>
<path d="M9.03225 21.3731C8.07428 21.3731 7.1161 21.3775 6.15813 21.3698C5.94147 21.3682 5.86519 21.4427 5.86763 21.6612C5.87647 22.5119 5.87072 23.3628 5.87138 24.2135C5.87161 24.5677 5.89482 24.5909 6.2448 24.5911C8.04665 24.5915 9.84872 24.5993 11.6506 24.5829C11.9294 24.5805 12.2236 24.5054 12.4818 24.396C13.1725 24.1027 13.4765 23.28 13.3169 22.6285C13.1203 21.8246 12.5028 21.3543 11.6552 21.3693C10.7813 21.3853 9.90664 21.3731 9.03225 21.3731ZM8.94956 18.777H11.6859C11.701 18.777 11.7164 18.7779 11.7315 18.7765C12.6667 18.6919 13.1871 18.253 13.3255 17.427C13.4969 16.404 12.8121 15.5542 11.7131 15.5418C9.8664 15.5208 8.01923 15.5354 6.17206 15.5365C5.88996 15.5365 5.87205 15.5548 5.87161 15.8318C5.87028 16.7053 5.87072 17.5786 5.87138 18.452C5.87161 18.7609 5.88575 18.7763 6.19041 18.7765C7.11013 18.7776 8.02984 18.777 8.94956 18.777ZM15.3549 20.0465C15.6255 20.413 15.9193 20.7446 16.1364 21.1206C16.4543 21.6718 16.5821 22.2782 16.5971 22.9248C16.6192 23.882 16.3316 24.7124 15.7389 25.4482C15.2368 26.0714 14.5919 26.5037 13.855 26.7955C13.0788 27.103 12.267 27.2199 11.4317 27.2172C9.0517 27.21 6.67194 27.2153 4.29195 27.2139C3.89952 27.2137 3.52235 27.1366 3.18254 26.9325C2.87191 26.7458 2.69438 26.4869 2.69483 26.1001C2.70057 22.0888 2.69836 18.0776 2.69858 14.0661C2.69858 13.556 3.06492 13.1158 3.58116 13.0453C3.97779 12.9912 4.3795 12.9479 4.779 12.9463C7.12074 12.9373 9.46292 12.918 11.8044 12.9507C13.2318 12.9706 14.5096 13.4414 15.5273 14.4863C16.0621 15.0352 16.4656 15.6882 16.564 16.4442C16.7371 17.7727 16.464 18.9955 15.4353 19.9571C15.3977 19.9922 15.3661 20.034 15.3549 20.0465Z" fill="#004F8B"/>
<path d="M48.6402 12.9418C51.6436 12.9418 54.6473 12.9418 57.6508 12.9418C58.0116 12.9418 58.0127 12.9425 58.0127 13.2907C58.0131 17.8113 58.0131 22.332 58.0127 26.8527C58.0127 27.2145 58.0113 27.2148 57.6401 27.2148C57.184 27.2148 56.7271 27.2296 56.2716 27.2097C55.8918 27.1931 55.5217 27.1111 55.2042 26.8776C54.7853 26.5697 54.7406 26.1093 54.7384 25.6527C54.7284 23.6846 54.734 21.717 54.734 19.7491C54.7337 18.6855 54.7346 17.6218 54.7333 16.5581C54.7329 16.2168 54.707 16.1925 54.3723 16.1923C50.1447 16.1921 45.9168 16.1921 41.689 16.1923C41.3598 16.1925 41.3521 16.2007 41.3519 16.5455C41.3517 19.9798 41.3519 23.414 41.3517 26.8483C41.3517 27.2143 41.351 27.2145 40.9906 27.2148C40.5343 27.215 40.0771 27.2342 39.6221 27.2088C39.1892 27.1849 38.7621 27.105 38.434 26.776C38.2209 26.5624 38.115 26.309 38.1154 26.0024C38.1187 23.7458 38.1169 21.4892 38.1169 19.2327C38.1169 17.546 38.132 15.8592 38.109 14.1725C38.101 13.5873 38.5702 13.0868 39.0689 13.0293C39.3767 12.9942 39.686 12.9465 39.9946 12.9456C42.8765 12.9392 45.7583 12.9418 48.6402 12.9418Z" fill="#004F8B"/>
<path d="M92.0346 20.0716C92.0346 19.3876 92.0165 18.7033 92.0399 18.0202C92.0609 17.4127 91.8264 16.923 91.4107 16.5171C90.5377 15.6647 89.4364 15.32 88.2585 15.2308C87.6896 15.1877 87.108 15.2589 86.5362 15.3172C85.6656 15.4058 84.8814 15.7393 84.1989 16.2821C83.6431 16.7239 83.2914 17.2742 83.3037 18.0324C83.3258 19.4148 83.3168 20.7981 83.3066 22.1808C83.3024 22.7494 83.5213 23.2082 83.9064 23.6059C84.5586 24.2788 85.3879 24.6236 86.2771 24.8127C87.1206 24.9923 87.9764 24.9978 88.8353 24.8492C89.7033 24.6992 90.5032 24.4018 91.1861 23.8451C91.7163 23.4128 92.0634 22.8762 92.0393 22.1457C92.0169 21.4551 92.0346 20.763 92.0346 20.0716ZM95.2561 20.0605C95.2561 20.9415 95.274 21.8229 95.2508 22.7035C95.2306 23.4568 94.9023 24.1085 94.4482 24.6908C93.6678 25.6915 92.6285 26.339 91.4673 26.8117C90.5481 27.1861 89.5961 27.4245 88.6029 27.4475C87.8159 27.4658 87.0206 27.5023 86.2422 27.4157C84.3391 27.2038 82.6434 26.4865 81.2647 25.1235C80.6881 24.5534 80.3007 23.8579 80.1287 23.0633C80.0555 22.7256 80.0359 22.3712 80.033 22.024C80.0224 20.725 80.0288 19.4261 80.0286 18.1271C80.0284 16.6225 80.6534 15.4376 81.8273 14.5062C82.5481 13.9345 83.3329 13.4878 84.1912 13.1788C84.6501 13.0135 85.137 12.923 85.6139 12.8103C86.6293 12.5708 87.6629 12.5673 88.6916 12.6512C90.319 12.7836 91.8328 13.2678 93.1712 14.2352C93.9457 14.7947 94.5994 15.4552 94.981 16.3488C95.1639 16.7769 95.2751 17.2196 95.2718 17.6904C95.2656 18.4804 95.27 19.2703 95.27 20.0605H95.2561Z" fill="#004F8B"/>
<path d="M110.624 20.0801C110.624 19.3811 110.604 18.6817 110.63 17.9839C110.651 17.4152 110.42 16.9679 110.047 16.5802C109.174 15.6709 108.044 15.3301 106.838 15.2307C106.277 15.1845 105.703 15.2592 105.138 15.3142C104.316 15.3944 103.572 15.7043 102.905 16.1876C102.249 16.663 101.857 17.282 101.863 18.1246C101.874 19.4385 101.868 20.7527 101.866 22.0667C101.864 22.6916 102.089 23.2187 102.538 23.6506C103.405 24.485 104.488 24.8263 105.646 24.921C106.237 24.9694 106.844 24.9069 107.436 24.8356C108.293 24.7328 109.077 24.4105 109.746 23.86C110.299 23.4063 110.673 22.8584 110.631 22.0848C110.595 21.4185 110.624 20.7483 110.624 20.0801ZM113.857 20.069C113.857 20.9195 113.871 21.7702 113.852 22.6203C113.837 23.2629 113.604 23.847 113.252 24.38C112.479 25.5506 111.357 26.2732 110.09 26.7974C109.167 27.1794 108.206 27.4242 107.205 27.4465C106.38 27.465 105.544 27.5127 104.731 27.4087C102.845 27.167 101.149 26.4572 99.8019 25.0668C99.2001 24.4459 98.79 23.7096 98.6947 22.8299C98.6644 22.5518 98.6408 22.2715 98.6395 21.992C98.6337 20.7085 98.658 19.4246 98.6315 18.1416C98.5986 16.5698 99.2883 15.3829 100.491 14.4389C101.274 13.8246 102.14 13.3594 103.087 13.0733C103.676 12.895 104.293 12.7697 104.906 12.713C105.689 12.641 106.485 12.601 107.268 12.6553C108.96 12.7728 110.528 13.2979 111.894 14.3325C112.71 14.9506 113.4 15.6879 113.695 16.6971C113.813 17.1053 113.851 17.5451 113.868 17.9728C113.896 18.6707 113.876 19.3703 113.876 20.069H113.857Z" fill="#004F8B"/>
<path d="M27.1956 15.8505C27.1073 15.9829 27.0437 16.0547 27.0063 16.1382C26.6245 16.9845 26.2456 17.8316 25.8695 18.6806C25.6037 19.2806 25.3475 19.885 25.0793 20.4841C24.9962 20.6703 25.0734 20.7147 25.2405 20.7147C26.5173 20.7141 27.7938 20.7158 29.0701 20.7132C29.2948 20.7127 29.329 20.637 29.2353 20.4278C28.8619 19.5949 28.4927 18.7599 28.1212 17.9262C27.8243 17.2591 27.5265 16.5921 27.1956 15.8505ZM35.6499 27.2083C34.7764 27.2083 33.9533 27.253 33.1377 27.1944C32.4605 27.1458 32.0037 26.729 31.7349 26.0901C31.3694 25.2208 30.9664 24.3677 30.5883 23.5039C30.5211 23.3502 30.4199 23.3062 30.2693 23.308C29.9881 23.3111 29.7067 23.3082 29.4254 23.3082C27.6616 23.308 25.8978 23.3106 24.134 23.3053C23.9067 23.3044 23.786 23.3795 23.6911 23.6C23.2052 24.7304 22.6965 25.8509 22.1981 26.9759C22.1245 27.1418 22.0303 27.228 21.8247 27.2209C21.2855 27.2028 20.7449 27.2271 20.2057 27.2088C20.0067 27.2017 19.7985 27.1507 19.6148 27.072C19.1213 26.8606 18.982 26.4126 19.2318 25.857C19.7576 24.6875 20.2751 23.5145 20.798 22.3437C21.2413 21.3512 21.691 20.3613 22.1314 19.3676C22.6458 18.2076 23.1532 17.0446 23.6642 15.883C23.9164 15.3093 24.1572 14.7299 24.4262 14.1641C24.6787 13.6328 25.1445 13.3434 25.678 13.1418C26.4014 12.8683 27.1542 12.8517 27.8995 12.9527C28.5891 13.0459 29.257 13.2692 29.6943 13.8628C29.9019 14.1445 30.0363 14.4831 30.1842 14.8048C30.4999 15.4916 30.8043 16.1835 31.1103 16.8747C31.5142 17.787 31.9149 18.7007 32.3177 19.6133C32.7565 20.6071 33.1958 21.6008 33.6362 22.594C34.0466 23.5189 34.4591 24.443 34.8703 25.3677C35.1009 25.8858 35.3324 26.4036 35.5601 26.9231C35.5953 27.0024 35.6132 27.0893 35.6499 27.2083Z" fill="#004F8B"/>
<path d="M26.5972 33.1687C26.5972 33.6472 26.5751 34.127 26.6023 34.6039C26.6432 35.3199 26.2483 35.7564 25.6666 36.0211C24.7034 36.4596 23.7348 36.4501 22.7976 35.8989C22.7306 35.8594 22.5975 35.877 22.5204 35.917C21.4724 36.4609 20.4346 36.4965 19.4176 35.8527C18.9803 35.5757 18.7502 35.1847 18.7632 34.6371C18.7871 33.6505 18.7692 32.6626 18.7707 31.6754C18.7712 31.3478 18.9127 31.2077 19.2399 31.202C19.8817 31.1909 19.8817 31.1909 19.8817 31.8402C19.8817 32.7591 19.8881 33.6783 19.8777 34.5971C19.8748 34.8534 19.9679 35.0356 20.1726 35.1723C20.6719 35.5055 21.3371 35.4686 21.8277 35.177C22.0302 35.0566 22.0901 34.8668 22.0883 34.6351C22.0811 33.7161 22.0828 32.7969 22.0888 31.8782C22.0899 31.7449 22.0965 31.5852 22.1675 31.4856C22.2537 31.3648 22.3996 31.2603 22.5411 31.2128C22.6778 31.1666 22.8427 31.2119 22.9937 31.1995C23.1995 31.1825 23.253 31.276 23.2517 31.4677C23.2451 32.4474 23.2484 33.4272 23.2488 34.4069C23.2493 35.048 23.4067 35.2176 24.0315 35.3665C24.4535 35.467 24.8243 35.3782 25.1842 35.1752C25.3781 35.0659 25.4692 34.9006 25.4683 34.6704C25.4643 33.6982 25.4657 32.726 25.4732 31.754C25.4763 31.34 25.6268 31.2039 26.0467 31.2017C26.5972 31.1986 26.5972 31.1986 26.5972 31.756V33.1687Z" fill="#004F8B"/>
<path d="M14.7635 32.1019V32.1004C14.46 32.1004 14.1562 32.1015 13.8527 32.0999C13.7052 32.0991 13.6276 32.1585 13.6296 32.3164C13.634 32.6577 13.6331 32.999 13.6302 33.3401C13.6289 33.4738 13.6921 33.5394 13.8208 33.5396C14.4204 33.5403 15.0207 33.5546 15.6191 33.5319C15.9985 33.5173 16.3054 33.1517 16.2886 32.798C16.27 32.4066 15.9631 32.1105 15.5603 32.103C15.2948 32.0977 15.0293 32.1019 14.7635 32.1019ZM17.446 36.1973C16.9991 36.238 16.5831 36.3109 16.2475 36.0876C16.0403 35.9499 15.9295 35.6603 15.7896 35.4306C15.6401 35.1854 15.5064 34.9304 15.3673 34.679C15.2787 34.5182 15.144 34.4385 14.9605 34.4387C14.6032 34.4394 14.246 34.444 13.8889 34.4371C13.6908 34.4338 13.6229 34.52 13.6274 34.7131C13.6367 35.1306 13.6234 35.5485 13.6327 35.9658C13.6369 36.1651 13.5599 36.2488 13.3634 36.225C13.3486 36.2232 13.3331 36.225 13.3178 36.2243C12.703 36.1991 12.4753 36.118 12.491 35.3948C12.5166 34.2109 12.4976 33.026 12.4981 31.8412C12.4981 31.3416 12.6345 31.2024 13.1253 31.2022C13.9915 31.2015 14.8579 31.2006 15.7241 31.2024C16.4579 31.2041 17.098 31.6778 17.3524 32.3633C17.5826 32.9829 17.2622 33.7532 16.7343 34.0939C16.3905 34.3156 16.3982 34.3099 16.5968 34.6574C16.8771 35.1487 17.1437 35.6475 17.446 36.1973Z" fill="#004F8B"/>
<path d="M43.9765 32.4212C43.5971 32.6699 43.034 32.7899 42.676 32.3938C42.437 32.1289 42.0919 32.0171 41.7344 32.0008C41.2644 31.9789 40.7902 31.9582 40.3613 32.2129C40.166 32.3288 40.0319 32.4813 40.0655 32.7291C40.0977 32.9673 40.2514 33.0936 40.4736 33.1223C40.8545 33.1714 41.2381 33.2315 41.6206 33.2317C42.3506 33.2319 43.0461 33.3201 43.6176 33.8251C44.1984 34.3382 44.1166 35.0767 43.6393 35.6034C43.2721 36.0083 42.7828 36.1658 42.2531 36.2595C41.7117 36.3551 41.1753 36.3469 40.6482 36.2387C39.882 36.0814 39.2165 35.7507 38.8857 34.9711C39.4798 34.6486 39.7979 34.6205 40.2792 35.0584C40.6933 35.4353 41.25 35.454 41.7859 35.4076C42.0229 35.3869 42.258 35.3078 42.4861 35.232C42.7355 35.1492 42.9084 34.9068 42.89 34.7098C42.8695 34.4887 42.6451 34.2549 42.3796 34.2324C41.7919 34.1827 41.2021 34.1604 40.6137 34.1171C40.2087 34.0873 39.8156 33.9861 39.4864 33.7442C38.6673 33.1427 38.712 32.0766 39.5729 31.521C40.0792 31.194 40.6443 31.0915 41.2412 31.0822C41.9301 31.0714 42.5865 31.1724 43.1812 31.5344C43.5279 31.7456 43.823 32.014 43.9765 32.4212Z" fill="#004F8B"/>
<path d="M30.294 32.2642C30.2387 32.332 30.2146 32.3515 30.2033 32.3767C30.0079 32.8167 29.8182 33.2596 29.6172 33.6972C29.5381 33.8704 29.5883 33.9385 29.7676 33.9385C30.1083 33.9387 30.4492 33.9425 30.7896 33.9374C30.9924 33.9345 31.0397 33.8488 30.955 33.6597C30.8197 33.3577 30.6868 33.0544 30.5473 32.7546C30.4739 32.5973 30.3884 32.446 30.294 32.2642ZM30.2891 34.863C29.9623 34.8632 29.6356 34.8656 29.309 34.8621C29.1638 34.8603 29.0723 34.908 29.0134 35.0536C28.8861 35.3686 28.7344 35.6739 28.6027 35.9872C28.5324 36.154 28.4307 36.2454 28.2401 36.2266C28.0893 36.2114 27.935 36.2233 27.7858 36.1999C27.5021 36.1557 27.3951 35.9653 27.5107 35.7042C27.8065 35.0355 28.1132 34.3715 28.4105 33.7034C28.705 33.0418 28.994 32.3778 29.2847 31.7144C29.4225 31.3998 29.6687 31.2206 30.0041 31.2078C30.2725 31.1974 30.5476 31.2169 30.8109 31.2684C31.0527 31.3154 31.2006 31.4957 31.3026 31.7289C31.9256 33.1516 32.5555 34.5707 33.1911 35.9876C33.2791 36.1842 33.2205 36.2229 33.0323 36.2271C32.1166 36.2483 32.0527 36.2101 31.7133 35.3786C31.5029 34.863 31.5029 34.863 30.9499 34.863H30.2891Z" fill="#004F8B"/>
<path d="M6.05813 32.2992C5.99336 32.3478 5.93477 32.369 5.91642 32.4087C5.71611 32.8479 5.51692 33.2882 5.32943 33.7329C5.28522 33.8378 5.33187 33.9337 5.46717 33.9348C5.83904 33.9381 6.21135 33.9421 6.58299 33.9299C6.6292 33.9284 6.72183 33.8104 6.70967 33.7812C6.50362 33.2908 6.28408 32.8061 6.05813 32.2992ZM8.39501 36.2238C7.94731 36.3102 7.67582 36.0431 7.51487 35.6002C7.45562 35.4374 7.35546 35.2872 7.31036 35.1215C7.25222 34.909 7.12531 34.8571 6.92391 34.8599C6.30796 34.8681 5.69157 34.8727 5.07607 34.8573C4.8698 34.8522 4.77318 34.9406 4.7031 35.1091C4.58946 35.3813 4.46499 35.6488 4.35533 35.9223C4.26933 36.1363 4.14066 36.262 3.89171 36.2269C3.74934 36.2066 3.60121 36.2207 3.46082 36.1931C3.21165 36.1439 3.12455 35.9976 3.21984 35.7595C3.39914 35.3112 3.59281 34.8685 3.78957 34.4276C4.2019 33.5038 4.62771 32.5863 5.03053 31.6585C5.14262 31.4001 5.34889 31.2861 5.58081 31.2313C5.91399 31.1529 6.26861 31.1226 6.58255 31.2929C6.74549 31.3815 6.91926 31.5244 6.99532 31.6866C7.37735 32.5004 7.72822 33.329 8.09168 34.1521C8.3477 34.7316 8.60283 35.3117 8.86504 35.8883C8.99283 36.1697 8.97249 36.2128 8.66164 36.2234C8.59332 36.2256 8.52501 36.2238 8.39501 36.2238Z" fill="#004F8B"/>
<path d="M38.698 31.2017C38.4835 31.4898 38.3115 31.7266 38.1335 31.9592C37.6085 32.6454 37.086 33.334 36.5515 34.013C36.4069 34.1966 36.3397 34.3811 36.3476 34.6157C36.3626 35.0634 36.3465 35.5123 36.3542 35.9603C36.3573 36.1315 36.3012 36.2206 36.1223 36.2139C36.0693 36.2122 36.0162 36.2214 35.9629 36.2217C35.3258 36.223 35.2194 36.1185 35.2194 35.4907C35.2192 35.1867 35.2369 34.8812 35.2119 34.5794C35.1988 34.4235 35.1434 34.2492 35.0509 34.1248C34.4633 33.334 33.856 32.5581 33.2674 31.7679C33.1903 31.6643 33.1293 31.4949 33.1573 31.3798C33.2011 31.2015 33.3957 31.2223 33.5564 31.1958C34.0154 31.1196 34.2993 31.3232 34.5478 31.688C34.8758 32.1698 35.2479 32.622 35.603 33.0852C35.7334 33.2557 35.8006 33.2564 35.9342 33.0823C36.3078 32.5952 36.6848 32.1101 37.0476 31.6148C37.2505 31.3376 37.4891 31.171 37.8503 31.198C38.1063 31.217 38.365 31.2017 38.698 31.2017Z" fill="#004F8B"/>
<path d="M11.0226 33.6925C11.0226 34.4363 11.0237 35.1804 11.022 35.9246C11.0213 36.1904 10.9817 36.231 10.7149 36.2233C9.94858 36.2014 9.84644 36.0759 9.8555 35.3648C9.87076 34.1732 9.85904 32.9812 9.85992 31.7894C9.86037 31.3472 10.005 31.1983 10.444 31.2027C11.1161 31.2091 11.016 31.1061 11.0215 31.7795C11.0268 32.4172 11.0226 33.0548 11.0226 33.6925Z" fill="#004F8B"/>
</svg>
