<svg width="189" height="41" viewBox="0 0 189 41" fill="none" xmlns="http://www.w3.org/2000/svg">
<path fill-rule="evenodd" clip-rule="evenodd" d="M168.5 15.0554C166.445 15.0554 164.873 15.6598 164.027 16.2642C163.423 15.5389 162.093 15.0554 160.401 15.0554C158.346 15.0554 156.533 15.4181 155.083 16.0224L152.544 27.9892H156.17L158.346 17.5938C158.83 17.473 159.313 17.3521 159.918 17.3521C161.005 17.3521 161.61 17.8356 161.61 18.5608C161.61 18.6817 161.61 18.8026 161.61 19.0443L159.797 27.9892H163.423L165.478 18.0773C165.961 17.7147 166.566 17.473 167.291 17.473C168.379 17.473 168.862 17.9565 168.862 18.6817C168.862 18.8026 168.862 19.0443 168.862 19.1652L167.049 28.1101H170.676L172.489 19.2861C172.61 18.9235 172.61 18.6817 172.61 18.3191C172.368 16.3851 171.038 15.0554 168.5 15.0554ZM148.555 23.7585C148.072 24.8464 147.467 25.5717 146.379 25.5717C145.412 25.5717 145.05 24.8464 145.05 23.7585C145.05 22.4289 145.533 20.374 146.017 19.1652C146.5 18.0773 147.226 17.3521 148.193 17.3521C149.16 17.3521 149.522 18.0773 149.522 19.1652C149.522 20.4949 149.039 22.6706 148.555 23.7585ZM148.434 15.0554C151.456 15.0554 153.028 16.9894 153.028 19.6487C153.028 21.4619 152.302 23.7585 151.335 25.209C150.127 26.9013 148.434 27.9892 146.017 27.9892C142.995 27.9892 141.544 26.0552 141.544 23.3959C141.544 21.5827 142.27 19.2861 143.237 17.8356C144.445 16.1433 146.138 15.0554 148.434 15.0554ZM138.764 25.4508C137.797 25.4508 137.193 24.6047 137.193 23.1541C137.193 21.9454 137.555 20.374 138.16 19.2861C138.764 18.1982 139.61 17.5938 140.577 17.5938C141.182 17.5938 141.665 17.8356 141.907 17.9565L143.116 16.0224C142.753 15.6598 141.544 15.0554 140.094 15.0554C138.281 15.0554 136.468 15.9016 135.259 17.7147C134.171 19.1652 133.567 21.4619 133.567 23.275C133.567 26.176 135.259 28.1101 137.797 28.1101C139.248 28.1101 140.336 27.7474 140.94 27.143L140.577 24.9673C140.094 25.209 139.369 25.4508 138.764 25.4508ZM130.424 24.8464C129.336 24.8464 128.49 25.8134 128.49 26.7804C128.49 27.5057 129.094 28.1101 129.819 28.1101C130.907 28.1101 131.874 27.143 131.874 26.176C131.874 25.4508 131.27 24.8464 130.424 24.8464ZM117.49 11.0665L113.985 27.8683H118.82L122.325 11.0665H117.49ZM34.8107 11.0665L31.3053 27.9892H36.1403L39.6457 11.1874H34.8107V11.0665ZM67.2055 11.0665C67.2055 11.0665 65.2715 19.8905 64.3045 24.8464C63.7001 27.7474 62.9748 28.9562 62.1287 29.6814C59.7112 31.7363 55.8431 31.7363 53.6674 29.3188C53.3047 32.2199 55.7223 35 59.953 35C64.3045 35 67.5681 31.7363 68.656 26.7804L72.0406 10.9456H67.2055V11.0665ZM108.545 24.8464H103.589L108.545 15.9016V24.8464ZM107.457 11.0665L94.4027 32.7034H99.1168L101.776 27.8683H108.424V32.7034H113.259L112.413 11.0665H107.457ZM124.38 12.0335C126.435 10.9456 130.182 10.3413 133.083 10.8248L131.874 14.3302C130.666 13.8467 129.457 13.8467 128.611 14.2093L125.71 27.9892H120.875L124.38 12.0335ZM82.4359 17.9565H76.6339C76.8756 17.1103 76.8756 16.8686 77.2382 16.1433C78.0844 14.451 79.2931 13.484 80.6228 13.484C81.9524 13.484 82.6777 14.3302 82.6777 16.0224C82.6777 16.6268 82.5568 17.3521 82.4359 17.9565ZM81.2271 10.583C84.9743 10.583 87.0292 12.7588 87.0292 16.5059C87.0292 17.473 86.7875 19.5278 86.3039 20.9784H76.3921C76.2712 23.1541 77.1174 24.7255 79.6558 24.7255C81.4689 24.7255 83.1612 24.242 84.1282 23.7585L84.6117 26.7804C83.2821 27.5057 81.1063 27.9892 78.5679 27.9892C74.3372 27.9892 71.7988 25.5717 71.7988 21.4619C71.7988 19.0443 72.6449 16.1433 74.0954 14.2093C75.6668 12.0335 78.0844 10.583 81.2271 10.583ZM93.6774 24.9673C94.1609 24.9673 94.7653 24.8464 95.007 24.7255C95.007 24.7255 94.2818 28.1101 90.8972 28.1101C88.238 28.1101 87.0292 26.176 87.6336 23.1541L90.6555 8.52811C90.6555 8.52811 92.3477 6.59409 95.7323 7.0776C95.1279 9.85775 94.8862 11.0665 94.8862 11.0665H97.5454L96.941 14.2093H94.2818L92.4686 23.0333C92.3478 23.275 92.106 24.8464 93.6774 24.9673ZM58.5024 28.1101C55.8431 28.1101 54.6344 26.176 55.2388 23.1541L58.2607 8.52811C58.2607 8.52811 59.9529 6.59409 63.3375 7.0776C62.7331 9.85775 62.4913 11.0665 62.4913 11.0665H65.1506L64.5462 14.2093H61.8869L60.0738 23.0333C59.9529 23.275 59.7112 24.8464 61.2826 24.8464C61.7661 24.8464 62.3705 24.7255 62.6122 24.6046C62.6122 24.7255 61.887 28.1101 58.5024 28.1101ZM28.8878 11.0665H33.8437L22.8439 32.7034H18.4924L16.4375 11.0665H21.2726L22.1187 25.8134L28.8878 11.0665ZM44.8434 16.1433C45.6896 14.451 46.8983 13.484 48.2279 13.484C49.5576 13.484 50.2829 14.3302 50.2829 16.0224C50.2829 16.5059 50.162 17.3521 50.0411 17.8356H44.1182C44.3599 16.9894 44.4808 16.8686 44.8434 16.1433ZM47.261 24.8464C49.0741 24.8464 50.7663 24.3629 51.7333 23.8794L52.2168 26.9013C50.8872 27.6266 48.5906 28.1101 46.173 28.1101C41.9424 28.1101 39.404 25.6925 39.404 21.5827C39.404 19.1652 40.2501 16.2642 41.7006 14.3302C43.272 12.0335 45.8104 10.583 48.8323 10.583C52.5795 10.583 54.6344 12.7588 54.6344 16.5059C54.6344 17.473 54.3926 19.5278 53.9091 20.9784H43.9973C43.8764 23.1541 44.7226 24.8464 47.261 24.8464Z" fill="#EC1B24"/>
</svg>
