<svg width="141" height="41" viewBox="0 0 141 41" fill="none" xmlns="http://www.w3.org/2000/svg">
<g clip-path="url(#clip0_10966_19821)">
<path fill-rule="evenodd" clip-rule="evenodd" d="M108.356 6.81907L118.61 6.21588C113.182 6.01482 109.965 6.01482 108.959 6.11535L107.451 6.41695C107.25 6.61801 107.552 6.71854 108.356 6.81907Z" fill="#838687"/>
<path fill-rule="evenodd" clip-rule="evenodd" d="M106.044 9.33259L122.933 8.93046L106.547 8.32728C104.335 8.22674 103.229 8.32728 103.028 8.7294C102.727 9.33259 103.732 9.53365 106.044 9.33259Z" fill="#838687"/>
<path fill-rule="evenodd" clip-rule="evenodd" d="M100.113 12.6502L125.648 11.7454L102.727 11.4438C101.018 11.4438 100.113 11.6449 100.113 11.9465V12.6502Z" fill="#838687"/>
<path fill-rule="evenodd" clip-rule="evenodd" d="M101.721 16.0682L127.357 14.8618L99.6101 14.4597C98.9064 14.5602 98.5043 14.7613 98.4037 15.0629C98.3032 15.8672 99.409 16.1688 101.721 16.0682Z" fill="#838687"/>
<path fill-rule="evenodd" clip-rule="evenodd" d="M98.1021 18.9835L128.362 18.1793L100.314 17.375C98.5043 17.375 97.5995 17.6766 97.3984 18.3803C97.3984 18.6819 97.5995 18.883 98.1021 18.9835Z" fill="#838687"/>
<path fill-rule="evenodd" clip-rule="evenodd" d="M97.8006 21.9996L107.351 21.8991L108.658 20.3911H99.1075C97.7 20.3911 96.9963 20.6927 97.1974 21.3964C97.2979 21.698 97.499 21.9996 97.8006 21.9996Z" fill="#838687"/>
<path fill-rule="evenodd" clip-rule="evenodd" d="M99.9113 25.2165L105.943 24.8144L106.747 23.407L99.6097 23.5075C98.2022 23.5075 97.4985 23.8091 97.4985 24.3118C97.4985 24.7139 97.6996 25.0155 98.0012 25.0155L99.9113 25.2165Z" fill="#838687"/>
<path fill-rule="evenodd" clip-rule="evenodd" d="M100.917 28.1319L116.399 27.5287L115.293 26.4229L100.314 26.5234L98.8059 26.7244C98.6049 26.825 98.5043 27.1266 98.6049 27.4282C98.7054 28.0314 99.5097 28.3329 100.917 28.1319Z" fill="#838687"/>
<path fill-rule="evenodd" clip-rule="evenodd" d="M118.41 30.0422L103.029 29.9417C101.119 29.9417 100.314 30.1427 100.314 30.7459C100.516 31.4496 101.521 31.6507 103.531 31.4496L119.315 31.0475L118.41 30.0422Z" fill="#838687"/>
<path fill-rule="evenodd" clip-rule="evenodd" d="M120.32 33.1586L103.833 33.0581C103.431 33.0581 103.33 33.1586 103.33 33.4602C103.33 33.9629 104.436 34.2645 106.748 34.0634L122.029 33.5608L120.32 33.1586Z" fill="#959A9D"/>
<path fill-rule="evenodd" clip-rule="evenodd" d="M109.864 36.3758L118.912 36.0742L109.462 35.672C108.155 35.471 107.552 35.5715 107.552 36.0742L109.864 36.3758Z" fill="#959A9D"/>
<path fill-rule="evenodd" clip-rule="evenodd" d="M135.6 2.49645C132.283 3.90389 125.949 7.62356 116.399 13.756C121.325 11.0416 125.748 8.93047 129.97 7.4225L137.41 5.00974L138.817 5.11027C139.119 5.31134 138.717 5.5124 137.611 5.81399C135.902 6.31665 132.685 7.72409 127.96 9.83525C122.531 12.248 119.415 14.0576 118.51 15.1634L124.743 15.2639C123.838 16.3698 122.732 16.973 121.526 17.0735H120.319C121.727 19.2852 123.939 20.5921 127.055 20.7932L129.166 20.8937L129.267 22.5022L120.52 23.407L129.066 23.9097C129.166 25.2166 129.166 25.8197 128.965 25.8197H120.42L128.261 27.0261L127.759 29.0368L120.621 29.5394L126.955 30.2431L125.447 32.2538L121.626 32.7564L124.642 33.3596L121.325 35.6718C119.013 33.3596 117.203 31.349 116.097 29.841L113.785 26.624L110.568 27.3277C113.383 25.3171 114.79 23.8091 115.092 22.9043C114.991 21.1953 114.891 19.9889 114.69 19.3857L113.483 20.5921C113.282 18.8831 112.981 17.7772 112.679 17.3751L112.277 18.682L110.367 20.3911L111.774 20.2905C110.97 24.915 109.06 27.9309 106.145 29.0368L104.435 27.2272L105.642 26.1213L103.832 26.624L103.43 26.1213C105.24 23.2059 106.547 21.0948 107.652 19.8884L112.88 15.1634C115.896 12.7507 118.51 10.6395 121.124 9.031C127.859 5.00974 132.685 2.39592 135.6 1.29008C136.807 0.887951 137.209 0.887951 136.907 1.39061L135.6 2.49645Z" fill="#7E2049"/>
<path fill-rule="evenodd" clip-rule="evenodd" d="M86.3406 37.6824V36.7776C86.3406 36.2749 86.9437 35.7723 88.2506 35.2696L88.9544 34.968V38.4866H90.4623V34.6664L90.2613 34.5659C90.2613 34.4654 90.2613 34.3648 90.3618 34.2643C90.4623 34.1638 90.8644 33.8622 91.5682 33.3595V39.3914H74.4778C74.4778 39.9946 74.2768 40.3967 73.7741 40.6983L72.7688 40.9999C72.4672 40.9999 72.1656 40.7988 71.864 40.4972C71.663 40.2962 71.7635 40.1957 71.9645 40.1957C72.4672 40.2962 72.7688 40.2962 73.0704 39.9946C73.372 39.7935 73.4725 39.5925 73.4725 39.2909L73.573 36.2749H73.1709C73.0704 36.1744 73.1709 36.0739 73.2715 35.9733L74.4778 35.0685V38.2856H75.8853V34.5659C75.5837 34.4654 75.5837 34.1638 75.8853 33.9627L76.9911 33.1584V36.1744C77.2927 35.8728 77.6948 35.7723 78.298 35.7723H82.4198C82.9225 35.7723 83.3246 35.8728 83.7267 36.2749C84.1289 36.5765 84.3299 37.0792 84.3299 37.6824V38.4866H87.9491V37.7829H86.3406V37.6824ZM67.5412 33.8622L66.2343 35.1691C66.1337 35.2696 66.2342 35.3701 66.5358 35.4707L66.4353 35.8728C66.1337 35.9733 65.7316 36.2749 65.3295 36.476C64.6258 36.9786 64.3242 37.3808 64.3242 37.6824L64.2236 39.3914H71.9645V35.7723L70.8587 36.5765C70.5571 36.8781 70.5571 37.0792 70.9592 37.0792V38.3861H67.6417V33.8622H67.5412ZM87.8485 36.2749C87.3459 36.3755 87.1448 36.5765 87.1448 36.8781H87.8485V36.2749ZM65.2289 38.3861C65.1284 37.8834 65.2289 37.5818 65.5305 37.3808L66.4353 36.8781V38.2856H65.2289V38.3861ZM64.9273 33.259C65.43 33.259 65.6311 33.46 65.6311 33.7616C65.6311 34.0632 65.43 34.1638 64.9273 34.1638C64.6257 34.1638 64.4247 34.0632 64.4247 33.7616C64.4247 33.3595 64.6257 33.259 64.9273 33.259ZM66.3348 33.259C66.8375 33.259 67.0385 33.46 67.0385 33.7616C67.0385 34.0632 66.8375 34.1638 66.3348 34.1638C66.0332 34.1638 65.8321 34.0632 65.8321 33.7616C65.8321 33.3595 66.0332 33.259 66.3348 33.259ZM68.5465 39.7935C68.9486 39.7935 69.1497 39.9946 69.1497 40.2962C69.1497 40.5978 68.9486 40.6983 68.5465 40.6983C68.1443 40.6983 68.0438 40.5978 68.0438 40.2962C68.0438 39.9946 68.2449 39.7935 68.5465 39.7935ZM70.0544 39.7935C70.4566 39.7935 70.6576 39.9946 70.6576 40.2962C70.6576 40.5978 70.4566 40.6983 70.0544 40.6983C69.6523 40.6983 69.5518 40.5978 69.5518 40.2962C69.5518 39.9946 69.6523 39.7935 70.0544 39.7935ZM86.7427 33.1584C86.4411 33.1584 86.24 33.3595 86.24 33.6611C86.24 33.9627 86.4411 34.0632 86.7427 34.0632C87.2453 34.0632 87.4464 33.9627 87.4464 33.6611C87.3459 33.3595 87.1448 33.1584 86.7427 33.1584ZM88.1501 33.1584C87.8485 33.1584 87.6474 33.3595 87.6474 33.6611C87.6474 33.9627 87.8485 34.0632 88.1501 34.0632C88.5522 34.0632 88.7533 33.9627 88.7533 33.6611C88.8538 33.3595 88.6528 33.1584 88.1501 33.1584ZM83.1235 38.3861V37.6824L83.023 37.1797C82.9225 36.9786 82.7214 36.8781 82.2188 36.8781H77.6948C77.2927 36.8781 76.9911 37.0792 76.8906 37.3808V38.4866H83.1235V38.3861ZM93.4783 33.3595V39.3914H92.3724V34.5659C92.2719 34.5659 92.1714 34.5659 92.1714 34.4654L92.2719 34.1638L93.4783 33.3595Z" fill="#7E2049"/>
<path fill-rule="evenodd" clip-rule="evenodd" d="M39.9953 29.0369H44.2176L35.773 10.137H34.1645L25.9209 29.0369H28.3336L30.7464 23.2061H37.482L39.9953 29.0369ZM31.5507 21.497L34.265 14.9625L36.9794 21.497H31.5507Z" fill="#7E2049"/>
<path fill-rule="evenodd" clip-rule="evenodd" d="M71.0598 29.0369H75.2821L66.8375 10.137H65.229L57.0859 29.0369H59.4987L61.9114 23.2061H68.6471L71.0598 29.0369ZM62.6152 21.497L65.3295 14.9625L68.0439 21.497H62.6152Z" fill="#7E2049"/>
<path fill-rule="evenodd" clip-rule="evenodd" d="M43.6147 10.2373H57.8902V12.449H52.7631V29.0367H48.7419V12.449H43.6147V10.2373Z" fill="#7E2049"/>
<path fill-rule="evenodd" clip-rule="evenodd" d="M24.3126 19.8885C24.3126 14.2588 19.5877 9.73486 13.6563 9.73486C7.82548 9.73486 3 14.2588 3 19.8885C3 25.5183 7.72495 30.0422 13.6563 30.0422C14.159 30.0422 14.6616 30.0422 15.1643 29.9417L20.794 35.0688L23.81 32.656L17.8786 29.238C21.6988 27.6295 24.3126 24.0103 24.3126 19.8885ZM13.6563 28.2326C9.73558 28.2326 6.61911 24.513 6.61911 19.8885C6.61911 15.2641 9.73558 11.5444 13.6563 11.5444C17.577 11.5444 20.6935 15.2641 20.6935 19.8885C20.6935 24.513 17.577 28.2326 13.6563 28.2326Z" fill="#7E2049"/>
<path fill-rule="evenodd" clip-rule="evenodd" d="M86.441 20.2904C88.4517 19.8883 91.2665 18.0788 91.2665 14.3591C91.2665 10.6394 86.8432 10.2373 86.8432 10.2373H81.8166H80.2081H78.499V29.1372H81.8166V20.7931H82.9224L88.3511 28.9362H92.9756L86.441 20.2904ZM81.716 19.0841V11.1421H85.9384C85.9384 11.1421 88.2506 12.449 88.2506 14.7612C88.2506 17.0734 87.2453 18.9835 85.8378 18.9835C84.4304 19.0841 81.716 19.0841 81.716 19.0841Z" fill="#7E2049"/>
<path fill-rule="evenodd" clip-rule="evenodd" d="M27.2277 32.7568H28.1325L30.5452 38.8893H29.6405L28.9367 37.0797H26.3229L25.6192 38.8893H24.8149L27.2277 32.7568ZM26.6245 36.376H28.7357L27.7303 33.4606L26.6245 36.376Z" fill="#838687"/>
<path d="M32.0528 32.7568H31.2485V38.8893H32.0528V32.7568Z" fill="#838687"/>
<path fill-rule="evenodd" clip-rule="evenodd" d="M33.4604 32.7568H36.3759C37.4817 32.7568 38.2859 33.36 38.2859 34.3653C38.2859 35.0691 37.9844 35.6722 37.1801 35.9738C37.8838 36.0744 38.0849 36.6776 38.0849 37.2808C38.1854 37.8839 38.0849 38.5877 38.487 38.9898H37.5822C37.3812 38.7887 37.4817 38.085 37.3812 37.4818C37.2806 36.8786 37.1801 36.376 36.3759 36.376H34.3652V38.9898H33.561V32.7568H33.4604ZM35.9737 35.5717C36.778 35.5717 37.3812 35.3707 37.3812 34.4659C37.3812 33.8627 37.0796 33.4606 36.2753 33.4606H34.2647V35.5717H35.9737Z" fill="#838687"/>
<path fill-rule="evenodd" clip-rule="evenodd" d="M44.7198 38.8893H43.9156L42.5081 33.7622H42.4076L41.0002 38.8893H40.1959L38.5874 32.7568H39.3916L40.598 37.8839H40.6986L42.0055 32.7568H42.9102L44.3177 37.8839L45.5241 32.7568H46.4288L44.7198 38.8893Z" fill="#838687"/>
<path fill-rule="evenodd" clip-rule="evenodd" d="M48.6408 32.7568H49.5456L51.9583 38.8893H51.0535L50.3498 37.0797H47.736L47.0323 38.8893H46.228L48.6408 32.7568ZM48.0376 36.376H50.1487L49.1434 33.4606L48.0376 36.376Z" fill="#838687"/>
<path fill-rule="evenodd" clip-rule="evenodd" d="M54.4719 36.376V38.8893H53.6676V36.376L51.2549 32.7568H52.2602L54.0698 35.6722L55.8793 32.7568H56.7841L54.4719 36.376Z" fill="#838687"/>
<path fill-rule="evenodd" clip-rule="evenodd" d="M61.0062 34.5663C60.9057 33.6615 60.3025 33.2594 59.4982 33.2594C58.7945 33.2594 58.0908 33.4604 58.0908 34.2647C58.0908 35.069 59.0961 35.1695 60.1014 35.3705C61.1068 35.5716 62.1121 35.9737 62.1121 37.1801C62.1121 38.487 60.8052 38.9897 59.6993 38.9897C58.2919 38.9897 57.186 38.286 57.186 36.778H57.9903C57.9903 37.7833 58.8951 38.286 59.7999 38.286C60.5036 38.286 61.4083 38.0849 61.4083 37.1801C61.4083 36.3759 60.403 36.1748 59.3977 35.9737C58.3924 35.7727 57.3871 35.4711 57.3871 34.3652C57.3871 33.1589 58.4929 32.5557 59.5988 32.5557C60.9057 32.5557 61.8105 33.1589 61.911 34.4658H61.0062V34.5663Z" fill="#838687"/>
</g>
<defs>
<clipPath id="clip0_10966_19821">
<rect width="140" height="40" fill="white" transform="translate(0.482422 0.5)"/>
</clipPath>
</defs>
</svg>
