<svg width="350" height="40" viewBox="0 0 350 40" fill="none" xmlns="http://www.w3.org/2000/svg">
<g clip-path="url(#clip0_10966_20316)">
<path d="M17.2334 29.9106H18.461L18.408 28.448" fill="#CC0000"/>
<path d="M24.236 22.0273C20.9654 25.2122 16.0744 23.1782 16.5717 19.2694C16.9553 16.2547 20.6515 13.2526 23.4485 11.6218L23.4499 11.5876C23.0851 11.2402 22.3248 10.4506 21.8345 9.85845C20.4785 8.22765 18.1069 8.1586 16.6903 9.94773L8.64372 10.6983V10.7485L17.2706 11.2472C18.8017 11.3344 19.2997 12.7211 17.8237 13.8399C12.3454 17.988 11.3689 22.3831 12.5931 25.8644L12.5519 25.8839C12.0483 25.1717 11.6723 24.2991 11.468 23.3847C8.83484 21.7309 6.69974 18.583 6.69974 14.6978C6.69974 9.04863 11.3034 4.39758 16.9986 4.39758C22.6938 4.39758 27.2988 9.04863 27.2988 14.6978C27.2988 17.7529 25.9596 20.3491 24.236 22.0273ZM26.2484 31.6907H21.296L23.0523 27.1164H25.2349L23.8461 30.7212H26.6201L26.2484 31.6907ZM18.5275 31.6907L18.4941 30.7902H16.5236L15.7975 31.6907H13.9972L17.6508 27.4554C17.8251 27.2538 18.0839 27.1164 18.3218 27.1164H20.2727L20.7094 31.6907H18.5275ZM11.0606 31.8449C10.474 31.8449 9.96413 31.7842 9.54422 31.6907L9.91669 30.7191C10.9148 30.8363 11.7707 30.7498 12.1048 29.8772L13.1657 27.1164H15.3469L14.1792 30.159C13.5814 31.7152 12.1083 31.8449 11.0606 31.8449ZM32.9362 21.4086C33.0408 20.3951 33.0136 18.9429 32.8566 17.8701H32.8294C32.503 19.4284 31.493 21.5391 29.3133 23.2619L29.2888 23.2306C31.1986 21.191 32.3405 18.6765 32.5176 16.0859C32.1563 14.6602 31.5983 13.2812 30.8938 12.0633L30.8694 12.0731C31.2572 14.6895 30.6378 18.1457 28.0982 20.949L28.0682 20.9253C30.2549 17.7774 30.8241 13.9438 29.8706 10.4974C26.9563 6.5564 22.276 4 16.9986 4C11.7219 4 7.04222 6.5564 4.1273 10.4974C3.1731 13.9438 3.74227 17.7774 5.92899 20.9253L5.90109 20.949C3.36073 18.1457 2.74273 14.6895 3.13055 12.0731L3.10474 12.0633C2.40025 13.2812 1.84154 14.6602 1.48232 16.0859C1.65809 18.6765 2.79853 21.191 4.70903 23.2306L4.68532 23.2619C2.50488 21.5391 1.49557 19.4284 1.16913 17.8701H1.14193C0.984985 18.9429 0.957783 20.3951 1.06241 21.4086C1.61136 23.1322 2.78737 24.5775 3.98989 25.6189L3.96827 25.6523C2.62555 24.816 1.87362 23.9985 1.36095 23.2773L1.33793 23.2864C2.81318 30.4701 9.25405 36 16.9986 36C24.7445 36 31.184 30.4701 32.6606 23.2864L32.6376 23.2773C32.1256 23.9985 31.373 24.816 30.0303 25.6523L30.0094 25.6189C31.2112 24.5775 32.3858 23.1322 32.9362 21.4086Z" fill="#CC0000"/>
<path d="M346.164 22.9561C344.494 27.2972 338.736 28.6431 332.515 28.6431C326.292 28.6431 322.303 27.2922 323.236 22.9561H331.142C330.934 24.1173 331.638 24.856 333.975 24.856C336.31 24.856 337.823 24.0971 338.253 22.9561C339.346 20.1228 323.702 22.8929 326.191 16.404C327.585 12.7738 333.074 11.0662 339.265 11.0662C345.453 11.0662 348.974 12.4045 348.228 16.4015H340.477C340.601 15.3314 340.269 14.5194 337.942 14.5194C335.609 14.5194 334.365 15.3466 333.96 16.404C332.837 19.2981 348.648 16.4799 346.164 22.9561Z" fill="black"/>
<path d="M207.798 28.1497H199.89L206.257 11.5695H214.168" fill="black"/>
<path d="M267.596 28.1497H259.696L266.061 11.5695H273.961" fill="black"/>
<path d="M318.534 28.1497H299.317L305.677 11.5695H324.903L323.682 14.752H312.363L311.078 18.0989H320.489L319.27 21.2763H309.856L308.571 24.6333H319.882" fill="black"/>
<path d="M161.427 28.1497H155.034L149.674 18.3569L145.912 28.1497H139.532L145.892 11.5695H153.319L158.057 20.2821L161.397 11.5695H167.792" fill="black"/>
<path d="M294.412 28.1497H288.014L282.653 18.3569L278.892 28.1497H272.514L278.877 11.5695H286.304L291.037 20.2821L294.376 11.5695H300.777" fill="black"/>
<path d="M65.4172 22.5994C63.2543 28.2383 57.9164 28.7063 54.1167 28.7063C51.9867 28.7063 50.145 28.4913 48.6221 28.1497L49.973 24.6359C53.5931 25.0584 56.692 24.7396 57.9013 21.5799L61.7465 11.5722H69.6546" fill="black"/>
<path d="M110.784 16.8541C110.316 18.0659 108.826 18.9513 107.386 18.9513H103L104.611 14.7544H109.013C110.445 14.7544 111.247 15.6474 110.784 16.8541ZM110.217 11.572H97.925L91.5601 28.1521H99.4656L101.775 22.1338H106.169C113.475 22.1338 117.409 20.1783 118.687 16.8541C119.962 13.5326 117.533 11.572 110.217 11.572Z" fill="black"/>
<path d="M231.924 16.8541C231.454 18.0659 229.964 18.9513 228.529 18.9513H224.138L225.749 14.7544H230.151C231.588 14.7544 232.39 15.6474 231.924 16.8541ZM231.36 11.572H219.065L212.703 28.1521H220.609L222.916 22.1338H225.304L226.87 28.1521H235.501L233.387 21.5317C236.89 20.712 238.97 19.1006 239.825 16.8541C241.11 13.5326 238.674 11.572 231.36 11.572Z" fill="black"/>
<path d="M248.679 24.6357L253.703 11.572H245.797L239.44 28.1521H257.384L258.734 24.6357" fill="black"/>
<path d="M76.9606 21.7062L81.2157 16.4013L81.413 21.7062H76.9606ZM87.9752 11.572H80.9045C80.0444 11.572 79.1059 12.0754 78.4785 12.7989L65.2275 28.1521H71.7619L74.3904 24.8887H81.5319L81.6559 28.1521H89.5639" fill="black"/>
<path d="M124.922 21.7062L129.182 16.4013L129.375 21.7062H124.922ZM135.939 11.572H128.866C128.009 11.572 127.07 12.0754 126.438 12.7989L113.194 28.1521H119.724L122.355 24.8887H129.494L129.615 28.1521H137.526" fill="black"/>
<path d="M185.28 21.7062L189.54 16.4013L189.738 21.7062H185.28ZM196.3 11.572H189.229C188.364 11.572 187.431 12.0754 186.798 12.7989L173.55 28.1521H180.087L182.71 24.8887H189.852L189.978 28.1521H197.879" fill="black"/>
</g>
<defs>
<clipPath id="clip0_10966_20316">
<rect width="347.327" height="32" fill="white" transform="translate(1 4)"/>
</clipPath>
</defs>
</svg>
