<svg width="45" height="40" viewBox="0 0 45 40" fill="none" xmlns="http://www.w3.org/2000/svg">
<path fill-rule="evenodd" clip-rule="evenodd" d="M3.20605 14.6152C5.34612 13.3762 7.59881 12.9257 9.96414 13.7141C11.541 14.1646 12.4421 15.291 13.1179 16.7552C13.3432 17.431 13.5684 18.2195 13.7937 19.0079C14.3569 21.148 15.8211 22.6122 17.8486 23.5133C18.4117 23.7386 18.9749 23.9638 19.6507 24.1891C20.8897 24.6397 21.9034 25.2028 22.6919 26.3292C23.5929 24.9776 25.0572 24.4144 26.5214 23.8512C27.5351 23.4007 28.5489 22.9501 29.4499 22.2743C30.5763 21.2606 31.2521 20.0216 31.59 18.5574C31.8153 17.7689 32.0405 16.9805 32.3785 16.3047C33.0543 14.7278 34.4059 13.8267 36.0954 13.4888C38.2354 13.0383 40.1502 13.4888 42.1777 14.6152C42.065 14.6152 41.9524 14.7278 41.8398 14.7278C40.7134 14.9531 39.925 15.6289 39.4744 16.6426C39.1365 17.3184 39.0239 18.1068 38.7986 18.8953C38.3481 20.2469 37.8976 21.4859 36.9965 22.6122C35.9828 23.8512 34.5185 24.527 32.9416 24.9776C31.4774 25.3155 30.0131 25.3155 28.5489 25.3155C26.972 25.2028 25.3951 25.4281 23.9308 26.2165C23.4803 26.5544 23.0298 26.8924 22.5792 27.2303C21.2276 25.766 19.5381 25.3155 17.6233 25.2028C16.4969 25.2028 15.4832 25.2028 14.3569 25.2028C12.78 25.0902 11.2031 24.7523 9.8515 23.8512C8.38725 22.9501 7.48616 21.4859 6.92299 19.909C6.69772 19.2332 6.47244 18.4447 6.24717 17.7689C5.79663 16.0794 5.00821 14.8404 3.20605 14.6152Z" fill="#EC3337"/>
<path fill-rule="evenodd" clip-rule="evenodd" d="M6.35986 36.9167C6.92304 36.804 7.48621 36.5788 8.04938 36.4661C8.83783 36.2409 9.401 35.6777 9.73891 35.0019C10.3021 34.1008 10.64 33.0871 10.9779 32.0734C11.3158 30.8344 11.879 29.7081 12.5548 28.5817C14.4696 25.7658 17.736 25.4279 20.3266 26.6669C21.2276 27.1175 22.0161 27.6806 22.5793 28.5817L22.6919 28.4691C23.9309 26.8922 25.5078 26.2164 27.5352 26.1037C30.4637 25.9911 32.2659 27.568 33.3922 30.046C33.8427 31.0597 34.1807 32.2987 34.6312 33.3124C34.8565 33.9882 35.1944 34.664 35.6449 35.3398C36.2081 36.2409 37.1092 36.5788 38.1229 36.8041C38.3481 36.9167 38.686 36.9167 38.9113 36.9167C38.7987 36.9167 38.7987 37.0293 38.6861 37.0293C35.7575 38.1557 32.829 38.3809 29.7879 37.0293C27.8731 36.1282 26.5215 34.664 25.6204 32.7492C25.3951 32.186 25.1699 31.6228 24.9446 31.0597C24.7193 30.6091 24.6067 30.1586 24.2688 29.8207C23.3677 28.5817 21.4529 28.6943 20.5518 29.8207C20.3266 30.1586 20.1013 30.6091 19.876 31.1723C19.3129 32.6366 18.7497 33.9882 17.736 35.1145C16.1591 36.8041 14.2443 37.7051 11.879 37.9304C10.0768 38.1557 8.27467 37.8177 6.58515 37.1419C6.69778 37.0293 6.58513 37.0293 6.35986 36.9167ZM27.5352 28.2438C27.4225 28.2438 27.4226 28.2438 27.4226 28.2438C26.7468 28.5817 26.6341 29.4828 27.1973 30.046C27.5352 30.3839 27.8731 30.4965 28.3236 30.6091C28.9994 30.7218 29.7879 30.2712 30.1258 29.5954C30.4637 28.9196 30.3511 28.2438 29.7879 27.6806C29.45 27.3427 28.9995 27.0048 28.4363 26.8922C26.5215 26.5543 24.832 27.0048 23.3677 28.3564C23.3677 28.3564 23.2551 28.4691 23.2551 28.5817C23.3677 28.4691 23.4804 28.4691 23.4804 28.4691C24.7193 27.6806 26.071 27.4554 27.4226 27.568C27.8731 27.568 28.3237 27.7933 28.5489 28.1312C28.7742 28.3564 28.6616 28.807 28.4363 29.0322C28.211 29.2575 27.7605 29.2575 27.5352 29.0322C27.3099 28.9196 27.3099 28.6943 27.5352 28.2438ZM22.1287 28.5817L22.0161 28.4691C21.9035 28.3564 21.9035 28.3564 21.7908 28.2438C20.6645 27.3427 19.4255 26.8922 18.0739 26.7795C17.3981 26.7795 16.7223 26.8922 16.0465 27.3427C15.3707 27.7933 15.0327 28.5817 15.1454 29.2575C15.3706 30.046 15.9338 30.4965 16.8349 30.6091C17.6233 30.7218 18.4118 30.1586 18.5244 29.3701C18.637 28.9196 18.2992 28.3564 17.8486 28.3564C17.8486 28.4691 17.9612 28.6943 17.9612 28.807C17.9612 29.0322 17.736 29.1449 17.5107 29.2575C17.2854 29.2575 16.9475 29.2575 16.8349 29.0322C16.7222 28.807 16.7222 28.4691 16.8349 28.2438C17.0602 27.9059 17.2854 27.7933 17.6233 27.6806C18.4118 27.4554 19.2002 27.568 19.876 27.6806C20.6645 27.9059 21.4529 28.2438 22.1287 28.5817Z" fill="#EC3337"/>
<path fill-rule="evenodd" clip-rule="evenodd" d="M22.6923 2C22.9176 3.12635 23.2555 4.2527 23.4808 5.37904C24.044 7.40647 24.945 9.32126 25.9587 11.236C26.5219 12.2498 27.0851 13.3761 27.423 14.5025C27.7609 15.8541 27.7609 17.0931 27.1977 18.332C26.6346 19.571 25.7335 20.2468 24.4945 20.6974C23.9313 20.9226 23.2555 21.2605 22.6923 21.4858C22.1292 21.2605 21.4533 20.9226 20.7775 20.6974C19.3133 20.1342 18.2996 19.1205 17.8491 17.6562C17.5112 16.5299 17.6238 15.5162 17.9617 14.3898C18.2996 13.3761 18.7501 12.3624 19.3133 11.3487C21.0028 8.53282 22.0165 5.37905 22.6923 2.11264C22.5797 2.00001 22.6923 2 22.6923 2ZM21.2281 18.5573C21.2281 19.3458 21.9039 20.0216 22.6923 20.0216C23.4808 20.0216 24.1566 19.3458 24.1566 18.5573C24.1566 17.7689 23.4808 17.0931 22.6923 17.0931C21.9039 17.0931 21.2281 17.7689 21.2281 18.5573Z" fill="#EC3337"/>
<path fill-rule="evenodd" clip-rule="evenodd" d="M22.6916 22.7248C23.2548 22.1616 24.0432 22.0489 24.8317 21.711C25.7327 21.3731 26.7464 21.0352 27.5349 20.3594C29.6749 18.6699 30.1255 16.1919 28.5486 13.9392C28.436 13.714 28.2107 13.4887 28.0981 13.2634C29.5623 14.3898 30.576 15.854 30.4634 17.7688C30.3508 19.1204 29.6749 20.1342 28.6612 21.0352C27.6475 21.8237 26.5212 22.3868 25.2822 22.8374C24.9443 22.95 24.4937 23.1753 24.1558 23.2879C23.5927 23.5132 23.0295 23.8511 22.6916 24.4143C22.1284 23.6258 21.34 23.2879 20.4389 23.0626C19.1999 22.6121 17.8483 22.0489 16.722 21.1479C15.8209 20.4721 15.1451 19.571 14.9198 18.4446C14.5819 16.9804 15.0324 15.7414 15.9335 14.615C16.2714 14.1645 16.722 13.714 17.1725 13.2634C17.1725 13.2634 17.1725 13.2634 17.2851 13.3761C17.0599 13.8266 16.722 14.1645 16.4967 14.615C15.3703 16.8677 15.9335 19.1204 18.0736 20.5847C18.9746 21.2605 19.9884 21.5984 21.1147 21.9363C21.6779 22.1616 22.2411 22.2742 22.6916 22.7248Z" fill="#EC3337"/>
</svg>
