<svg width="43" height="40" viewBox="0 0 43 40" fill="none" xmlns="http://www.w3.org/2000/svg">
<path fill-rule="evenodd" clip-rule="evenodd" d="M39.3101 19.3758C39.206 14.6937 37.4372 10.6359 34.0037 7.30637C30.4661 3.7688 26.3043 2 21.31 2C16.3158 2 12.154 3.7688 8.61638 7.30637C5.39094 10.5318 3.7262 14.3815 3.41406 18.8555V19.4798H8.92852L8.82447 19.2717L6.74354 15.6301L9.24065 17.5029L18.1886 5.22544H27.7609C20.8939 7.30637 17.2522 11.9885 16.628 19.3758L34.3158 12.8208L23.391 19.3758H39.3101Z" fill="#CD5040"/>
<path fill-rule="evenodd" clip-rule="evenodd" d="M3.31009 19.3757H8.82455L17.4604 34.4625H28.2812C20.5818 32.0694 16.628 27.0752 16.524 19.3757C22.7668 21.0405 28.6974 22.6012 34.3159 24.2659L23.183 19.3757H39.1021V20.3121C38.998 25.0983 37.3333 29.2601 33.7957 32.6937C30.2581 36.2312 26.0963 38 21.102 38C16.1078 38 11.946 36.2312 8.40837 32.6937C5.18294 29.3642 3.41415 25.5145 3.20605 20.9364V20.3121V20L3.31009 19.3757Z" fill="#5B5481"/>
</svg>
