<svg width="101" height="40" viewBox="0 0 101 40" fill="none" xmlns="http://www.w3.org/2000/svg">
<g clip-path="url(#clip0_10966_20285)">
<path fill-rule="evenodd" clip-rule="evenodd" d="M1 35.8967H68.9442L67.5961 38H1V35.8967Z" fill="#FCB130"/>
<path fill-rule="evenodd" clip-rule="evenodd" d="M81.3199 34.9436H78.8214L83.8647 26.9836C83.8647 26.9836 84.6198 25.3336 83.6319 23.5906L76.6016 11.9474C76.6016 11.9474 75.9862 10.8662 76.6016 9.832L78.6818 6.71757L86.9323 20.1975C86.9323 20.1975 89.0588 23.0211 86.7463 26.5188L81.3199 34.9436Z" fill="#FCB130"/>
<path fill-rule="evenodd" clip-rule="evenodd" d="M87.3504 32.5034L90.4185 27.8321C90.4185 27.8321 91.3131 25.9031 93.6256 25.9031H96.8791L99.1453 29.4821C99.1453 29.4821 97.3555 29.2962 96.5536 30.5746L93.2074 35.6176C93.2074 35.6176 92.1151 37.9766 89.1983 37.9766H73.4413L79.4373 28.7731C79.4373 28.7731 80.285 27.6927 79.1 25.9031L73.7663 17.3275C73.7663 17.3275 72.4534 16.061 73.8127 13.8881L75.3702 11.5287L82.784 23.5441C82.784 23.5441 84.0969 25.1943 82.784 27.1696L77.2175 35.8501H88.9543C88.9543 35.8501 90.2789 36.094 91.4176 34.3975L94.3343 29.9121C94.3343 29.9121 94.9966 28.4014 96.4609 27.7856H94.102C94.102 27.7856 92.8701 27.8321 91.9291 29.2962L89.3379 33.3052C89.3379 33.3052 88.3964 35.0017 86.3162 35.0017H82.2144L87.1645 27.3208C87.1645 27.3208 89.8606 23.7766 87.9664 20.5228L79.7623 6.95055C79.7623 6.95055 79.1469 5.7767 79.8556 4.68439L81.6448 1.99995L90.9876 17.0483C90.9876 17.0483 92.3591 19.3027 92.3591 21.0457C92.3591 22.7889 91.2668 24.7644 90.662 25.7636L86.5485 32.1781C86.5485 32.1781 86.0839 32.7939 86.4094 33.0265C86.7462 33.2588 87.0718 32.8404 87.3504 32.5034Z" fill="#FCB130"/>
<path fill-rule="evenodd" clip-rule="evenodd" d="M35.21 25.973H36.6626V31.725H40.2067V32.9568H35.21V25.973Z" fill="#1D4886"/>
<path fill-rule="evenodd" clip-rule="evenodd" d="M41.3223 32.9568H42.7631V25.973H41.3223V32.9568Z" fill="#1D4886"/>
<path fill-rule="evenodd" clip-rule="evenodd" d="M23.6362 32.9568H25.0655V25.973H23.6362V32.9568Z" fill="#1D4886"/>
<path fill-rule="evenodd" clip-rule="evenodd" d="M53.0703 25.973H58.5436V27.1235H54.5228V28.8315H57.9394V30.0983H54.5228V31.7946H58.5436V32.9568H53.0703V25.973Z" fill="#1D4886"/>
<path fill-rule="evenodd" clip-rule="evenodd" d="M60.7744 16.5838H66.2477V17.7342H62.2275V19.4308H65.6552V20.6972H62.2275V22.394H66.2477V23.5442H60.7744V16.5838Z" fill="#1D4886"/>
<path fill-rule="evenodd" clip-rule="evenodd" d="M27.2852 32.9568V25.973H31.4338C31.4338 25.973 33.4324 26.0077 33.4324 28.0065C33.4324 28.0065 33.6182 29.6683 31.9218 30.3422L34.0249 32.9568H32.2355L29.3305 29.3313H30.8411C30.8411 29.3313 31.9218 29.3079 31.9218 28.2157C31.9218 27.1815 31.0503 27.1001 30.7831 27.1001H28.7378V32.9568H27.2852Z" fill="#1D4886"/>
<path fill-rule="evenodd" clip-rule="evenodd" d="M52.8145 23.5442V16.5838H56.9631C56.9631 16.5838 58.9618 16.6184 58.9618 18.6177C58.9618 18.6177 59.136 20.2673 57.4512 20.9413L59.5543 23.5442H57.765L54.86 19.9423H56.3706C56.3706 19.9423 57.4512 19.9188 57.4512 18.8265C57.4512 17.7806 56.58 17.7108 56.3125 17.7108H54.2675V23.5442H52.8145Z" fill="#1D4886"/>
<path fill-rule="evenodd" clip-rule="evenodd" d="M23.7408 22.3359H25.7047V19.1404H27.0991V23.5442H23.4387C22.8925 23.5442 20.2547 22.9284 20.2316 20.1513C20.2083 17.3975 22.6137 16.5838 23.5434 16.5838H27.134V17.8157H23.892C23.892 17.8157 21.7189 17.8157 21.7189 20.1048C21.7189 21.8826 23.5201 22.3359 23.7408 22.3359Z" fill="#1D4886"/>
<path fill-rule="evenodd" clip-rule="evenodd" d="M44.6572 25.973H46.1216V27.0537L47.0395 25.973H48.7709C48.7709 25.973 51.1413 25.8451 51.1413 28.3785V32.9568H49.6658V28.1575C49.6658 28.1575 49.6191 27.2046 48.6198 27.2046H46.1216V32.9568H44.6572V25.973Z" fill="#1D4886"/>
<path fill-rule="evenodd" clip-rule="evenodd" d="M12.4229 16.5838H13.8752V17.6527L14.7932 16.5838H16.5248C16.5248 16.5838 18.9069 16.4559 18.9069 18.989V23.5442H17.4309V18.7684C17.4309 18.7684 17.3729 17.8157 16.3736 17.8157H13.8752V23.5442H12.4229V16.5838Z" fill="#1D4886"/>
<path fill-rule="evenodd" clip-rule="evenodd" d="M8.98291 23.5442H10.4122V16.5837H8.98291V23.5442Z" fill="#1D4886"/>
<path fill-rule="evenodd" clip-rule="evenodd" d="M60.1357 32.9451V31.7597H64.1794C64.1794 31.7597 64.9813 31.9107 64.9813 30.9347C64.9813 29.9585 64.3771 30.0632 64.1565 30.0632H61.8205C61.8205 30.0632 60.0195 30.1908 60.0195 28.0762C60.0195 25.9729 61.7976 25.9729 61.7976 25.9729H66.2361V27.2044H62.3432C62.3432 27.2044 61.4949 27.2044 61.4949 28.0064C61.4949 28.8082 62.0646 28.9592 62.599 28.9592H64.6792C64.6792 28.9592 66.4338 28.7731 66.4338 30.8649C66.4338 32.9566 64.6328 32.9451 64.6328 32.9451H60.1357Z" fill="#1D4886"/>
<path fill-rule="evenodd" clip-rule="evenodd" d="M1.15094 23.5442V22.3591H5.19486C5.19486 22.3591 5.9965 22.5102 5.9965 21.534C5.9965 20.5579 5.39227 20.6626 5.17152 20.6626H2.83589C2.83589 20.6626 1.03467 20.7902 1.03467 18.6869C1.03467 16.5721 2.81277 16.5838 2.81277 16.5838H7.25149V17.8157H3.35876C3.35876 17.8157 2.51043 17.8157 2.51043 18.6177C2.51043 19.419 3.09154 19.5704 3.61441 19.5704H5.69439C5.69439 19.5704 7.44912 19.3844 7.44912 21.4642C7.44912 23.5557 5.64792 23.5442 5.64792 23.5442H1.15094Z" fill="#1D4886"/>
<path d="M47.847 16.1537C45.7531 16.1537 44.0415 17.8607 44.0415 19.9629C44.0415 22.0734 45.7531 23.7651 47.847 23.7651C49.966 23.7651 51.6525 22.0692 51.6525 19.9629C51.6525 17.8594 49.966 16.1537 47.847 16.1537ZM47.847 22.3642C46.5331 22.3642 45.4708 21.2929 45.4708 19.9629C45.4708 18.651 46.5345 17.5588 47.847 17.5588C49.1707 17.5588 50.2552 18.651 50.2552 19.9629C50.2552 21.2929 49.1707 22.3642 47.847 22.3642Z" fill="#1D4886"/>
<path d="M32.8785 16.5834H31.3421L28.0283 23.5439H29.6616L30.5429 21.5424H33.6992L34.5697 23.5439H36.1976M30.9479 20.5174L32.1116 17.6677L33.262 20.5105L30.9479 20.5174Z" fill="#1D4886"/>
<path d="M19.2713 25.9732H17.735L14.4214 32.9568H16.0546L16.9358 30.9486H20.092L20.9624 32.9568H22.5903M17.3408 29.9203L18.5045 27.0611L19.6548 29.9133L17.3408 29.9203Z" fill="#1D4886"/>
<path d="M40.9709 16.5834H37.104V23.5439H38.5873V20.1638L39.4444 21.3435H40.9709C42.3085 21.3435 43.2047 20.2315 43.2047 18.9634C43.2047 17.6995 42.3085 16.5834 40.9709 16.5834ZM40.9183 20.0533H38.586V17.8639H40.9183C41.442 17.8639 41.7997 18.4427 41.7997 18.9662C41.801 19.5049 41.4433 20.0533 40.9183 20.0533Z" fill="#1D4886"/>
</g>
<defs>
<clipPath id="clip0_10966_20285">
<rect width="98.1454" height="36" fill="white" transform="translate(1 2)"/>
</clipPath>
</defs>
</svg>
