<svg width="283" height="41" viewBox="0 0 283 41" fill="none" xmlns="http://www.w3.org/2000/svg">
<path fill-rule="evenodd" clip-rule="evenodd" d="M97.565 8.21928C97.565 8.21928 85.7756 9.20173 79.3896 8.46489C79.3896 8.46489 78.6528 8.21928 78.4071 9.20174C78.4071 9.20174 77.9159 9.93858 78.6528 10.4298C79.3896 10.921 81.3545 12.1491 81.3545 16.3245C81.3545 20.5 81.3545 24.4298 81.3545 24.4298C81.3545 24.4298 81.8457 28.8508 78.6528 30.5701C78.6528 30.5701 77.9159 30.8158 78.4071 31.5526C78.4071 31.5526 78.4071 32.2895 79.3896 32.2895C80.3721 32.0438 85.2843 31.7982 92.1615 32.2895C92.1615 32.2895 92.6528 32.2895 92.8984 32.0438C93.144 31.5526 93.144 31.5526 93.144 31.5526C93.144 31.5526 93.6352 31.0614 92.8984 30.3245C91.9159 29.8333 90.4422 28.8509 90.4422 25.1666C90.1966 21.4824 90.4422 21.2368 90.4422 21.2368H90.9335C90.9335 21.2368 92.8984 20.9912 94.1264 23.9386C94.1264 23.9386 96.5826 29.8333 96.8282 30.5701C97.3194 31.307 97.8106 32.7807 100.512 32.5351C103.214 32.2895 115.495 31.307 128.758 32.5351C128.758 32.5351 130.232 32.7807 130.723 31.307C130.723 31.307 132.933 25.1666 133.425 24.1842C133.425 24.1842 138.337 23.9386 140.793 24.1842C140.793 24.1842 141.776 25.9035 141.776 27.8684C141.776 29.8333 140.056 30.3245 140.056 30.3245C140.056 30.3245 139.319 30.5702 139.565 31.5526C139.565 31.5526 139.811 32.2895 140.547 32.2895C141.284 32.2895 148.898 31.5526 160.197 32.2895C160.197 32.2895 160.933 32.5351 161.179 31.5526C161.179 31.5526 161.67 30.8158 160.933 30.3245C160.933 30.3245 157.986 29.5877 157.986 24.921C157.986 20.2544 157.986 16.8158 157.986 16.8158C157.986 16.8158 160.197 20.0088 162.898 24.921C165.6 29.8333 167.074 31.7982 167.074 31.7982C167.074 31.7982 168.302 34.5 171.004 33.0263C173.705 31.5526 176.407 30.0789 178.126 28.8509C178.126 28.8509 178.863 28.6052 178.372 27.8684L178.126 27.3772C178.126 27.3772 178.126 27.1315 177.144 26.8859C177.144 26.8859 175.179 27.3772 175.179 24.4298C175.179 21.728 174.933 17.5526 175.179 13.6228C175.179 13.6228 175.179 11.1666 177.635 10.4298C177.635 10.4298 178.372 10.4298 178.126 9.44735L177.881 8.95613C177.881 8.95613 177.881 8.4649 177.39 8.71052C176.898 8.71052 173.46 9.20174 170.021 8.71052C170.021 8.71052 169.284 8.7105 169.284 9.44735C169.284 9.44735 169.039 10.1842 169.776 10.4298C170.267 10.6754 172.477 11.4123 172.477 14.6052C172.723 17.7982 172.723 22.4649 172.723 22.4649C172.723 22.4649 167.811 15.3421 164.863 9.93859C164.863 9.93859 164.372 8.4649 162.653 8.71052C160.933 8.95613 156.512 8.95613 153.319 8.71052C153.319 8.71052 152.337 8.46489 152.337 9.69296C152.337 9.69296 152.091 10.6754 152.828 10.921C152.828 10.921 155.284 12.6403 155.284 13.1316C155.284 13.6228 155.284 24.921 155.284 24.921C155.284 24.921 155.53 29.5877 154.302 28.8509C154.302 28.8509 153.565 29.3421 151.846 26.1491C150.126 22.9561 147.916 18.5351 144.232 9.69296C144.232 9.69296 143.495 7.23682 142.021 7.23682C142.021 7.23682 141.039 7.23683 140.056 7.72806C139.074 8.21928 136.126 9.93857 132.688 10.921C132.688 10.921 131.951 11.1666 132.197 11.9035C132.197 11.9035 131.951 12.6403 132.933 12.8859C133.916 13.1316 134.653 13.6228 134.898 14.114C134.898 14.114 133.916 17.307 132.197 20.5C130.477 23.693 128.267 29.0965 121.635 29.0965H119.179C119.179 29.0965 118.442 29.0965 118.442 28.3596C118.442 27.3772 118.442 21.4824 118.442 21.4824H120.162C120.162 21.4824 122.863 20.9912 124.091 24.4298C124.091 24.4298 124.337 25.4123 125.319 25.1666C125.319 25.1666 126.302 25.1666 126.302 23.9386C126.302 22.9561 126.056 20.0088 126.302 17.5526C126.302 17.5526 126.302 16.8158 125.565 16.5702C125.565 16.5702 124.828 16.3245 124.337 16.8158C123.846 17.307 122.863 18.7807 120.407 18.7807C117.951 18.7807 118.442 18.7807 118.442 18.7807V12.3947C118.442 12.3947 118.442 11.9035 118.688 11.9035C118.933 11.9035 122.618 10.921 124.828 12.6403C127.039 14.3596 127.039 15.0965 127.53 15.8333C127.53 15.8333 128.021 16.8158 129.004 16.0789C129.004 16.0789 129.74 15.8333 129.495 14.6052C129.004 13.3772 129.004 12.8859 128.267 9.44735C128.267 9.44735 128.021 7.97366 126.793 8.21928C125.319 8.46489 116.477 9.44736 107.881 8.71052C107.881 8.71052 106.898 8.46489 106.898 9.44735C106.898 9.44735 106.407 10.1842 107.144 10.6754C107.144 10.6754 109.6 11.9035 109.6 16.0789C109.6 20.5 109.6 23.4474 109.6 23.4474C109.6 23.4474 110.091 29.3421 107.881 29.3421C107.881 29.3421 106.898 29.8333 105.425 26.6403C103.705 23.4473 103.705 23.2017 103.705 23.2017C103.705 23.2017 102.477 19.2719 97.3194 19.0263C97.3194 19.0263 104.688 17.7982 103.951 12.3947C103.951 12.3947 103.705 8.21928 98.3019 7.97367H97.565V8.21928ZM89.951 18.5351V14.3596C89.951 14.3596 89.951 11.1667 92.4071 11.1667C94.8633 11.1667 94.6177 14.114 94.6177 14.6052C94.6177 15.0965 94.6177 18.5351 89.951 18.5351ZM134.653 21.2368C134.653 21.2368 136.126 17.5526 136.863 16.5702C136.863 16.5702 138.828 19.2719 139.319 21.2368C139.319 21.2368 137.354 21.7281 134.653 21.2368Z" fill="#380096"/>
<path fill-rule="evenodd" clip-rule="evenodd" d="M216.197 23.2017C216.197 23.2017 216.442 28.6053 214.232 28.3596C214.232 28.3596 213.495 28.8509 211.776 25.6579C210.056 22.4649 207.846 18.0438 204.162 9.20175C204.162 9.20175 203.425 6.74561 201.951 6.74561C201.951 6.74561 200.969 6.7456 199.986 7.23683C199.004 7.72805 196.056 9.44736 192.618 10.4298C192.618 10.4298 191.881 10.6754 192.127 11.4123C192.127 11.4123 191.881 12.1491 192.863 12.3947C193.846 12.6403 194.583 13.1316 194.828 13.6228C194.828 13.6228 193.846 16.8158 192.127 20.0088C190.407 23.2017 188.688 27.8684 184.513 30.0789C184.513 30.0789 183.776 30.3246 184.021 31.307C184.267 32.2895 184.758 32.0439 184.758 32.0439C189.67 31.5526 191.144 32.0439 192.127 32.0439C193.109 32.0439 193.109 31.307 193.109 31.307C193.355 30.8158 193.109 30.3245 193.109 30.3245L192.618 29.8333C192.618 29.8333 190.899 29.3421 193.355 24.1842C193.355 24.1842 198.267 23.9386 200.723 24.1842C200.723 24.1842 201.706 25.9035 201.706 27.8684C201.706 29.8333 199.986 30.3245 199.986 30.3245C199.986 30.3245 199.249 30.5702 199.495 31.5526C199.495 31.5526 199.741 32.2895 200.477 32.2895C201.214 32.2895 215.214 31.5526 226.758 32.2895C226.758 32.2895 227.495 32.2895 227.741 31.5526C227.741 31.5526 228.232 30.5702 227.495 30.0789C227.495 30.0789 225.284 29.0965 225.039 25.4123C224.793 21.7281 224.793 15.0965 224.793 15.0965C224.793 15.0965 224.548 11.4123 227.004 10.1842C227.004 10.1842 227.741 9.93859 227.249 8.95614C227.249 8.95614 227.004 8.21929 226.267 8.21929C225.53 8.21929 217.67 8.71051 213.741 8.21929C213.741 8.21929 213.004 8.21929 212.758 8.95614C212.758 8.95614 212.267 9.69298 213.004 10.1842C213.741 10.6754 215.46 11.9035 215.46 15.8333C216.197 19.7631 216.197 23.2017 216.197 23.2017ZM197.039 16.3246C199.249 19.5175 199.495 20.9912 199.495 20.9912C197.776 21.2368 194.583 20.9912 194.583 20.9912C195.565 18.5351 197.039 16.3246 197.039 16.3246Z" fill="#380096"/>
<path fill-rule="evenodd" clip-rule="evenodd" d="M249.6 7.97367C249.6 7.97367 240.267 8.95612 231.67 8.21928C231.67 8.21928 230.688 7.97367 230.442 8.95613C230.442 8.95613 230.442 9.69297 230.934 9.93859C231.425 10.1842 233.39 11.4123 233.39 15.3421C233.635 19.2719 233.635 18.0438 233.635 23.4474C233.635 23.4474 233.881 28.6052 230.934 29.8333C230.934 29.8333 230.197 30.0789 230.688 31.0614C230.688 31.0614 230.934 31.7982 231.67 31.5526C231.67 31.5526 238.548 31.0614 244.442 31.5526C244.442 31.5526 245.179 31.7982 245.425 30.8158C245.425 30.8158 245.916 30.3245 245.179 29.5877C244.442 28.8509 242.723 27.8684 242.723 25.1666C242.477 22.4649 242.477 20.5 242.477 20.5H242.969C242.969 20.5 244.934 20.2544 246.407 23.4474C247.635 26.6403 248.618 28.8509 248.618 28.8509C248.618 28.8509 249.6 31.307 250.828 32.0438C250.828 32.0438 251.32 32.5351 253.53 32.2895C253.53 32.2895 257.214 32.0438 260.653 30.3245C260.653 30.3245 261.39 30.0789 261.144 29.3421C261.144 29.3421 261.39 28.6052 260.407 28.3596C259.425 28.114 258.688 27.1316 257.951 25.6579C257.214 24.1842 256.232 22.2193 256.232 22.2193C256.232 22.2193 254.758 18.5351 249.846 18.5351C249.846 18.5351 256.477 17.307 256.477 12.3947C256.477 7.48245 250.583 7.23682 250.583 7.23682H249.6V7.97367ZM242.477 18.2894V14.114C242.477 14.114 242.477 10.921 244.934 10.921C247.144 10.921 247.39 13.6228 247.144 14.3596C246.899 15.3421 246.653 18.2894 242.477 18.2894Z" fill="#380096"/>
<path fill-rule="evenodd" clip-rule="evenodd" d="M78.1621 20.5C78.1621 28.114 72.0218 34.5 64.1621 34.5C56.5481 34.5 50.1621 28.3596 50.1621 20.5C50.1621 12.886 56.3025 6.5 64.1621 6.5C71.7761 6.5 78.1621 12.886 78.1621 20.5Z" fill="white"/>
<path fill-rule="evenodd" clip-rule="evenodd" d="M70.0568 12.1491C74.2322 13.3772 77.4252 17.307 77.4252 22.2193C77.4252 22.9561 77.4252 23.4474 77.1796 24.1842C76.934 25.9035 76.1971 27.6228 74.9691 29.0965C76.934 26.6403 77.9164 23.693 77.9164 20.5C77.9164 12.886 71.7761 6.5 63.9164 6.5C60.4778 6.5 57.2849 7.72807 54.8287 9.9386C52.8638 11.6579 51.6357 14.3596 51.6357 17.0614C51.6357 18.2895 51.8814 19.2719 52.127 20.5C53.1094 22.7105 55.32 24.1842 57.7761 24.1842C61.2147 24.1842 63.9164 21.4824 63.9164 18.0438V15.3421C63.9164 14.114 64.6533 13.1316 65.6357 12.3947C66.3726 11.9035 67.355 11.6579 68.3375 11.6579C69.0743 11.9035 69.5656 11.9035 70.0568 12.1491Z" fill="#EC3237"/>
<path fill-rule="evenodd" clip-rule="evenodd" d="M53.355 29.3419C55.8111 32.2892 59.7409 34.2541 64.162 34.2541C67.6006 34.2541 70.7936 33.0261 73.2497 30.8156C75.2146 29.0963 76.4427 26.3945 76.4427 23.6928C76.4427 22.4647 76.1971 21.4822 75.9515 20.2542C74.969 18.0436 72.7585 16.5699 70.3023 16.5699C66.8638 16.5699 64.162 19.2717 64.162 22.7103V25.412C64.162 26.6401 63.4252 27.6226 62.4427 28.1138C61.7059 28.605 60.7234 28.8506 59.741 28.8506C59.2497 28.8506 58.5129 28.8506 58.0217 28.605C53.8462 27.377 50.6532 23.4471 50.6532 18.5349C50.6532 17.798 50.6532 17.3068 50.8988 16.5699C51.1445 14.8506 51.8813 13.1313 53.1094 11.6577C51.1445 14.1138 50.162 17.0612 50.162 20.2542C50.162 22.4647 50.6532 24.6752 51.6357 26.3945C51.6357 26.3945 51.1445 26.8857 49.9164 25.6577C48.6883 24.6752 42.3024 16.8156 42.3024 16.8156C42.3024 16.8156 46.4778 12.3945 50.4076 10.6752C50.4076 10.6752 51.3901 10.4296 51.1445 9.44714L50.8988 8.95591C50.8988 8.95591 50.8988 8.46468 49.9164 8.46468C48.9339 8.71029 44.5129 8.9559 40.3374 8.46468C40.3374 8.46468 39.6006 8.46469 39.355 8.95591C39.355 8.95591 38.8638 9.69276 39.355 10.184C39.8462 10.6752 41.3199 11.6577 41.3199 13.1313C41.3199 13.1313 41.5655 14.1138 39.355 15.8331C37.1445 17.5524 35.6708 18.5349 34.6883 19.0261V15.0963C34.6883 15.0963 34.4427 11.6577 36.8988 10.184C36.8988 10.184 37.3901 9.93836 37.3901 9.44714L37.1445 8.95591C37.1445 8.95591 36.8988 8.21906 36.4076 8.46468C36.4076 8.46468 32.2322 8.9559 23.8813 8.46468C23.8813 8.46468 23.3901 8.46469 23.1445 8.95591L22.8989 9.20152C22.8989 9.20152 22.6532 9.93837 23.1445 10.184C23.6357 10.4296 25.6006 11.6577 25.6006 15.0963C25.6006 15.0963 25.8462 21.7278 25.6006 24.184C25.355 26.6401 25.1094 28.1138 23.1445 30.0787C23.1445 30.0787 22.6532 30.5699 22.8989 31.0612L23.1445 31.5524C23.1445 31.5524 23.3901 32.0436 24.1269 31.798C24.8638 31.798 30.0217 31.3068 36.6532 31.798C36.6532 31.798 37.1445 32.0436 37.3901 31.5524V31.3068C37.3901 31.3068 37.6357 30.8156 37.1445 30.3243C36.4076 29.8331 34.9339 28.605 34.6883 25.9033C34.6883 23.2015 34.6883 21.7278 34.6883 21.7278C34.6883 21.7278 35.9164 22.2191 41.8111 31.0612C41.8111 31.0612 44.0217 34.991 48.4427 32.5349C48.6883 32.5349 51.8813 30.8155 53.355 29.3419Z" fill="#380096"/>
</svg>
