<svg width="95" height="41" viewBox="0 0 95 41" fill="none" xmlns="http://www.w3.org/2000/svg">
<path fill-rule="evenodd" clip-rule="evenodd" d="M83.9837 15.4767C84.4488 14.0814 86.4023 12.9651 87.5185 12.9651C88.4488 12.9651 89.0999 13.5232 89.0999 14.4535V15.8488C89.0999 16.686 88.2627 17.2442 87.2395 17.2442C85.0999 17.2442 84.0767 19.1046 84.0767 21.2442V25.1511C84.0767 26.0814 83.6116 26.6395 82.7744 26.6395H81.0999C80.2627 26.6395 79.7046 26.0814 79.7046 25.1511V14.4535C79.7046 13.5232 80.2627 12.9651 81.0999 12.9651H82.5883C83.4255 12.9651 83.9837 13.5232 83.9837 14.4535V15.4767Z" fill="#51524F"/>
<path fill-rule="evenodd" clip-rule="evenodd" d="M54.5884 15.4767C55.0535 14.0814 57.007 12.9651 58.2163 12.9651C59.0535 12.9651 59.7047 13.5232 59.7047 14.4535V15.8488C59.7047 16.686 58.8675 17.2442 57.9372 17.2442C55.7977 17.2442 54.7744 19.1046 54.7744 21.2442V25.1511C54.7744 26.0814 54.3093 26.6395 53.3791 26.6395H51.7047C50.8675 26.6395 50.4023 26.0814 50.4023 25.1511V14.4535C50.4023 13.5232 50.8675 12.9651 51.7047 12.9651H53.193C54.1233 12.9651 54.5884 13.5232 54.5884 14.4535V15.4767Z" fill="#51524F"/>
<path fill-rule="evenodd" clip-rule="evenodd" d="M75.9834 11.4767C74.0299 11.4767 72.5415 9.89535 72.5415 8.03489C72.5415 6.0814 74.0299 4.5 75.9834 4.5C77.8438 4.5 79.3322 6.0814 79.3322 8.03489C79.3322 9.89535 77.8438 11.4767 75.9834 11.4767Z" fill="#F59E24"/>
<path fill-rule="evenodd" clip-rule="evenodd" d="M17.8442 11.4767C15.9837 11.4767 14.4023 9.89535 14.4023 8.03489C14.4023 6.0814 15.9837 4.5 17.8442 4.5C19.7977 4.5 21.2861 6.0814 21.2861 8.03489C21.2861 9.89535 19.7047 11.4767 17.8442 11.4767Z" fill="#51524F"/>
<path fill-rule="evenodd" clip-rule="evenodd" d="M67.1462 18.1744H67.6113V17.9884C67.6113 16.8721 66.6811 16.5 65.6578 16.5C64.8206 16.5 63.7974 16.7791 63.1462 17.0581C62.309 17.5232 61.6578 17.3372 61.1927 16.407L60.8206 15.7558C60.3555 14.9186 60.5415 14.2674 61.4718 13.8023C62.495 13.3372 64.0764 12.7791 66.1229 12.7791C69.9369 12.7791 72.2625 14.9186 72.2625 18.2674V25.1511C72.2625 26.0814 71.7043 26.6395 70.7741 26.6395H69.4718C68.5415 26.6395 68.0764 26.0814 68.0764 25.1511V25.0581V24.686L67.9834 24.7791C67.9834 24.7791 66.6811 26.9186 63.9834 26.9186C61.3787 26.9186 59.4253 25.1511 59.4253 22.9186C59.3322 19.1977 63.7974 18.1744 67.1462 18.1744ZM64.9136 23.6628C66.402 23.6628 67.5183 22.1744 67.5183 20.9651V20.593H67.0532C65.3787 20.593 63.2392 21.0581 63.2392 22.4535C63.3322 23.1977 63.9834 23.6628 64.9136 23.6628Z" fill="#51524F"/>
<path fill-rule="evenodd" clip-rule="evenodd" d="M7.05334 16.872H6.58822C5.75101 16.872 5.19287 16.4069 5.19287 15.4767V14.8255C5.19287 13.8953 5.75101 13.3371 6.58822 13.3371H7.14637V10.8255C7.14637 9.89529 7.7045 9.43018 8.54171 9.43018H10.0301C10.9603 9.43018 11.5185 9.89529 11.5185 10.8255V13.2441H12.8208C13.658 13.2441 14.2161 13.8023 14.2161 14.7325V15.4767C14.2161 16.4069 13.658 16.872 12.8208 16.872H11.5185V20.9651C11.5185 22.0813 12.2626 22.5465 13.0068 22.7325C14.0301 22.8255 14.4022 23.1976 14.4022 24.1279V25.3372C14.4022 26.3604 13.658 26.7325 12.5417 26.7325C10.5882 26.7325 6.96031 25.8023 6.96031 21.8023V16.872H7.05334Z" fill="#51524F"/>
<path fill-rule="evenodd" clip-rule="evenodd" d="M15.6118 14.4535C15.6118 13.5232 16.0769 12.9651 17.0072 12.9651H18.5886C19.5188 12.9651 20.0769 13.5232 20.0769 14.4535V25.0581C20.0769 25.9883 19.5188 26.5465 18.5886 26.5465H17.0072C16.0769 26.5465 15.6118 25.9883 15.6118 25.0581V14.4535Z" fill="#51524F"/>
<path fill-rule="evenodd" clip-rule="evenodd" d="M73.751 14.4535C73.751 13.5232 74.2161 12.9651 75.0533 12.9651H76.7277C77.5649 12.9651 78.1231 13.5232 78.1231 14.4535V25.0581C78.1231 25.9883 77.5649 26.5465 76.7277 26.5465H75.0533C74.2161 26.5465 73.751 25.9883 73.751 25.0581V14.4535Z" fill="#51524F"/>
<path fill-rule="evenodd" clip-rule="evenodd" d="M43.1464 12.7791C47.1464 12.7791 49.286 15.5698 49.286 19.1977C49.286 20.0349 48.6348 20.7791 47.7976 20.7791H40.8208C41.1929 22.3604 42.4953 23.1977 43.8906 23.1977C44.7278 23.1977 45.658 22.8256 46.3092 22.5465C47.1464 22.0814 47.7045 22.1744 48.1697 23.1046L48.6348 23.8488C49.0069 24.686 48.9139 25.3372 48.0766 25.8023C47.1464 26.4535 45.565 27.0116 43.5185 27.0116C38.7743 27.0116 36.2627 23.5697 36.2627 19.8488C36.2627 15.8488 38.9604 12.7791 43.1464 12.7791ZM45.0999 18.1744C45.0999 17.0581 44.3557 16.0349 43.1464 16.0349C41.8441 16.0349 41.1929 16.9651 40.9139 18.1744H45.0999Z" fill="#51524F"/>
<path fill-rule="evenodd" clip-rule="evenodd" d="M30.7748 25.2442V27.4767C31.1469 27.1046 31.612 26.9186 32.2631 26.9186H33.8445C34.4957 26.9186 34.9608 27.1046 35.2399 27.4767V14.2674C35.2399 13.3372 34.6817 12.7791 33.8445 12.7791H32.1701C31.3329 12.7791 30.8678 13.2442 30.7748 13.9884V14.0814C30.7748 14.0814 29.9375 12.7791 27.2399 12.7791C23.705 12.7791 21.1934 15.5697 21.1934 19.8488C21.1934 24.0349 23.612 27.0116 27.1469 27.0116C29.2864 26.9186 30.3096 25.8023 30.7748 25.2442ZM28.1701 23.1977C26.5887 23.1977 25.4724 21.9884 25.4724 19.8488C25.4724 17.8023 26.7748 16.593 28.1701 16.593C29.9375 16.593 30.8678 18.2674 30.8678 19.8488C30.9608 22.1744 29.4724 23.1977 28.1701 23.1977Z" fill="#51524F"/>
<path fill-rule="evenodd" clip-rule="evenodd" d="M35.2394 30.1744V29.6163C35.2394 28.6861 34.6812 28.1279 33.844 28.1279H32.2626C31.7975 28.1279 31.4254 28.314 31.2394 28.593C31.0533 28.8721 30.9603 29.1512 30.9603 29.6163C30.9603 30.4535 30.4952 31.1047 30.1231 31.4768C29.751 31.8489 29.2859 32.0349 28.4487 32.0349C27.6114 32.0349 27.0533 31.8489 26.6812 31.4768C26.4022 31.1047 25.844 30.6396 25.937 29.6163C25.937 29.0582 25.751 28.7791 25.5649 28.6861C25.3789 28.314 24.9138 28.1279 24.5417 28.1279H22.9603C22.0301 28.1279 21.5649 28.6861 21.5649 29.6163V30.2675L21.658 30.9186C21.844 33.8023 25.0068 36.407 28.4487 36.5C31.7975 36.407 34.9603 33.8954 35.2394 30.9186V30.1744Z" fill="#F59E24"/>
</svg>
