<svg width="152" height="41" viewBox="0 0 152 41" fill="none" xmlns="http://www.w3.org/2000/svg">
<path fill-rule="evenodd" clip-rule="evenodd" d="M5.1001 36.3559V24.6802H18.5055V27.7072H10.001V28.8604H18.5055V31.7432H10.001V33.1847H18.5055V36.2117H5.1001V36.3559ZM25.2803 36.3559L20.5235 24.6802H25.7127L28.3073 31.7432L31.046 24.6802H36.2352L31.1902 36.3559H25.2803ZM40.992 32.0315H43.8749L42.4334 28.1396L40.992 32.0315ZM34.0731 36.3559H39.2622L39.8389 34.6261H44.7397L45.3163 36.3559H50.5055L45.3163 24.6802H39.2622L34.0731 36.3559ZM61.3163 32.0315H64.1992L62.7578 28.1396L61.3163 32.0315ZM54.5415 36.3559L59.8749 24.6802H65.9289L71.1181 36.3559H65.9289L65.3523 34.6261H60.4514L59.8749 36.3559H54.5415ZM74.2893 36.3559V24.6802H79.3343V36.3559H74.2893ZM86.8298 29.5811H89.8568C90.2893 29.5811 90.7217 29.4369 91.01 29.1486C91.2983 28.8604 91.4424 28.5721 91.4424 28.2838C91.4424 27.9955 91.2983 27.7072 91.01 27.5631C90.7217 27.4189 90.4334 27.2748 90.001 27.2748H86.974V29.5811H86.8298ZM86.8298 36.3559H81.9289V24.6802H91.4424C92.5956 24.6802 93.4605 24.8243 94.4695 25.2568C95.4785 25.6892 96.1992 26.4099 96.3433 27.4189C96.4875 28.4279 96.1992 29.4369 95.1902 30.1577C94.7578 30.4459 94.1812 30.7342 93.6046 30.8784C94.7578 31.0225 95.4785 31.7432 95.7668 32.464C95.9109 32.7523 95.9109 33.0405 95.9109 33.3288C96.0551 34.1937 96.055 34.9144 96.1992 35.6351C96.1992 35.9234 96.3434 36.0676 96.6316 36.2117H91.7308C91.5866 35.9234 91.4424 35.6351 91.2983 35.3468C91.1541 34.6261 91.1542 33.9054 91.01 33.1847C91.01 32.8964 90.8659 32.6081 90.5776 32.464C90.2893 32.3198 89.8569 32.1757 89.5686 32.1757H86.974V36.3559H86.8298Z" fill="#00A256"/>
<path fill-rule="evenodd" clip-rule="evenodd" d="M144.055 4.64404H146.217L135.118 36.4999H132.812C136.271 25.4008 139.875 15.4549 144.055 4.64404Z" fill="#EC6A40"/>
<path fill-rule="evenodd" clip-rule="evenodd" d="M123.442 13.0046L124.307 16.8965L126.325 15.7434L126.469 15.8875L125.748 17.9055L128.92 18.6263V19.0587L125.748 19.7794L126.757 22.0857L126.469 22.374L124.307 21.2209L123.442 25.6893H123.298L122.433 21.2209L120.271 22.374L120.127 22.0857L121.136 19.7794L117.676 19.0587L117.532 18.6263L121.136 18.0497L120.271 15.8875H120.415L122.433 16.8965L123.298 13.0046H123.442Z" fill="#00A256"/>
<path fill-rule="evenodd" clip-rule="evenodd" d="M112.343 23.527L125.172 7.38281L127.19 8.24768C127.911 8.53596 128.487 8.82425 129.208 9.11254C131.082 10.1215 132.379 11.563 133.532 13.4369C133.821 13.8693 133.965 14.3017 134.253 14.7342C134.397 15.3107 134.686 15.7432 134.83 16.3197C136.271 21.3648 133.965 26.8423 129.352 29.4369C128.776 29.7252 128.055 30.0134 127.478 30.3017C124.884 31.3107 122.145 31.3107 119.55 30.3017C118.83 30.0134 118.253 29.7252 117.677 29.4369C115.803 28.4279 114.505 26.9864 113.352 25.1125C112.776 24.6801 112.632 24.1035 112.343 23.527ZM115.37 23.9594H113.641C113.785 24.2477 113.929 24.3918 114.073 24.6801C114.505 25.545 115.082 26.2657 115.803 26.9864L116.091 27.2747L116.235 27.4189H118.541C117.821 26.4098 117.244 25.4008 116.812 24.1035L115.37 23.9594ZM114.794 23.6711H116.523C116.091 22.3738 115.947 21.2206 115.947 19.7792L113.352 23.0945C113.496 23.2387 113.496 23.527 113.641 23.6711H114.794ZM117.965 19.4909H116.091C116.091 20.9324 116.379 22.2297 116.812 23.527H120.127C119.983 22.0855 119.839 20.7882 119.839 19.3468L117.965 19.4909ZM117.532 27.563H116.523C116.956 27.9954 117.532 28.2837 117.965 28.572C118.686 29.0044 119.55 29.4369 120.415 29.7252C120.992 29.8693 121.568 30.0135 122.145 30.1576L120.271 29.1486C119.983 29.0044 119.839 28.8603 119.695 28.7162C119.55 28.572 119.262 28.4279 119.118 28.1396C118.974 27.8513 118.686 27.7071 118.541 27.4189H117.532V27.563ZM119.406 27.2747H120.848C120.704 26.6981 120.559 26.2657 120.415 25.6891C120.271 25.1125 120.127 24.536 119.983 23.9594H116.668C116.956 24.8243 117.388 25.545 117.821 26.4098C117.965 26.6981 118.253 26.9864 118.397 27.2747H119.406ZM123.154 27.563H121.136C121.28 27.9954 121.424 28.2837 121.713 28.7162C122.001 29.1486 122.145 29.4369 122.433 29.7252C122.577 29.8693 122.722 30.0134 122.866 30.0134C122.866 30.0134 123.01 30.1576 123.154 30.1576V27.563ZM122.578 30.0134C122.433 29.8693 122.145 29.581 122.001 29.4369C121.857 29.1486 121.713 28.8603 121.424 28.7162C121.28 28.4279 121.136 28.1396 120.992 27.8513H118.686C118.974 28.1396 119.262 28.4279 119.55 28.7162C119.839 29.0044 120.127 29.1486 120.415 29.2927L122.433 30.3017C122.577 30.3017 122.722 30.3017 123.01 30.3017C122.866 30.1576 122.722 30.0134 122.578 30.0134ZM123.442 10.9864H125.46C125.316 10.554 125.172 10.2657 124.884 9.83326C124.74 9.68911 124.596 9.40084 124.451 9.25669C124.451 9.11255 124.307 9.11254 124.307 9.11254L123.442 10.2657V10.9864ZM123.442 30.1576C123.587 30.0135 123.731 30.0134 123.875 29.8693C124.019 29.7252 124.163 29.581 124.307 29.4369C124.74 28.8603 125.028 28.4279 125.316 27.7071H123.298L123.442 30.1576ZM123.731 30.1576C123.875 30.1576 124.019 30.1576 124.163 30.1576C124.307 30.1576 124.307 30.1576 124.451 30.0134L126.181 29.0044C126.614 28.7161 127.046 28.4279 127.334 28.1396C127.478 27.9954 127.767 27.7071 127.911 27.563H125.605C125.46 27.9954 125.316 28.2837 125.028 28.7162C124.884 29.0044 124.596 29.2927 124.451 29.581C124.307 29.7252 124.163 29.8693 124.019 30.0134C123.875 30.1576 123.731 30.1576 123.731 30.1576ZM124.596 9.25669C125.028 9.83327 125.316 10.4098 125.605 11.1306H127.911C127.623 10.8423 127.334 10.554 127.046 10.2657C126.758 9.97741 126.469 9.83326 126.181 9.68912L124.74 8.82425L124.451 9.11254C124.451 8.96839 124.596 9.11255 124.596 9.25669ZM125.316 30.0134C126.469 29.7252 127.623 29.2927 128.632 28.7162C129.208 28.4279 129.785 27.9954 130.217 27.563L128.055 27.7071C127.767 28.1396 127.334 28.572 126.902 28.8603C126.758 29.0044 126.469 29.1486 126.325 29.2927L124.596 30.1576C124.884 30.1576 125.028 30.0134 125.316 30.0134ZM127.19 11.4189H125.749C125.893 11.9954 126.037 12.4279 126.181 13.0044C126.325 13.581 126.469 14.1576 126.614 14.7342H129.929C129.641 13.8693 129.208 13.1486 128.776 12.2837C128.632 11.9954 128.343 11.7071 128.199 11.4189H127.19ZM128.343 23.9594H126.614C126.469 25.1125 126.181 26.1216 125.749 27.2747H126.902H128.199C128.92 26.2657 129.496 25.2567 129.929 23.9594H128.343ZM128.199 23.6711H130.073C130.505 22.3738 130.65 21.0765 130.65 19.6351H127.046C127.046 21.0765 126.902 22.3738 126.758 23.8153H128.199V23.6711ZM129.064 10.9864H130.073C129.641 10.554 129.064 10.2657 128.632 9.97741C127.911 9.54498 127.046 9.11254 126.181 8.82425C125.749 8.68011 125.316 8.53596 124.74 8.39182L126.325 9.25669C126.614 9.40084 126.758 9.54497 126.902 9.68912C127.19 9.83326 127.334 9.97741 127.478 10.2657C127.623 10.554 127.911 10.6981 128.055 10.9864H129.064ZM129.352 27.2747H130.65L130.938 27.1306L131.082 26.9864C131.803 26.2657 132.379 25.545 132.812 24.6801C132.956 24.3918 133.1 24.2477 133.244 23.9594H130.217C129.785 25.1125 129.208 26.2657 128.487 27.2747H129.352ZM131.947 15.0225H130.217C130.65 16.4639 130.794 17.7612 130.938 19.2026H134.253C134.253 17.7612 133.965 16.4639 133.388 15.0225H131.947ZM131.37 14.59H133.1C132.956 14.3017 132.812 14.1576 132.668 13.8693C132.235 13.0044 131.659 12.2837 130.938 11.563L130.65 11.2747L130.505 11.1306H128.199C128.92 12.1396 129.496 13.1486 129.929 14.4459L131.37 14.59ZM131.514 23.527H133.244C133.532 22.9504 133.677 22.5179 133.821 21.9414C134.109 21.0765 134.109 20.2116 134.253 19.3468H130.938C130.938 20.7882 130.65 22.0855 130.217 23.527H131.514ZM126.902 18.1936H126.614C126.614 17.1846 126.469 16.1756 126.325 15.1666H123.875V14.59H126.325L126.181 13.7252C126.037 12.8603 125.893 12.1396 125.605 11.4189V11.2747H123.442V12.8603H123.298V11.1306H122.578L120.559 13.7252C120.559 14.0134 120.415 14.1576 120.415 14.4459H123.01L122.866 14.8783H120.415C120.271 15.8873 120.127 16.8963 120.127 17.9053H119.839C119.839 16.7522 119.983 15.8873 120.127 14.7342H119.839L116.523 18.9143H118.397L120.127 19.2026C120.127 20.0675 120.127 20.7882 120.271 21.6531V21.7972L120.415 21.9414C120.415 22.3738 120.559 22.8062 120.559 23.3828H123.01L123.154 23.8153H120.559L120.704 24.6801C120.848 25.545 120.992 26.2657 121.28 26.9864V27.1306H123.442V25.545H123.586V25.4008V27.1306H125.749C126.037 25.9774 126.325 24.9684 126.469 23.8153H123.875L124.019 23.3828H126.614C126.614 22.9504 126.758 22.5179 126.758 22.0855L127.046 21.9414L126.902 21.5089C126.902 20.7882 127.046 20.0675 126.902 19.3468H126.614L128.199 19.0585H128.92H130.794C130.794 17.617 130.505 16.3198 130.073 15.0225H126.758C126.758 16.1756 126.902 17.0405 126.902 18.1936Z" fill="#EC6A40"/>
<path fill-rule="evenodd" clip-rule="evenodd" d="M128.199 4.5H142.613L131.802 35.7793C131.658 36.0676 131.37 36.3559 130.938 36.3559H102.253L126.902 5.07658C127.19 4.78829 127.766 4.5 128.199 4.5ZM112.631 23.8153C112.775 24.2478 113.064 24.6802 113.352 25.1126C114.361 26.9865 115.802 28.2838 117.676 29.4369C118.253 29.7252 118.974 30.0135 119.55 30.3018C122.145 31.3108 124.884 31.3108 127.478 30.3018C128.199 30.0135 128.775 29.7252 129.352 29.4369C133.965 26.8424 136.271 21.3649 134.83 16.3198C134.685 15.7432 134.541 15.3108 134.253 14.7342C134.109 14.3018 133.821 13.8694 133.532 13.4369C132.523 11.5631 131.082 10.2658 129.208 9.11261C128.487 8.68018 127.911 8.53603 127.19 8.24775L125.316 7.67117L112.631 23.8153Z" fill="#00A256"/>
</svg>
