<svg width="143" height="41" viewBox="0 0 143 41" fill="none" xmlns="http://www.w3.org/2000/svg">
<path fill-rule="evenodd" clip-rule="evenodd" d="M108.708 16.3369L108.626 16.7479C108.626 16.7479 110.023 16.7479 110.681 16.7479C111.996 16.7479 112.818 16.8301 112.9 17.6522C112.982 18.2276 112.736 18.7208 112.571 19.214C112.407 19.7072 112.325 20.2004 112.16 20.6936C111.996 21.1868 111.832 21.68 111.585 22.0088C111.256 22.4198 110.845 22.6664 110.434 22.7486C109.859 22.913 107.557 22.8308 106.9 22.8308C106.817 22.9952 106.817 23.2418 106.735 23.4062C108.626 23.4884 110.434 23.4062 112.325 23.4062C112.982 23.4062 113.558 23.4884 114.133 23.4062C114.955 23.2418 115.613 22.6664 115.859 21.8444C116.106 21.1046 116.353 20.2004 116.599 19.3784C116.764 18.9674 116.846 18.5564 117.01 18.1454C117.175 17.8166 117.421 17.57 117.75 17.3234C118.326 16.9123 119.312 16.5013 120.216 16.9123C120.627 17.1589 120.956 17.4878 120.874 18.1454C120.874 18.7208 120.709 19.214 120.545 19.7072C120.134 21.269 119.723 22.6664 119.23 24.2283C119.065 24.7215 118.983 25.2969 118.819 25.7079C118.49 26.5299 117.668 27.2697 116.681 27.4341C115.777 27.5985 114.873 27.4341 113.887 27.4341H105.584C105.584 27.4341 105.42 27.8451 105.42 28.0917C109.037 28.1739 112.818 28.0917 116.353 28.0917C117.339 28.0917 118.243 28.0917 119.065 28.0095C121.449 27.7629 123.586 27.1053 125.395 26.1189C128.354 24.5571 130.656 22.3376 132.3 19.4606C133.286 17.8166 134.93 16.5835 137.561 16.5835C137.643 16.4191 137.643 16.2547 137.725 16.0903H108.708V16.3369Z" fill="#313F62"/>
<path fill-rule="evenodd" clip-rule="evenodd" d="M41.632 12.6379H45.0023C43.5227 17.8166 42.1252 22.9953 40.6456 28.174H37.2754C38.6728 22.9953 40.1524 17.8166 41.632 12.6379Z" fill="#313F62"/>
<path fill-rule="evenodd" clip-rule="evenodd" d="M5.2168 28.174V28.0918C6.36761 24.0639 7.51842 19.9539 8.66923 15.926H20.013C20.6706 15.926 21.246 15.926 21.7392 16.0904C23.1366 16.5014 24.1231 17.8167 23.7121 19.5429C23.4655 20.5293 23.1367 21.5979 22.8901 22.4199C22.4791 23.8995 22.068 25.297 21.657 26.7766C21.4926 27.2698 21.4926 27.763 21.246 28.2562C20.1774 28.2562 18.9444 28.2562 17.958 28.2562C18.5334 25.9546 19.3554 23.1597 20.013 20.8581C20.0952 20.4471 20.2596 20.0361 20.1774 19.7073C20.0952 18.6387 18.78 18.7209 17.547 18.7209C16.725 21.5157 15.9851 24.3105 15.1631 27.1054C15.0809 27.5164 14.9987 27.9274 14.7521 28.2562C13.6835 28.2562 12.4505 28.2562 11.4641 28.2562C12.2861 25.0504 13.2725 21.9267 14.0945 18.7209H11.1353C10.2311 21.9267 9.40905 25.1326 8.42264 28.2562C7.51843 28.174 6.28541 28.174 5.2168 28.174Z" fill="#313F62"/>
<path fill-rule="evenodd" clip-rule="evenodd" d="M27.0826 15.9261H32.1791C34.0697 15.9261 35.4671 15.8439 36.6179 16.5837C37.2755 16.9947 37.7687 17.8167 37.7687 18.8031C37.7687 19.6251 37.5222 20.4471 37.2756 21.2691C36.618 23.5708 35.9603 25.9546 35.3027 28.174H29.8775C28.1512 28.174 26.014 28.4206 24.8632 27.8452C24.2056 27.5164 23.7124 26.8588 23.6302 25.9546C23.548 24.7216 23.959 23.653 24.4522 22.9132C24.9454 22.1733 25.6852 21.5157 26.5894 21.1869C28.5622 20.3649 31.3571 20.9403 33.9875 20.7759C34.2341 20.2827 34.3985 19.6251 34.1519 19.1319C33.7409 18.3099 31.8503 18.5565 30.5351 18.5565H26.3428C26.5894 17.6523 26.7538 16.7481 27.0826 15.9261ZM28.891 23.3242C27.9046 23.4064 27.247 23.9818 27.3292 25.1326C27.4936 25.4614 27.9046 25.6258 28.3156 25.6258C29.6308 25.708 31.3571 25.5436 32.6723 25.6258C32.9189 24.886 33.0833 24.064 33.3299 23.3242C31.9325 23.4064 30.2062 23.242 28.891 23.3242Z" fill="#313F62"/>
<path fill-rule="evenodd" clip-rule="evenodd" d="M46.4817 15.9261H51.7425C52.7289 15.9261 53.551 15.8439 54.2908 16.0083C56.0992 16.2549 57.3322 17.4879 57.0856 19.4607C56.9212 20.4471 56.5924 21.5158 56.2636 22.42C55.6882 24.3928 55.195 26.2834 54.6196 28.174H49.0299C47.2215 28.174 45.0842 28.3385 44.0156 27.6808C43.4402 27.352 43.0292 26.6944 42.947 25.8724C42.8648 24.6394 43.358 23.653 43.8512 22.9132C44.3444 22.1734 45.0842 21.5158 45.9884 21.1869C47.9613 20.3649 50.8383 20.9403 53.3866 20.7759C53.6332 20.3649 53.7976 19.5429 53.551 19.1319C53.14 18.3099 51.2493 18.5565 49.9341 18.5565H45.7419C45.9885 17.6523 46.2351 16.8303 46.4817 15.9261ZM48.2901 23.3242C48.0435 23.3242 47.6325 23.4064 47.4681 23.5708C47.0571 23.8174 46.5639 24.6394 46.8105 25.2148C46.8927 25.4614 47.3037 25.6258 47.7147 25.6258C49.1121 25.708 50.7561 25.5436 52.1535 25.6258C52.4001 24.886 52.5646 24.1462 52.8112 23.3242C51.3315 23.4064 49.6875 23.242 48.2901 23.3242Z" fill="#313F62"/>
<path fill-rule="evenodd" clip-rule="evenodd" d="M60.0452 15.926H63.4154C62.9222 17.8989 62.1824 20.3649 61.5248 22.5843C61.3604 23.3241 60.8672 24.3927 61.2782 25.0504C61.607 25.5436 62.429 25.4614 63.3332 25.4614C64.1552 25.4614 65.0594 25.4614 65.717 25.4614C66.6213 22.3377 67.5255 19.1319 68.4297 15.926H71.8C70.5669 20.2827 69.3339 24.8038 68.1009 29.0782C67.7721 30.1468 67.2789 31.051 66.5391 31.7087C65.7992 32.3663 64.895 32.9417 63.8264 33.2705C62.6756 33.5993 61.196 33.4349 59.7164 33.4349H55.4419C55.6063 32.5307 55.9351 31.7087 56.0995 30.8866H59.3054C60.4562 30.8866 61.607 30.9688 62.5112 30.8866C63.4154 30.8044 64.073 30.3112 64.484 29.7358C64.7306 29.3248 64.8128 28.7494 64.9772 28.174C62.2646 28.0918 58.9765 28.585 57.9079 26.941C57.7435 26.6122 57.5791 26.2012 57.4969 25.7902C57.4147 24.886 57.7435 23.9817 57.9901 23.1597C58.6477 20.8581 59.3876 18.3099 59.963 16.0082C60.0452 16.0082 60.0452 15.926 60.0452 15.926Z" fill="#313F62"/>
<path fill-rule="evenodd" clip-rule="evenodd" d="M85.5275 15.9261C85.2809 16.7481 85.0343 17.6523 84.7877 18.4743H78.7871C78.0472 18.4743 77.3896 18.4743 76.9786 18.6387C76.4032 18.8854 76.0744 19.4608 76.1566 20.2006C76.4032 20.6938 76.9786 20.6938 77.4718 20.6938H79.3624C80.5955 20.6938 81.9107 20.6116 82.7327 21.0226C83.5547 21.4336 84.1301 22.2556 84.0479 23.5708C83.9657 24.7216 83.3081 25.8725 82.5683 26.6123C81.7463 27.3521 80.8421 27.9275 79.4447 28.0097C77.965 28.1741 76.4032 28.0097 74.8414 28.0097C73.2796 28.0097 71.7999 28.0097 70.3203 28.0097C70.4847 27.1877 70.8135 26.2835 70.9779 25.4614H77.7184C78.5404 25.4614 79.198 25.4614 79.6912 25.2148C80.0201 24.9682 80.5133 24.3106 80.3489 23.653C80.1023 22.9132 78.2116 23.1598 77.2252 23.1598C75.9922 23.1598 74.7592 23.242 73.9372 22.831C73.0329 22.42 72.4576 21.6802 72.5398 20.2828C72.622 19.6252 72.7864 19.0498 73.033 18.5565C73.7728 17.0769 75.2524 15.9261 77.3074 15.8439C78.7048 15.7617 80.1023 15.8439 81.4997 15.8439H85.5275V15.9261Z" fill="#313F62"/>
<path fill-rule="evenodd" clip-rule="evenodd" d="M87.7466 15.926H91.1169C89.9661 20.0361 88.8152 24.0639 87.6644 28.174C86.7602 28.2562 85.2806 28.174 84.3764 28.174C84.2942 28.0918 84.3764 27.9274 84.3764 27.8452C85.445 23.9817 86.5958 19.9539 87.7466 16.0904C87.7466 16.0082 87.7466 15.926 87.7466 15.926Z" fill="#313F62"/>
<path fill-rule="evenodd" clip-rule="evenodd" d="M93.4192 15.926H100.242C102.379 15.926 104.023 16.748 104.105 18.8031C104.105 19.6251 103.859 20.4471 103.612 21.2691C102.955 23.5707 102.297 25.8724 101.639 28.0918C99.9131 28.174 98.0225 28.0918 96.214 28.0918C94.4878 28.0918 92.3506 28.3384 91.1998 27.6808C90.7888 27.4342 90.3778 27.0232 90.2134 26.6122C89.7202 25.4614 90.1312 24.1461 90.6244 23.2419C91.1176 22.3377 91.8574 21.5979 92.6794 21.1869C94.7344 20.1183 97.8581 20.8581 100.406 20.6115C100.571 20.1183 100.817 19.4607 100.571 18.9675C100.16 18.1455 98.2691 18.3921 96.9538 18.3921H92.7616C92.926 17.57 93.2548 16.748 93.4192 15.926ZM95.2276 23.3241C94.981 23.3241 94.57 23.4063 94.4056 23.5707C93.9124 23.8173 93.5014 24.6394 93.748 25.2148C93.8302 25.4614 94.3234 25.6258 94.7344 25.6258C96.1319 25.708 97.6937 25.5436 99.0911 25.6258C99.2555 24.886 99.5021 24.1461 99.7487 23.3241C98.2691 23.4063 96.7073 23.2419 95.2276 23.3241Z" fill="#313F62"/>
<path fill-rule="evenodd" clip-rule="evenodd" d="M82.568 29.4069C81.9926 31.7085 81.2528 34.0924 80.6773 36.394H79.6909C80.3485 34.0924 81.0062 31.7907 81.6638 29.4069C81.8282 29.3247 82.2392 29.4069 82.568 29.4069Z" fill="#313F62"/>
<path fill-rule="evenodd" clip-rule="evenodd" d="M69.5804 30.8865H71.7998C72.9506 30.8865 74.0192 30.7221 74.348 31.5441C74.5124 32.1195 74.2658 32.6949 74.1014 33.2703C73.8548 34.2567 73.526 35.4075 73.1972 36.394C72.0464 36.3118 70.7312 36.4762 69.5804 36.394C68.8406 36.3118 68.2651 35.9829 68.2651 35.2431C68.2651 34.5855 68.6761 33.8457 69.0871 33.5169C69.9914 32.7771 71.6354 33.1059 73.115 33.1059C73.1972 32.7771 73.4438 32.3661 73.2794 32.0373C73.115 31.5441 72.1286 31.7085 71.471 31.7085H69.3338C69.416 31.4619 69.4982 31.1331 69.5804 30.8865ZM69.827 34.0101C69.5804 34.1745 69.1694 34.6677 69.2516 35.1609C69.416 35.9829 71.471 35.4897 72.3752 35.5719C72.5396 35.1609 72.6218 34.6677 72.7862 34.2567C72.7862 34.0923 72.9506 33.9279 72.8684 33.8457C72.0464 34.0101 70.4846 33.6813 69.827 34.0101Z" fill="#313F62"/>
<path fill-rule="evenodd" clip-rule="evenodd" d="M76.6496 30.8865C76.1564 32.7771 75.6632 34.5033 75.17 36.394H74.1836C74.6768 34.5855 75.17 32.6949 75.7454 30.8865H76.6496Z" fill="#313F62"/>
<path fill-rule="evenodd" clip-rule="evenodd" d="M77.1427 36.4763H76.1562C76.4029 35.5721 76.7317 34.5034 76.9783 33.4348C77.3071 32.3662 77.5537 31.3798 78.5401 31.051C79.0333 30.8866 79.6909 30.9688 80.4307 30.9688C80.3485 31.2154 80.3485 31.5442 80.1841 31.7908C79.7731 31.7908 79.4443 31.7908 79.1155 31.7908C78.2935 31.9552 78.1291 32.695 77.8825 33.517C77.6359 34.4212 77.3071 35.6543 77.1427 36.4763Z" fill="#313F62"/>
<path fill-rule="evenodd" clip-rule="evenodd" d="M84.1298 30.8865C83.6366 32.6949 83.1434 34.5855 82.5679 36.394H81.5815C82.0748 34.5855 82.5679 32.7771 83.0612 30.9687C83.0612 30.8865 83.0612 30.8865 83.1434 30.8865H84.1298Z" fill="#313F62"/>
<path fill-rule="evenodd" clip-rule="evenodd" d="M85.1166 30.8865C86.9251 31.0509 89.7199 30.2289 89.6377 32.2018C89.6377 32.5306 89.4733 32.9416 89.3911 33.2704C89.1445 34.2568 88.8157 35.3254 88.5691 36.394H87.5827C87.8293 35.572 88.1581 34.2568 88.4869 33.2704C88.6513 32.7772 88.8157 32.2018 88.5691 31.873C88.1581 31.3797 86.8429 31.7907 86.0209 31.6263C85.5277 33.1882 85.1166 34.75 84.7056 36.3118H83.7192C84.048 34.5856 84.5412 32.695 85.1166 30.8865Z" fill="#313F62"/>
<path fill-rule="evenodd" clip-rule="evenodd" d="M95.4739 30.8865C95.3917 31.1331 95.3096 31.4619 95.2274 31.7085C94.4053 31.7907 93.6655 31.6263 93.0079 31.7085C92.0215 31.7907 91.5283 32.4483 91.1995 33.1882C92.2681 33.2704 93.5011 33.1882 94.6519 33.1882C94.5697 33.4348 94.4875 33.6814 94.4875 33.928H91.0351C90.8707 34.2568 90.8707 34.6678 90.9529 34.9144C91.1995 35.9008 93.0079 35.4076 94.1587 35.572C94.1587 35.8186 93.9943 36.0652 93.9943 36.394C92.3503 36.3118 90.7063 36.7228 90.1309 35.6542C89.3911 34.4212 90.3775 32.3661 91.1995 31.6263C91.6105 31.2153 92.2681 30.8865 92.8435 30.8865C93.7477 30.8043 94.4875 30.9687 95.4739 30.8865Z" fill="#313F62"/>
<path fill-rule="evenodd" clip-rule="evenodd" d="M101.228 30.9688C101.146 31.2154 101.063 31.5442 100.981 31.7908C99.9948 31.9552 98.2685 31.5442 97.5287 31.873C97.1999 32.0374 96.7067 32.5306 96.9533 33.0238C97.1999 33.517 99.1727 33.106 99.8303 33.4348C100.735 33.8458 100.57 35.0789 100.077 35.7365C99.8304 36.1475 99.2549 36.4763 98.6795 36.4763C97.5287 36.5585 95.9669 36.3941 94.7339 36.4763C94.8161 36.2297 94.8983 35.9009 94.9805 35.6543C96.1313 35.4899 98.5973 35.9831 99.255 35.2433C99.4194 34.9967 99.5015 34.5856 99.4193 34.339C99.0905 33.6814 96.8711 34.2568 96.2135 33.8458C95.9669 33.6814 95.7203 33.2704 95.8025 32.7772C95.8847 31.873 96.7889 31.051 97.7753 30.9688C98.9261 30.8866 99.9948 31.051 101.228 30.9688Z" fill="#313F62"/>
<path fill-rule="evenodd" clip-rule="evenodd" d="M137.725 16.0082C135.67 16.0904 134.191 15.1862 134.026 13.2955C134.026 12.8845 134.026 12.5557 134.026 12.2269C133.944 11.2405 133.697 10.4185 133.369 9.59648C132.053 6.55503 129.423 4.8288 125.149 4.5H111.996C111.996 4.7466 111.832 4.91101 111.832 5.15761H120.299C121.203 5.15761 122.272 4.99321 123.011 5.23981C123.505 5.40421 124.162 5.81522 124.08 6.71944C124.08 7.13044 123.833 7.62365 123.669 8.19905C123.258 9.59648 122.929 10.9939 122.518 12.3913C122.272 13.2955 122.025 14.2819 121.532 14.9396C121.039 15.515 120.134 16.1726 118.983 15.8438C118.572 15.7616 118.326 15.5972 118.161 15.2684C117.75 14.6107 118.161 13.5421 118.326 12.8023C118.408 12.3913 118.572 11.9803 118.655 11.6515C118.737 11.3227 118.901 10.8295 118.983 10.4185C118.983 9.76088 118.572 9.43208 118.161 9.26767C117.668 9.10327 117.011 9.18547 116.353 9.18547C114.462 9.18547 112.49 9.18547 110.681 9.18547C110.681 9.34988 110.599 9.51428 110.517 9.76088C112.161 9.76088 114.791 9.59648 114.791 10.9117C114.791 11.2405 114.709 11.5693 114.627 11.8981C114.462 12.4735 114.298 13.1311 114.134 13.7065C114.051 14.0353 113.969 14.3641 113.887 14.6108C113.558 15.3506 113.229 15.926 112.079 15.926H108.873L108.791 16.2548H137.725C137.643 16.1726 137.725 16.0904 137.725 16.0082Z" fill="#ED3438"/>
</svg>
