<svg width="120" height="41" viewBox="0 0 120 41" fill="none" xmlns="http://www.w3.org/2000/svg">
<path fill-rule="evenodd" clip-rule="evenodd" d="M39.165 24.5415C38.8329 23.8772 38.5007 23.2128 38.0578 22.6592C37.6149 22.1055 37.172 21.6626 36.6183 21.2197C36.3969 20.9983 36.0647 20.7768 35.7325 20.6661C35.6218 20.5554 35.4003 20.4446 35.2896 20.4446C35.4003 20.4446 35.6218 20.3339 35.7325 20.2232C36.0647 20.1125 36.3969 19.891 36.6183 19.6695C37.172 19.2266 37.6149 18.7837 38.0578 18.2301C38.5007 17.6765 38.8329 17.1228 39.165 16.3477C39.4972 15.6834 39.7187 14.9083 39.8294 14.2439C39.8294 13.6903 39.9401 13.1367 39.9401 12.6938C39.9401 12.4723 39.9401 12.2509 39.9401 12.0294C39.9401 11.365 39.7187 10.8114 39.4972 10.147C39.2758 9.59342 39.0543 8.92907 38.6114 8.37543C38.2792 7.8218 37.8363 7.26816 37.3934 6.82525C36.9505 6.38234 36.3969 5.93945 35.7325 5.60727C35.0682 5.27509 34.5145 4.94289 33.7394 4.83217C33.0751 4.61071 32.3 4.5 31.5249 4.5C30.7498 4.5 30.0855 4.5 29.3104 4.72145C28.646 4.9429 27.9816 5.16435 27.428 5.49653C26.7637 5.82871 26.21 6.1609 25.7671 6.71453C25.3242 7.15744 24.8813 7.71107 24.5491 8.2647C24.2169 8.81833 23.9955 9.48269 23.8848 10.147C23.774 10.4792 23.774 10.8114 23.774 11.1436C23.774 11.4758 23.774 11.6972 23.774 12.0294C23.1097 11.6972 22.556 11.3651 21.8917 11.1436C21.1166 10.9221 20.2308 10.7007 19.345 10.7007C18.4592 10.7007 17.6841 10.8114 16.909 10.9221C16.2446 11.0329 15.4695 11.3651 14.8052 11.6972C14.2515 12.0294 13.5872 12.3616 13.0335 12.9152C12.7014 13.2474 12.3692 13.5796 11.9263 13.9118C11.9263 13.9118 11.3726 14.4654 11.1512 14.7976C10.819 15.1297 10.4868 15.4619 10.2654 15.9048L9.60102 16.7906C9.37957 17.0121 9.26884 17.2336 9.04739 17.455C8.82593 17.7872 8.49375 18.1194 8.16157 18.4515C7.60794 19.0052 7.05431 19.4481 6.38995 19.891C6.27922 20.0017 6.16849 20.1124 5.94704 20.1124C5.83631 20.1124 5.72559 20.2232 5.72559 20.2232C5.83631 20.4446 5.72559 20.4446 5.72559 20.5554C5.72559 20.6661 5.83631 20.7768 5.94704 20.7768C6.05777 20.7768 6.16849 20.8875 6.16849 20.8875C6.27922 20.9983 6.38995 21.109 6.6114 21.109C7.27576 21.5519 7.82939 21.9948 8.38303 22.5484C8.71521 22.8806 9.04739 23.2128 9.26884 23.545C9.49029 23.7664 9.71175 23.9879 9.82247 24.2093L10.4868 25.0951C10.819 25.5381 11.1512 25.8702 11.3726 26.2024C11.5941 26.5346 12.1477 27.0882 12.1477 27.0882C12.4799 27.5311 12.8121 27.7526 13.255 28.0848C13.8086 28.5277 14.473 28.9706 15.0266 29.3028C15.691 29.6349 16.4661 29.9671 17.1304 30.0779C17.9055 30.2993 18.6806 30.2993 19.5664 30.2993C20.4522 30.2993 21.338 30.0779 22.1131 29.8564C22.7775 29.6349 23.3311 29.4135 23.9955 28.9706C23.9955 29.192 23.9955 29.5242 23.9955 29.8564C23.9955 30.1886 23.9955 30.5208 24.1062 30.8529C24.2169 31.5173 24.4384 32.1817 24.7706 32.7353C25.1028 33.2889 25.4349 33.8426 25.9886 34.2855C26.4315 34.7284 26.9851 35.1713 27.6495 35.5035C28.2031 35.8356 28.8675 36.0571 29.5318 36.2785C30.1962 36.3893 30.9713 36.5 31.7464 36.5C32.5214 36.5 33.2965 36.3893 33.9609 36.1678C34.6252 35.9464 35.2896 35.7249 35.954 35.3927C36.5076 35.0606 37.0612 34.6176 37.6149 34.1747C38.0578 33.7318 38.5007 33.1782 38.8329 32.6246C39.165 32.0709 39.4972 31.5173 39.7187 30.8529C39.9401 30.1886 40.0509 29.6349 40.1616 28.9706C40.1616 28.7491 40.1616 28.5277 40.1616 28.3062C40.1616 27.8633 40.1616 27.3097 40.0509 26.7561C39.7187 25.981 39.4972 25.2059 39.165 24.5415Z" fill="#FFCC28"/>
<path fill-rule="evenodd" clip-rule="evenodd" d="M37.3932 25.3167C37.1717 24.763 36.8396 24.2094 36.3967 23.6558C35.9538 23.2129 35.5108 22.77 34.9572 22.4378C34.4036 22.1056 33.7392 21.7734 33.1856 21.6627C32.5212 21.4413 31.8569 21.3305 31.1925 21.3305C30.5281 21.3305 29.7531 21.4412 29.0887 21.552C28.5351 21.6627 27.9814 21.8842 27.4278 22.1056C26.9849 22.3271 26.542 22.6592 26.0991 22.9914C25.6562 23.2129 25.324 23.5451 24.8811 23.8772C24.4382 24.0987 24.106 24.4309 23.7738 24.6523C23.4416 24.8738 22.9987 25.0952 22.5558 25.3167C22.1129 25.4274 21.5593 25.5381 21.1164 25.5381C20.452 25.5381 19.7877 25.4274 19.1233 25.0952C18.4589 24.8738 18.016 24.4309 17.4624 23.988C17.0195 23.5451 16.5766 22.9914 16.3551 22.3271C16.1337 21.7734 16.023 21.1091 16.023 20.4447C16.023 19.7803 16.1337 19.116 16.3551 18.5624C16.5766 17.898 16.9088 17.4551 17.4624 16.9015C17.9053 16.4586 18.4589 16.0156 19.1233 15.7942C19.7877 15.5727 20.452 15.3513 21.1164 15.3513C21.5593 15.3513 22.1129 15.462 22.5558 15.5727C22.9987 15.7942 23.4416 16.0156 23.7738 16.2371C24.2167 16.4585 24.5489 16.7907 24.8811 17.1229C25.2133 17.3444 25.6562 17.6765 26.0991 18.0087C26.542 18.2302 26.9849 18.5624 27.4278 18.7838C27.9814 19.0053 28.5351 19.2267 29.0887 19.3374C29.7531 19.5589 30.5281 19.5589 31.1925 19.5589C31.8569 19.5589 32.5212 19.4482 33.1856 19.3374C33.8499 19.116 34.4036 18.8945 34.9572 18.5624C35.5108 18.2302 35.9538 17.898 36.3967 17.3444C36.8396 16.9015 37.1717 16.3478 37.3932 15.6835C37.6147 15.0191 37.8361 14.4655 37.9468 13.8011C38.0576 13.1367 38.0576 12.3617 37.9468 11.6973C37.8361 11.0329 37.6147 10.3686 37.2825 9.81494C36.9503 9.26131 36.6181 8.70768 36.0645 8.26478C35.6216 7.82187 35.0679 7.37896 34.5143 7.04678C33.9607 6.82532 33.2963 6.60388 32.632 6.38243C31.9676 6.2717 31.3032 6.16097 30.6389 6.27169C29.9745 6.38242 29.3102 6.49315 28.7565 6.82533C28.2029 7.04678 27.6493 7.48969 27.3171 7.93259C26.8742 8.3755 26.542 8.92914 26.3205 9.48278C26.0991 10.0364 25.8776 10.7008 25.8776 11.3651C25.8776 12.0295 25.8776 12.6938 26.0991 13.2475C26.0991 13.3582 26.0991 13.4689 26.2098 13.4689V13.5797V13.6904C26.2098 13.6904 26.2098 13.6904 26.3205 13.6904C26.3205 13.6904 26.3205 13.6904 26.3205 13.5797C26.3205 13.4689 26.3205 13.3582 26.3205 13.3582C26.3205 13.026 26.4313 12.6938 26.542 12.3617C26.7634 11.808 27.2063 11.2544 27.76 10.9222C28.3136 10.59 28.978 10.4793 29.5316 10.3686C30.196 10.3686 30.8603 10.3686 31.414 10.7008C31.9676 10.9222 32.4105 11.3651 32.7427 11.9188C33.0749 12.4724 33.1856 13.1367 33.1856 13.8011C33.1856 14.4655 32.9641 15.1298 32.632 15.6835C32.2998 16.2371 31.8569 16.68 31.1925 17.0122C30.6389 17.2336 29.9745 17.4551 29.3102 17.3444C28.8672 17.3444 28.4243 17.1229 27.9814 17.0122C27.5385 16.7907 27.2063 16.5693 26.7634 16.3478C26.3205 16.0156 25.9884 15.6835 25.6562 15.462C25.2133 15.1298 24.8811 14.7977 24.4382 14.4655C23.9953 14.1333 23.5524 13.8011 22.9987 13.5797C22.4451 13.2475 21.8915 13.026 21.3378 12.9153C20.6735 12.6938 20.0091 12.6938 19.3448 12.6938C18.6804 12.6938 18.016 12.6938 17.3517 12.9153C16.798 13.026 16.2444 13.2475 15.6908 13.4689C15.2479 13.6904 14.805 14.0226 14.3621 14.3547C13.9191 14.6869 13.587 15.0191 13.2548 15.462C12.9226 15.9049 12.5904 16.2371 12.2582 16.68C11.9261 17.1229 11.5939 17.5658 11.2617 17.898C10.9295 18.3409 10.5973 18.6731 10.1544 19.116C9.82226 19.4482 9.49008 19.7803 8.93645 20.1125C8.82572 20.1125 8.71499 20.2233 8.71499 20.2233C8.71499 20.2233 8.60427 20.334 8.49354 20.334C8.49354 20.334 8.38281 20.334 8.38281 20.4447C8.38281 20.5554 8.49354 20.5554 8.49354 20.6662C8.49354 20.6662 8.60427 20.6662 8.71499 20.7769C8.82572 20.7769 8.93645 20.8876 8.93645 20.9983C9.37935 21.2198 9.71153 21.552 10.1544 21.8842C10.5973 22.2163 10.8188 22.6592 11.2617 23.1021C11.5939 23.545 11.9261 23.988 12.2582 24.3201C12.5904 24.7631 12.9226 25.0952 13.2548 25.5381C13.587 25.9811 13.9191 26.3132 14.3621 26.6454C14.805 26.9776 15.2479 27.3098 15.6908 27.5312C16.2444 27.7527 16.798 27.9741 17.3517 28.0848C18.016 28.3063 18.6804 28.3063 19.3448 28.3063C20.0091 28.3063 20.6735 28.1956 21.3378 28.0848C21.8915 27.8634 22.4451 27.6419 22.9987 27.4205C23.4416 27.199 23.8845 26.8669 24.4382 26.5347C24.8811 26.2025 25.2133 25.8703 25.6562 25.5381C25.9884 25.206 26.4313 24.8738 26.7634 24.5416C27.0956 24.3201 27.5385 23.988 27.9814 23.8772C28.4243 23.6558 28.8672 23.5451 29.3102 23.5451C29.9745 23.4343 30.6389 23.5451 31.1925 23.8772C31.7461 24.0987 32.2998 24.6523 32.632 25.206C32.9641 25.7596 33.1856 26.424 33.1856 27.0883C33.1856 27.7527 33.0749 28.417 32.7427 28.9707C32.4105 29.5243 31.9676 29.9672 31.414 30.1887C30.8603 30.5208 30.196 30.6316 29.5316 30.5208C28.8672 30.5208 28.3136 30.2994 27.76 29.9672C27.3171 29.635 26.8742 29.0814 26.542 28.5278C26.4313 28.1956 26.3205 27.8634 26.3205 27.5312C26.3205 27.4205 26.3205 27.3098 26.3205 27.3098V27.199H26.2098V27.3098V27.4205C26.2098 27.5312 26.0991 27.6419 26.0991 27.6419C25.8776 28.3063 25.8776 28.9707 25.8776 29.5243C25.8776 30.1887 26.0991 30.7423 26.3205 31.4066C26.542 31.9603 26.8742 32.5139 27.3171 32.9568C27.76 33.3997 28.2029 33.8426 28.7565 34.0641C29.3102 34.3963 29.9745 34.507 30.6389 34.6177C31.3032 34.7285 32.0783 34.6177 32.632 34.507C33.2963 34.3963 33.8499 34.1748 34.5143 33.8426C35.0679 33.5105 35.6216 33.1783 36.0645 32.6246C36.5074 32.1817 36.9503 31.7388 37.2825 31.0745C37.6147 30.5208 37.8361 29.8565 37.9468 29.1921C38.0576 28.5278 38.0576 27.7527 37.9468 27.0883C37.8361 26.5347 37.6147 25.8703 37.3932 25.3167Z" fill="#4E376E"/>
<path fill-rule="evenodd" clip-rule="evenodd" d="M27.8707 20.5555C26.9849 20.334 26.3205 19.8911 25.6562 19.4482C24.9918 18.8946 24.2167 18.3409 23.5524 17.898C22.888 17.4551 22.0022 17.0122 21.2271 17.0122C20.5627 17.0122 19.7877 17.1229 19.234 17.4551C18.6804 17.7873 18.2375 18.2302 17.9053 18.7838C17.5731 19.3375 17.4624 20.0018 17.4624 20.6662C17.4624 21.3306 17.5731 21.9949 17.9053 22.5485C18.2375 23.1022 18.6804 23.5451 19.234 23.8773C19.7877 24.2095 20.5627 24.3202 21.2271 24.3202C22.1129 24.3202 22.888 23.8773 23.5524 23.4344C24.2167 22.9915 24.8811 22.4378 25.6562 21.8842C26.2098 21.2198 26.9849 20.7769 27.8707 20.5555Z" fill="#C72F83"/>
<path fill-rule="evenodd" clip-rule="evenodd" d="M92.7565 21.7735L95.7461 14.687L98.5143 21.7735H92.7565ZM99.9537 30.4101H107.815C106.265 29.5243 105.711 28.5278 104.826 26.3133C99.4001 13.8011 97.5177 9.37207 97.5177 9.37207C97.5177 9.37207 96.2997 11.3652 92.4243 12.1402C92.6458 12.3617 92.9779 12.8046 92.9779 13.3582C92.9779 13.6904 92.8672 14.1333 92.6458 14.7977L87.5523 26.424C86.4451 28.86 85.7807 29.9672 84.3413 30.4101C83.1233 29.7458 82.9018 29.0814 82.9018 26.6454V14.687C82.9018 12.1402 83.1233 11.5866 84.452 10.8115H77.4762C78.6942 11.4759 79.0264 12.1402 79.0264 14.687V18.7838H69.2824V14.687C69.2824 12.1402 69.5039 11.5866 70.8326 10.8115H63.7461C65.0748 11.4759 65.2963 12.1402 65.2963 14.687V26.6454C65.2963 29.1922 65.0748 29.7458 63.7461 30.5209H70.8326C69.5039 29.7458 69.2824 29.0814 69.2824 26.6454V21.552H78.8049V26.6454C78.8049 29.1922 78.5835 29.7458 77.2547 30.5209H91.2063C90.5419 30.078 89.9883 29.5243 89.9883 28.7492C89.9883 28.1956 90.2098 27.8634 90.6527 26.8669L91.7599 24.2094H99.5108L100.729 27.1991C101.061 27.9742 101.172 28.3063 101.172 28.86C101.172 29.4136 100.507 30.078 99.9537 30.4101Z" fill="#4E376E"/>
<path fill-rule="evenodd" clip-rule="evenodd" d="M113.352 26.5346V14.5761C113.352 12.0294 113.574 11.4758 114.792 10.7007H107.816C109.034 11.365 109.366 12.0294 109.366 14.5761V26.5346C109.366 29.0813 109.145 29.6349 107.816 30.41H114.792C113.684 29.6349 113.352 29.0813 113.352 26.5346Z" fill="#4E376E"/>
<path fill-rule="evenodd" clip-rule="evenodd" d="M62.9717 9.37184C62.3073 10.0362 61.0894 10.8113 57.989 10.8113H49.1309C47.3592 10.8113 46.6949 9.81475 46.3627 9.15039C45.6983 10.7006 44.0374 12.8044 42.9302 13.6902H51.124C51.124 14.0224 51.124 14.3545 51.124 14.6867V26.313C51.124 28.8597 50.7918 29.6348 49.5738 30.5206H56.6603C55.4423 29.7456 55.2208 29.0812 55.2208 26.6452V14.6867C55.2208 14.3545 55.2208 14.1331 55.2208 13.6902H56.4388C58.2105 13.6902 59.0963 13.4687 59.8714 13.2473C61.643 12.4722 62.7503 11.1435 62.9717 9.37184Z" fill="#4E376E"/>
</svg>
