<svg width="66" height="40" viewBox="0 0 66 40" fill="none" xmlns="http://www.w3.org/2000/svg">
<path fill-rule="evenodd" clip-rule="evenodd" d="M33.292 25.3296L35.5713 15.9441H30.4763L31.2808 12.5251H47.3702L46.4987 15.9441H41.3367L38.9903 25.3296H33.292ZM19.549 25.3296L24.9121 16.0782L25.7166 20.9721H23.035L21.5601 23.7207H26.3869L26.7221 25.3966H32.5545L28.8674 12.4581H22.968L13.7166 25.3966H19.549V25.3296ZM1.91767 19.8324H6.94561C6.94561 19.8994 6.87856 19.9665 6.87856 20.0335C6.81152 20.1006 6.81152 20.1676 6.81152 20.2346C6.6104 21.1061 6.47632 21.5084 6.47632 21.6425C6.47632 21.8436 6.6104 22.0447 6.81152 22.2458C7.01264 22.3799 7.28081 22.4469 7.68304 22.4469C8.28639 22.4469 8.68862 22.3128 8.95678 22.0447C9.22494 21.8436 9.42605 21.3743 9.62717 20.7039L11.7054 12.5251H17.4037L15.1914 21.1061C15.0573 21.8436 14.6551 22.514 14.1858 23.1844C13.6495 23.7877 13.0462 24.257 12.3087 24.5922C11.035 25.2626 9.22494 25.5307 6.94561 25.5307C5.13555 25.5307 3.72773 25.2626 2.85622 24.7933C1.91767 24.324 1.44839 23.5196 1.44839 22.4469C1.38135 21.9106 1.58248 21.0391 1.91767 19.8324ZM40.4652 25.3296H51.1244L50.3199 24.3911C46.8339 19.5642 54.8115 16.1452 57.9624 13.933C58.5657 13.5307 59.9735 12.6592 60.5769 11.8547C61.1132 11.1173 62.1858 9.91061 62.3199 8.70391L62.454 7.43016V2L40.4652 25.3296ZM7.54895 29.8212V30.0894L6.94561 30.2905L5.00148 33.2402L4.66628 35.8548L5.60482 36.0559V36.324H2.65511V36.0559L3.59365 35.8548L3.8618 33.4413L2.65511 30.2235L2.05174 30.0223V29.7542H4.66628V30.0223L3.79476 30.2235L4.80035 32.838L6.40928 30.2235L5.73889 30.0223L5.80593 29.7542H7.54895V29.8212ZM10.8339 35.7877L10.2976 35.7207L10.7668 31.6983C10.5657 31.7654 10.2976 31.7654 10.0294 31.7654C9.76125 31.8324 9.49309 31.8324 9.22493 31.8324V32.1006L9.76124 32.2346L9.35902 35.3855C8.95678 35.6536 8.68861 35.7877 8.4875 35.7877C8.1523 35.7877 7.95119 35.5866 7.95119 35.1173C7.95119 35.0503 7.95119 35.0503 7.95119 34.9832C7.95119 34.9162 7.95119 34.8492 7.95119 34.7821L8.35343 31.6983C8.08528 31.7654 7.88415 31.7654 7.616 31.7654C7.41488 31.7654 7.14672 31.7654 6.87856 31.7654L6.81152 32.0335L7.34785 32.1676L7.01265 34.9162C7.01265 35.0503 7.01265 35.1844 7.01265 35.3184C7.01265 35.9888 7.2808 36.324 7.88415 36.324L8.21935 36.257L9.35902 35.5196L9.29198 36.3911C9.56013 36.257 9.82829 36.1899 10.0294 36.1229C10.2305 36.0559 10.4987 35.9888 10.8339 35.9218V35.7877ZM15.3925 31.8994L15.2585 32.2346C15.2585 32.3017 15.1914 32.3017 15.1914 32.3017L14.6551 32.1676C14.7221 32.4358 14.7221 32.5698 14.7221 32.7039C14.7221 32.7709 14.7221 32.771 14.7221 32.838C14.7221 32.905 14.7221 32.905 14.7221 32.9721C14.6551 33.3743 14.521 33.7095 14.1858 33.9777C13.8506 34.2458 13.5154 34.3799 13.1132 34.3799C13.0462 34.3799 12.9121 34.3799 12.778 34.3128L12.2417 34.7821C12.2417 35.0503 12.3087 35.1844 12.5098 35.2514C12.6439 35.3184 12.9121 35.3184 13.3814 35.3184C13.8506 35.3184 14.1858 35.3855 14.454 35.5196C14.6551 35.6536 14.7892 35.9218 14.7892 36.257C14.7892 36.324 14.7892 36.3911 14.7892 36.4581C14.7221 36.9274 14.521 37.3296 14.0518 37.5978C13.6495 37.8659 13.1132 38 12.4428 38C11.9065 38 11.5043 37.933 11.2361 37.7318C10.9679 37.5307 10.8339 37.3296 10.8339 36.9944C10.8339 36.9274 10.8339 36.8603 10.8339 36.7933C10.8339 36.7263 10.9009 36.5251 11.035 36.324C11.2361 36.257 11.3702 36.1899 11.5043 36.1899C11.7054 36.1229 11.9065 36.0559 12.1076 35.9888C11.9065 35.9218 11.7724 35.7877 11.6383 35.6536C11.5713 35.5196 11.5043 35.3855 11.5043 35.1844C11.5043 35.1173 11.5043 35.1173 11.5043 35.0503V34.9162C11.8395 34.7821 12.1747 34.514 12.6439 34.2458C12.3087 34.1788 12.1076 34.0447 11.9065 33.8436C11.7724 33.6425 11.6383 33.4413 11.6383 33.1061C11.6383 33.0391 11.6383 33.0391 11.6383 32.9721C11.6383 32.905 11.6383 32.905 11.6383 32.838C11.7054 32.4358 11.8395 32.0335 12.1746 31.8324C12.4428 31.5642 12.845 31.4302 13.3143 31.4302C13.4484 31.4302 13.7166 31.4972 14.3199 31.6313C14.5881 31.6983 14.8562 31.6983 15.0573 31.6983L15.3925 31.8994ZM13.7836 33.3073C13.7836 33.1061 13.8506 32.905 13.8506 32.7709C13.8506 32.1676 13.6495 31.8324 13.3143 31.8324C12.9121 31.8324 12.6439 32.1676 12.5769 32.838C12.5769 32.905 12.5769 33.0391 12.5769 33.1732C12.5769 33.2402 12.5769 33.3743 12.5769 33.3743C12.5769 33.9776 12.778 34.3128 13.1132 34.3128C13.5154 34.2458 13.7165 33.9777 13.7836 33.3073ZM14.1858 37.0614C14.1858 36.9944 14.1858 36.9944 14.1858 36.9274C14.1858 36.5251 13.7836 36.257 13.0462 36.257C12.0406 36.257 11.5043 36.5922 11.4372 37.1285C11.4372 37.1285 11.4372 37.1955 11.4372 37.2626C11.4372 37.5307 11.5043 37.6648 11.7054 37.7989C11.9065 37.933 12.1747 38 12.5769 38C13.0462 38 13.3814 37.933 13.7166 37.7318C13.9847 37.5307 14.1188 37.3296 14.1858 37.0614ZM19.0797 33.9777C19.0797 33.9106 19.0797 33.8436 19.1467 33.7095C19.1467 33.6425 19.1467 33.5084 19.1467 33.4413C19.1467 32.838 19.0126 32.4358 18.7445 32.1006C18.4763 31.7654 18.0741 31.6313 17.6048 31.6313C16.9344 31.6313 16.4652 31.8324 16.0629 32.2346C15.6607 32.6369 15.4596 33.1732 15.3255 33.9106C15.3255 33.9776 15.3255 33.9776 15.3255 34.1117C15.3255 34.1788 15.3255 34.3128 15.3255 34.4469C15.3255 35.0503 15.4596 35.5196 15.7277 35.8548C15.9959 36.1899 16.3981 36.3911 16.8674 36.3911C17.4707 36.3911 18.0071 36.1899 18.4093 35.7207C18.8115 35.3184 19.0126 34.7151 19.0797 33.9777ZM18.0741 34.1117C18.0071 34.7821 17.873 35.3184 17.6719 35.6536C17.4707 35.9888 17.2696 36.1899 17.0015 36.1899C16.5322 36.1899 16.264 35.7877 16.264 34.8492C16.264 34.581 16.264 34.2458 16.3311 33.8436C16.4652 32.5698 16.8674 31.8994 17.4037 31.8994C17.873 31.8994 18.1411 32.3687 18.1411 33.2402C18.1411 33.3743 18.1411 33.5084 18.1411 33.6425C18.1411 33.7765 18.0741 33.9106 18.0741 34.1117ZM22.4987 31.8994C22.4316 32.0335 22.4316 32.1676 22.4316 32.2346L22.3646 32.9721H22.2976C22.2976 32.6369 22.2305 32.3687 22.0294 32.1676C21.8953 31.9665 21.6942 31.8994 21.4261 31.8994C21.2249 31.8994 21.0238 31.9665 20.8897 32.1006C20.7557 32.2346 20.6886 32.3687 20.6886 32.4358C20.6886 32.5698 20.6886 32.6369 20.6886 32.7039C20.6886 32.905 20.8227 33.1061 21.0909 33.2402C21.292 33.3073 21.4931 33.4413 21.6272 33.5084C22.0964 33.7765 22.3646 34.1788 22.3646 34.581C22.3646 34.648 22.3646 34.648 22.3646 34.7151C22.3646 34.7821 22.3646 34.7821 22.3646 34.8492C22.2976 35.3184 22.1635 35.6536 21.8283 35.9218C21.5601 36.1899 21.1579 36.324 20.7557 36.324C20.3534 36.324 19.9512 36.257 19.549 36.0559C19.616 35.7877 19.616 35.5196 19.616 35.3184C19.683 35.1173 19.683 34.9162 19.683 34.7821H19.8171C19.8171 35.2514 19.8842 35.5866 20.0853 35.7877C20.2864 36.0559 20.4875 36.1229 20.8227 36.1229C21.0238 36.1229 21.2249 36.0559 21.359 35.9218C21.4931 35.7877 21.6272 35.5866 21.6272 35.3855C21.6272 35.3184 21.6272 35.3184 21.6272 35.2514C21.6272 34.9832 21.4931 34.7821 21.2249 34.648C20.9568 34.514 20.8227 34.4469 20.6886 34.3799C20.4205 34.2458 20.2864 34.1117 20.1523 33.9777C20.0182 33.7765 19.9512 33.5754 19.9512 33.3743C19.9512 33.3073 19.9512 33.3073 19.9512 33.3073C19.9512 33.2402 19.9512 33.2402 19.9512 33.1732C20.0182 32.771 20.1523 32.4358 20.4205 32.1676C20.6886 31.8994 21.0238 31.7654 21.4261 31.7654C21.5601 31.7654 21.7612 31.7654 21.9624 31.8324C21.9624 31.7654 22.1635 31.8324 22.4987 31.8994ZM25.1132 29.0838L24.9791 29.8212L24.2417 35.9218L24.778 36.0559V36.257H22.6328V36.0559L23.2361 35.9888L23.9735 29.8212L23.4372 29.7542V29.5531C23.7054 29.486 23.9735 29.419 24.2417 29.3519C24.5769 29.2179 24.8451 29.0838 25.1132 29.0838ZM28.7333 35.8548V35.9888C28.4652 36.0559 28.264 36.1229 27.9959 36.1899C27.7948 36.257 27.5266 36.324 27.3255 36.3911L27.3925 35.5196C27.0573 35.7877 26.9233 35.9218 26.7892 35.9888C26.454 36.1899 26.2529 36.324 26.1188 36.324C25.9177 36.324 25.7165 36.257 25.5825 36.0559C25.4484 35.9218 25.3814 35.7207 25.3814 35.4525C25.3814 35.3855 25.3814 35.3184 25.3814 35.2514C25.4484 34.7821 25.7166 34.3799 26.1188 34.1788C26.1858 34.1117 26.3869 34.1117 26.521 34.0447C27.0573 33.9106 27.3925 33.7765 27.5936 33.7095L27.7277 32.7039C27.7277 32.6369 27.7277 32.6369 27.7277 32.5698C27.7277 32.5028 27.7277 32.5028 27.7277 32.5028C27.7277 32.1006 27.5936 31.9665 27.3255 31.9665C26.9233 31.9665 26.7221 32.3017 26.6551 32.838V32.905C26.3869 32.9721 26.1188 33.0391 25.9177 33.1061V32.905C25.9847 32.7039 25.9847 32.5028 26.0518 32.3687C26.521 32.1006 26.8562 31.9665 27.1244 31.8324C27.3925 31.6983 27.6607 31.6313 27.7948 31.6313C28.3311 31.6313 28.5992 31.9665 28.5992 32.6369C28.5992 32.7039 28.5992 32.7709 28.5992 32.905C28.5992 32.9721 28.5992 33.1061 28.5992 33.1732L28.264 35.7207L28.7333 35.8548ZM27.5936 33.9106C27.1244 34.0447 26.7892 34.1788 26.5881 34.3128C26.3869 34.4469 26.2529 34.648 26.2529 34.9162C26.2529 34.9832 26.2529 35.0503 26.2529 35.0503C26.2529 35.2514 26.3199 35.3855 26.3869 35.4525C26.454 35.5866 26.5881 35.6536 26.7221 35.6536C26.7892 35.6536 26.9233 35.6536 26.9903 35.5866C27.0573 35.5195 27.1914 35.4525 27.3255 35.3855L27.5936 33.9106ZM33.359 31.8324V32.0335L32.8897 32.1006L31.0126 36.257H30.6104L29.6719 32.1006L29.2026 32.0335L29.2696 31.8324H31.4149L31.3478 32.0335L30.6774 32.1676L31.2808 35.1173L32.5545 32.1676L32.0182 32.0335L32.0853 31.8324H33.359ZM40.7333 35.9888L40.6663 36.257H38.0518L38.1188 35.9888L38.9903 35.7877L38.5881 33.9777H36.711L35.9065 35.7877L36.6439 35.9888L36.5769 36.257H34.7668L34.8339 35.9888L35.5043 35.7877L38.1858 29.6871H38.7221L39.9959 35.7877L40.7333 35.9888ZM38.521 33.5754L38.0518 30.9609L36.9121 33.5754H38.521ZM43.0797 29.9553C43.0797 30.1564 43.0127 30.2905 42.8786 30.4246C42.7445 30.5587 42.6104 30.6257 42.4763 30.6257C42.3423 30.6257 42.2082 30.5587 42.1411 30.4916C42.0741 30.3575 42.0071 30.2235 42.0071 30.0894C42.0071 30.0223 42.0071 30.0223 42.0071 30.0223C42.0071 29.8212 42.0741 29.6871 42.2082 29.5531C42.3423 29.419 42.4763 29.3519 42.6104 29.3519C42.7445 29.3519 42.8786 29.419 42.9456 29.5531C43.0126 29.6871 43.0797 29.8212 43.0797 29.9553ZM42.8115 35.9888L42.2752 35.8548L42.8115 31.6313C42.2752 31.8994 41.6719 32.1006 41.2026 32.2346L41.1356 32.4358L41.7389 32.5028L41.3367 35.8548L40.7333 35.9888V36.1899H42.8115V35.9888ZM46.7668 31.7654L46.4316 32.905C46.2305 32.7709 46.0294 32.7039 45.8953 32.7039C45.4931 32.7039 45.2249 32.9721 45.1579 33.5084L44.8897 35.8548L45.5601 35.9888L45.4931 36.1899H43.3478L43.4149 35.9888L43.9512 35.8548L44.3534 32.4358L43.8171 32.3687L43.8842 32.1676C44.4875 31.9665 45.0238 31.7654 45.426 31.5642L45.292 32.7039L45.426 32.7709C45.8283 32.0335 46.2305 31.6313 46.4987 31.6313C46.5657 31.6983 46.6328 31.6983 46.7668 31.7654ZM48.778 29.0838C48.5098 29.1508 48.2417 29.2179 47.9735 29.2849C47.7054 29.352 47.4372 29.419 47.1691 29.486V29.6871L47.7054 29.7542L46.9679 35.9218L46.3646 35.9888L46.2976 36.1899H48.4428L48.5099 35.9888L47.9065 35.8548L48.6439 29.7542L48.778 29.0838ZM51.3925 29.9553C51.3925 30.1564 51.3255 30.2905 51.1914 30.4246C51.0573 30.5587 50.9233 30.6257 50.7892 30.6257C50.6551 30.6257 50.521 30.5587 50.454 30.4916C50.3869 30.3575 50.3199 30.2235 50.3199 30.0894C50.3199 30.0223 50.3199 30.0223 50.3199 30.0223C50.3199 29.8212 50.3869 29.6871 50.521 29.5531C50.6551 29.419 50.7892 29.3519 50.9233 29.3519C51.0573 29.3519 51.1914 29.419 51.2585 29.5531C51.3255 29.6871 51.3925 29.8212 51.3925 29.9553ZM51.1244 35.9888V36.1899H48.9791L49.0462 35.9888L49.6495 35.8548L50.0517 32.5028L49.5154 32.4358V32.2346C50.0518 32.1006 50.521 31.8994 51.1244 31.6313L50.5881 35.8548L51.1244 35.9888ZM56.0182 35.9888V36.1899H54.0741V35.9218L54.6104 35.7877L54.9456 33.1732C54.9456 33.0391 54.9456 32.905 54.9456 32.838C54.9456 32.4358 54.8115 32.1676 54.4763 32.1676C54.4093 32.1676 54.4093 32.1676 54.3422 32.1676C54.2752 32.1676 54.2752 32.1676 54.1411 32.2346L53.5378 32.5028L53.1355 35.8548L53.6048 35.9218V36.1899H51.6607V35.9888L52.197 35.8548L52.5992 32.4358L52.0629 32.3687V32.1676C52.6663 31.9665 53.2026 31.7654 53.6048 31.5642L53.5378 32.4358L54.6774 31.6983L55.0126 31.6313C55.616 31.6313 55.8841 31.9665 55.8841 32.6369C55.8841 32.7709 55.8842 32.905 55.8171 33.0391L55.4819 35.8548L56.0182 35.9888ZM60.1747 35.1844C60.0406 35.3855 59.8395 35.5195 59.7054 35.7207C59.5043 35.9218 59.3702 36.1229 59.2361 36.257C58.9679 36.324 58.6327 36.3911 58.3646 36.3911C57.2249 36.3911 56.6886 35.7877 56.6886 34.581C56.6886 34.4469 56.6886 34.3799 56.6886 34.2458C56.6886 34.1117 56.7557 34.0447 56.7557 33.9777C56.8227 33.2402 57.0909 32.7039 57.4261 32.3017C57.7613 31.8994 58.2305 31.6983 58.8339 31.6983C59.2361 31.6983 59.5713 31.8324 59.8395 32.0335C60.1076 32.2346 60.1747 32.5698 60.1747 32.9721C60.1747 33.0391 60.1747 33.1732 60.1747 33.2402C60.1747 33.3073 60.1747 33.3743 60.1076 33.4413C60.1076 33.5084 60.0406 33.6425 59.9735 33.7095H57.7613V33.8436C57.7613 33.9106 57.7612 34.0447 57.6942 34.1117C57.6942 34.1788 57.6942 34.2458 57.6942 34.3799C57.6942 34.8492 57.7613 35.1844 57.9624 35.4525C58.1635 35.7207 58.3646 35.8548 58.7668 35.8548C59.2361 35.8548 59.7054 35.6536 60.1076 35.1844H60.1747ZM59.2361 33.3073C59.2361 33.1061 59.3032 32.9721 59.3032 32.7709C59.3032 32.1676 59.102 31.8324 58.7668 31.8324C58.4987 31.8324 58.3646 31.9665 58.1635 32.2346C58.0294 32.5028 57.8953 32.905 57.8283 33.4413H59.3032L59.2361 33.3073ZM63.4596 31.8994C63.3925 32.0335 63.3925 32.1676 63.3925 32.2346L63.3255 32.9721H63.2584C63.2584 32.6369 63.1914 32.3687 62.9903 32.1676C62.7892 31.9665 62.5881 31.8994 62.3869 31.8994C62.1858 31.8994 61.9847 31.9665 61.8506 32.1006C61.7166 32.2346 61.6495 32.3687 61.5825 32.4358C61.5825 32.5698 61.5825 32.6369 61.5825 32.7039C61.5825 32.905 61.7166 33.1061 61.9847 33.2402C62.1858 33.3073 62.3199 33.4413 62.521 33.5084C62.9903 33.7765 63.2584 34.1788 63.2584 34.581C63.2584 34.648 63.2584 34.648 63.2584 34.7151C63.2584 34.7821 63.2584 34.7821 63.2584 34.8492C63.1914 35.3184 63.0573 35.6536 62.7221 35.9218C62.454 36.1899 62.1188 36.324 61.6495 36.324C61.2473 36.324 60.8451 36.257 60.4428 36.0559C60.5099 35.7877 60.5098 35.5196 60.5098 35.3184C60.5098 35.1173 60.5098 34.9162 60.5098 34.7821H60.6439C60.6439 35.2514 60.7109 35.5866 60.9121 35.7877C61.1132 36.0559 61.3143 36.1229 61.6495 36.1229C61.8506 36.1229 62.0517 36.0559 62.1858 35.9218C62.3199 35.7877 62.454 35.5866 62.454 35.3855C62.454 35.3184 62.454 35.3184 62.454 35.2514C62.454 34.9832 62.3199 34.7821 62.0517 34.648C61.7836 34.514 61.6495 34.4469 61.5154 34.3799C61.2473 34.2458 61.1132 34.1117 60.9791 33.9777C60.8451 33.7765 60.778 33.5754 60.778 33.3743C60.778 33.3073 60.778 33.3073 60.778 33.3073C60.778 33.2402 60.778 33.2402 60.778 33.1732C60.8451 32.771 60.9791 32.4358 61.2473 32.1676C61.5154 31.8994 61.8506 31.7654 62.2528 31.7654C62.3869 31.7654 62.5881 31.7654 62.7892 31.8324C62.9233 31.7654 63.1244 31.8324 63.4596 31.8994Z" fill="#786A8F"/>
<path fill-rule="evenodd" clip-rule="evenodd" d="M51.7947 25.3297L51.6606 25.1286C51.1913 24.19 50.9902 23.0503 51.4595 22.1788C52.5991 19.9665 56.4874 18.7598 58.4316 17.4191C60.5098 16.0783 61.7165 14.8716 62.4539 12.9274C62.588 12.5252 62.7221 12.0559 62.8561 11.6537L62.9902 10.9163V25.3297H53.8058L53.6047 24.9945C53.2025 24.257 53.0684 23.4526 54.2081 22.8492C56.8226 21.5755 61.3142 20.4358 61.3142 16.6816C59.7723 18.0224 58.2304 18.8939 55.6829 20.2347C54.4762 20.8381 51.8617 22.1118 52.331 24.0559C52.398 24.4582 52.8673 24.9274 53.2695 25.2626L53.4036 25.3297H51.7947Z" fill="#EC3237"/>
</svg>
