<svg width="48" height="48" viewBox="0 0 48 48" fill="none" xmlns="http://www.w3.org/2000/svg">
<path d="M46.5 9.75V29.25C46.5 30.9075 45.1575 32.25 43.5 32.25H36.75C36.5175 32.25 36.285 32.1975 36.0825 32.0925L33.75 30.93L31.4175 32.0925C31.215 32.1975 30.9825 32.25 30.75 32.25H10.5C8.8425 32.25 7.5 30.9075 7.5 29.25V9.75C7.5 8.0925 8.8425 6.75 10.5 6.75H30.75C30.9825 6.75 31.215 6.8025 31.4175 6.9075L33.75 8.07L36.0825 6.9075C36.285 6.8025 36.5175 6.75 36.75 6.75H43.5C45.1575 6.75 46.5 8.0925 46.5 9.75Z" fill="url(#paint0_linear_10468_15127)"/>
<path d="M46.5 9.75V29.25C46.5 30.9075 45.1575 32.25 43.5 32.25H36.75C36.5175 32.25 36.285 32.1975 36.0825 32.0925L33.75 30.93L31.4175 32.0925C31.215 32.1975 30.9825 32.25 30.75 32.25H10.5C8.8425 32.25 7.5 30.9075 7.5 29.25V9.75C7.5 8.0925 8.8425 6.75 10.5 6.75H30.75C30.9825 6.75 31.215 6.8025 31.4175 6.9075L33.75 8.07L36.0825 6.9075C36.285 6.8025 36.5175 6.75 36.75 6.75H43.5C45.1575 6.75 46.5 8.0925 46.5 9.75Z" fill="url(#paint1_linear_10468_15127)"/>
<path d="M46.5 23.505V29.25C46.5 30.9075 45.1575 32.25 43.5 32.25H36.75L39.675 16.68L46.5 23.505Z" fill="url(#paint2_linear_10468_15127)"/>
<path d="M40.5 18.75V38.25C40.5 39.9075 39.1575 41.25 37.5 41.25H30.75C30.5175 41.25 30.285 41.1975 30.0825 41.0925L27.75 39.93L25.4175 41.0925C25.215 41.1975 24.9825 41.25 24.75 41.25H4.5C2.8425 41.25 1.5 39.9075 1.5 38.25V18.75C1.5 17.0925 2.8425 15.75 4.5 15.75H24.75C24.9825 15.75 25.215 15.8025 25.4175 15.9075L27.75 17.07L30.0825 15.9075C30.285 15.8025 30.5175 15.75 30.75 15.75H37.5C39.1575 15.75 40.5 17.0925 40.5 18.75Z" fill="url(#paint3_linear_10468_15127)"/>
<path d="M27.75 23.25C26.922 23.25 26.25 22.578 26.25 21.75V20.25C26.25 19.422 26.922 18.75 27.75 18.75C28.578 18.75 29.25 19.422 29.25 20.25V21.75C29.25 22.578 28.578 23.25 27.75 23.25Z" fill="#27A6FF"/>
<path d="M27.75 33.75C26.922 33.75 26.25 34.422 26.25 35.25V36.75C26.25 37.578 26.922 38.25 27.75 38.25C28.578 38.25 29.25 37.578 29.25 36.75V35.25C29.25 34.422 28.578 33.75 27.75 33.75Z" fill="#27A6FF"/>
<path d="M27.75 30.75C26.922 30.75 26.25 30.078 26.25 29.25V27.75C26.25 26.922 26.922 26.25 27.75 26.25C28.578 26.25 29.25 26.922 29.25 27.75V29.25C29.25 30.078 28.578 30.75 27.75 30.75Z" fill="#27A6FF"/>
<path d="M20.5605 22.1895C19.9755 21.6037 19.0245 21.6037 18.4395 22.1895L16.6995 23.9295L10.6657 23.259C9.843 23.1652 9.1005 23.7607 9.00975 24.5842C8.91825 25.4077 9.5115 26.1487 10.335 26.2402L13.983 26.6452L11.379 29.25H9C8.172 29.25 7.5 29.922 7.5 30.75C7.5 31.578 8.172 32.25 9 32.25H10.5V33.75C10.5 34.578 11.172 35.25 12 35.25C12.828 35.25 13.5 34.578 13.5 33.75V31.371L16.104 28.767L16.509 32.415C16.5945 33.183 17.244 33.75 17.9985 33.75C18.054 33.75 18.1095 33.747 18.1658 33.741C18.9893 33.6495 19.5825 32.9077 19.491 32.085L18.8205 26.0512L20.5605 24.3112C21.1462 23.7247 21.1462 22.7752 20.5605 22.1895Z" fill="url(#paint4_linear_10468_15127)"/>
<defs>
<linearGradient id="paint0_linear_10468_15127" x1="27" y1="6.75" x2="27" y2="32.25" gradientUnits="userSpaceOnUse">
<stop offset="1.1188e-07" stop-color="#A47AF4"/>
<stop offset="0.4469" stop-color="#8954DD"/>
<stop offset="1" stop-color="#6936BA"/>
</linearGradient>
<linearGradient id="paint1_linear_10468_15127" x1="27" y1="6.75" x2="27" y2="32.25" gradientUnits="userSpaceOnUse">
<stop offset="1.1188e-07" stop-color="#A47AF4"/>
<stop offset="0.4469" stop-color="#8954DD"/>
<stop offset="1" stop-color="#6936BA"/>
</linearGradient>
<linearGradient id="paint2_linear_10468_15127" x1="46.5" y1="24.465" x2="36.75" y2="24.465" gradientUnits="userSpaceOnUse">
<stop offset="0.144" stop-opacity="0"/>
<stop offset="0.7725" stop-color="#212335" stop-opacity="0.3"/>
</linearGradient>
<linearGradient id="paint3_linear_10468_15127" x1="1.5" y1="28.5" x2="40.5" y2="28.5" gradientUnits="userSpaceOnUse">
<stop stop-color="#A4EEFF"/>
<stop offset="0.7319" stop-color="#02C0FC"/>
<stop offset="1" stop-color="#27A6FF"/>
</linearGradient>
<linearGradient id="paint4_linear_10468_15127" x1="14.25" y1="21.75" x2="14.25" y2="35.25" gradientUnits="userSpaceOnUse">
<stop stop-color="#4D5460"/>
<stop offset="0.4469" stop-color="#384051"/>
<stop offset="1" stop-color="#212335"/>
</linearGradient>
</defs>
</svg>
