<svg width="48" height="48" viewBox="0 0 48 48" fill="none" xmlns="http://www.w3.org/2000/svg">
<g clip-path="url(#clip0_10468_15141)">
<path d="M9.84375 43.7812H21.0938V4.21875H9.84375V43.7812ZM43.7812 14.1562H29.5312C28.754 14.1562 28.125 14.7852 28.125 15.5625V35.25C28.125 36.0273 28.754 36.6562 29.5312 36.6562H43.7812C46.1076 36.6562 48 34.7638 48 32.4375V18.375C48 16.0487 46.1076 14.1562 43.7812 14.1562Z" fill="url(#paint0_linear_10468_15141)"/>
<path d="M40.9688 19.7812H35.1562C34.379 19.7812 33.75 20.4102 33.75 21.1875C33.75 21.9648 34.379 22.5938 35.1562 22.5938H40.9688C41.746 22.5938 42.375 21.9648 42.375 21.1875C42.375 20.4102 41.746 19.7812 40.9688 19.7812ZM26.7188 0H4.21875C1.88428 0 0 1.88428 0 4.21875V43.7812C0 46.1155 1.88428 48 4.21875 48H26.7188C29.0532 48 30.9375 46.1155 30.9375 43.7812V4.21875C30.9375 1.88428 29.0532 0 26.7188 0ZM14.0625 5.625H16.875C17.6626 5.625 18.2812 6.24366 18.2812 7.03125C18.2812 7.81866 17.6626 8.4375 16.875 8.4375H14.0625C13.2749 8.4375 12.6562 7.81866 12.6562 7.03125C12.6562 6.24366 13.2749 5.625 14.0625 5.625ZM16.875 42.375H14.0625C13.2749 42.375 12.6562 41.7562 12.6562 40.9688C12.6562 40.1812 13.2749 39.5625 14.0625 39.5625H16.875C17.6626 39.5625 18.2812 40.1812 18.2812 40.9688C18.2812 41.7562 17.6626 42.375 16.875 42.375ZM19.5469 21.5812C18.928 22.0312 18.028 21.8906 17.6063 21.2436C16.8187 20.1187 15.8625 19.5843 15.0468 19.8373C14.4562 20.0343 14.0625 20.5687 14.0625 21.1875C14.0625 21.9749 14.6812 22.5938 15.4688 22.5938C17.8032 22.5938 19.6875 24.478 19.6875 26.8125C19.6875 28.6125 18.5624 30.1594 16.875 30.778V32.4375C16.875 33.2249 16.2563 33.8438 15.4688 33.8438C14.6812 33.8438 14.0625 33.2249 14.0625 32.4375V30.778C12.9374 30.4124 11.8968 29.5969 11.0249 28.3593C10.6031 27.7404 10.7437 26.8686 11.3905 26.4187C12.0375 25.9688 12.9094 26.1375 13.3312 26.7562C14.1188 27.8812 15.0468 28.4156 15.8906 28.1624C16.4813 27.9655 16.875 27.4312 16.875 26.8125C16.875 26.0249 16.2563 25.4062 15.4688 25.4062C13.1343 25.4062 11.25 23.5218 11.25 21.1875C11.25 19.3875 12.3751 17.8406 14.0625 17.2218V15.5625C14.0625 14.7749 14.6812 14.1562 15.4688 14.1562C16.2563 14.1562 16.875 14.7749 16.875 15.5625V17.2499C18.0001 17.6155 19.0407 18.4031 19.9126 19.6406C20.3343 20.2593 20.1938 21.1594 19.5469 21.5812Z" fill="url(#paint1_linear_10468_15141)"/>
</g>
<defs>
<linearGradient id="paint0_linear_10468_15141" x1="28.9219" y1="43.7812" x2="28.9219" y2="4.21875" gradientUnits="userSpaceOnUse">
<stop stop-color="#ADDCFF"/>
<stop offset="0.5028" stop-color="#EAF6FF"/>
<stop offset="1" stop-color="#EAF6FF"/>
</linearGradient>
<linearGradient id="paint1_linear_10468_15141" x1="21.1875" y1="48" x2="21.1875" y2="0" gradientUnits="userSpaceOnUse">
<stop stop-color="#5558FF"/>
<stop offset="1" stop-color="#00C0FF"/>
</linearGradient>
<clipPath id="clip0_10468_15141">
<rect width="48" height="48" fill="white"/>
</clipPath>
</defs>
</svg>
