<svg width="48" height="48" viewBox="0 0 48 48" fill="none" xmlns="http://www.w3.org/2000/svg">
<g clip-path="url(#clip0_10468_15112)">
<path d="M12.7868 12.642C10.4878 7.585 13.6478 3.77 16.8218 2.506V2.514C16.8608 2.024 16.9248 1.583 16.9918 1.212C17.1208 0.507 17.7398 0 18.4578 0H27.8648C33.7178 0 37.5588 6.826 35.3848 12.802L33.8988 16.889H14.7178L12.7878 12.643L12.7868 12.642Z" fill="url(#paint0_linear_10468_15112)"/>
<path d="M38.0002 48H10.0002C8.51216 48 7.11115 47.342 6.15815 46.194C5.20315 45.045 4.81315 43.544 5.08715 42.076L6.50815 34.505C6.99915 31.857 8.93016 29.764 11.5452 29.045L18.4782 27.156C22.0892 26.171 25.9102 26.171 29.5232 27.156L36.4542 29.045H36.4562C39.0712 29.764 41.0022 31.857 41.4942 34.507L42.9132 42.075C43.1872 43.543 42.7982 45.044 41.8432 46.194C40.8902 47.342 39.4882 48 38.0002 48Z" fill="url(#paint1_linear_10468_15112)"/>
<path opacity="0.5" d="M23 32H25V48H23V32Z" fill="url(#paint2_linear_10468_15112)"/>
<path d="M17 40H14C13.447 40 13 39.552 13 39C13 38.448 13.447 38 14 38H17C17.553 38 18 38.448 18 39C18 39.552 17.553 40 17 40Z" fill="url(#paint3_linear_10468_15112)"/>
<path d="M22 26H26C29.866 26 33 29.134 33 33C33 34.105 32.105 35 31 35H17C15.895 35 15 34.105 15 33C15 29.134 18.134 26 22 26Z" fill="url(#paint4_linear_10468_15112)"/>
<path d="M19 24.04V30C19 32.761 21.239 35 24 35C26.761 35 29 32.761 29 30V24.04H19Z" fill="url(#paint5_linear_10468_15112)"/>
<path d="M33.001 24H28C27.447 24 27 23.552 27 23C27 22.448 27.447 22 28 22H33.001C33.553 22 34.001 21.551 34.001 21V18C34.001 17.448 34.448 17 35.001 17C35.554 17 36.001 17.448 36.001 18V21C36.001 22.654 34.655 24 33.001 24Z" fill="url(#paint6_linear_10468_15112)"/>
<path d="M34 20H32C31.447 20 31 19.552 31 19V13C31 12.448 31.447 12 32 12H34C35.654 12 37 13.346 37 15V17C37 18.654 35.654 20 34 20Z" fill="url(#paint7_linear_10468_15112)"/>
<path d="M11 17V15C11 13.346 12.346 12 14 12H16C16.553 12 17 12.448 17 13V19C17 19.552 16.553 20 16 20H14C12.346 20 11 18.654 11 17Z" fill="url(#paint8_linear_10468_15112)"/>
<path d="M15 20V13C15 10.791 16.791 9 19 9H29C31.209 9 33 10.791 33 13V20C33 21.921 32.237 23.763 30.879 25.121L29.122 26.878C27.764 28.236 25.922 28.999 24.001 28.999C22.08 28.999 20.238 28.236 18.88 26.878L17.123 25.121C15.765 23.763 15.002 21.921 15.002 20H15Z" fill="url(#paint9_linear_10468_15112)"/>
<path d="M33.001 24H28C27.447 24 27 23.552 27 23C27 22.448 27.447 22 28 22H33.001V24Z" fill="url(#paint10_linear_10468_15112)"/>
<path d="M27 21H25C23.8954 21 23 21.8954 23 23C23 24.1046 23.8954 25 25 25H27C28.1046 25 29 24.1046 29 23C29 21.8954 28.1046 21 27 21Z" fill="url(#paint11_linear_10468_15112)"/>
</g>
<defs>
<linearGradient id="paint0_linear_10468_15112" x1="11.6938" y1="3.002" x2="32.9038" y2="14.009" gradientUnits="userSpaceOnUse">
<stop stop-color="#3E4154"/>
<stop offset="1" stop-color="#1B2129"/>
</linearGradient>
<linearGradient id="paint1_linear_10468_15112" x1="24.0002" y1="27.548" x2="24.0002" y2="48.275" gradientUnits="userSpaceOnUse">
<stop stop-color="#4793EB"/>
<stop offset="1" stop-color="#2367EC"/>
</linearGradient>
<linearGradient id="paint2_linear_10468_15112" x1="24" y1="34.618" x2="24" y2="47.709" gradientUnits="userSpaceOnUse">
<stop stop-color="#2B50D2"/>
<stop offset="1" stop-color="#182EA5"/>
</linearGradient>
<linearGradient id="paint3_linear_10468_15112" x1="13.043" y1="37.993" x2="17.801" y2="39.943" gradientUnits="userSpaceOnUse">
<stop stop-color="white"/>
<stop offset="1" stop-color="#DADFE0"/>
</linearGradient>
<linearGradient id="paint4_linear_10468_15112" x1="24" y1="27.166" x2="24" y2="34.66" gradientUnits="userSpaceOnUse">
<stop stop-color="#6FC6FC"/>
<stop offset="1" stop-color="#50A7F6"/>
</linearGradient>
<linearGradient id="paint5_linear_10468_15112" x1="19.655" y1="26.465" x2="28.827" y2="30.936" gradientUnits="userSpaceOnUse">
<stop stop-color="#F1D2BD"/>
<stop offset="1" stop-color="#FEB592"/>
</linearGradient>
<linearGradient id="paint6_linear_10468_15112" x1="31.5" y1="19.255" x2="31.5" y2="23.77" gradientUnits="userSpaceOnUse">
<stop stop-color="#C6CBCC"/>
<stop offset="1" stop-color="#9FA5A6"/>
</linearGradient>
<linearGradient id="paint7_linear_10468_15112" x1="34" y1="12.261" x2="34" y2="20.068" gradientUnits="userSpaceOnUse">
<stop stop-color="#4793EB"/>
<stop offset="1" stop-color="#2367EC"/>
</linearGradient>
<linearGradient id="paint8_linear_10468_15112" x1="14" y1="12.261" x2="14" y2="20.068" gradientUnits="userSpaceOnUse">
<stop stop-color="#4793EB"/>
<stop offset="1" stop-color="#2367EC"/>
</linearGradient>
<linearGradient id="paint9_linear_10468_15112" x1="24" y1="9.624" x2="24" y2="29.098" gradientUnits="userSpaceOnUse">
<stop stop-color="#F1D2BD"/>
<stop offset="0.314" stop-color="#F2CFB9"/>
<stop offset="0.608" stop-color="#F5C7AD"/>
<stop offset="0.894" stop-color="#FBBB9B"/>
<stop offset="1" stop-color="#FEB592"/>
</linearGradient>
<linearGradient id="paint10_linear_10468_15112" x1="30" y1="7.08401e-07" x2="30" y2="23.77" gradientUnits="userSpaceOnUse">
<stop stop-color="#C6CBCC"/>
<stop offset="1" stop-color="#9FA5A6"/>
</linearGradient>
<linearGradient id="paint11_linear_10468_15112" x1="26" y1="20.898" x2="26" y2="24.569" gradientUnits="userSpaceOnUse">
<stop stop-color="#4793EB"/>
<stop offset="1" stop-color="#2367EC"/>
</linearGradient>
<clipPath id="clip0_10468_15112">
<rect width="48" height="48" fill="white"/>
</clipPath>
</defs>
</svg>
