<svg width="24" height="24" viewBox="0 0 24 24" fill="none" xmlns="http://www.w3.org/2000/svg">
<path d="M20.9036 5.94263H5.39718C5.0678 5.94263 4.80078 6.21633 4.80078 6.55395V15.1125C4.80078 15.4501 5.0678 15.7238 5.39718 15.7238H20.9036C21.2329 15.7238 21.5 15.4501 21.5 15.1125V6.55395C21.5 6.21633 21.2329 5.94263 20.9036 5.94263Z" stroke="#22924E" stroke-linecap="round" stroke-linejoin="round"/>
<path d="M18.6028 8.27588H3.0964C2.76702 8.27588 2.5 8.54958 2.5 8.8872V17.4458C2.5 17.7834 2.76702 18.0571 3.0964 18.0571H18.6028C18.9322 18.0571 19.1992 17.7834 19.1992 17.4458V8.8872C19.1992 8.54958 18.9322 8.27588 18.6028 8.27588Z" fill="white" stroke="#22924E" stroke-linecap="round" stroke-linejoin="round"/>
<path d="M10.8504 15.6118C12.168 15.6118 13.236 14.517 13.236 13.1665C13.236 11.816 12.168 10.7212 10.8504 10.7212C9.53291 10.7212 8.46484 11.816 8.46484 13.1665C8.46484 14.517 9.53291 15.6118 10.8504 15.6118Z" stroke="#FAAD14" stroke-linecap="round" stroke-linejoin="round"/>
<path d="M14.4297 8.27588L19.2009 12.5552" stroke="#22924E" stroke-linecap="round" stroke-linejoin="round"/>
<path d="M14.4297 18.0571L19.2009 13.7778" stroke="#22924E" stroke-linecap="round" stroke-linejoin="round"/>
<path d="M7.27119 8.27588L2.5 12.5552" stroke="#22924E" stroke-linecap="round" stroke-linejoin="round"/>
<path d="M7.27119 18.0571L2.5 13.7778" stroke="#22924E" stroke-linecap="round" stroke-linejoin="round"/>
</svg>
