<svg width="24" height="24" viewBox="0 0 24 24" fill="none" xmlns="http://www.w3.org/2000/svg">
<path d="M22.2857 0H1.71429C1.25963 0 0.823593 0.252856 0.502103 0.702944C0.180612 1.15303 0 1.76348 0 2.4V21.6C0 22.2365 0.180612 22.847 0.502103 23.2971C0.823593 23.7471 1.25963 24 1.71429 24H22.2857C22.7404 24 23.1764 23.7471 23.4979 23.2971C23.8194 22.847 24 22.2365 24 21.6V2.4C24 1.76348 23.8194 1.15303 23.4979 0.702944C23.1764 0.252856 22.7404 0 22.2857 0ZM12.8571 19.2H11.1429C10.9155 19.2 10.6975 19.0736 10.5368 18.8485C10.376 18.6235 10.2857 18.3183 10.2857 18C10.2857 17.6817 10.376 17.3765 10.5368 17.1515C10.6975 16.9264 10.9155 16.8 11.1429 16.8H12.8571C13.0845 16.8 13.3025 16.9264 13.4632 17.1515C13.624 17.3765 13.7143 17.6817 13.7143 18C13.7143 18.3183 13.624 18.6235 13.4632 18.8485C13.3025 19.0736 13.0845 19.2 12.8571 19.2ZM19.7143 19.2H16.2857C16.0584 19.2 15.8404 19.0736 15.6796 18.8485C15.5189 18.6235 15.4286 18.3183 15.4286 18C15.4286 17.6817 15.5189 17.3765 15.6796 17.1515C15.8404 16.9264 16.0584 16.8 16.2857 16.8H19.7143C19.9416 16.8 20.1596 16.9264 20.3204 17.1515C20.4811 17.3765 20.5714 17.6817 20.5714 18C20.5714 18.3183 20.4811 18.6235 20.3204 18.8485C20.1596 19.0736 19.9416 19.2 19.7143 19.2ZM1.71429 6V2.4H22.2857V6H1.71429Z" fill="#F27145"/>
</svg>
